<svg xmlns="http://www.w3.org/2000/svg" width="40" height="34" viewBox="0 0 40 34" fill="none">
  <path d="M39.5625 18.625C39.5625 18.9167 39.4583 19.1771 39.25 19.4062C39.0417 19.6146 38.7396 19.7188 38.3438 19.7188C38.0521 19.7188 37.7396 19.7083 37.4062 19.6875C37.0938 19.6667 36.6354 19.6562 36.0312 19.6562C35.7188 19.6562 35.25 19.6771 34.625 19.7188C34.0208 19.7396 33.3229 19.7812 32.5312 19.8438C31.7604 19.9062 30.9271 19.9792 30.0312 20.0625C29.1354 20.125 28.2292 20.1979 27.3125 20.2812C27.3333 20.3854 27.3438 20.5521 27.3438 20.7812C27.3438 22.8021 26.8958 24.5938 26 26.1562C25.125 27.7188 23.9479 29.0417 22.4688 30.125C21.0104 31.1875 19.3125 32 17.375 32.5625C15.4375 33.1042 13.4271 33.375 11.3438 33.375C9.84375 33.375 8.42708 33.1667 7.09375 32.75C5.78125 32.3333 4.625 31.7292 3.625 30.9375C2.64583 30.1458 1.86458 29.1771 1.28125 28.0312C0.71875 26.8854 0.4375 25.5729 0.4375 24.0938C0.4375 22.9062 0.677083 21.8125 1.15625 20.8125C1.63542 19.8125 2.28125 18.9271 3.09375 18.1562C3.92708 17.3646 4.90625 16.6979 6.03125 16.1562C7.15625 15.6146 8.375 15.1979 9.6875 14.9062C9.3125 14.7396 8.91667 14.5104 8.5 14.2188C8.10417 13.9062 7.73958 13.5417 7.40625 13.125C7.07292 12.6875 6.79167 12.1979 6.5625 11.6562C6.35417 11.0938 6.25 10.4792 6.25 9.8125C6.25 8.22917 6.60417 6.85417 7.3125 5.6875C8.04167 4.52083 8.96875 3.55208 10.0938 2.78125C11.2188 2.01042 12.4583 1.4375 13.8125 1.0625C15.1875 0.6875 16.5208 0.5 17.8125 0.5C18.9375 0.5 19.9792 0.635417 20.9375 0.90625C21.9167 1.15625 22.75 1.52083 23.4375 2C24.1458 2.45833 24.6979 3.03125 25.0938 3.71875C25.5104 4.38542 25.7188 5.125 25.7188 5.9375C25.7188 6.625 25.5833 7.28125 25.3125 7.90625C25.0417 8.51042 24.6667 9.04167 24.1875 9.5C23.7292 9.95833 23.1771 10.3229 22.5312 10.5938C21.9062 10.8438 21.2188 10.9688 20.4688 10.9688C19.8021 10.9688 19.2083 10.875 18.6875 10.6875C18.1875 10.4792 17.7604 10.2396 17.4062 9.96875C17.0521 9.67708 16.7812 9.38542 16.5938 9.09375C16.4062 8.78125 16.3125 8.52083 16.3125 8.3125C16.3125 7.97917 16.4167 7.69792 16.625 7.46875C16.8542 7.23958 17.1354 7.125 17.4688 7.125C17.6979 7.125 17.875 7.1875 18 7.3125C18.125 7.41667 18.25 7.54167 18.375 7.6875C18.5833 7.9375 18.8333 8.1875 19.125 8.4375C19.4375 8.6875 19.9271 8.8125 20.5938 8.8125C21.0521 8.8125 21.4479 8.73958 21.7812 8.59375C22.1146 8.42708 22.3958 8.21875 22.625 7.96875C22.8542 7.69792 23.0208 7.40625 23.125 7.09375C23.25 6.76042 23.3125 6.4375 23.3125 6.125C23.3125 5.72917 23.1979 5.33333 22.9688 4.9375C22.7604 4.54167 22.4375 4.1875 22 3.875C21.5625 3.5625 21 3.3125 20.3125 3.125C19.625 2.9375 18.8125 2.84375 17.875 2.84375C16.9375 2.84375 15.9271 2.97917 14.8438 3.25C13.7812 3.5 12.7812 3.89583 11.8438 4.4375C10.9271 4.95833 10.1562 5.64583 9.53125 6.5C8.92708 7.33333 8.625 8.32292 8.625 9.46875C8.625 10.2188 8.75 10.8542 9 11.375C9.27083 11.875 9.63542 12.2917 10.0938 12.625C10.5521 12.9583 11.0938 13.2292 11.7188 13.4375C12.3646 13.625 13.0729 13.7917 13.8438 13.9375C14.1354 14 14.4062 14.0625 14.6562 14.125C14.9271 14.1667 15.1562 14.2396 15.3438 14.3438C15.5521 14.4271 15.7083 14.5521 15.8125 14.7188C15.9375 14.8646 16 15.0729 16 15.3438C16 15.6771 15.8854 15.9479 15.6562 16.1562C15.4479 16.3438 15.1562 16.4375 14.7812 16.4375C14.4062 16.4375 13.8542 16.4583 13.125 16.5C12.3958 16.5417 11.5833 16.6562 10.6875 16.8438C9.8125 17.0104 8.90625 17.2604 7.96875 17.5938C7.03125 17.9062 6.17708 18.3542 5.40625 18.9375C4.65625 19.5 4.03125 20.1979 3.53125 21.0312C3.05208 21.8646 2.8125 22.875 2.8125 24.0625C2.8125 25.25 3.03125 26.2917 3.46875 27.1875C3.92708 28.0625 4.54167 28.7917 5.3125 29.375C6.08333 29.9375 6.97917 30.3646 8 30.6562C9.04167 30.9271 10.1562 31.0625 11.3438 31.0625C13.0104 31.0625 14.6562 30.8646 16.2812 30.4688C17.9271 30.0521 19.3958 29.4271 20.6875 28.5938C21.9792 27.7604 23.0208 26.7083 23.8125 25.4375C24.625 24.1667 25.0312 22.6771 25.0312 20.9688C25.0312 20.8854 25.0208 20.8125 25 20.75C25 20.6667 25 20.5729 25 20.4688C23.875 20.5729 22.8542 20.6771 21.9375 20.7812C21.0417 20.8646 20.3333 20.9271 19.8125 20.9688C19.6458 20.9896 19.5 21.0104 19.375 21.0312C19.2708 21.0312 19.1875 21.0312 19.125 21.0312C18.7708 21.0312 18.4688 20.9271 18.2188 20.7188C17.9688 20.5104 17.8438 20.2083 17.8438 19.8125C17.8438 19.5208 17.9375 19.2708 18.125 19.0625C18.3333 18.8333 18.6042 18.6979 18.9375 18.6562C19.5417 18.5938 20.3229 18.5104 21.2812 18.4062C22.2396 18.3021 23.2812 18.2083 24.4062 18.125C25.5521 18.0208 26.7292 17.9271 27.9375 17.8438C29.1458 17.7396 30.2917 17.6458 31.375 17.5625C32.4792 17.4792 33.4792 17.4167 34.375 17.375C35.2917 17.3333 36.0208 17.3125 36.5625 17.3125C37.7292 17.3125 38.5208 17.4167 38.9375 17.625C39.3542 17.8333 39.5625 18.1667 39.5625 18.625Z" fill="#110E0C"/>
</svg>