<svg xmlns="http://www.w3.org/2000/svg" width="22" height="22" viewBox="0 0 22 22" fill="none"><path d="M21.7072 6.27968 22 .33094s-2.6814.042218-6.4087.0c-5.5289.084437-4.3986 4.90145-4.3986 4.90145S11.3343 5.3822 11.5658 5.63006C11.288 5.60146 11.0089 5.59601 10.731 5.60963 12.1909.294169 6.27929.292807 6.27929.292807L.330919.0s.042216 2.68157.0 6.40906C.415351 11.9383 5.23206 10.808 5.23206 10.808S5.38459 10.665 5.63516 10.4294C5.6052 10.7086 5.59567 10.9891 5.60792 11.2697.29415 9.81107.292789 15.7217.292789 15.7217L0 21.6704S2.6814 21.6282 6.40867 21.6704C11.9376 21.586 10.8073 16.769 10.8073 16.769S10.6779 16.6314 10.4669 16.4053C10.731 16.4326 10.9952 16.4394 11.2594 16.4285c-1.4217 5.2773 4.4613 5.2787 4.4613 5.2787L21.6691 22S21.6269 19.3184 21.6691 15.5909C21.5846 10.0617 16.7679 11.192 16.7679 11.192S16.6331 11.3187 16.4098 11.5284C16.4343 11.2669 16.4397 11.0027 16.4261 10.7399c5.2784 1.4232 5.2797-4.46158 5.2797-4.46158L21.7072 6.27968zM4.88617 6.04135c-.18385-.57472.48071-1.22434 1.04586-1.02278L8.75642 6.02501C8.529 6.15848 8.30702 6.30556 8.08914 6.46218 8.05645 6.48397 8.02241 6.50576 7.98972 6.52755 7.97066 6.5398 7.95159 6.55342 7.93389 6.56704 7.8835 6.60109 7.83448 6.6365 7.78545 6.67327 7.75686 6.69506 7.72962 6.71685 7.70102 6.73864 7.66153 6.7686 7.62204 6.79993 7.58254 6.83125 7.54305 6.86394 7.50356 6.89798 7.46543 6.93203 7.43819 6.95518 7.41096 6.97833 7.38372 7.00285 7.31835 7.06277 7.25299 7.12406 7.18898 7.18807 7.1277 7.24935 7.06778 7.31336 7.00922 7.37737 6.9888 7.39916 6.97109 7.42095 6.95067 7.4441 6.9139 7.48632 6.87713 7.52854 6.84172 7.57212 6.82266 7.59527 6.80495 7.61842 6.78589 7.64021 6.41547 8.06376 6.09954 8.51863 5.83262 8.99257L4.8848 6.04271 4.88617 6.04135zM8.90894 16.0622l-2.86115.9192C5.49081 17.1598 4.86029 16.5157 5.05639 15.9668L6.03281 13.2281C6.08864 13.3247 6.14992 13.4187 6.20984 13.5127 6.25342 13.5808 6.29836 13.6502 6.34466 13.717c.26011.3813.55289.7449.89062 1.0827C7.53488 15.0993 7.85627 15.3635 8.18991 15.6018 8.29205 15.674 8.39418 15.7476 8.49904 15.8143 8.63386 15.9015 8.77004 15.9845 8.90894 16.0622zm-.73537-2.2335c-1.56199-1.5621-1.56199-4.0939.0-5.65599 1.56199-1.56209 4.09363-1.56209 5.65563.0 1.5619 1.56209 1.5619 4.09389.0 5.65599-1.562 1.562-4.09364 1.562-5.65563.0zm8.60393 2.243C16.9395 16.6205 16.2954 17.2211 15.7629 17.0168l-2.6364-1.0105L13.1088 15.9995C13.2068 15.945 13.3035 15.8865 13.4002 15.8279 13.8482 15.5555 14.2772 15.2382 14.6735 14.861 15.0738 14.4783 15.417 14.0602 15.7125 13.6189 15.7929 13.4991 15.8719 13.3779 15.9454 13.2539L15.9481 13.2621l.8294 2.8082V16.0717zM17.1111 6.06042 16.0149 8.92448 16.0012 8.95852C15.989 8.93673 15.9754 8.91495 15.9617 8.89316 15.6335 8.31163 15.24 7.75597 14.7579 7.25071 14.4461 6.92386 14.1124 6.63105 13.7624 6.36957 13.7175 6.33552 13.6725 6.30284 13.6262 6.27015 13.4233 6.12443 13.2163 5.98824 13.0039 5.86158l3.075-.90838C16.6781 4.77615 17.3331 5.48025 17.1111 6.06042z" fill="#faffed"/></svg>