<svg xmlns="http://www.w3.org/2000/svg" width="152" height="157" viewBox="0 0 152 157" fill="none">
  <g clip-path="url(#clip0_1501_93755)">
    <path d="M141.785 76.265C140.605 79.515 140.595 82.825 140.265 86.215C140.265 86.275 140.355 86.285 140.365 86.225C141.545 79.185 145.095 73.775 150.105 68.865C151.845 67.165 148.945 64.705 147.385 66.765C145.155 69.705 143.045 72.765 141.785 76.265Z" fill="#B6A893"/>
    <path d="M142.695 86.195C142.685 86.255 142.775 86.285 142.795 86.225C143.435 83.935 145.145 81.835 146.795 80.185C147.565 79.415 148.385 78.695 149.295 78.095C150.145 77.535 150.715 77.335 150.875 76.235C150.975 75.565 150.715 74.695 149.925 74.565C149.815 74.545 149.705 74.525 149.595 74.505C149.015 74.405 148.315 74.455 147.895 74.955C145.095 78.355 143.465 81.875 142.695 86.195Z" fill="#B6A893"/>
    <path d="M145.245 84.2149C144.405 85.1949 143.735 86.2049 143.165 87.3449C143.145 87.3849 143.185 87.4349 143.235 87.4149C144.115 86.9049 145.085 86.4149 146.025 86.0049C146.995 85.5749 147.855 85.4449 148.875 85.3149C151.415 84.9949 150.975 81.3749 148.405 81.8149C147.155 82.0249 146.025 83.2949 145.245 84.2149Z" fill="#B6A893"/>
    <path d="M139.635 105.975C134.885 98.6949 132.385 90.3849 132.165 81.6949C132.165 81.6349 132.075 81.6349 132.075 81.6949C131.235 90.6449 133.015 99.4649 137.055 107.485C137.925 109.205 140.705 107.595 139.645 105.975H139.635Z" fill="#B6A893"/>
    <path d="M130.415 80.1748C128.655 86.1448 127.465 91.8348 127.815 98.1048C127.855 98.7748 128.285 99.4948 128.985 99.6448C129.535 99.7648 129.725 99.7348 130.215 99.4848C130.885 99.1348 131.065 98.3548 130.945 97.6848C129.985 92.0148 129.505 85.9048 130.495 80.2048C130.505 80.1448 130.415 80.1148 130.395 80.1748H130.415Z" fill="#B6A893"/>
    <path d="M128.935 79.0348C126.615 81.9348 124.265 85.5548 124.085 89.3848C124.015 90.9848 126.275 91.1448 126.755 89.7448C127.905 86.3648 128.095 82.5748 129.095 79.1248C129.115 79.0448 128.995 78.9548 128.935 79.0348Z" fill="#B6A893"/>
    <path d="M139.825 34.375C140.015 27.345 141.335 20.175 145.875 14.535C145.915 14.485 145.845 14.415 145.805 14.465C140.465 20.075 136.235 26.495 135.425 34.375C135.135 37.155 139.755 37.255 139.835 34.375H139.825Z" fill="#B6A893"/>
    <path d="M145.285 33.1148C145.375 26.8248 145.525 20.5948 148.335 14.7848C148.365 14.7248 148.285 14.6748 148.245 14.7348C144.765 20.2948 141.635 26.3748 141.535 33.1148C141.495 35.5248 145.255 35.5348 145.285 33.1148Z" fill="#B6A893"/>
    <path d="M146.585 31.725C147.695 35.025 152.525 32.325 150.185 29.625C148.805 28.025 148.955 24.945 148.945 22.945C148.945 20.595 149.115 18.215 149.695 15.935C149.715 15.875 149.625 15.845 149.595 15.905C148.505 18.715 147.465 21.475 146.925 24.455C146.505 26.775 145.805 29.415 146.575 31.715L146.585 31.725Z" fill="#B6A893"/>
    <path d="M109.685 44.305C110.415 44.145 111.135 43.975 111.845 43.745C113.965 43.055 116.025 42.125 117.845 40.815C122.585 37.395 123.895 32.325 125.455 27.115C120.245 28.675 115.175 29.985 111.755 34.725C110.445 36.545 109.515 38.605 108.825 40.725C108.595 41.435 108.425 42.155 108.265 42.885C108.195 43.185 107.865 44.365 108.025 44.065C107.905 44.305 107.835 44.535 107.825 44.755C108.045 44.745 108.275 44.685 108.515 44.555C108.215 44.715 109.385 44.375 109.695 44.315L109.685 44.305ZM113.355 37.055C115.595 32.475 119.945 30.365 124.305 28.265C122.205 32.625 120.095 36.975 115.515 39.215C114.535 39.695 113.465 39.975 112.375 40.205C112.605 39.115 112.885 38.045 113.365 37.065L113.355 37.055Z" fill="#B6A893"/>
    <path d="M107.635 48.4249C108.915 48.3649 110.165 48.5949 111.445 48.6449C113.115 48.7049 114.775 48.4949 116.055 47.4949C118.275 49.5549 121.495 48.9749 123.245 46.6049C123.165 46.7149 125.405 47.7649 125.665 47.8449C127.455 48.3949 129.385 48.2349 131.135 47.6249C131.945 47.3449 132.625 46.2749 132.015 45.4549C129.205 41.7049 128.955 35.9949 129.485 31.5349C129.945 27.6449 131.055 23.7449 132.515 20.0649C128.825 21.5349 124.925 22.6349 121.045 23.0949C116.585 23.6249 110.865 23.3649 107.125 20.5649C106.305 19.9549 105.235 20.6449 104.955 21.4449C104.355 23.1949 104.195 25.1249 104.735 26.9149C104.815 27.1749 105.865 29.4149 105.975 29.3349C103.605 31.0849 103.015 34.3149 105.085 36.5249C104.075 37.8049 103.865 39.4649 103.935 41.1349C103.985 42.4049 104.215 43.6649 104.155 44.9449C104.075 46.5749 103.575 48.0449 103.045 49.5549C104.545 49.0249 106.025 48.5249 107.655 48.4449L107.635 48.4249ZM105.605 43.7549C105.875 41.1449 105.345 39.1749 107.075 36.9649C107.365 36.5949 107.345 36.2049 107.175 35.9149C107.145 35.7249 107.045 35.5349 106.855 35.3749C105.115 33.7949 104.495 31.3349 106.045 29.4149C106.885 30.4849 108.005 31.3349 109.385 31.7849C109.415 31.7849 109.425 31.7549 109.405 31.7349C106.595 29.9949 105.585 27.0649 106.675 24.2149C108.635 24.9149 111.065 25.0149 113.025 25.0749C115.605 25.1549 118.245 24.9249 120.785 24.4849C124.715 23.8049 128.325 22.4249 131.835 20.7349C130.145 24.2449 128.765 27.8449 128.085 31.7849C127.645 34.3249 127.415 36.9649 127.495 39.5449C127.555 41.5049 127.665 43.9349 128.355 45.8949C125.505 46.9849 122.575 45.9749 120.835 43.1649C120.825 43.1449 120.775 43.1649 120.785 43.1849C121.235 44.5649 122.085 45.6849 123.155 46.5249C121.235 48.0749 118.775 47.4549 117.195 45.7149C117.025 45.5349 116.835 45.4349 116.655 45.3949C116.365 45.2149 115.975 45.2049 115.605 45.4949C113.395 47.2249 111.425 46.6949 108.815 46.9649C107.245 47.1249 105.735 47.5249 104.355 48.2149C105.045 46.8349 105.445 45.3149 105.605 43.7549Z" fill="#B6A893"/>
    <path d="M146.475 9.605C147.145 9.945 148.135 9.525 148.435 8.975C149.085 11.055 145.205 11.395 144.325 11.235C144.255 10.445 143.935 9.735 143.465 9.125C142.855 8.655 142.145 8.335 141.355 8.265C141.185 7.385 141.535 3.495 143.615 4.155C143.065 4.455 142.645 5.445 142.985 6.115C144.025 8.175 146.555 6.285 146.505 4.545C146.435 1.775 143.165 1.265 141.515 3.055C140.015 4.685 139.965 6.495 140.175 8.345C137.975 8.785 136.635 10.855 135.105 12.315C130.725 16.505 125.225 19.745 119.025 19.835C112.515 19.935 103.355 16.695 105.545 8.545C106.365 5.515 109.645 2.835 112.525 5.485C113.815 6.675 114.195 9.015 112.575 10.125C111.635 10.775 110.125 10.845 109.695 9.565C109.475 8.925 109.555 7.425 110.595 8.035C111.825 8.745 112.935 6.845 111.705 6.135C109.135 4.625 107.065 7.035 107.415 9.655C107.815 12.695 111.335 13.695 113.615 11.895C118.145 8.325 113.335 1.745 108.405 3.015C102.795 4.455 102.575 12.775 105.505 16.615C107.725 19.515 112.025 20.675 115.465 21.165C119.125 21.685 122.815 21.185 126.235 19.815C129.185 18.625 131.855 16.845 134.245 14.765C135.915 13.305 138.045 10.505 140.335 9.525C140.455 10.365 140.565 11.215 140.575 12.045C141.405 12.045 142.255 12.165 143.095 12.285C142.115 14.575 139.315 16.705 137.855 18.375C135.765 20.765 133.985 23.435 132.805 26.385C131.425 29.805 130.935 33.505 131.455 37.155C131.945 40.595 133.105 44.905 136.005 47.115C139.845 50.045 148.165 49.825 149.605 44.215C150.875 39.275 144.295 34.475 140.725 39.005C138.935 41.285 139.925 44.805 142.965 45.205C145.595 45.555 147.995 43.475 146.485 40.915C145.765 39.695 143.865 40.795 144.585 42.025C145.185 43.065 143.695 43.145 143.045 42.925C141.765 42.495 141.835 40.985 142.485 40.045C143.595 38.425 145.935 38.795 147.125 40.095C149.775 42.975 147.095 46.255 144.065 47.075C135.915 49.265 132.675 40.105 132.775 33.595C132.865 27.385 136.105 21.885 140.295 17.515C141.765 15.985 143.825 14.645 144.265 12.445C146.115 12.655 147.925 12.615 149.555 11.105C151.345 9.455 150.825 6.185 148.065 6.115C146.325 6.075 144.435 8.595 146.495 9.635L146.475 9.605ZM141.915 10.665C141.795 10.165 141.655 9.675 141.535 9.175C142.075 9.115 142.615 9.195 143.165 9.425C143.395 9.975 143.475 10.515 143.415 11.055C142.915 10.935 142.425 10.795 141.925 10.675L141.915 10.665Z" fill="#B6A893"/>
    <path d="M133.975 62.7649C133.605 64.2349 133.335 65.5849 132.525 66.9149C131.765 68.1549 130.805 69.2549 130.175 70.5749C129.345 72.3249 129.285 73.8149 130.195 75.5149C130.205 75.5349 130.245 75.5249 130.245 75.5049C129.845 72.0049 132.205 70.1549 134.155 67.6649C135.265 66.2449 136.195 64.5849 135.615 62.7749C135.365 62.0049 134.195 61.9349 133.985 62.7749L133.975 62.7649Z" fill="#B6A893"/>
    <path d="M117.195 55.225C118.345 56.465 119.755 57.325 121.315 57.805C119.275 58.865 118.305 62.675 118.785 64.565C120.225 65.995 121.705 66.805 123.785 66.675C124.435 66.635 125.085 66.515 125.715 66.335C124.785 70.005 126.035 74.515 130.095 75.495C130.115 75.495 130.135 75.475 130.115 75.455C127.205 72.515 125.585 69.085 128.095 65.195C128.735 64.205 127.335 63.425 126.515 64.275C125.215 65.615 121.215 65.865 118.825 64.525C119.175 62.595 120.275 59.365 124.315 58.215C125.405 57.905 125.115 56.495 123.555 56.515C121.805 56.345 120.075 55.765 118.655 54.715C116.805 53.345 116.565 51.775 116.635 49.715C118.335 54.105 125.225 50.645 128.025 53.595C128.945 54.565 130.475 53.015 129.485 52.135C125.625 48.735 120.155 52.985 116.625 49.195C116.525 49.115 116.365 49.025 116.215 49.195C114.715 50.945 115.765 53.685 117.185 55.225H117.195Z" fill="#B6A893"/>
    <path d="M130.775 52.395C130.375 52.265 130.065 52.665 130.135 53.035C130.815 56.495 132.195 59.495 134.875 61.845C135.205 62.135 135.905 61.975 135.845 61.445C135.365 57.135 137.595 54.155 141.625 52.785C142.555 53.035 143.325 53.385 143.935 53.815C142.075 53.145 139.675 53.915 138.305 55.625C136.325 58.105 136.385 62.315 140.135 62.965C143.295 63.515 146.985 60.915 145.175 57.505C143.905 55.115 139.975 55.255 139.745 58.265C139.655 59.455 140.335 60.685 141.615 60.785C142.785 60.875 143.575 59.875 142.715 58.915C142.295 58.445 141.595 59.145 142.015 59.615C141.805 59.885 141.585 59.905 141.355 59.685C141.025 59.605 140.825 59.385 140.755 59.025C140.615 58.665 140.665 58.215 140.795 57.865C141.285 56.495 143.035 56.515 143.945 57.455C144.825 58.365 144.805 60.065 143.975 60.985C143.235 61.795 141.855 62.035 140.805 61.975C138.015 61.825 137.435 59.175 138.505 57.045C139.495 55.085 142.325 53.355 144.355 54.145C147.515 56.865 145.895 62.085 143.935 65.735C141.645 69.995 139.585 73.825 138.425 78.585C137.395 82.835 136.245 87.675 137.705 91.955C138.755 95.025 141.325 97.475 144.675 97.625C147.455 97.755 150.235 96.015 150.745 93.165C151.205 90.615 149.915 87.435 147.165 86.805C144.095 86.115 141.835 88.825 142.185 91.675C142.505 94.335 144.915 96.725 147.525 94.885C150.195 93.005 148.125 89.115 145.115 90.105C144.235 90.395 144.605 91.795 145.505 91.505C147.305 90.935 146.655 95.245 144.625 93.525C144.095 93.075 143.815 92.135 143.695 91.475C143.145 88.225 147.255 86.825 148.975 89.695C151.265 93.495 147.395 97.315 143.465 96.275C138.775 95.035 137.915 89.675 138.275 85.545C138.685 80.885 139.905 75.765 141.955 71.565C144.175 67.005 149.535 60.765 146.635 55.395C145.245 52.815 142.405 51.535 139.575 51.445C138.035 51.395 136.505 51.665 135.005 51.965C133.685 52.225 132.085 52.825 130.755 52.415L130.775 52.395ZM140.945 52.625C137.095 53.155 134.735 56.265 134.655 60.045C132.935 58.215 131.895 56.025 131.305 53.545C132.255 53.625 133.245 53.375 134.165 53.195C136.375 52.755 138.695 52.215 140.945 52.625Z" fill="#B6A893"/>
    <path d="M147.465 117.165C145.175 108.595 138.765 101.935 136.025 93.565C133.015 84.345 134.465 73.295 139.845 65.185C139.865 65.155 139.825 65.135 139.805 65.155C136.365 70.085 134.225 75.245 133.725 81.275C133.225 87.305 134.445 93.205 137.045 98.645C140.195 105.205 144.955 111.095 146.575 118.315C147.335 121.705 147.945 127.805 143.965 129.495C141.505 130.535 138.145 129.255 137.445 126.625C136.575 123.345 139.675 122.305 140.535 122.585C143.175 123.035 142.435 126.745 140.085 125.195C139.525 124.565 138.595 125.495 139.155 126.125C140.425 127.545 142.865 127.365 143.485 125.395C144.145 123.285 142.235 121.435 140.225 121.265C137.905 121.065 136.185 123.015 136.005 125.215C135.785 127.855 137.845 130.075 140.275 130.775C148.585 133.185 148.835 122.325 147.455 117.165H147.465Z" fill="#B6A893"/>
    <path d="M140.365 98.275C139.605 97.985 139.215 99.145 139.855 99.515C141.405 100.425 148.465 111.645 148.515 116.355C148.515 116.535 148.735 116.555 148.835 116.395C149.895 114.735 150.525 111.215 150.275 108.855C150.095 107.215 149.215 103.885 147.475 102.645C149.345 101.605 150.545 99.725 150.525 97.485C150.525 97.435 150.475 97.415 150.435 97.425C150.425 97.405 150.395 97.395 150.375 97.415C147.235 99.475 143.815 99.585 140.355 98.275H140.365ZM150.375 97.555C149.855 99.655 148.175 101.475 146.025 101.825C145.205 101.955 145.375 102.645 145.525 102.705C150.175 104.555 149.655 113.775 148.905 115.635C149.055 112.445 144.735 102.645 142.205 100.115C145.225 100.595 147.965 99.895 150.365 97.555H150.375Z" fill="#B6A893"/>
    <path d="M66.3449 12.2049C66.2849 12.2049 66.3049 12.3049 66.3549 12.3049C69.7449 11.9749 73.0549 11.9649 76.3049 10.7849C79.8049 9.51489 82.8649 7.41489 85.8049 5.18489C87.8649 3.62489 85.4049 0.724894 83.7049 2.46489C78.7949 7.48489 73.3849 11.0349 66.3449 12.2049Z" fill="#B6A893"/>
    <path d="M74.4749 3.28497C73.8749 4.19497 73.1549 5.01497 72.3849 5.78497C70.7349 7.42497 68.6349 9.14497 66.3449 9.78497C66.2849 9.80497 66.3049 9.89497 66.3749 9.88497C70.7049 9.11497 74.2249 7.48497 77.6149 4.68497C78.1149 4.27497 78.1649 3.57497 78.0649 2.98497C78.0449 2.87497 78.0249 2.76497 78.0049 2.65497C77.8649 1.86497 77.0049 1.60497 76.3349 1.70497C75.2349 1.86497 75.0349 2.43497 74.4749 3.28497Z" fill="#B6A893"/>
    <path d="M66.565 6.5448C66.155 7.4848 65.665 8.4548 65.155 9.3348C65.125 9.3848 65.185 9.4248 65.225 9.4048C66.365 8.8448 67.375 8.1648 68.355 7.3248C69.275 6.5448 70.535 5.4148 70.755 4.1648C71.195 1.5948 67.575 1.1448 67.255 3.6948C67.125 4.7148 66.995 5.5748 66.565 6.5448Z" fill="#B6A893"/>
    <path d="M45.0749 15.5248C53.0949 19.5548 61.9149 21.3448 70.8649 20.5048C70.9249 20.5048 70.9249 20.4148 70.8649 20.4148C62.1849 20.1948 53.8649 17.6848 46.5849 12.9448C44.9549 11.8848 43.3449 14.6648 45.0749 15.5348V15.5248Z" fill="#B6A893"/>
    <path d="M53.0849 22.3549C52.8249 22.8449 52.8049 23.0349 52.9249 23.5849C53.0749 24.2949 53.7949 24.7249 54.4649 24.7549C60.7349 25.1149 66.4249 23.9149 72.3949 22.1549C72.4549 22.1349 72.4349 22.0449 72.3649 22.0549C66.6649 23.0549 60.5549 22.5749 54.8849 21.6049C54.2049 21.4849 53.4249 21.6649 53.0749 22.3349L53.0849 22.3549Z" fill="#B6A893"/>
    <path d="M73.535 23.6349C73.615 23.5749 73.535 23.4549 73.445 23.4749C69.995 24.4749 66.205 24.6549 62.825 25.8149C61.435 26.2949 61.585 28.5549 63.185 28.4849C67.015 28.3049 70.635 25.9549 73.535 23.6349Z" fill="#B6A893"/>
    <path d="M118.195 17.155C126.075 16.345 132.495 12.115 138.105 6.77496C138.155 6.72496 138.085 6.66496 138.035 6.70496C132.395 11.235 125.225 12.555 118.195 12.755C115.315 12.835 115.415 17.445 118.195 17.165V17.155Z" fill="#B6A893"/>
    <path d="M137.785 4.23486C131.975 7.04486 125.745 7.19486 119.455 7.28486C117.035 7.32486 117.045 11.0749 119.455 11.0349C126.195 10.9349 132.275 7.80486 137.835 4.32486C137.895 4.29486 137.835 4.21486 137.785 4.23486Z" fill="#B6A893"/>
    <path d="M120.845 5.98501C123.145 6.75501 125.785 6.05501 128.105 5.63501C131.085 5.10501 133.845 4.05501 136.655 2.96501C136.715 2.94501 136.695 2.85501 136.625 2.86501C134.345 3.43501 131.965 3.62501 129.615 3.61501C127.615 3.61501 124.535 3.75501 122.935 2.37501C120.235 0.0350078 117.535 4.87501 120.835 5.97501L120.845 5.98501Z" fill="#B6A893"/>
    <path d="M146.895 5.675C147.565 6.135 148.635 5.915 149.245 5.465C150.235 4.735 150.855 3.395 150.815 2.175C150.815 2.055 150.785 1.935 150.735 1.835C150.635 1.785 150.515 1.755 150.395 1.755C149.175 1.715 147.835 2.335 147.105 3.325C146.655 3.935 146.435 5.015 146.895 5.685V5.675Z" fill="#B6A893"/>
    <path d="M85.6549 20.0449C86.9749 19.2349 88.3249 18.9649 89.8049 18.5949C90.6449 18.3849 90.5749 17.2149 89.8049 16.9649C87.9949 16.3849 86.3349 17.3049 84.9149 18.4249C82.4249 20.3749 80.5749 22.7249 77.0749 22.3349C77.0449 22.3349 77.0449 22.3749 77.0649 22.3849C78.7649 23.2949 80.2549 23.2349 82.0049 22.4049C83.3249 21.7749 84.4249 20.8049 85.6649 20.0549L85.6549 20.0449Z" fill="#B6A893"/>
    <path d="M103.375 36.3448C103.545 36.1948 103.455 36.0348 103.375 35.9348C99.5948 32.4148 103.845 26.9448 100.435 23.0748C99.5548 22.0848 98.0048 23.6148 98.9748 24.5348C101.925 27.3348 98.4648 34.2248 102.855 35.9248C100.795 35.9948 99.2248 35.7548 97.8548 33.9048C96.8048 32.4848 96.2248 30.7548 96.0548 29.0148C96.0748 27.4548 94.6648 27.1648 94.3548 28.2548C93.2048 32.3048 89.9648 33.3948 88.0448 33.7448C86.7048 31.3548 86.9548 27.3548 88.2948 26.0548C89.1448 25.2348 88.3648 23.8348 87.3748 24.4748C83.4848 26.9848 80.0548 25.3648 77.1148 22.4548C77.0948 22.4348 77.0648 22.4548 77.0748 22.4748C78.0648 26.5448 82.5748 27.7948 86.2348 26.8548C86.0448 27.4848 85.9348 28.1348 85.8948 28.7848C85.7648 30.8548 86.5648 32.3448 88.0048 33.7848C89.8948 34.2648 93.7048 33.2948 94.7648 31.2548C95.2448 32.8148 96.1048 34.2248 97.3448 35.3748C98.8848 36.7948 101.625 37.8448 103.375 36.3448Z" fill="#B6A893"/>
    <path d="M59.4149 1.8049C56.5649 2.3149 54.8249 5.0949 54.9549 7.8749C55.1049 11.2249 57.5549 13.7949 60.6249 14.8449C64.9049 16.3049 69.7549 15.1549 73.9949 14.1249C78.7649 12.9649 82.5949 10.9049 86.8449 8.6149C90.4949 6.6549 95.7249 5.0349 98.4349 8.1949C99.2249 10.2249 97.4949 13.0549 95.5349 14.0449C93.4049 15.1149 90.7649 14.5349 90.6149 11.7449C90.5549 10.7049 90.7949 9.3149 91.6049 8.5749C92.5249 7.7349 94.2249 7.7249 95.1349 8.6049C96.0749 9.5149 96.0849 11.2649 94.7249 11.7549C94.3749 11.8849 93.9249 11.9349 93.5649 11.7949C93.2049 11.7249 92.9849 11.5249 92.9049 11.1949C92.6849 10.9549 92.7049 10.7349 92.9749 10.5349C93.4449 10.9549 94.1449 10.2549 93.6749 9.8349C92.7149 8.9849 91.7149 9.7649 91.8049 10.9349C91.9049 12.2149 93.1349 12.8949 94.3249 12.8049C97.3349 12.5749 97.4649 8.6449 95.0849 7.3749C91.6749 5.5649 89.0749 9.2549 89.6249 12.4149C90.2749 16.1649 94.4949 16.2249 96.9649 14.2449C98.6749 12.8749 99.4549 10.4849 98.7749 8.6149C99.2049 9.2249 99.5549 9.9949 99.8049 10.9249C98.4349 14.9549 95.4549 17.1849 91.1449 16.7049C90.6149 16.6449 90.4549 17.3449 90.7449 17.6749C93.0849 20.3649 96.0949 21.7449 99.5549 22.4149C99.9249 22.4849 100.315 22.1849 100.195 21.7749C99.7749 20.4449 100.375 18.8449 100.645 17.5249C100.945 16.0249 101.215 14.4949 101.165 12.9549C101.075 10.1249 99.7949 7.2849 97.2149 5.8949C91.8549 2.9949 85.6049 8.3549 81.0449 10.5749C76.8449 12.6249 71.7149 13.8449 67.0649 14.2549C62.9349 14.6149 57.5749 13.7549 56.3349 9.0649C55.2949 5.1349 59.1149 1.2549 62.9149 3.5549C65.7849 5.2849 64.3849 9.3849 61.1349 8.8349C60.4649 8.7249 59.5349 8.4349 59.0849 7.9049C57.3549 5.8749 61.6749 5.2249 61.1049 7.0249C60.8249 7.9249 62.2149 8.2949 62.5049 7.4149C63.5049 4.4049 59.6149 2.3449 57.7249 5.0049C55.8849 7.6049 58.2749 10.0149 60.9349 10.3449C63.7849 10.6949 66.4949 8.4249 65.8049 5.3649C65.1849 2.6149 62.0049 1.3349 59.4449 1.7849L59.4149 1.8049ZM99.3849 18.4049C99.2049 19.3249 98.9549 20.3049 99.0349 21.2649C96.5549 20.6849 94.3649 19.6449 92.5349 17.9149C96.3049 17.8349 99.4249 15.4749 99.9549 11.6249C100.365 13.8849 99.8249 16.1949 99.3849 18.4049Z" fill="#B6A893"/>
    <path d="M35.405 5.10488C30.235 3.72488 19.385 3.96488 21.795 12.2849C22.505 14.7149 24.715 16.7749 27.355 16.5549C29.555 16.3749 31.505 14.6549 31.305 12.3349C31.135 10.3349 29.285 8.41488 27.175 9.07488C25.215 9.69488 25.025 12.1349 26.445 13.4049C27.075 13.9649 28.005 13.0349 27.375 12.4749C25.825 10.1249 29.535 9.39488 29.985 12.0249C30.255 12.8849 29.225 15.9849 25.945 15.1149C23.305 14.4149 22.025 11.0549 23.075 8.59488C24.765 4.61488 30.865 5.22488 34.255 5.98488C41.475 7.60488 47.365 12.3749 53.925 15.5149C59.365 18.1249 65.265 19.3349 71.295 18.8349C77.325 18.3349 82.485 16.1949 87.415 12.7549C87.445 12.7349 87.415 12.6949 87.395 12.7149C79.285 18.0949 68.235 19.5549 59.015 16.5349C50.645 13.7949 43.985 7.38488 35.415 5.09488L35.405 5.10488Z" fill="#B6A893"/>
    <path d="M54.295 12.205C52.975 8.73497 53.095 5.32497 55.155 2.18497C55.175 2.16497 55.155 2.13497 55.145 2.12497C55.145 2.08497 55.125 2.03497 55.085 2.03497C52.845 2.02497 50.965 3.22497 49.925 5.08497C48.685 3.35497 45.365 2.46497 43.715 2.28497C41.355 2.03497 37.825 2.66497 36.175 3.72497C36.015 3.82497 36.035 4.04497 36.215 4.04497C40.925 4.09497 52.145 11.165 53.055 12.705C53.425 13.345 54.585 12.945 54.295 12.195V12.205ZM36.935 3.65497C38.795 2.90497 48.015 2.38497 49.865 7.03497C49.925 7.18497 50.615 7.35497 50.745 6.53497C51.095 4.39497 52.925 2.70497 55.015 2.18497C52.675 4.58497 51.975 7.32497 52.455 10.345C49.925 7.81497 40.125 3.49497 36.935 3.64497V3.65497Z" fill="#B6A893"/>
    <path d="M151.795 0.774902L0.224915 0.774902V2.1049L150.465 2.1049L150.465 156.795H151.795L151.795 0.774902Z" fill="#B6A893"/>
    <path d="M93.2249 41.2049C91.9449 41.2049 90.9049 40.1649 90.9049 38.8849C90.9049 37.6049 91.9449 36.5649 93.2249 36.5649C94.5049 36.5649 95.5449 37.6049 95.5449 38.8849C95.5449 40.1649 94.5049 41.2049 93.2249 41.2049Z" fill="#B6A893"/>
    <path d="M99.005 57.745C97.725 57.745 96.685 56.705 96.685 55.425C96.685 54.145 97.725 53.105 99.005 53.105C100.285 53.105 101.325 54.145 101.325 55.425C101.325 56.705 100.285 57.745 99.005 57.745Z" fill="#B6A893"/>
    <path d="M114.225 61.6749C112.945 61.6749 111.905 60.6349 111.905 59.3549C111.905 58.0749 112.945 57.0349 114.225 57.0349C115.505 57.0349 116.545 58.0749 116.545 59.3549C116.545 60.6349 115.505 61.6749 114.225 61.6749Z" fill="#B6A893"/>
    <path d="M103.875 59.0649C103.875 60.3462 104.914 61.3849 106.195 61.3849C107.476 61.3849 108.515 60.3462 108.515 59.0649C108.515 57.7836 107.476 56.7449 106.195 56.7449C104.914 56.7449 103.875 57.7836 103.875 59.0649Z" fill="#B6A893"/>
    <path d="M94.3548 50.535C93.0748 50.535 92.0348 49.495 92.0348 48.215C92.0348 46.935 93.0748 45.895 94.3548 45.895C95.6348 45.895 96.6748 46.935 96.6748 48.215C96.6748 49.495 95.6348 50.535 94.3548 50.535Z" fill="#B6A893"/>
  </g>
  <defs>
    <clipPath id="clip0_1501_93755">
      <rect width="156.02" height="151.57" fill="white" transform="matrix(0 1 -1 0 151.795 0.774902)"/>
    </clipPath>
  </defs>
</svg>