<svg xmlns="http://www.w3.org/2000/svg" width="157" height="152" viewBox="0 0 157 152" fill="none">
  <g clip-path="url(#clip0_1501_93755)">
    <path d="M75.4901 10.01C78.7401 11.19 82.0501 11.2 85.4401 11.53C85.5001 11.53 85.5101 11.44 85.4501 11.43C78.4101 10.25 73.0001 6.69999 68.0901 1.68999C66.3901 -0.0500082 63.9301 2.84999 65.9901 4.40999C68.9301 6.63999 71.9901 8.74999 75.4901 10.01Z" fill="#B6A893"/>
    <path d="M85.4201 9.10006C85.4801 9.11006 85.5101 9.02006 85.4501 9.00006C83.1601 8.36006 81.0601 6.65006 79.4101 5.00006C78.6401 4.23006 77.9201 3.41006 77.3201 2.50006C76.7601 1.65006 76.5601 1.08006 75.4601 0.920057C74.7901 0.820057 73.9201 1.08006 73.7901 1.87006C73.7701 1.98006 73.7501 2.09006 73.7301 2.20006C73.6301 2.78006 73.6801 3.48006 74.1801 3.90006C77.5801 6.70006 81.1001 8.33006 85.4201 9.10006Z" fill="#B6A893"/>
    <path d="M83.44 6.55C84.42 7.39 85.43 8.06 86.57 8.63C86.61 8.65 86.66 8.61 86.64 8.56C86.13 7.68 85.64 6.71 85.23 5.77C84.8 4.8 84.67 3.94 84.54 2.92C84.22 0.380001 80.6 0.820001 81.04 3.39C81.25 4.64 82.52 5.77 83.44 6.55Z" fill="#B6A893"/>
    <path d="M105.2 12.1599C97.92 16.9099 89.61 19.4099 80.92 19.6299C80.86 19.6299 80.86 19.7199 80.92 19.7199C89.87 20.5599 98.69 18.7799 106.71 14.7399C108.43 13.8699 106.82 11.0899 105.2 12.1499V12.1599Z" fill="#B6A893"/>
    <path d="M79.3999 21.38C85.3699 23.14 91.0599 24.33 97.3299 23.98C97.9999 23.94 98.7199 23.51 98.8699 22.81C98.9899 22.26 98.9599 22.07 98.7099 21.58C98.3599 20.91 97.5799 20.73 96.9099 20.85C91.2399 21.81 85.1299 22.29 79.4299 21.3C79.3699 21.29 79.3399 21.38 79.3999 21.4V21.38Z" fill="#B6A893"/>
    <path d="M78.2599 22.86C81.1599 25.18 84.7799 27.53 88.6099 27.71C90.2099 27.78 90.3699 25.52 88.9699 25.04C85.5899 23.89 81.7999 23.7 78.3499 22.7C78.2699 22.68 78.1799 22.8 78.2599 22.86Z" fill="#B6A893"/>
    <path d="M33.6001 11.9699C26.5701 11.7799 19.4001 10.4599 13.7601 5.9199C13.7101 5.8799 13.6401 5.9499 13.6901 5.9899C19.3001 11.3299 25.7201 15.5599 33.6001 16.3699C36.3801 16.6599 36.4801 12.0399 33.6001 11.9599V11.9699Z" fill="#B6A893"/>
    <path d="M32.3399 6.50995C26.0499 6.41995 19.8199 6.26995 14.0099 3.45995C13.9499 3.42995 13.8999 3.50995 13.9599 3.54995C19.5199 7.02995 25.5999 10.16 32.3399 10.26C34.7499 10.3 34.7599 6.53995 32.3399 6.50995Z" fill="#B6A893"/>
    <path d="M30.9501 5.21002C34.2501 4.10002 31.5501 -0.729978 28.8501 1.61002C27.2501 2.99002 24.1701 2.84002 22.1701 2.85002C19.8201 2.85002 17.4401 2.68002 15.1601 2.10002C15.1001 2.08002 15.0701 2.17002 15.1301 2.20002C17.9401 3.29002 20.7001 4.33002 23.6801 4.87002C26.0001 5.29002 28.6401 5.99002 30.9401 5.22002L30.9501 5.21002Z" fill="#B6A893"/>
    <path d="M43.5301 42.1101C43.3701 41.3801 43.2001 40.6601 42.9701 39.9501C42.2801 37.8301 41.3501 35.7701 40.0401 33.9501C36.6201 29.2101 31.5501 27.9001 26.3401 26.3401C27.9001 31.5501 29.2101 36.6201 33.9501 40.0401C35.7701 41.3501 37.8301 42.2801 39.9501 42.9701C40.6601 43.2001 41.3801 43.3701 42.1101 43.5301C42.4101 43.6001 43.5901 43.9301 43.2901 43.7701C43.5301 43.8901 43.7601 43.9601 43.9801 43.9701C43.9701 43.7501 43.9101 43.5201 43.7801 43.2801C43.9401 43.5801 43.6001 42.4101 43.5401 42.1001L43.5301 42.1101ZM36.2801 38.4401C31.7001 36.2001 29.5901 31.8501 27.4901 27.4901C31.8501 29.5901 36.2001 31.7001 38.4401 36.2801C38.9201 37.2601 39.2001 38.3301 39.4301 39.4201C38.3401 39.1901 37.2701 38.9101 36.2901 38.4301L36.2801 38.4401Z" fill="#B6A893"/>
    <path d="M47.65 44.16C47.59 42.88 47.82 41.63 47.87 40.35C47.93 38.68 47.72 37.02 46.72 35.74C48.78 33.52 48.2 30.3 45.83 28.55C45.94 28.63 46.99 26.39 47.07 26.13C47.62 24.34 47.46 22.41 46.85 20.66C46.57 19.85 45.5 19.17 44.68 19.78C40.93 22.59 35.22 22.84 30.76 22.31C26.87 21.85 22.97 20.74 19.29 19.28C20.76 22.97 21.86 26.87 22.32 30.75C22.85 35.21 22.59 40.93 19.79 44.67C19.18 45.49 19.87 46.56 20.67 46.84C22.42 47.44 24.35 47.6 26.14 47.06C26.4 46.98 28.64 45.93 28.56 45.82C30.31 48.19 33.54 48.78 35.75 46.71C37.03 47.72 38.69 47.93 40.36 47.86C41.63 47.81 42.89 47.58 44.17 47.64C45.8 47.72 47.27 48.22 48.78 48.75C48.25 47.25 47.75 45.77 47.67 44.14L47.65 44.16ZM42.98 46.19C40.37 45.92 38.4 46.45 36.19 44.72C35.82 44.43 35.43 44.45 35.14 44.62C34.95 44.65 34.76 44.75 34.6 44.94C33.02 46.68 30.56 47.3 28.64 45.75C29.71 44.91 30.56 43.79 31.01 42.41C31.01 42.38 30.98 42.37 30.96 42.39C29.22 45.2 26.29 46.21 23.44 45.12C24.14 43.16 24.24 40.73 24.3 38.77C24.38 36.19 24.15 33.55 23.71 31.01C23.03 27.08 21.65 23.47 19.96 19.96C23.47 21.65 27.07 23.03 31.01 23.71C33.55 24.15 36.19 24.38 38.77 24.3C40.73 24.24 43.16 24.13 45.12 23.44C46.21 26.29 45.2 29.22 42.39 30.96C42.37 30.97 42.39 31.02 42.41 31.01C43.79 30.56 44.91 29.71 45.75 28.64C47.3 30.56 46.68 33.02 44.94 34.6C44.76 34.77 44.66 34.96 44.62 35.14C44.44 35.43 44.43 35.82 44.72 36.19C46.45 38.4 45.92 40.37 46.19 42.98C46.35 44.55 46.75 46.06 47.44 47.44C46.06 46.75 44.54 46.35 42.98 46.19Z" fill="#B6A893"/>
    <path d="M8.83009 5.31996C9.17009 4.64996 8.75009 3.65996 8.20009 3.35996C10.2801 2.70996 10.6201 6.58996 10.4601 7.46996C9.67009 7.53996 8.96009 7.85996 8.35009 8.32996C7.88009 8.93996 7.56009 9.64996 7.49009 10.44C6.61009 10.61 2.72009 10.26 3.38009 8.17996C3.68009 8.72996 4.67009 9.14996 5.34009 8.80996C7.40009 7.76996 5.51009 5.23996 3.77009 5.28996C1.00009 5.35996 0.490094 8.62996 2.28009 10.28C3.91009 11.78 5.72009 11.83 7.57009 11.62C8.01009 13.82 10.0801 15.16 11.5401 16.69C15.7301 21.07 18.9701 26.57 19.0601 32.77C19.1601 39.28 15.9201 48.44 7.77009 46.25C4.74009 45.43 2.06009 42.15 4.71009 39.27C5.90009 37.98 8.24009 37.6 9.35009 39.22C10.0001 40.16 10.0701 41.67 8.79009 42.1C8.15009 42.32 6.65009 42.24 7.26009 41.2C7.97009 39.97 6.07009 38.86 5.36009 40.09C3.85009 42.66 6.26009 44.73 8.88009 44.38C11.9201 43.98 12.9201 40.46 11.1201 38.18C7.55009 33.65 0.970094 38.46 2.24009 43.39C3.68009 49 12.0001 49.22 15.8401 46.29C18.7401 44.07 19.9001 39.77 20.3901 36.33C20.9101 32.67 20.4101 28.98 19.0401 25.56C17.8501 22.61 16.0701 19.94 13.9901 17.55C12.5301 15.88 9.73009 13.75 8.75009 11.46C9.59009 11.34 10.4401 11.23 11.2701 11.22C11.2701 10.39 11.3901 9.53996 11.5101 8.69996C13.8001 9.67996 15.9301 12.48 17.6001 13.94C19.9901 16.03 22.6601 17.81 25.6101 18.99C29.0301 20.37 32.7301 20.86 36.3801 20.34C39.8201 19.85 44.1301 18.69 46.3401 15.79C49.2701 11.95 49.0501 3.62996 43.4401 2.18996C38.5001 0.919956 33.7001 7.49996 38.2301 11.07C40.5101 12.86 44.0301 11.87 44.4301 8.82996C44.7801 6.19996 42.7001 3.79996 40.1401 5.30996C38.9201 6.02996 40.0201 7.92996 41.2501 7.20996C42.2901 6.60996 42.3701 8.09996 42.1501 8.74996C41.7201 10.03 40.2101 9.95996 39.2701 9.30996C37.6501 8.19996 38.0201 5.85996 39.3201 4.66996C42.2001 2.01996 45.4801 4.69996 46.3001 7.72996C48.4901 15.88 39.3301 19.12 32.8201 19.02C26.6101 18.93 21.1101 15.69 16.7401 11.5C15.2101 10.03 13.8701 7.96996 11.6701 7.52996C11.8801 5.67996 11.8401 3.86996 10.3301 2.23996C8.68009 0.449956 5.41009 0.969956 5.34009 3.72996C5.30009 5.46996 7.82009 7.35996 8.86009 5.29996L8.83009 5.31996ZM9.89009 9.87996C9.39009 9.99996 8.90009 10.14 8.40009 10.26C8.34009 9.71996 8.42009 9.17996 8.65009 8.62996C9.20009 8.39996 9.74009 8.31996 10.2801 8.37996C10.1601 8.87996 10.0201 9.36996 9.90009 9.86996L9.89009 9.87996Z" fill="#B6A893"/>
    <path d="M61.99 17.8199C63.46 18.1899 64.81 18.4599 66.14 19.2699C67.38 20.0299 68.48 20.9899 69.8 21.6199C71.55 22.4499 73.04 22.5099 74.74 21.5999C74.76 21.5899 74.75 21.5499 74.73 21.5499C71.23 21.9499 69.38 19.5899 66.89 17.6399C65.47 16.5299 63.81 15.5999 62 16.1799C61.23 16.4299 61.16 17.5999 62 17.8099L61.99 17.8199Z" fill="#B6A893"/>
    <path d="M54.4501 34.5999C55.6901 33.4499 56.5501 32.0399 57.0301 30.4799C58.0901 32.5199 61.9001 33.4899 63.7901 33.0099C65.2201 31.5699 66.0301 30.0899 65.9001 28.0099C65.8601 27.3599 65.7401 26.7099 65.5601 26.0799C69.2301 27.0099 73.7401 25.7599 74.7201 21.6999C74.7201 21.6799 74.7001 21.6599 74.6801 21.6799C71.7401 24.5899 68.3101 26.2099 64.4201 23.6999C63.4301 23.0599 62.6501 24.4599 63.5001 25.2799C64.8401 26.5799 65.0901 30.5799 63.7501 32.9699C61.8201 32.6199 58.5901 31.5199 57.4401 27.4799C57.1301 26.3899 55.7201 26.6799 55.7401 28.2399C55.5701 29.9899 54.9901 31.7199 53.9401 33.1399C52.5701 34.9899 51.0001 35.2299 48.9401 35.1599C53.3301 33.4599 49.8701 26.5699 52.8201 23.7699C53.7901 22.8499 52.2401 21.3199 51.3601 22.3099C47.9601 26.1699 52.2101 31.6399 48.4201 35.1699C48.3401 35.2699 48.2501 35.4299 48.4201 35.5799C50.1701 37.0799 52.9101 36.0299 54.4501 34.6099V34.5999Z" fill="#B6A893"/>
    <path d="M51.6201 21.0201C51.4901 21.4201 51.8901 21.7301 52.2601 21.6601C55.7201 20.9801 58.7201 19.6001 61.0701 16.9201C61.3601 16.5901 61.2001 15.8901 60.6701 15.9501C56.3601 16.4301 53.3801 14.2001 52.0101 10.1701C52.2601 9.2401 52.6101 8.4701 53.0401 7.8601C52.3701 9.7201 53.1401 12.1201 54.8501 13.4901C57.3301 15.4701 61.5401 15.4101 62.1901 11.6601C62.7401 8.5001 60.1401 4.8101 56.7301 6.6201C54.3401 7.8901 54.4801 11.8201 57.4901 12.0501C58.6801 12.1401 59.9101 11.4601 60.0101 10.1801C60.1001 9.0101 59.1001 8.2201 58.1401 9.0801C57.6701 9.5001 58.3701 10.2001 58.8401 9.7801C59.1101 9.9901 59.1301 10.2101 58.9101 10.4401C58.8301 10.7701 58.6101 10.9701 58.2501 11.0401C57.8901 11.1801 57.4401 11.1301 57.0901 11.0001C55.7201 10.5101 55.7401 8.7601 56.6801 7.8501C57.5901 6.9701 59.2901 6.9901 60.2101 7.8201C61.0201 8.5601 61.2601 9.9401 61.2001 10.9901C61.0501 13.7801 58.4001 14.3601 56.2701 13.2901C54.3101 12.3001 52.5801 9.4701 53.3701 7.4401C56.0901 4.2801 61.3101 5.9001 64.9601 7.8601C69.2201 10.1501 73.0501 12.2101 77.8101 13.3701C82.0601 14.4001 86.9001 15.5501 91.1801 14.0901C94.2501 13.0401 96.7001 10.4701 96.8501 7.1201C96.9801 4.3401 95.2401 1.5601 92.3901 1.0501C89.8401 0.590095 86.6601 1.8801 86.0301 4.6301C85.3401 7.7001 88.0501 9.9601 90.9001 9.6101C93.5601 9.2901 95.9501 6.8801 94.1101 4.2701C92.2301 1.6001 88.3401 3.6701 89.3301 6.6801C89.6201 7.5601 91.0201 7.1901 90.7301 6.2901C90.1601 4.4901 94.4701 5.1401 92.7501 7.1701C92.3001 7.7001 91.3601 7.9801 90.7001 8.1001C87.4501 8.6501 86.0501 4.5401 88.9201 2.8201C92.7201 0.530095 96.5401 4.4001 95.5001 8.3301C94.2601 13.0201 88.9001 13.8801 84.7701 13.5201C80.1101 13.1101 74.9901 11.8901 70.7901 9.8401C66.2301 7.6201 59.9901 2.2601 54.6201 5.1601C52.0401 6.5501 50.7601 9.3901 50.6701 12.2201C50.6201 13.7601 50.8901 15.2901 51.1901 16.7901C51.4501 18.1101 52.0501 19.7101 51.6401 21.0401L51.6201 21.0201ZM51.8501 10.8501C52.3801 14.7001 55.4901 17.0601 59.2701 17.1401C57.4401 18.8601 55.2501 19.9001 52.7701 20.4901C52.8501 19.5401 52.6001 18.5501 52.4201 17.6301C51.9801 15.4201 51.4401 13.1001 51.8501 10.8501Z" fill="#B6A893"/>
    <path d="M116.39 4.33005C107.82 6.62005 101.16 13.0301 92.7901 15.7701C83.5701 18.7801 72.5201 17.33 64.4101 11.95C64.3801 11.93 64.3601 11.97 64.3801 11.99C69.3101 15.43 74.4701 17.57 80.5001 18.07C86.5301 18.57 92.4301 17.35 97.8701 14.75C104.43 11.6 110.32 6.84005 117.54 5.22005C120.93 4.46005 127.03 3.85005 128.72 7.83005C129.76 10.29 128.48 13.65 125.85 14.35C122.57 15.22 121.53 12.12 121.81 11.26C122.26 8.62005 125.97 9.36005 124.42 11.71C123.79 12.27 124.72 13.2 125.35 12.64C126.77 11.37 126.59 8.93005 124.62 8.31005C122.51 7.65005 120.66 9.56005 120.49 11.57C120.29 13.89 122.24 15.61 124.44 15.79C127.08 16.01 129.3 13.9501 130 11.5201C132.41 3.21005 121.55 2.96005 116.39 4.34005V4.33005Z" fill="#B6A893"/>
    <path d="M97.5001 11.43C97.2101 12.19 98.37 12.58 98.74 11.94C99.65 10.39 110.87 3.33002 115.58 3.28002C115.76 3.28002 115.78 3.06002 115.62 2.96002C113.96 1.90002 110.44 1.27002 108.08 1.52002C106.44 1.70002 103.11 2.58002 101.87 4.32002C100.83 2.45002 98.9501 1.25002 96.7101 1.27002C96.6601 1.27002 96.6401 1.32002 96.6501 1.36002C96.6301 1.37002 96.6201 1.40002 96.6401 1.42002C98.7001 4.56002 98.8101 7.98002 97.5001 11.44V11.43ZM96.7801 1.42002C98.8801 1.94002 100.7 3.62002 101.05 5.77002C101.18 6.59002 101.87 6.42002 101.93 6.27002C103.78 1.62002 113 2.14002 114.86 2.89002C111.67 2.74002 101.87 7.06002 99.34 9.59002C99.82 6.57002 99.1201 3.83002 96.7801 1.43002V1.42002Z" fill="#B6A893"/>
    <path d="M11.43 85.4501C11.43 85.5101 11.53 85.4901 11.53 85.4401C11.2 82.0501 11.19 78.7401 10.01 75.4901C8.73999 71.9901 6.63999 68.9301 4.40999 65.9901C2.84999 63.9301 -0.0500082 66.3901 1.68999 68.0901C6.70999 73.0001 10.26 78.4101 11.43 85.4501Z" fill="#B6A893"/>
    <path d="M2.51007 77.3201C3.42007 77.9201 4.24007 78.6401 5.01007 79.4101C6.65007 81.0601 8.37007 83.1601 9.01007 85.4501C9.03007 85.5101 9.12007 85.4901 9.11007 85.4201C8.34007 81.0901 6.71007 77.5701 3.91007 74.1801C3.50007 73.6801 2.80007 73.6301 2.21007 73.7301C2.10007 73.7501 1.99007 73.7701 1.88007 73.7901C1.09007 73.9301 0.830067 74.7901 0.930067 75.4601C1.09007 76.5601 1.66007 76.7601 2.51007 77.3201Z" fill="#B6A893"/>
    <path d="M5.7699 85.23C6.7099 85.64 7.6799 86.13 8.5599 86.64C8.6099 86.67 8.6499 86.61 8.6299 86.57C8.0699 85.43 7.3899 84.42 6.5499 83.44C5.7699 82.52 4.6399 81.26 3.3899 81.04C0.819902 80.6 0.369902 84.22 2.9199 84.54C3.9399 84.67 4.7999 84.8 5.7699 85.23Z" fill="#B6A893"/>
    <path d="M14.7499 106.72C18.7799 98.7 20.5699 89.88 19.7299 80.93C19.7299 80.87 19.6399 80.87 19.6399 80.93C19.4199 89.61 16.9099 97.93 12.1699 105.21C11.1099 106.84 13.8899 108.45 14.7599 106.72H14.7499Z" fill="#B6A893"/>
    <path d="M21.58 98.71C22.07 98.97 22.26 98.99 22.81 98.87C23.52 98.72 23.95 98 23.98 97.33C24.34 91.06 23.14 85.37 21.38 79.4C21.36 79.34 21.27 79.36 21.28 79.43C22.28 85.13 21.8 91.24 20.83 96.91C20.71 97.59 20.89 98.37 21.56 98.72L21.58 98.71Z" fill="#B6A893"/>
    <path d="M22.86 78.2599C22.8 78.1799 22.68 78.2599 22.7 78.3499C23.7 81.7999 23.88 85.5899 25.04 88.9699C25.52 90.3599 27.78 90.2099 27.71 88.6099C27.53 84.7799 25.18 81.1599 22.86 78.2599Z" fill="#B6A893"/>
    <path d="M16.3801 33.6001C15.5701 25.7201 11.3401 19.3001 6.00006 13.6901C5.95006 13.6401 5.89006 13.7101 5.93006 13.7601C10.4601 19.4001 11.7801 26.5701 11.9801 33.6001C12.0601 36.4801 16.6701 36.3801 16.3901 33.6001H16.3801Z" fill="#B6A893"/>
    <path d="M3.45996 14.0099C6.26996 19.8199 6.41996 26.0499 6.50996 32.3399C6.54996 34.7599 10.3 34.7499 10.26 32.3399C10.16 25.5999 7.02996 19.5199 3.54996 13.9599C3.51996 13.8999 3.43996 13.9599 3.45996 14.0099Z" fill="#B6A893"/>
    <path d="M5.21011 30.95C5.98011 28.65 5.28011 26.01 4.86011 23.69C4.33011 20.71 3.28011 17.95 2.19011 15.14C2.17011 15.08 2.08011 15.1 2.09011 15.17C2.66011 17.45 2.85011 19.83 2.84011 22.18C2.84011 24.18 2.98011 27.26 1.60011 28.86C-0.739895 31.56 4.10011 34.26 5.20011 30.96L5.21011 30.95Z" fill="#B6A893"/>
    <path d="M4.9001 4.9001C5.3601 4.2301 5.1401 3.1601 4.6901 2.5501C3.9601 1.5601 2.6201 0.940098 1.4001 0.980098C1.2801 0.980098 1.1601 1.0101 1.0601 1.0601C1.0101 1.1601 0.980098 1.2801 0.980098 1.4001C0.940098 2.6201 1.5601 3.9601 2.5501 4.6901C3.1601 5.1401 4.2401 5.3601 4.9101 4.9001H4.9001Z" fill="#B6A893"/>
    <path d="M19.27 66.14C18.46 64.82 18.19 63.47 17.82 61.99C17.61 61.15 16.44 61.22 16.19 61.99C15.61 63.8 16.53 65.46 17.65 66.88C19.6 69.37 21.95 71.22 21.56 74.72C21.56 74.75 21.6 74.75 21.61 74.73C22.52 73.03 22.46 71.54 21.63 69.79C21 68.47 20.03 67.37 19.28 66.13L19.27 66.14Z" fill="#B6A893"/>
    <path d="M35.5699 48.4201C35.4199 48.2501 35.2599 48.3401 35.1599 48.4201C31.6399 52.2001 26.1699 47.9501 22.2999 51.3601C21.3099 52.2401 22.8399 53.7901 23.7599 52.8201C26.5599 49.8701 33.4499 53.3301 35.1499 48.9401C35.2199 51.0001 34.9799 52.5701 33.1299 53.9401C31.7099 54.9901 29.9799 55.5701 28.2399 55.7401C26.6799 55.7201 26.3899 57.1301 27.4799 57.4401C31.5299 58.5901 32.6199 61.8301 32.9699 63.7501C30.5799 65.0901 26.5799 64.8401 25.2799 63.5001C24.4599 62.6501 23.0599 63.4301 23.6999 64.4201C26.2099 68.3101 24.5899 71.7401 21.6799 74.6801C21.6599 74.7001 21.6799 74.7301 21.6999 74.7201C25.7699 73.7301 27.0199 69.2201 26.0799 65.5601C26.7099 65.7501 27.3599 65.8601 28.0099 65.9001C30.0799 66.0301 31.5699 65.2301 33.0099 63.7901C33.4899 61.9001 32.5199 58.0901 30.4799 57.0301C32.0399 56.5501 33.4499 55.6901 34.5999 54.4501C36.0199 52.9101 37.0699 50.1701 35.5699 48.4201Z" fill="#B6A893"/>
    <path d="M1.03 92.38C1.54 95.23 4.32 96.97 7.1 96.84C10.45 96.69 13.02 94.24 14.07 91.17C15.53 86.89 14.38 82.04 13.35 77.8C12.19 73.03 10.13 69.2 7.84 64.95C5.88 61.3 4.26 56.07 7.42 53.36C9.45 52.57 12.28 54.3 13.27 56.26C14.34 58.39 13.76 61.03 10.97 61.18C9.93 61.24 8.54 61 7.8 60.19C6.96 59.27 6.95 57.57 7.83 56.66C8.74 55.72 10.49 55.71 10.98 57.07C11.11 57.42 11.16 57.87 11.02 58.23C10.95 58.59 10.75 58.81 10.42 58.89C10.18 59.11 9.96 59.09 9.76 58.82C10.18 58.35 9.48 57.65 9.06 58.12C8.21 59.08 8.99 60.08 10.16 59.99C11.44 59.89 12.12 58.66 12.03 57.47C11.8 54.46 7.87 54.33 6.6 56.71C4.79 60.12 8.48 62.72 11.64 62.17C15.39 61.52 15.45 57.3 13.47 54.83C12.1 53.12 9.71 52.34 7.84 53.02C8.45 52.59 9.22 52.24 10.15 51.99C14.18 53.36 16.41 56.34 15.93 60.65C15.87 61.18 16.57 61.34 16.9 61.05C19.59 58.71 20.97 55.7 21.64 52.24C21.71 51.87 21.41 51.48 21 51.6C19.67 52.02 18.07 51.42 16.75 51.15C15.25 50.85 13.72 50.58 12.18 50.63C9.35 50.72 6.51 52 5.12 54.58C2.22 59.94 7.58 66.19 9.8 70.75C11.85 74.95 13.07 80.08 13.48 84.73C13.84 88.86 12.98 94.22 8.29 95.46C4.36 96.5 0.48 92.68 2.78 88.88C4.51 86.01 8.61 87.41 8.06 90.66C7.95 91.33 7.66 92.26 7.13 92.71C5.1 94.44 4.45 90.12 6.25 90.69C7.15 90.97 7.52 89.58 6.64 89.29C3.63 88.29 1.57 92.18 4.23 94.07C6.83 95.91 9.24 93.52 9.57 90.86C9.92 88.01 7.65 85.3 4.59 85.99C1.84 86.61 0.56 89.79 1.01 92.35L1.03 92.38ZM17.63 52.41C18.55 52.59 19.53 52.84 20.49 52.76C19.91 55.24 18.87 57.43 17.14 59.26C17.06 55.49 14.7 52.37 10.85 51.84C13.11 51.43 15.42 51.97 17.63 52.41Z" fill="#B6A893"/>
    <path d="M4.32997 116.39C2.94997 121.56 3.18997 132.41 11.51 130C13.94 129.29 16 127.08 15.78 124.44C15.6 122.24 13.88 120.29 11.56 120.49C9.55997 120.66 7.63997 122.51 8.29997 124.62C8.91997 126.58 11.36 126.77 12.63 125.35C13.19 124.72 12.26 123.79 11.7 124.42C9.34997 125.97 8.61997 122.26 11.25 121.81C12.11 121.54 15.21 122.57 14.34 125.85C13.64 128.49 10.28 129.77 7.81997 128.72C3.83997 127.03 4.44997 120.93 5.20997 117.54C6.82997 110.32 11.6 104.43 14.74 97.8699C17.35 92.4299 18.56 86.5299 18.06 80.4999C17.56 74.4699 15.42 69.3099 11.98 64.3799C11.96 64.3499 11.92 64.3799 11.94 64.3999C17.32 72.5099 18.78 83.5599 15.76 92.7799C13.02 101.15 6.60997 107.81 4.31997 116.38L4.32997 116.39Z" fill="#B6A893"/>
    <path d="M11.4301 97.4999C7.96007 98.8199 4.55007 98.6999 1.41007 96.6399C1.39007 96.6199 1.36007 96.6399 1.35007 96.6499C1.31007 96.6499 1.26007 96.6699 1.26007 96.7099C1.25007 98.9499 2.45007 100.83 4.31007 101.87C2.58007 103.11 1.69007 106.43 1.51007 108.08C1.26007 110.44 1.89007 113.97 2.95007 115.62C3.05007 115.78 3.27007 115.76 3.27007 115.58C3.32007 110.87 10.3901 99.6499 11.9301 98.7399C12.5701 98.3699 12.1701 97.2099 11.4201 97.4999H11.4301ZM2.88007 114.86C2.13007 113 1.61007 103.78 6.26007 101.93C6.41007 101.87 6.58007 101.18 5.76007 101.05C3.62007 100.7 1.93007 98.8699 1.41007 96.7799C3.81007 99.1199 6.55007 99.8199 9.57007 99.3399C7.04007 101.87 2.72007 111.67 2.87007 114.86H2.88007Z" fill="#B6A893"/>
    <path d="M0 0V151.57H1.33V1.33H156.02V0H0Z" fill="#B6A893"/>
    <path d="M40.43 58.57C40.43 59.85 39.39 60.89 38.11 60.89C36.83 60.89 35.79 59.85 35.79 58.57C35.79 57.29 36.83 56.25 38.11 56.25C39.39 56.25 40.43 57.29 40.43 58.57Z" fill="#B6A893"/>
    <path d="M56.9701 52.79C56.9701 54.07 55.9301 55.11 54.6501 55.11C53.3701 55.11 52.3301 54.07 52.3301 52.79C52.3301 51.51 53.3701 50.47 54.6501 50.47C55.9301 50.47 56.9701 51.51 56.9701 52.79Z" fill="#B6A893"/>
    <path d="M60.9 37.57C60.9 38.85 59.86 39.89 58.58 39.89C57.3 39.89 56.26 38.85 56.26 37.57C56.26 36.29 57.3 35.25 58.58 35.25C59.86 35.25 60.9 36.29 60.9 37.57Z" fill="#B6A893"/>
    <path d="M58.29 47.92C59.5713 47.92 60.61 46.8813 60.61 45.6C60.61 44.3187 59.5713 43.28 58.29 43.28C57.0087 43.28 55.97 44.3187 55.97 45.6C55.97 46.8813 57.0087 47.92 58.29 47.92Z" fill="#B6A893"/>
    <path d="M49.7601 57.4401C49.7601 58.7201 48.7201 59.7601 47.4401 59.7601C46.1601 59.7601 45.1201 58.7201 45.1201 57.4401C45.1201 56.1601 46.1601 55.1201 47.4401 55.1201C48.7201 55.1201 49.7601 56.1601 49.7601 57.4401Z" fill="#B6A893"/>
  </g>
  <defs>
    <clipPath id="clip0_1501_93755">
      <rect width="156.02" height="151.57" fill="white"/>
    </clipPath>
  </defs>
</svg>