<svg xmlns="http://www.w3.org/2000/svg" width="57" height="65" viewBox="0 0 57 65" fill="none"><g clip-path="url(#clip0_807_63816)"><path d="M16.2335 3.54689C15.4916 5.05331 14.9582 6.72279 15.8772 8.23408c2.6403 4.33432 4.745 8.92412 7.0312 13.48232C22.5498 20.3317 20.6468 14.3571 20.5393 12.9213c1.4434 2.9252 3.8417 10.7494 5.1238 13.7598C25.7326 26.6373 25.7998 26.5935 25.8693 26.5521 25.607 25.5932 25.0534 24.116 24.957 23.7875 24.5872 22.5317 24.2645 21.2589 23.9708 19.9813 23.3858 17.4211 21.6779 9.17346 21.5546 6.53296c1.2036 2.60887 3.2433 11.05364 3.9337 13.86444C25.5308 19.1027 25.1319 13.1379 25.3896 11.8724c.3049 1.5429.538 4.2345.750899999999998 6.9504C26.1652 17.9832 26.2503 17.1436 26.4229 16.3065 26.8129 17.9443 26.9721 19.733 27.1446 21.4147 27.1446 21.4341 27.1469 21.4536 27.1491 21.4731 27.1222 20.6262 27.0976 19.7841 27.0886 18.9372 27.055 16.2554 27.2657 13.5686 27.1648 10.8892 27.0169 6.95155 25.8222 1.86768 21.772.774972 19.5329.17143 17.3094 1.36391 16.2335 3.54689z" fill="url(#paint0_linear_807_63816)"/><path d="M30.5919 28.2556C30.7219 28.3335 30.8609 28.2264 30.8945 28.0828 30.9976 27.9903 31.0671 27.8687 31.0559 27.7007 31.0245 27.3552 30.6166 27.2432 30.3588 27.2213 30.2557 27.214 30.1571 27.2481 30.11 27.3576 30.0652 27.4647 30.0293 27.5718 30.0517 27.6886 30.0652 27.7567 30.0943 27.8127 30.1235 27.8687 30.1167 27.9587 30.1235 28.0512 30.1526 28.1534 30.1952 28.2897 30.3274 28.3359 30.4485 28.3043 30.4933 28.2897 30.5426 28.2751 30.5919 28.2556z" fill="url(#paint1_linear_807_63816)"/><path d="M33.1605 29.4283C33.1516 29.4453 33.1426 29.4598 33.1337 29.4768 33.2793 29.4501 33.4385 29.4114 33.5954 29.3678 33.4519 29.3896 33.304 29.409 33.1628 29.4308L33.1605 29.4283z" fill="url(#paint2_linear_807_63816)"/><path d="M32.5486 29.0465C32.4949 28.9662 32.4478 28.9102 32.3536 28.8908 32.2259 28.8664 32.1161 28.9589 32.0869 29.0928 32.0847 29.1049 32.0802 29.1195 32.078 29.1341c-.0381.1631.0716999999999999.2653.1905.2775C32.4523 29.4943 32.6943 29.2656 32.5486 29.0465z" fill="url(#paint3_linear_807_63816)"/><path d="M31.4526 28.6888C31.2195 28.645 30.9931 28.7594 31.0469 29.0538 31.094 29.2996 31.3854 29.324 31.4795 29.1707 31.6723 29.1001 31.7014 28.735 31.4526 28.6888z" fill="url(#paint4_linear_807_63816)"/><path d="M29.079 35.1623C29.1171 35.0333 29.0073 34.8921 28.8952 34.8702L28.5186 34.7948C28.3617 34.7631 28.2519 34.9019 28.2497 35.0625 28.2474 35.2304 28.2452 35.3983 28.2407 35.5663 28.2385 35.7366 28.4178 35.8193 28.5455 35.7804L28.7114 35.7269C28.7876 35.7025 28.8459 35.6198 28.8593 35.5395V35.5297C28.8974 35.4932 28.9243 35.4494 28.9535 35.4081 29.0028 35.3813 29.0431 35.3253 29.0476 35.2377 29.0588 35.2109 29.0745 35.1866 29.079 35.1623z" fill="url(#paint5_linear_807_63816)"/><path d="M29.841 35.374C29.7648 35.3959 29.711 35.4202 29.664 35.4908 29.6012 35.5833 29.59 35.6928 29.6483 35.795 29.72 35.9191 29.8433 35.9629 29.9688 35.9995 30.2221 36.0749 30.314 35.6952 30.1324 35.5541 30.0943 35.4324 29.9845 35.3326 29.841 35.3764V35.374z" fill="url(#paint6_linear_807_63816)"/><path d="M32.4993 38.2068C32.5195 38.2408 32.5464 38.2895 32.5688 38.3309 32.5643 38.3163 32.5599 38.2992 32.5554 38.2846 32.5374 38.2603 32.5173 38.2311 32.5016 38.2092L32.4993 38.2068z" fill="url(#paint7_linear_807_63816)"/><path d="M28.9378 36.5981C29.0095 36.8342 29.0879 37.1068 29.1664 37.3988 29.135 37.1457 29.1103 36.8902 29.0902 36.6395 29.0409 36.6103 28.9893 36.5908 28.9378 36.6006V36.5981z" fill="url(#paint8_linear_807_63816)"/><path d="M27.2634 35.52C27.2545 35.4251 27.2052 35.318 27.1245 35.2791 27.0797 35.2596 27.0416 35.245 26.9922 35.2523 26.981 35.2523 26.9765 35.2523 26.9698 35.2523 26.9653 35.2499 26.9497 35.245 26.9026 35.2377 26.7367 35.2158 26.5372 35.2377 26.461 35.4251 26.4409 35.4811 26.4409 35.5322 26.4476 35.5833 26.4297 35.632 26.4162 35.6831 26.4072 35.7366 26.3422 35.8705 26.4364 36.0506 26.5731 36.0968 26.5776 36.0968 26.5776 36.0968 26.5798 36.0992 26.6045 36.1065 26.6247 36.0992 26.6471 36.0992 26.6986 36.1138 26.7502 36.1138 26.795 36.0919 26.8129 36.0919 26.8309 36.0919 26.8488 36.0944 26.9093 36.0944 26.9698 36.0944 27.0326 36.0944 27.1245 36.0895 27.2141 36.0311 27.2366 35.8997V35.8899C27.2522 35.7683 27.2702 35.6417 27.259 35.52H27.2634z" fill="url(#paint9_linear_807_63816)"/><path d="M24.6432 34.6561C24.4908 34.8848 24.3295 35.1112 24.1613 35.3278 24.3967 35.1306 24.8898 34.9724 24.6432 34.6561z" fill="url(#paint10_linear_807_63816)"/><path d="M29.3053 30.3923C29.3166 30.4386 29.3367 30.4848 29.386 30.5213 29.4533 30.5724 29.5048 30.6041 29.5922 30.6016 29.7626 30.6016 29.8612 30.3583 29.7604 30.2123 29.7267 30.1611 29.6819 30.1149 29.6393 30.0687 29.4443 29.8594 29.1798 30.1684 29.3053 30.3899V30.3923z" fill="url(#paint11_linear_807_63816)"/><path d="M27.4472 29.7937S27.4517 29.7937 27.4562 29.7912C27.6378 29.8448 27.8148 29.5771 27.6781 29.3848 27.6736 29.3751 27.6691 29.3653 27.6669 29.3556 27.6669 29.3483 27.6333 29.2899 27.631 29.285 27.6019 29.2218 27.566 29.1828 27.5212 29.1341 27.3822 28.9833 27.111 29.1317 27.1424 29.3459 27.1671 29.5138 27.2141 29.8375 27.4472 29.7937z" fill="url(#paint12_linear_807_63816)"/><path d="M31.1321 30.4653C31.1881 30.3753 31.1904 30.2536 31.0828 30.1709 30.9685 30.0833 30.8385 29.9932 30.7017 30.0979 30.6278 30.1563 30.5695 30.2877 30.6166 30.3875 30.6569 30.4751 30.7085 30.5384 30.7712 30.6089 30.9147 30.7671 31.0985 30.6333 31.1321 30.4629V30.4653z" fill="url(#paint13_linear_807_63816)"/><path d="M29.0117 29.5892C29.0117 29.5649 29.0117 29.5406 29.0117 29.5162 29.1171 29.4286 29.1642 29.2534 29.0386 29.1268 29.0117 29.0976 28.9826 29.0782 28.9535 29.0538 28.8907 28.937 28.7831 28.8372 28.7047 28.7399 28.615 28.6304 28.4379 28.5744 28.3416 28.718 28.2138 28.9151 28.1085 29.1171 28.2295 29.3483 28.2564 29.3945 28.3012 29.4286 28.3483 29.4554 28.3931 29.6184 28.5254 29.7572 28.68 29.835 28.8526 29.9202 29.0073 29.7766 29.0095 29.5892H29.0117z" fill="url(#paint14_linear_807_63816)"/><path d="M24.9302 28.2386C24.7486 28.2678 24.6836 28.4041 24.6388 28.5841 24.5827 28.8105 24.8046 28.9151 24.9615 28.8397 25.0983 28.8372 25.2462 28.6961 25.2036 28.5063 25.1902 28.443 25.1745 28.3968 25.1386 28.3456 25.0915 28.2775 25.0131 28.224 24.9302 28.241V28.2386z" fill="url(#paint15_linear_807_63816)"/><path d="M25.7595 29.1901C25.7348 29.3337 25.8133 29.4238 25.9097 29.4603 26.0576 29.5649 26.3176 29.4092 26.2571 29.1634 26.2481 29.122 26.2391 29.0806 26.2279 29.0392 26.1853 28.8932 25.9971 28.8226 25.8805 28.92 25.7953 28.9906 25.7774 29.083 25.7595 29.1926V29.1901z" fill="url(#paint16_linear_807_63816)"/><path d="M24.5379 30.1003C24.5917 30.2195 24.6903 30.2341 24.7576 30.3266 24.8517 30.4556 24.9974 30.4434 25.0915 30.368 25.2148 30.3558 25.3403 30.3072 25.4434 30.2512 25.6295 30.1514 25.6429 29.9129 25.4658 29.7912 25.2574 29.6476 25.0758 29.5357 24.8338 29.487 24.7419 29.4676 24.6208 29.5187 24.585 29.6209 24.5357 29.7669 24.4684 29.9445 24.5379 30.0979V30.1003z" fill="url(#paint17_linear_807_63816)"/><path d="M28.541 30.8669C28.5007 30.5237 28.1533 30.3802 27.8776 30.3558 27.7857 30.3485 27.6624 30.3802 27.6288 30.4897 27.5593 30.7209 27.4988 30.9886 27.6355 31.2052 27.6512 31.2295 27.6714 31.249 27.6893 31.2709 27.7005 31.3147 27.7072 31.3561 27.705 31.3999 27.7028 31.5483 27.8888 31.6822 28.0121 31.614 28.0412 31.597 28.0726 31.5799 28.104 31.5605 28.1197 31.5678 28.1353 31.5751 28.1488 31.5799 28.3685 31.6773 28.5366 31.4096 28.4559 31.2392 28.5231 31.1322 28.5567 31.008 28.541 30.8645V30.8669z" fill="url(#paint18_linear_807_63816)"/><path d="M29.3367 31.8306 29.4197 31.8696C29.655 31.9791 29.6348 31.5873 29.3972 31.4777L29.3143 31.4388C29.079 31.3293 29.0991 31.7211 29.3367 31.8306z" fill="url(#paint19_linear_807_63816)"/><path d="M25.7438 31.0421C25.681 31.1735 25.7595 31.3901 25.9096 31.3974 26.0598 31.4072 26.2638 31.4704 26.414 31.412 26.4453 31.3999 26.47 31.3804 26.4947 31.3561 26.5238 31.3634 26.5529 31.3658 26.5821 31.3634 26.6045 31.3634 26.6269 31.3561 26.6471 31.3463 26.665 31.3366 26.6829 31.3269 26.6964 31.3147 26.7031 31.3098 26.7121 31.3074 26.7188 31.3001 26.8017 31.2222 26.8309 31.0884 26.7748 30.9837 26.7748 30.9496 26.7703 30.918 26.7659 30.8839 26.7815 30.7793 26.7479 30.6746 26.6493 30.626 26.5552 30.5773 26.4588 30.5311 26.3624 30.4848 26.2391 30.424 26.1002 30.4897 26.0531 30.6235 25.9119 30.7136 25.8177 30.8937 25.746 31.0446L25.7438 31.0421z" fill="url(#paint20_linear_807_63816)"/><path d="M23.7646 30.497C23.7512 30.5019 23.7422 30.5165 23.7288 30.5238 23.6189 30.4897 23.4957 30.5505 23.4396 30.6722 23.3903 30.7793 23.4038 30.9302 23.4105 31.047 23.3836 31.1808 23.4351 31.3366 23.5831 31.3488 23.7131 31.3609 23.8969 31.3707 24.0067 31.2806 24.0336 31.2587 24.047 31.2319 24.0627 31.2027 24.1076 31.1979 24.1502 31.193 24.195 31.1833 24.3631 31.1419 24.3922 30.8669 24.2667 30.7598 24.1412 30.6527 23.9507 30.4069 23.7646 30.4946V30.497z" fill="url(#paint21_linear_807_63816)"/><path d="M24.6074 31.9231C24.6186 31.9669 24.641 32.0107 24.6881 32.0448 24.8136 32.1397 24.9369 32.1786 25.0848 32.1251 25.2372 32.0691 25.2641 31.8866 25.1969 31.7503 25.105 31.5653 24.975 31.485 24.7867 31.4656 24.5334 31.4412 24.4348 31.8087 24.6074 31.9231z" fill="url(#paint22_linear_807_63816)"/><path d="M26.2526 32.4585C26.2369 32.5437 26.266 32.6361 26.3288 32.6946 26.4117 32.7724 26.4924 32.826 26.6067 32.8114 26.6247 32.8114 26.6381 32.7968 26.6538 32.7919 26.8802 32.8576 27.0303 32.512 26.8376 32.3563 26.8129 32.3173 26.7793 32.2881 26.739 32.2687 26.6986 32.2273 26.6538 32.1811 26.6 32.1616 26.4633 32.108 26.3041 32.1689 26.2728 32.3417L26.2526 32.4634V32.4585z" fill="url(#paint23_linear_807_63816)"/><path d="M27.4428 33.0401C27.454 33.1277 27.5055 33.2105 27.5974 33.2519 27.5997 33.2519 27.6041 33.2567 27.6064 33.2592 27.5862 33.2592 27.6467 33.2981 27.6534 33.303 27.6983 33.3443 27.7476 33.376 27.8014 33.3979 27.8664 33.4295 27.9359 33.4344 28.0031 33.4295c0 0 .00219999999999843.0.00450000000000017.0C28.0166 33.4295 28.0255 33.4344 28.0345 33.4368 28.095 33.4636 28.16 33.4733 28.2362 33.449 28.3662 33.4076 28.4043 33.303 28.3953 33.1886 28.4178 33.1034 28.4021 33.0061 28.3326 32.9306 28.2205 32.8089 28.1286 32.6508 27.9941 32.5583 27.8753 32.478 27.7117 32.5583 27.5907 32.585 27.4472 32.6167 27.3419 32.753 27.3934 32.9185 27.4069 32.9598 27.4271 32.9963 27.4428 33.0377V33.0401z" fill="url(#paint24_linear_807_63816)"/><path d="M30.2624 33.5828 30.3274 33.5974C30.6188 33.6558 30.7017 33.1667 30.4104 33.1083L30.3476 33.0961C30.0562 33.0377 29.9733 33.5269 30.2647 33.5853L30.2624 33.5828z" fill="url(#paint25_linear_807_63816)"/><path d="M32.5106 34.4516C32.7818 34.3884 32.7907 34.0963 32.7257 33.8554 32.6675 33.6412 32.5218 33.41 32.3111 33.3541 32.2192 33.3322 32.1407 33.3468 32.069 33.3833 32.0197 33.3833 31.9726 33.3979 31.9345 33.4271 31.8157 33.5147 31.7709 33.6096 31.7664 33.7532 31.7507 33.7873 31.7373 33.8213 31.7238 33.8554 31.6342 34.0988 31.8897 34.2813 32.0488 34.1839 32.0555 34.1839 32.0623 34.1839 32.0668 34.1864 32.1923 34.3494 32.3469 34.4906 32.5083 34.4541L32.5106 34.4516z" fill="url(#paint26_linear_807_63816)"/><path d="M24.4976 32.8747 24.4281 32.9282C24.1838 33.1083 24.4438 33.5196 24.6881 33.3371L24.7553 33.2859C25.0019 33.1034 24.7396 32.6921 24.4976 32.8747z" fill="url(#paint27_linear_807_63816)"/><path d="M25.1095 33.8384C25.1184 34.274 25.3471 34.4711 25.6429 34.5271 25.7102 34.5831 25.8133 34.5879 25.894 34.5466 26.0217 34.5417 26.1517 34.5174 26.2772 34.4808 26.3534 34.4589 26.4117 34.3713 26.4252 34.291L26.4678 34.0452C26.4857 33.9333 26.4319 33.8286 26.3422 33.7751 26.1562 33.668 25.9746 33.6072 25.7707 33.5682 25.7236 33.5585 25.6765 33.5682 25.6295 33.5901 25.5376 33.5634 25.439 33.5488 25.3179 33.5707 25.1879 33.5926 25.1072 33.6948 25.1095 33.8408V33.8384z" fill="url(#paint28_linear_807_63816)"/><path d="M27.6131 34.5855C27.7027 34.4541 27.7319 34.2983 27.6848 34.1426 27.6602 34.0598 27.5884 33.9966 27.51 33.982L27.2859 33.9357C27.1267 33.9041 27.0169 34.0428 27.0146 34.201 27.0124 34.3008 27.0796 34.4078 27.0864 34.4687 27.1043 34.6707 27.2948 34.7291 27.4226 34.6609 27.4898 34.6731 27.5615 34.6609 27.6131 34.5855z" fill="url(#paint29_linear_807_63816)"/><path d="M29.8545 34.6512C29.9934 34.5806 30.0764 34.3738 29.9172 34.2472 29.859 34.1986 29.8007 34.1475 29.7245 34.1328 29.599 34.1085 29.4824 34.1986 29.4578 34.3324 29.4421 34.4151 29.4645 34.4882 29.4847 34.5685 29.5384 34.7729 29.7424 34.768 29.8545 34.6488V34.6512z" fill="url(#paint30_linear_807_63816)"/><path d="M31.0581 34.6974C31.2105 34.4419 30.9371 34.2399 30.7443 34.1888 30.5919 34.1474 30.4709 34.3032 30.4731 34.4541 30.4731 34.532 30.491 34.6074 30.5314 34.6731 30.556 34.7145 30.6233 34.8678 30.6009 34.734 30.6524 35.0479 31.1052 35.009 31.0581 34.6974z" fill="url(#paint31_linear_807_63816)"/><path d="M29.395 32.5607C29.3143 32.4731 29.2135 32.4682 29.1081 32.4731 28.9467 32.4828 28.8773 32.6556 28.9109 32.8041 28.9602 33.0328 29.1619 33.32 29.404 33.1642 29.469 33.118 29.5071 33.0231 29.5004 32.9379 29.5116 32.8941 29.5116 32.8479 29.4892 32.7943 29.4555 32.7092 29.4645 32.6361 29.395 32.5607z" fill="url(#paint32_linear_807_63816)"/><path d="M31.2531 32.9501C31.5266 32.8941 31.6364 32.6167 31.4526 32.3758 31.3742 32.2735 31.2442 32.2297 31.1343 32.3125 31.1186 32.3246 31.1074 32.3417 31.094 32.3538 31.094 32.3538 31.0917 32.3538 31.0895 32.3563V32.3587C30.9752 32.4682 30.9236 32.6215 31.02 32.7651 31.0357 32.8819 31.1142 32.9793 31.2531 32.9501z" fill="url(#paint33_linear_807_63816)"/><path d="M32.6361 32.3222C32.6719 32.237 32.6652 32.1324 32.5711 32.0545 32.5128 32.0083 32.4568 31.9547 32.385 31.9426 32.2214 31.9158 32.0555 32.0935 32.1273 32.2735 32.1519 32.3368 32.1855 32.3904 32.2214 32.4488 32.3559 32.6581 32.6181 32.5218 32.6383 32.3222H32.6361z" fill="url(#paint34_linear_807_63816)"/><path d="M30.7488 31.5653C30.7488 31.5532 30.7488 31.5386 30.7488 31.5094 30.7488 31.4388 30.7085 31.3609 30.6569 31.3171 30.5964 31.266 30.5045 31.2344 30.4283 31.2733 30.2131 31.3828 30.1324 31.6457 30.2647 31.8696 30.3028 31.9401 30.3969 31.9912 30.4731 31.9766 30.5202 31.9669 30.5583 31.9596 30.5964 31.9304 30.6659 31.8769 30.6569 31.8793 30.63 31.8915 30.6524 31.8769 30.6704 31.8598 30.6861 31.8403 30.7578 31.7673 30.7936 31.6603 30.7488 31.5653z" fill="url(#paint35_linear_807_63816)"/><path d="M31.8964 31.4948C32.0712 31.378 31.9973 31.1492 31.8538 31.0738 31.753 30.918 31.4773 30.9156 31.4369 31.1614 31.3809 31.5118 31.6162 31.6822 31.8964 31.4972V31.4948z" fill="url(#paint36_linear_807_63816)"/><path d="M32.8938 31.3682C33.0911 31.3682 33.2614 31.2514 33.3219 31.0446 33.3712 30.8766 33.295 30.7184 33.1942 30.5846 33.1942 30.5749 33.1942 30.5627 33.1942 30.5505 33.1673 30.3631 33.0193 30.2609 32.8714 30.1903 32.7862 30.149 32.6562 30.1587 32.598 30.2512 32.4523 30.4799 32.3178 30.7574 32.4164 31.0397 32.4881 31.2538 32.6943 31.3658 32.8938 31.3682z" fill="url(#paint37_linear_807_63816)"/><path d="M32.2124 29.9932 32.1385 29.874C31.9704 29.6087 31.5916 29.891 31.7597 30.1563L31.8336 30.2755C32.0017 30.5408 32.3805 30.2585 32.2124 29.9932z" fill="url(#paint38_linear_807_63816)"/><path d="M30.3902 29.4262C30.4574 29.1341 30.379 28.9054 30.0652 28.9248 29.8792 28.9346 29.8298 29.139 29.9016 29.2899 29.8926 29.3605 29.9105 29.431 29.9576 29.4822 30.0338 29.6622 30.3364 29.6768 30.3924 29.4262H30.3902z" fill="url(#paint39_linear_807_63816)"/><path d="M26.405 27.8711C26.5014 27.9076 26.6157 27.9003 26.6897 27.9684 26.9048 28.1656 27.1805 27.837 27.0124 27.6229 27.0169 27.5693 27.0124 27.5133 26.9788 27.4598 26.9295 27.3746 26.869 27.1556 26.7928 27.0972 26.6852 27.0144 26.5507 27.0437 26.4229 27.0193 26.275 26.9925 26.1719 27.1094 26.1584 27.2554 26.0553 27.2992 25.9746 27.3649 25.9119 27.4647 25.8021 27.6423 25.8895 27.8881 26.1069 27.8735 26.2055 27.8687 26.3064 27.8687 26.405 27.8687V27.8711z" fill="url(#paint40_linear_807_63816)"/><path d="M28.2653 28.0512C28.281 28.0195 28.3012 27.9903 28.3191 27.9587 28.346 27.9319 28.3662 27.9027 28.3797 27.8662 28.615 27.8516 28.6688 27.4622 28.4267 27.3892 28.3483 27.1921 28.16 27.0339 27.9852 26.9974 27.8933 26.9804 27.77 27.0291 27.7364 27.1337 27.6826 27.2968 27.6333 27.4671 27.7028 27.635 27.7386 27.7226 27.7969 27.7713 27.8574 27.82 27.8574 27.8249 27.8507 27.8273 27.8484 27.8322 27.696 28.1096 28.1107 28.3237 28.2631 28.0512H28.2653z" fill="url(#paint41_linear_807_63816)"/><path d="M24.4101 26.2235C24.576 26.6032 24.7374 26.9828 24.892 27.3625 24.9212 27.3259 24.8876 27.3673 24.9369 27.3138 24.8046 27.0169 24.6208 26.6397 24.4079 26.2235H24.4101z" fill="url(#paint42_linear_807_63816)"/><path d="M29.3121 28.0682 29.2583 28.1291C29.0498 28.3578 29.3995 28.6839 29.6057 28.4552L29.6595 28.3943C29.8657 28.1631 29.516 27.8395 29.3121 28.0682z" fill="url(#paint43_linear_807_63816)"/><path d="M32.5419 27.8468C32.4119 27.9368 32.273 28.0293 32.1497 28.1145 32.1654 28.1412 32.1788 28.168 32.1923 28.1923 32.3066 28.0755 32.4231 27.9611 32.5419 27.8468z" fill="url(#paint44_linear_807_63816)"/><path d="M29.2874 26.6664 29.1754 26.6445C28.884 26.5837 28.801 27.0753 29.0902 27.1337L29.2023 27.1556C29.4936 27.2164 29.5788 26.7248 29.2874 26.6664z" fill="url(#paint45_linear_807_63816)"/><path d="M26.9788 26.0556C26.9003 25.5007 26.8174 24.9434 26.7367 24.3837 26.7995 25.0237 26.8622 25.6029 26.9295 26.0702 26.9474 26.0629 26.9631 26.0629 26.9788 26.0556z" fill="url(#paint46_linear_807_63816)"/><path d="M27.194 26.0045C27.2926 25.9801 27.3912 25.9509 27.4943 25.9339 27.4764 25.6978 27.4383 25.4447 27.4293 25.1843 27.4203 24.9605 27.4114 24.7317 27.4046 24.5078 27.371 25.0164 27.3038 25.5178 27.194 26.0069V26.0045z" fill="url(#paint47_linear_807_63816)"/><path d="M7.22538 18.2753c2.33553 1.3214 4.72262 2.3922 6.97972 3.9011 2.2772 1.5283 4.4895 3.171 6.8205 4.6069-1.6967-1.3629-5.599-4.7797-6.9057-6.5903 2.618 1.6086 7.3361 5.5633 9.5954 7.7341C23.7198 27.9198 23.722 27.9125 23.7265 27.9076c-1.1117-1.1268-4.0995-4.1323-4.4895-4.5679-1.6519-1.852-7.2957-8.4375-8.5868-10.6083C11.6342 13.4226 16.9441 17.8932 21.902 23.8191c-1.8693-2.7281-3.5414-5.6777-5.0633-8.5713 1.5242 1.4432 2.9116 3.1954 4.1376 5.0912C20.7051 19.8425 20.5034 19.4677 20.4317 19.3168c-1.2776-2.6891-2.3064-5.5341-3.8194-8.0869-2.0127-3.39497-6.65018-7.30583-9.96968-3.30979-2.27725 2.74029-2.90485 8.37659.58949 10.35999L7.22538 18.2753z" fill="url(#paint48_linear_807_63816)"/><path d="M4.66796 31.7649C9.16868 33.1132 13.8734 31.0592 18.4212 31.1808 17.2691 30.9667 11.3697 29.8423 10.258 29.4408 10.9685 29.4092 21.2812 30.66 23.805 30.9131 19.7548 30.2755 7.55712 27.3284 3.95968 25.2963 5.68331 25.3669 11.103 26.445 15.1644 27.3479 14.0594 26.9268 12.979 26.4328 11.9615 25.8098 11.8987 25.7733 11.8315 25.7344 11.7552 25.6881 13.5058 26.0313 15.2182 26.4669 16.897 26.9926c-1.8267-1.0246-3.9695-2.2925-4.7114-2.9107C14.5682 24.8461 20.3084 27.708 22.5901 28.7691c-4.2138-2.4945-8.0309-5.9332-12.4957-7.902-2.99901-1.3215-7.01335-2.0297-9.00146 1.4723.62983-1.1121 1.80656-3.1856.0.0.0.0.0.000799999999998136.0.00249999999999773-2.17415 3.8378-.304832 8.2549 3.57502 9.4206V31.7649z" fill="url(#paint49_linear_807_63816)"/><path d="M8.81677 43.9964C11.1097 43.0643 13.1875 41.5627 15.2541 40.1585 17.3363 38.7446 19.4858 37.4767 21.6689 36.2501 20.147 36.8464 14.3687 39.2946 12.793 39.6937c2.414-1.9591 9.7523-4.8551 12.5518-6.0013C25.3022 33.5707 19.3267 35.4884 18.6161 35.666 16.2492 36.2647 9.33005 38.9442 6.90038 39.095c1.94553-1.0051 5.63932-2.5821 9.02612-3.8621C14.1871 35.5006 12.4344 35.7171 10.7376 36.2331 10.8654 36.1309 10.9752 36.0554 11.0716 35.9946c1.5264-1.0806 3.4114-1.4724 5.1754-1.8106.5626-.1096 1.1274-.2361 1.69-.3675-2.7479.386900000000004-6.054.8566-7.3249.8688C13.0396 33.539 20.8553 32.3733 23.4553 32.2516 20.7477 32.3173 18.0379 31.8112 15.3325 32.164 12.7571 32.4999 10.1863 33.0961 7.57952 32.989 6.59779 32.9501 5.40761 32.4658 4.48192 32.972 3.61226 33.4514 2.82553 34.1109 2.15311 34.8751.812755 36.3986-.19363 38.5548.297235 40.7012c.936905 4.1007 5.421935 4.5485 8.519535 3.2903V43.9964z" fill="url(#paint50_linear_807_63816)"/><path d="M8.76746 55.5172C13.0799 58.8173 17.2265 53.254 19.2415 49.6887c1.3045-2.312 2.4252-4.7335 3.7812-7.0138C23.4553 41.9473 27.2007 36.3694 26.8353 36.0287c-1.8402 2.8692-6.6479 9.092-8.9252 11.5792C18.5467 45.8849 22.4086 41.0687 23.3948 39.555c-2.1697 2.2365-8.4702 8.3815-11.0434 10.0582 1.3875-2.1172 7.056-7.9823 8.7796-9.7759C20.2524 40.4384 15.4401 43.7409 14.4584 44.1205c1.7863-1.8496 7.6812-6.2447 9.5954-7.9337-5.0566 3.0883-10.0527 6.3956-15.36255 8.9412C7.00348 45.9384 5.68106 46.6807 5.6183 49.0097 5.5533 51.4604 6.94745 54.1155 8.76746 55.5099 7.6109 54.6217 8.15108 55.0378 8.76746 55.5099 9.32557 55.9383 9.5654 56.1208 9.60798 56.1549 9.55643 56.1184 9.15074 55.8068 8.76746 55.5124V55.5172z" fill="url(#paint51_linear_807_63816)"/><path d="M31.2038 57.121C31.3786 54.0424 30.834 51.0004 30.4328 47.9656 30.2692 46.7318 30.1324 45.4931 29.9979 44.2592 29.8926 46.155 29.5945 48.0314 29.516 49.932 29.4735 49.8103 29.4443 49.7057 29.4219 49.6132 28.9266 47.9486 29.005 46.1234 29.0812 44.4004 29.1059 43.8504 29.1059 43.3004 29.0991 42.7455 28.7316 46.2159 28.1152 50.7376 27.8036 52.2075 27.4517 50.6134 28.355 42.3537 28.4245 40.728 27.7588 43.551 24.7083 54.4902 23.4665 57.0821c.1054-3.0543 2.9856-14.1906 3.7432-17.1207C26.4633 41.6284 23.267 49.348 22.4131 50.9542 22.5296 48.9999 25.6765 41.0103 26.4991 39.3043c-1.542 2.4848-3.0102 4.9792-4.3483 7.6027-1.226 2.4044-2.4924 4.8673-4.1959 6.9164C17.4327 54.4537 17.0315 54.607 17.0965 55.4491 17.1391 55.9845 17.222 56.515 17.3408 57.0358 17.5874 58.1091 17.9886 59.1434 18.5198 60.0876 19.562 61.9518 21.1579 63.5385 23.1236 64.1372 27.4764 65.4611 30.9461 61.6646 31.2038 57.1234V57.121z" fill="url(#paint52_linear_807_63816)"/><path d="M40.4361 45.8971c-1.0221-1.3483-2.024-2.716-3.0191-4.0861C38.0849 43.1641 38.6161 44.5732 38.8851 45.9993c-1.0266-1.4845-2.1114-3.1005-3.0326-4.8016C36.7244 43.517 37.5537 46.1258 37.594 47.1747c-1.0153-1.9591-3.8507-8.6394-4.9221-10.5595 1.0737 2.8668 3.8104 13.1684 3.9449 13.9983-1.1252-1.7474-3.0057-7.7122-3.8216-9.6446C32.645 40.6112 32.5016 40.251 32.3581 39.8908 32.9454 41.9984 33.3825 44.1497 33.8464 46.3351 33.0216 45.1402 32.4949 43.6995 32.0824 42.2539 32.5128 44.5683 32.849 46.8535 32.8938 48.2553 32.2349 46.7634 31.094 41.317 30.6816 39.7302 30.5717 39.3116 29.924 35.6952 29.7985 35.6928c.8293 5.0571 1.3314 10.1678 1.8895 15.2662C31.874 52.6699 31.9278 54.4026 32.0174 56.1232 32.078 57.2889 32.0264 58.5082 32.645 59.5206 34.1759 62.0321 37.9751 62.1513 40.4227 61.6938 43.7623 61.0635 46.2996 58.0628 45.226 54.281 44.3205 51.088 42.357 48.4378 40.4339 45.8995L40.4361 45.8971z" fill="url(#paint53_linear_807_63816)"/><path d="M48.6531 37.7833c-2.3199-1.4139-4.828-2.4288-7.3697-3.2562C40.0775 34.1328 38.8604 33.7824 37.6411 33.4539 36.9776 33.2738 36.3119 33.101 35.6485 32.9331 35.5409 32.9063 35.44 32.8722 35.3459 32.8406 35.4894 32.9793 35.6171 33.1375 35.7516 33.2981 39.1114 34.0136 42.5385 35.2596 45.4142 37.2698 43.908 37.0045 42.2965 36.5738 40.7096 36.0043c2.2929 1.1657 4.6845 2.4629 5.9912 3.3C43.9775 38.893 38.1252 35.9921 35.7471 34.5563 39.5239 37.1092 45.226 41.9716 48.3841 45.3933 45.1341 43.7725 40.1492 39.611 37.2488 37.355 38.5309 38.6448 42.4601 43.6581 43.2491 45.3714c-2.0644-1.9129-6.9304-7.3472-8.7527-9.5496C34.4538 35.8218 34.4112 35.8145 34.3642 35.7828 34.019 35.5322 33.6761 35.2791 33.3376 35.0163 33.3623 35.2353 33.6066 35.3935 33.8554 35.722 34.0593 35.9946 34.2656 36.2647 34.4718 36.5348 34.985 37.2163 35.4983 37.8977 36.0138 38.5815 37.0404 39.9492 38.0625 41.3194 39.0711 42.7017c1.8626 2.5553 3.7812 5.1277 5.3838 7.8874C45.3896 52.2026 47.8305 52.7429 49.4644 52.7672 51.3069 52.7916 53.3039 52.1296 54.3417 50.3652c3.0685-5.2299-1.8065-10.2164-5.6886-12.5819z" fill="url(#paint54_linear_807_63816)"/><path d="M40.7118 25.4082C38.4032 26.0994 36.1842 27.085 34.0616 28.2848 34.0504 28.443 34.0123 28.5841 33.9562 28.7156 35.9556 27.0923 38.9411 26.6275 41.3506 26.6421 40.732 27.0607 40.0483 27.3917 39.3311 27.6642 41.4963 27.1653 44.7351 26.3793 45.8491 26.2819c-1.9254 1.1536-7.957 2.7817-10.1177 3.1005C40.0797 28.9808 46.8913 28.7715 51.2195 29.4797c-2.8421.5014-6.1303 1.5746-16.3241 1.1511C34.7654 30.7793 34.6242 30.9131 34.4718 31.0299 35.124 31.12 35.9444 31.0981 36.2761 31.1249 37.1906 31.1979 38.1051 31.2611 39.0173 31.3415 40.8575 31.5069 46.2705 32.001 48.0299 32.641 45.0646 32.7311 38.4928 32.4804 35.5588 31.9353 38.0647 32.568 40.5661 33.2519 43.0025 34.1596 44.2666 34.6317 45.5129 35.1598 46.7187 35.7804 47.5996 36.2331 48.5925 37.1481 49.5743 37.2163 53.6267 37.501 58.5376 32.6605 56.536 28.1704c-2.7008-6.0573-11.115-4.1712-15.8264-2.7622H40.7118z" fill="url(#paint55_linear_807_63816)"/><path d="M50.1705 12.2909c-3.0057-2.071-7.6835-2.90331-10.6265-.2652C38.0311 13.3788 37.0942 15.81 36.0654 17.5865c-1.4076 2.4337-2.7502 4.9135-4.2093 7.3131 1.4972-1.8252 6.0719-7.0259 7.5647-8.8584-.8675 3.1394-6.3253 9.0482-8.6316 11.0803C30.8542 27.1824 30.9214 27.2456 30.9819 27.3089 31.8067 26.7467 33.0776 25.4058 33.4474 25.0943 34.6175 24.1062 35.8099 23.1547 37.0269 22.2372c2.163-1.633 8.3335-5.7044 10.7027-6.9724-2.2705 2.5554-6.4395 5.8748-10.2902 8.7076C39.1697 23.1182 40.9965 22.5341 42.7761 22.3808c-3.6467 1.998-7.3517 4.108-11.1195 5.8188C31.6745 28.2313 31.6947 28.2653 31.7126 28.2994c1.0019-.3675 3.1155-1.6354 3.5818-1.8471C36.7849 25.783 38.318 25.216 39.8802 24.7682 41.4492 24.318 43.0473 23.9894 44.6589 23.768 45.9723 23.5879 47.5391 23.875 48.6015 22.9892c3.1245-2.5943 5.8904-7.7195 1.5757-10.6983C50.3184 12.3883 50.4708 12.4929 50.6232 12.6 50.4888 12.5075 50.3408 12.4053 50.175 12.2909 49.052 11.517 49.4801 11.8139 50.175 12.2909H50.1705z" fill="url(#paint56_linear_807_63816)"/><path d="M32.6809.942854C30.8833 1.45149 28.29 2.94087 27.4629 4.83424 27.0931 5.68358 27.3822 6.66921 27.4965 7.55019 27.6669 8.85705 27.8148 10.1688 27.8933 11.4878 28.0905 14.7781 27.9426 18.1219 28.0121 21.4219c.3676-2.0637 1.1633-8.104 1.7012-10.1239C30.0719 14.8511 28.7159 22.4781 28.2519 26.0069 28.3057 26.0118 28.364 26.0166 28.4178 26.0215 28.9266 24.1792 29.98 19.7208 30.1616 19.1294 30.9931 16.4062 32.45 9.55794 33.7119 7.03182 33.1628 12.1595 31.1388 21.4365 29.2874 26.1992 29.321 26.2089 29.3524 26.2235 29.3838 26.2357c.4909-1.0003 1.2978-2.7695 1.4457-3.0664C31.7373 21.327 33.8531 15.4035 34.5569 13.4566 34.7452 16.6958 31.7552 23.9967 29.794 26.3987 29.9016 26.4474 30.0092 26.5009 30.1123 26.5569c.1389-.2239.2622-.491599999999998.4146-.7301C30.8026 25.3863 31.0738 24.941 31.3428 24.4932 31.9704 23.4492 32.5733 22.3881 33.1762 21.3246c1.1656-2.0613 2.3737-4.0837 3.5795-6.1157 1.1051-1.8667 2.1451-3.8184 2.739-5.95517C39.7592 8.29975 39.9318 7.30439 39.9049 6.3066 39.8825 5.5181 39.5911 4.89509 39.4589 4.15283 39.302 3.78778 39.3602 3.93867 39.4118 4.06035 38.2351 1.45879 35.189.232231 32.6809.942854z" fill="url(#paint57_linear_807_63816)"/></g><defs><linearGradient id="paint0_linear_807_63816" x1="-132.064" y1="-52.2784" x2="-132.064" y2="160.497" gradientUnits="userSpaceOnUse"><stop stop-color="#ffdcc0"/><stop offset="1" stop-color="#a68f7d"/></linearGradient><linearGradient id="paint1_linear_807_63816" x1="-132.064" y1="-52.2785" x2="-132.064" y2="160.497" gradientUnits="userSpaceOnUse"><stop stop-color="#ffdcc0"/><stop offset="1" stop-color="#a68f7d"/></linearGradient><linearGradient id="paint2_linear_807_63816" x1="-132.064" y1="-51.9081" x2="-132.064" y2="159.902" gradientUnits="userSpaceOnUse"><stop stop-color="#ffdcc0"/><stop offset="1" stop-color="#a68f7d"/></linearGradient><linearGradient id="paint3_linear_807_63816" x1="-132.063" y1="-52.2784" x2="-132.063" y2="160.497" gradientUnits="userSpaceOnUse"><stop stop-color="#ffdcc0"/><stop offset="1" stop-color="#a68f7d"/></linearGradient><linearGradient id="paint4_linear_807_63816" x1="-132.063" y1="-52.2785" x2="-132.063" y2="160.497" gradientUnits="userSpaceOnUse"><stop stop-color="#ffdcc0"/><stop offset="1" stop-color="#a68f7d"/></linearGradient><linearGradient id="paint5_linear_807_63816" x1="-132.064" y1="-52.2785" x2="-132.064" y2="160.497" gradientUnits="userSpaceOnUse"><stop stop-color="#ffdcc0"/><stop offset="1" stop-color="#a68f7d"/></linearGradient><linearGradient id="paint6_linear_807_63816" x1="-132.064" y1="-52.2783" x2="-132.064" y2="160.497" gradientUnits="userSpaceOnUse"><stop stop-color="#ffdcc0"/><stop offset="1" stop-color="#a68f7d"/></linearGradient><linearGradient id="paint7_linear_807_63816" x1="-132.062" y1="-52.2801" x2="-132.062" y2="160.5" gradientUnits="userSpaceOnUse"><stop stop-color="#ffdcc0"/><stop offset="1" stop-color="#a68f7d"/></linearGradient><linearGradient id="paint8_linear_807_63816" x1="-132.064" y1="-52.2784" x2="-132.064" y2="160.497" gradientUnits="userSpaceOnUse"><stop stop-color="#ffdcc0"/><stop offset="1" stop-color="#a68f7d"/></linearGradient><linearGradient id="paint9_linear_807_63816" x1="-132.064" y1="-52.2782" x2="-132.064" y2="160.497" gradientUnits="userSpaceOnUse"><stop stop-color="#ffdcc0"/><stop offset="1" stop-color="#a68f7d"/></linearGradient><linearGradient id="paint10_linear_807_63816" x1="-132.064" y1="-52.2782" x2="-132.064" y2="160.497" gradientUnits="userSpaceOnUse"><stop stop-color="#ffdcc0"/><stop offset="1" stop-color="#a68f7d"/></linearGradient><linearGradient id="paint11_linear_807_63816" x1="-132.064" y1="-52.2782" x2="-132.064" y2="160.497" gradientUnits="userSpaceOnUse"><stop stop-color="#ffdcc0"/><stop offset="1" stop-color="#a68f7d"/></linearGradient><linearGradient id="paint12_linear_807_63816" x1="-132.064" y1="-52.2785" x2="-132.064" y2="160.497" gradientUnits="userSpaceOnUse"><stop stop-color="#ffdcc0"/><stop offset="1" stop-color="#a68f7d"/></linearGradient><linearGradient id="paint13_linear_807_63816" x1="-132.064" y1="-52.2785" x2="-132.064" y2="160.497" gradientUnits="userSpaceOnUse"><stop stop-color="#ffdcc0"/><stop offset="1" stop-color="#a68f7d"/></linearGradient><linearGradient id="paint14_linear_807_63816" x1="-132.064" y1="-52.2784" x2="-132.064" y2="160.497" gradientUnits="userSpaceOnUse"><stop stop-color="#ffdcc0"/><stop offset="1" stop-color="#a68f7d"/></linearGradient><linearGradient id="paint15_linear_807_63816" x1="-132.064" y1="-52.2784" x2="-132.064" y2="160.497" gradientUnits="userSpaceOnUse"><stop stop-color="#ffdcc0"/><stop offset="1" stop-color="#a68f7d"/></linearGradient><linearGradient id="paint16_linear_807_63816" x1="-132.063" y1="-52.2784" x2="-132.063" y2="160.497" gradientUnits="userSpaceOnUse"><stop stop-color="#ffdcc0"/><stop offset="1" stop-color="#a68f7d"/></linearGradient><linearGradient id="paint17_linear_807_63816" x1="-132.064" y1="-52.2783" x2="-132.064" y2="160.497" gradientUnits="userSpaceOnUse"><stop stop-color="#ffdcc0"/><stop offset="1" stop-color="#a68f7d"/></linearGradient><linearGradient id="paint18_linear_807_63816" x1="-132.064" y1="-52.2784" x2="-132.064" y2="160.497" gradientUnits="userSpaceOnUse"><stop stop-color="#ffdcc0"/><stop offset="1" stop-color="#a68f7d"/></linearGradient><linearGradient id="paint19_linear_807_63816" x1="-113.839" y1="-31.3115" x2="-155.874" y2="126.184" gradientUnits="userSpaceOnUse"><stop stop-color="#ffdcc0"/><stop offset="1" stop-color="#a68f7d"/></linearGradient><linearGradient id="paint20_linear_807_63816" x1="-132.064" y1="-52.2784" x2="-132.064" y2="160.497" gradientUnits="userSpaceOnUse"><stop stop-color="#ffdcc0"/><stop offset="1" stop-color="#a68f7d"/></linearGradient><linearGradient id="paint21_linear_807_63816" x1="-132.064" y1="-52.2783" x2="-132.064" y2="160.497" gradientUnits="userSpaceOnUse"><stop stop-color="#ffdcc0"/><stop offset="1" stop-color="#a68f7d"/></linearGradient><linearGradient id="paint22_linear_807_63816" x1="-132.064" y1="-52.2786" x2="-132.064" y2="160.497" gradientUnits="userSpaceOnUse"><stop stop-color="#ffdcc0"/><stop offset="1" stop-color="#a68f7d"/></linearGradient><linearGradient id="paint23_linear_807_63816" x1="-132.064" y1="-52.2783" x2="-132.064" y2="160.497" gradientUnits="userSpaceOnUse"><stop stop-color="#ffdcc0"/><stop offset="1" stop-color="#a68f7d"/></linearGradient><linearGradient id="paint24_linear_807_63816" x1="-132.064" y1="-52.2783" x2="-132.064" y2="160.497" gradientUnits="userSpaceOnUse"><stop stop-color="#ffdcc0"/><stop offset="1" stop-color="#a68f7d"/></linearGradient><linearGradient id="paint25_linear_807_63816" x1="-132.064" y1="-52.2783" x2="-132.064" y2="160.497" gradientUnits="userSpaceOnUse"><stop stop-color="#ffdcc0"/><stop offset="1" stop-color="#a68f7d"/></linearGradient><linearGradient id="paint26_linear_807_63816" x1="-132.064" y1="-52.2784" x2="-132.064" y2="160.497" gradientUnits="userSpaceOnUse"><stop stop-color="#ffdcc0"/><stop offset="1" stop-color="#a68f7d"/></linearGradient><linearGradient id="paint27_linear_807_63816" x1="-132.064" y1="-52.2787" x2="-132.064" y2="160.498" gradientUnits="userSpaceOnUse"><stop stop-color="#ffdcc0"/><stop offset="1" stop-color="#a68f7d"/></linearGradient><linearGradient id="paint28_linear_807_63816" x1="-132.064" y1="-52.2786" x2="-132.064" y2="160.497" gradientUnits="userSpaceOnUse"><stop stop-color="#ffdcc0"/><stop offset="1" stop-color="#a68f7d"/></linearGradient><linearGradient id="paint29_linear_807_63816" x1="-132.064" y1="-52.2787" x2="-132.064" y2="160.498" gradientUnits="userSpaceOnUse"><stop stop-color="#ffdcc0"/><stop offset="1" stop-color="#a68f7d"/></linearGradient><linearGradient id="paint30_linear_807_63816" x1="-132.064" y1="-52.2782" x2="-132.064" y2="160.497" gradientUnits="userSpaceOnUse"><stop stop-color="#ffdcc0"/><stop offset="1" stop-color="#a68f7d"/></linearGradient><linearGradient id="paint31_linear_807_63816" x1="-132.064" y1="-52.2782" x2="-132.064" y2="160.497" gradientUnits="userSpaceOnUse"><stop stop-color="#ffdcc0"/><stop offset="1" stop-color="#a68f7d"/></linearGradient><linearGradient id="paint32_linear_807_63816" x1="-132.064" y1="-52.2783" x2="-132.064" y2="160.497" gradientUnits="userSpaceOnUse"><stop stop-color="#ffdcc0"/><stop offset="1" stop-color="#a68f7d"/></linearGradient><linearGradient id="paint33_linear_807_63816" x1="-132.063" y1="-52.2786" x2="-132.063" y2="160.497" gradientUnits="userSpaceOnUse"><stop stop-color="#ffdcc0"/><stop offset="1" stop-color="#a68f7d"/></linearGradient><linearGradient id="paint34_linear_807_63816" x1="-132.063" y1="-52.2781" x2="-132.063" y2="160.497" gradientUnits="userSpaceOnUse"><stop stop-color="#ffdcc0"/><stop offset="1" stop-color="#a68f7d"/></linearGradient><linearGradient id="paint35_linear_807_63816" x1="-132.064" y1="-52.2786" x2="-132.064" y2="160.497" gradientUnits="userSpaceOnUse"><stop stop-color="#ffdcc0"/><stop offset="1" stop-color="#a68f7d"/></linearGradient><linearGradient id="paint36_linear_807_63816" x1="-132.063" y1="-52.2783" x2="-132.063" y2="160.497" gradientUnits="userSpaceOnUse"><stop stop-color="#ffdcc0"/><stop offset="1" stop-color="#a68f7d"/></linearGradient><linearGradient id="paint37_linear_807_63816" x1="-132.064" y1="-52.2783" x2="-132.064" y2="160.497" gradientUnits="userSpaceOnUse"><stop stop-color="#ffdcc0"/><stop offset="1" stop-color="#a68f7d"/></linearGradient><linearGradient id="paint38_linear_807_63816" x1="-132.064" y1="-52.2784" x2="-132.064" y2="160.497" gradientUnits="userSpaceOnUse"><stop stop-color="#ffdcc0"/><stop offset="1" stop-color="#a68f7d"/></linearGradient><linearGradient id="paint39_linear_807_63816" x1="-132.064" y1="-52.2785" x2="-132.064" y2="160.497" gradientUnits="userSpaceOnUse"><stop stop-color="#ffdcc0"/><stop offset="1" stop-color="#a68f7d"/></linearGradient><linearGradient id="paint40_linear_807_63816" x1="-132.064" y1="-52.2783" x2="-132.064" y2="160.497" gradientUnits="userSpaceOnUse"><stop stop-color="#ffdcc0"/><stop offset="1" stop-color="#a68f7d"/></linearGradient><linearGradient id="paint41_linear_807_63816" x1="-132.064" y1="-52.2784" x2="-132.064" y2="160.497" gradientUnits="userSpaceOnUse"><stop stop-color="#ffdcc0"/><stop offset="1" stop-color="#a68f7d"/></linearGradient><linearGradient id="paint42_linear_807_63816" x1="-132.064" y1="-52.2784" x2="-132.064" y2="160.497" gradientUnits="userSpaceOnUse"><stop stop-color="#ffdcc0"/><stop offset="1" stop-color="#a68f7d"/></linearGradient><linearGradient id="paint43_linear_807_63816" x1="-132.063" y1="-52.2783" x2="-132.063" y2="160.497" gradientUnits="userSpaceOnUse"><stop stop-color="#ffdcc0"/><stop offset="1" stop-color="#a68f7d"/></linearGradient><linearGradient id="paint44_linear_807_63816" x1="-132.064" y1="-52.2787" x2="-132.064" y2="160.498" gradientUnits="userSpaceOnUse"><stop stop-color="#ffdcc0"/><stop offset="1" stop-color="#a68f7d"/></linearGradient><linearGradient id="paint45_linear_807_63816" x1="-132.064" y1="-52.2783" x2="-132.064" y2="160.497" gradientUnits="userSpaceOnUse"><stop stop-color="#ffdcc0"/><stop offset="1" stop-color="#a68f7d"/></linearGradient><linearGradient id="paint46_linear_807_63816" x1="-132.064" y1="-52.2784" x2="-132.064" y2="160.497" gradientUnits="userSpaceOnUse"><stop stop-color="#ffdcc0"/><stop offset="1" stop-color="#a68f7d"/></linearGradient><linearGradient id="paint47_linear_807_63816" x1="-132.064" y1="-52.2784" x2="-132.064" y2="160.497" gradientUnits="userSpaceOnUse"><stop stop-color="#ffdcc0"/><stop offset="1" stop-color="#a68f7d"/></linearGradient><linearGradient id="paint48_linear_807_63816" x1="-132.064" y1="-52.2784" x2="-132.064" y2="160.497" gradientUnits="userSpaceOnUse"><stop stop-color="#ffdcc0"/><stop offset="1" stop-color="#a68f7d"/></linearGradient><linearGradient id="paint49_linear_807_63816" x1="-132.064" y1="-52.2784" x2="-132.064" y2="160.497" gradientUnits="userSpaceOnUse"><stop stop-color="#ffdcc0"/><stop offset="1" stop-color="#a68f7d"/></linearGradient><linearGradient id="paint50_linear_807_63816" x1="-132.064" y1="-52.2784" x2="-132.064" y2="160.497" gradientUnits="userSpaceOnUse"><stop stop-color="#ffdcc0"/><stop offset="1" stop-color="#a68f7d"/></linearGradient><linearGradient id="paint51_linear_807_63816" x1="-132.064" y1="-52.2784" x2="-132.064" y2="160.497" gradientUnits="userSpaceOnUse"><stop stop-color="#ffdcc0"/><stop offset="1" stop-color="#a68f7d"/></linearGradient><linearGradient id="paint52_linear_807_63816" x1="-132.064" y1="-52.2784" x2="-132.064" y2="160.497" gradientUnits="userSpaceOnUse"><stop stop-color="#ffdcc0"/><stop offset="1" stop-color="#a68f7d"/></linearGradient><linearGradient id="paint53_linear_807_63816" x1="-132.064" y1="-52.2784" x2="-132.064" y2="160.497" gradientUnits="userSpaceOnUse"><stop stop-color="#ffdcc0"/><stop offset="1" stop-color="#a68f7d"/></linearGradient><linearGradient id="paint54_linear_807_63816" x1="-132.064" y1="-52.2784" x2="-132.064" y2="160.497" gradientUnits="userSpaceOnUse"><stop stop-color="#ffdcc0"/><stop offset="1" stop-color="#a68f7d"/></linearGradient><linearGradient id="paint55_linear_807_63816" x1="-132.064" y1="-52.2784" x2="-132.064" y2="160.497" gradientUnits="userSpaceOnUse"><stop stop-color="#ffdcc0"/><stop offset="1" stop-color="#a68f7d"/></linearGradient><linearGradient id="paint56_linear_807_63816" x1="-132.064" y1="-52.2784" x2="-132.064" y2="160.497" gradientUnits="userSpaceOnUse"><stop stop-color="#ffdcc0"/><stop offset="1" stop-color="#a68f7d"/></linearGradient><linearGradient id="paint57_linear_807_63816" x1="-132.064" y1="-52.2784" x2="-132.064" y2="160.497" gradientUnits="userSpaceOnUse"><stop stop-color="#ffdcc0"/><stop offset="1" stop-color="#a68f7d"/></linearGradient><clipPath id="clip0_807_63816"><rect width="56.8283" height="63.7808" fill="#fff" transform="translate(0.171722 0.619186)"/></clipPath></defs></svg>