<svg xmlns="http://www.w3.org/2000/svg" width="200" height="55" viewBox="0 0 200 55" fill="none"><path d="M-36.7812 51.1187C-40.6648 52.39-48.2557 53.5907-51.5657 54.0322L-53 54.2973V0H192.269C189.621 2.5427 186.458 3.00168 185.207 2.91333c-4.155-.35315-13.835-.84757-19.308.0C160.427 3.7609 162.92 6.8863 164.686 6.8863L171.747 7.94576C174.285 8.21063 179.691 8.8463 181.015 9.27009 182.339 9.69387 185.171 11.5656 186.421 12.4485L195.579 15.6268C199.109 16.2625 200.213 20.3944 199.33 21.7187 198.447 23.0431 187.524 25.162 187.524 25.162l-9.268 2.6486C174.505 28.3404 163.693 29.5058 150.453 29.9295c-13.24.4238-26.333 2.4721-31.224 3.4433C112.351 34.2556 96.0148 35.9152 85.6877 35.4915 72.7788 34.9617 63.9522 38.9347 54.0223 39.9942 46.0784 40.8417 32.0294 44.9383 25.9979 46.8806 15.075 48.2933-8.75675 51.1187-16.7007 51.1187c-9.9299.0-15.2258-1.5892-20.0805.0z" fill="url(#paint0_linear_807_60192)"/><defs><linearGradient id="paint0_linear_807_60192" x1="-51.5657" y1="-7.41634" x2="201.85" y2="3.43202" gradientUnits="userSpaceOnUse"><stop stop-color="#a69b82"/><stop offset="1" stop-color="#767460"/></linearGradient></defs></svg>