<svg xmlns="http://www.w3.org/2000/svg" width="350" height="63" viewBox="0 0 350 63" fill="none"><path d="M-36.7812 59.3296c-3.8836 1.2714-11.4745 2.4721-14.7845 2.9136L-53 62.5083v-8.211L-51.5657 54.0322C-48.2557 53.5907-40.6648 52.39-36.7812 51.1187c4.8547-1.5892 10.1506.0 20.0805.0 7.94395.0 31.7757-2.8254 42.6986-4.2381 6.0315-1.9423 20.0805-6.0389 28.0244-6.8864 9.9299-1.0595 18.7565-5.0325 31.6654-4.5027C96.0148 35.9152 112.351 34.2556 119.229 33.3728 124.12 32.4016 137.213 30.3533 150.453 29.9295c13.24-.4237 24.052-1.5891 27.803-2.1189l9.268-2.6486s10.923-2.1189 11.806-3.4433C200.213 20.3944 199.109 16.2625 195.579 15.6268L186.421 12.4485C185.171 11.5656 182.339 9.69387 181.015 9.27009 179.691 8.8463 174.285 8.21063 171.747 7.94576L164.686 6.8863C162.92 6.8863 160.427 3.7609 165.899 2.91333c5.47300000000001-.84757 15.153-.35315 19.308.0C186.458 3.00168 189.621 2.5427 192.269.0 188.186 5.2973 184.876 4.5027 182.67 4.5027 179.875 4.41441 173.865 4.23784 172.188 4.23784 170.511 4.23784 171.195 5.12072 171.747 5.56216L173.402 6.35676C174.137 6.88643 177.219 7.78688 181.897 7.15135 186.576 6.51582 189.437 8.29904 190.283 9.27009 195.579 13.9316 203.743 15.4502 207.164 15.6268 208.819 16.0683 211.025 18.1168 206.612 22.7784 202.199 27.44 197.638 30.018 195.91 30.7243l-8.386 2.6487-9.268 2.6486C174.505 36.5513 163.693 37.7168 150.453 38.1405 137.213 38.5643 124.12 40.6126 119.229 41.5838 112.351 42.4666 96.0148 44.1262 85.6877 43.7024 72.7788 43.1727 63.9522 47.1457 54.0223 48.2052 46.0784 49.0527 32.0294 53.1493 25.9979 55.0916c-10.9229 1.4127-34.75465 4.238-42.6986 4.238-9.9299.0-15.2258-1.5891-20.0805.0z" fill="#a9a9a9"/><path d="M372 11.9189C365.027 12.9784 336.142 13.5964 322.571 13.773 331.692 12.8901 352.03 11.0714 360.415 10.8595 368.8 10.6476 371.632 7.59279 372 6.09189V11.9189z" fill="#a9a9a9"/></svg>