<svg xmlns="http://www.w3.org/2000/svg" width="170" height="50" viewBox="0 0 170 50" fill="none"><g clip-path="url(#clip0_807_63877)"><path d="M37.4335 24.7505C37.3912 24.59 37.3334 24.287 37.3026 24.0803 37.2603 23.7701 37.1717 23.6311 36.8445 23.3317 36.6212 23.1249 36.3555 22.8789 36.2516 22.772 36.1476 22.6686 35.9166 22.5652 35.7395 22.5403 35.5624 22.5153 35.162 22.4333 34.8579 22.362 34.2111 22.2088 33.3949 22.2587 33.0291 22.4761 32.9059 22.5474 32.621 22.7863 32.3977 22.993 32.1744 23.2033 31.7586 23.5456 31.4699 23.7523 31.1811 23.9591 30.8192 24.2193 30.6614 24.3369 30.2379 24.6435 28.8557 25.8555 28.7633 26.0053 28.6786 26.1407 28.3206 26.5115 28.0588 26.7325 27.9702 26.8109 27.8971 26.9107 27.8971 26.9571 27.8971 27.0034 27.77 27.1104 27.6199 27.1888 27.4659 27.2672 27.3196 27.4098 27.2965 27.5025 27.2734 27.5952 27.1771 27.67 27.0847 27.67 26.9923 27.67 26.8653 27.7413 26.796 27.834 26.7267 27.9231 26.4957 28.1762 26.2724 28.4008 26.0568 28.6218 25.6641 29.0496 25.4215 29.3419 25.1713 29.6414 24.7016 30.1369 24.3628 30.4648 24.024 30.7928 23.7545 31.0958 23.7545 31.1529 23.7545 31.2099 23.716 31.2562 23.666 31.2562 23.6159 31.2562 23.5774 31.3133 23.5774 31.381S23.5158 31.5058 23.4427 31.5058C23.3695 31.5058 23.3079 31.5343 23.3079 31.5699 23.3079 31.6056 23.0654 31.8694 22.7689 32.1617 22.4186 32.5039 22.2299 32.7606 22.2299 32.8854 22.2299 33.0101 22.1876 33.0672 22.1183 33.0422 22.0567 33.0208 21.8026 33.2454 21.5523 33.5448 20.9979 34.2115 20.8901 34.2471 21.1211 33.6946 21.2751 33.3274 21.3983 32.7962 21.356 32.6929 21.3329 32.6358 21.3483 32.5859 21.3906 32.5859 21.4792 32.5859 21.6332 32.2686 21.791 31.7517 21.8565 31.545 21.9797 31.2848 22.0721 31.1707 22.1722 31.0459 22.2184 30.8962 22.1876 30.7821 22.1568 30.6752 22.1876 30.5825 22.2607 30.5575 22.3262 30.5361 22.4532 30.2795 22.5379 29.9943 22.6226 29.7091 22.7535 29.4204 22.8228 29.3562 22.8921 29.292 22.9499 29.1138 22.9499 28.9641 22.9499 28.8143 22.9807 28.6611 23.0192 28.629 23.0577 28.5969 23.0885 28.4365 23.0923 28.2796 23.0923 28.1228 23.1424 27.9624 23.1963 27.9303 23.3118 27.8625 23.3965 26.8537 23.4157 25.2709 23.4273 24.3797 23.4042 24.1337 23.2925 24.0161 23.2155 23.9341 23.1308 23.7737 23.1 23.6489 23.0692 23.5277 22.8382 23.2604 22.5957 23.0572 22.2338 22.7542 21.9681 22.633 21.1789 22.3906 20.0354 22.0412 19.3232 22.002 18.7919 22.2551 18.6109 22.3406 18.4069 22.4119 18.3414 22.4119 18.1566 22.4119 17.352 22.7934 17.0709 23.0144 16.7398 23.2746 16.3125 23.6881 15.7311 24.312 14.8572 25.2531 14.7301 25.3993 14.5877 25.6274 14.5107 25.7522 14.3952 25.9126 14.3374 25.9696 14.2797 26.0302 14.1103 26.2726 13.9563 26.515S13.5559 27.1032 13.4057 27.285C13.2556 27.4668 13.0631 27.7485 12.9784 27.9053 12.8898 28.0622 12.7705 28.2475 12.705 28.3188c-.3157.342300000000002-.6814.8306-.8393 1.1158C11.7695 29.6093 11.5038 30.005 11.2844 30.2973 11.0688 30.5896 10.884 30.8534 10.884 30.8784 10.884 30.9033 10.8108 30.9924 10.7261 31.0744 10.6376 31.16 10.449 31.4416 10.2988 31.709 10.1487 31.9763 9.9908 32.2294 9.94075 32.2793 9.7906 32.4362 9.60965 32.7392 9.21696 33.4949 8.98981 33.9298 8.83966 34.101 8.73571 34.0439 8.67411 34.0083 8.72416 33.8621 8.87046 33.6482 9.03216 33.4129 9.12071 33.1491 9.15536 32.7962 9.18231 32.511 9.23236 32.2508 9.267 32.2045 9.30165 32.1581 9.35555 31.9585 9.3902 31.766 9.421 31.5699 9.5057 31.2527 9.57885 31.053 9.652 30.857 9.73285 30.4328 9.76365 30.1155 9.79445 29.7982 9.8599 29.513 9.9138 29.4845 9.96385 29.456 10.0216 29.2528 10.037 29.0354 10.0524 28.8179 10.1063 28.6111 10.1525 28.5826 10.2526 28.5256 10.4644 27.2601 10.3951 27.1496 10.372 27.1139 10.3951 26.8145 10.4567 26.483 10.6491 25.3993 10.218 24.1444 9.36325 23.3067 9.05911 23.0073 7.72316 22.3228 7.44211 22.3228 7.36511 22.3228 7.19571 22.2694 7.04941 22.1981 6.87231 22.1125 6.52196 22.0733 5.92907 22.0733c-.88935.0-1.4322.1069-1.4322.2852C4.49687 22.4155 4.72017 22.6258 5.00122 22.8326 5.57615 23.2604 5.84693 23.5883 5.81357 23.8165 5.78662 23.9876 5.69807 24.3013 5.61722 24.5009 5.53637 24.7006 5.38622 25.0749 5.28997 25.328 5.19372 25.5811 5.07437 25.8627 5.03202 25.9518 4.93192 26.1693 4.53922 27.228 4.32362 27.8697c-.6083 1.818-1.25124 3.5541-1.36289 3.6753C2.78748 31.7339 2.15993 33.9619 1.25518 37.5802 1.01263 38.5463.408186 41.2805.219537 42.2501c-.396549 2.0426-.21174945 3.8357.400398 3.8357.077.0.19635.0748999999999995.25025.1569C.927934 46.3318 1.13198 46.4459 1.32063 46.5065 1.50928 46.5635 1.70563 46.6419 1.76338 46.6812 1.92508 46.7988 2.82598 46.6491 2.95303 46.4851 3.01463 46.4031 3.14553 46.3354 3.23408 46.3354S3.42273 46.2783 3.44968 46.2106C3.47663 46.1429 3.56133 46.0858 3.63447 46.0858 3.70762 46.0858 3.80002 45.9967 3.83082 45.8969 3.86547 45.79 3.98097 45.601 4.09262 45.4584 4.41987 45.0485 4.76637 44.4175 4.76637 44.2321 4.76637 44.1359 4.85107 43.9327 4.95117 43.783 5.05127 43.6332 5.12442 43.4586 5.10902 43.398 5.09362 43.3374 5.21297 43.1128 5.37467 42.8989 5.53637 42.6814 5.66727 42.4711 5.66727 42.4283 5.66727 42.3856 5.73657 42.2964 5.81742 42.2358 5.89827 42.1717 6.04072 41.9578 6.13697 41.7475 6.23322 41.5407 6.36027 41.3161 6.42956 41.2484 6.49501 41.1807 6.67211 40.9133 6.81456 40.6638 7.15336 40.072 7.32661 39.7975 7.38821 39.744 7.51526 39.6335 8.00806 38.8671 8.00806 38.7815 8.00806 38.7281 8.06966 38.6354 8.14281 38.5819S8.27756 38.4144 8.27756 38.3395C8.27756 38.147 8.50856 37.7121 8.68181 37.5838 8.75496 37.5303 8.81656 37.4091 8.81656 37.3271S8.92821 37.049 9.06296 36.8993C9.3517 36.5749 9.50185 36.3575 9.6289 36.083 9.6828 35.9653 9.8214 35.7586 9.9446 35.6089 10.0678 35.4591 10.1641 35.3059 10.1641 35.2595 10.1641 35.2132 10.2411 35.1383 10.3296 35.092 10.422 35.0456 10.5491 34.8852 10.6145 34.7319 10.6799 34.5786 10.9225 34.0938 11.165 33.6447 11.4037 33.1955 11.577 32.8319 11.5539 32.8319 11.4846 32.8319 11.8888 32.1831 12.0236 32.0797 12.0967 32.0227 12.1506 31.9478 12.1506 31.905 12.1506 31.8623 12.2546 31.7018 12.3739 31.5521 12.4971 31.4024 12.5972 31.2384 12.5972 31.1885 12.5972 31.1386 12.6935 30.9924 12.8013 30.8677 13.0015 30.6431 13.3172 30.0834 13.3172 29.9586 13.3172 29.9301 13.3518 29.866 13.4057 29.8089 13.7676 29.3954 14.0063 29.0924 14.5915 28.301c1.1704-1.5828 1.3745-1.8501 1.9096-2.449C16.7899 25.5276 17.0748 25.2495 17.1479 25.221 17.2211 25.1961 17.2788 25.1212 17.2788 25.057 17.2788 24.9251 18.2067 24.0803 18.3491 24.0803 18.4916 24.0803 18.4762 24.1801 18.2529 25.0392 18.1451 25.4563 17.8871 26.1229 17.6754 26.54c-.6661 1.3011-1.0318 2.2423-1.0318 2.6522C16.6436 29.399 16.6051 29.595 16.5627 29.62 16.5204 29.6449 16.3741 29.98 16.2432 30.3543 16.1123 30.7286 15.9698 31.1172 15.9313 31.2099c-.308.691599999999998-.4658 1.098-.6814 1.7503C15.1151 33.3773 14.9727 33.8015 14.9342 33.9191 14.8957 34.0332 14.8148 34.2935 14.7532 34.5038 14.6916 34.7105 14.6069 34.9672 14.5607 35.0777 14.2681 35.7622 13.9101 36.9314 13.8985 37.2451 13.8908 37.4626 13.8254 37.6515 13.7407 37.7085 13.5713 37.8226 13.3865 38.4286 13.4635 38.6104 13.4943 38.6817 13.4519 38.8279 13.3672 38.9455 13.2825 39.0632 13.2248 39.2058 13.2363 39.2699 13.2671 39.4767 13.2363 39.5587 13.0515 39.7547 12.9514 39.8581 12.8706 40.0471 12.8706 40.1647 12.8706 40.2859 12.809 40.4891 12.7281 40.6317 12.3008 41.3732 12.1737 44.2607 12.5395 44.8845 12.5934 44.9772 12.628 45.0984 12.6165 45.1554 12.6049 45.216 12.6742 45.2588 12.782 45.2588S13.0785 45.3515 13.2132 45.4727C13.4211 45.6545 13.5135 45.6794 13.8562 45.6402 14.0718 45.6153 14.2874 45.5476 14.3259 45.4941 14.3644 45.437 14.5646 45.3871 14.7802 45.3764 14.9958 45.3657 15.2576 45.3444 15.3731 45.3265 15.6079 45.2873 16.3818 44.6278 16.3818 44.4674 16.3818 44.4068 16.4395 44.3177 16.5127 44.2642 16.5858 44.2107 16.6667 44.061 16.6975 43.9256 16.7283 43.7937 16.8091 43.6404 16.8823 43.5869 16.9516 43.537 17.0132 43.4158 17.0132 43.3338 17.0132 43.2518 17.094 43.0878 17.1903 42.988 17.2904 42.8811 17.4636 42.6921 17.5945 42.5495 17.7254 42.407 17.8255 42.243 17.8255 42.1645 17.8255 42.0861 17.9064 41.9649 18.0065 41.8794 18.1066 41.7938 18.1874 41.6655 18.1874 41.5835S18.2452 41.4195 18.3183 41.391C18.3915 41.366 18.5301 41.1735 18.6302 40.9668 18.7303 40.76 18.8535 40.5889 18.9035 40.5889 18.9536 40.5889 18.9998 40.5426 18.9998 40.4855 18.9998 40.4285 19.2423 40.1077 19.5388 39.7726 19.8352 39.4375 20.1201 39.0204 20.1702 38.8421 20.2202 38.6603 20.3588 38.4607 20.4936 38.3823 20.636 38.2967 20.7092 38.1969 20.6745 38.1185 20.6283 38.008 20.7015 37.901 21.1211 37.4768 21.4253 37.1667 21.6678 36.8066 21.7333 36.5607 21.7679 36.4323 21.9258 36.2184 22.0875 36.0866 22.2492 35.9511 22.4378 35.6909 22.5071 35.4984 22.588 35.2809 22.7073 35.1276 22.8344 35.0813 22.946 35.0421 23.1077 34.8674 23.1963 34.6927 23.2848 34.518 23.4889 34.2578 23.6583 34.1116 23.9393 33.8692 24.0972 33.6696 24.2743 33.3345 24.3089 33.2668 24.3898 33.1705 24.4475 33.1278 24.5553 33.0458 24.9711 32.5859 25.4138 32.0583 25.9451 31.4238 26.9192 30.39 27.0847 30.283 27.1925 30.2117 27.2734 30.1084 27.2734 30.0442S27.3504 29.8909 27.4505 29.841C27.5467 29.7947 27.874 29.4524 28.1666 29.096 28.4592 28.7359 28.8711 28.3153 29.0713 28.1691 29.2677 28.023 29.4371 27.859 29.4409 27.8055 29.4409 27.752 29.7104 27.5524 30.0338 27.3599 30.4227 27.1318 30.5998 27.0569 30.5574 27.1531 30.5189 27.2316 30.4573 27.4918 30.4227 27.7235 30.3842 27.9624 30.1455 28.5577 29.8875 29.0567 29.6296 29.5558 29.2677 30.3151 29.079 30.7536 28.8904 31.1921 28.5708 31.8765 28.3668 32.2793 28.1666 32.6786 27.9972 33.06 27.9972 33.1171 27.9972 33.1741 27.9587 33.2597 27.9125 33.306 27.8047 33.4129 27.3658 34.6571 27.3658 34.8567 27.3658 34.9422 27.2772 35.3593 27.1733 35.7764 27.0347 36.3254 27.0116 36.55 27.0886 36.5749 27.258 36.6284 27.2041 36.8102 26.9808 36.9635 26.846 37.0562 26.8191 37.1132 26.8999 37.1453 27.0616 37.2095 27.0347 37.3699 26.873 37.3128 26.7729 37.2772 26.7344 37.3307 26.7228 37.5303 26.7036 37.9224 26.6959 37.9403 26.4803 38.3217 26.3609 38.5284 26.2993 38.7495 26.334 38.8421 26.3648 38.9348 26.3571 39.0525 26.3147 39.1131 26.1992 39.2877 26.1684 40.5069 26.2801 40.5069 26.411 40.5069 26.2993 42.0291 26.1646 42.1111 25.9836 42.218 25.9451 44.7847 26.1222 44.9843 26.1761 45.0449 26.1954 45.2053 26.1646 45.3479 26.1261 45.5226 26.1415 45.5832 26.2146 45.544 26.2878 45.5048 26.2993 45.5511 26.2608 45.7008 26.23 45.8185 26.2454 45.9397 26.2916 45.9682 26.3378 45.9932 26.3802 46.1144 26.3802 46.2213 26.3802 46.3282 26.5303 46.7453 26.719 47.1481 27.0116 47.7756 27.1617 47.9681 27.8624 48.6347 29.4871 50.1782 30.7538 50.4028 31.9242 49.3619 32.1629 49.148 32.5902 48.8022 32.8597 48.599 33.3987 48.1962 33.7606 47.8682 33.7606 47.7756 33.7606 47.7435 33.9801 47.5011 34.2457 47.2408 34.6731 46.8202 34.931 46.5065 35.5393 45.6723 35.624 45.5547 35.7665 45.3836 35.8627 45.2802 35.9551 45.1804 36.0167 45.052 35.9975 44.995 35.9782 44.9415 35.7434 45.1519 35.4739 45.4691c-1.1127 1.3154-2.7489 2.5774-3.6922 2.8412C31.4044 48.4172 31.3698 48.4101 31.0541 48.2176 30.7114 48.0073 30.4342 47.6044 30.4342 47.3193 30.4342 47.2337 30.3726 47.0483 30.2995 46.9164 30.2263 46.781 30.157 46.4922 30.1455 46.2748 30.1339 46.0573 30.0916 45.8541 30.0454 45.8292 29.9568 45.7757 29.926 44.7312 29.9838 43.6974 30.003 43.3231 29.9915 42.988 29.9568 42.9559 29.8452 42.8526 29.8952 42.7349 30.03 42.7848 30.1224 42.8169 30.1647 42.7741 30.1609 42.6494 30.1609 42.5495 30.2071 42.2572 30.2648 42.0077 30.3226 41.7582 30.3765 41.4445 30.3803 41.3197 30.3842 41.1949 30.4188 41.0915 30.4573 41.0915S30.5266 40.9989 30.5266 40.8848 30.6267 40.4891 30.7461 40.2538C30.8693 40.0221 30.9463 39.7797 30.9155 39.712 30.8885 39.6442 30.927 39.5694 31.0117 39.5408 31.0964 39.5123 31.1542 39.3911 31.1542 39.2414 31.1542 39.0988 31.2273 38.9027 31.3236 38.7887 31.416 38.6782 31.5238 38.4251 31.5623 38.2361 31.6008 38.0436 31.7201 37.7727 31.8279 37.6372 31.9357 37.4982 32.0974 37.1453 32.1821 36.8459 32.2707 36.5464 32.4131 36.1543 32.5017 35.9689 32.5902 35.7871 32.7327 35.4841 32.8174 35.3023 32.9021 35.1169 33.0907 34.7284 33.2409 34.4253 33.391 34.1259 33.5643 33.773 33.6259 33.634 33.9339 32.9673 34.0455 32.7641 34.1225 32.7178 34.1726 32.6893 34.2111 32.5895 34.2111 32.5004 34.2111 32.3399 34.3612 32.0512 34.5345 31.8765 34.5884 31.823 34.7462 31.4808 34.8848 31.1208 35.0234 30.7607 35.1813 30.4292 35.2352 30.3829 35.2891 30.3365 35.3853 30.1939 35.4469 30.0692 35.5085 29.9444 35.6009 29.841 35.651 29.841 35.701 29.841 35.7395 29.7875 35.7395 29.7269S35.8627 29.4025 36.009 29.1423C36.1553 28.8821 36.2785 28.6005 36.2785 28.5113 36.2785 28.4222 36.3363 28.2475 36.4133 28.1156 36.4903 27.9837 36.5519 27.8055 36.5519 27.7128 36.5519 27.6201 36.6135 27.4562 36.6828 27.3385 36.7521 27.2244 36.8098 27.0248 36.8137 26.9 36.8175 26.7753 36.8522 26.6077 36.8945 26.5293 37.2449 25.8698 37.318 25.7023 37.3334 25.5205 37.345 25.4028 37.3912 25.2745 37.4451 25.2246 37.499 25.1747 37.5375 25.1176 37.5298 25.0927 37.5259 25.0677 37.4874 24.9144 37.4451 24.754L37.4335 24.7505zM8.62791 34.4218C8.57401 34.4218 8.53936 34.4075 8.53936 34.3826 8.53936 34.3576 8.57401 34.3255 8.62791 34.2935 8.67796 34.2649 8.71646 34.2792 8.71646 34.3327 8.71646 34.3861 8.67796 34.4218 8.62791 34.4218zM8.45851 34.7569C8.30451 34.7569 8.26601 34.6107 8.40461 34.5608 8.48546 34.5323 8.53936 34.5608 8.53936 34.6357 8.53936 34.7034 8.50471 34.7569 8.45851 34.7569z" fill="#2c2102"/><path d="M38.9157 40.1005C39.0042 40.1005 39.0504 39.9865 39.0543 39.7583 39.0581 39.4482 39.0697 39.4375 39.1698 39.6157 39.2506 39.7619 39.2391 39.908 39.1313 40.1611 39.0427 40.3715 39.0158 40.5782 39.062 40.6887 39.1813 40.9596 39.1736 41.006 39.0042 41.006 38.6308 41.006 39.1698 43.1591 39.8551 44.3961c.5428.9803 1.0972 1.7824 1.5631 2.2708C41.6723 46.9307 41.911 47.1553 41.961 47.1767 42.0111 47.1981 42.2074 47.3407 42.4038 47.5011 42.8966 47.9003 43.3432 48.1285 44.1516 48.3958 44.9409 48.6561 46.015 48.8129 46.6118 48.7559 47.5589 48.6668 48.3366 48.5206 48.4367 48.4101 48.4983 48.3424 48.6292 48.3103 48.737 48.3388 48.8448 48.3638 49.0989 48.3138 49.3068 48.2247 50.481 47.7257 50.9161 47.5011 51.1663 47.2587 51.328 47.1054 51.5783 46.9307 51.7438 46.8558 52.1866 46.6598 52.4137 46.5279 52.6447 46.3176 52.7525 46.2213 53.0413 45.9932 53.2761 45.822 53.5148 45.6474 54.0731 45.1768 54.5158 44.7776 54.9586 44.3747 55.6169 43.7972 55.9788 43.4871 56.3446 43.1734 56.6372 42.9025 56.6372 42.8739 56.6372 42.8454 56.8297 42.6315 57.0722 42.3963 57.9115 41.5692 59.2051 40.1005 59.2051 39.9686 59.2051 39.9009 59.3591 39.6549 59.54 39.4375 59.721 39.22 59.9058 38.9313 59.9404 38.8136 60.0213 38.5498 60.1676 38.2219 60.3601 37.8868 60.4371 37.7513 60.4794 37.5695 60.4486 37.4947 60.4178 37.4198 60.4371 37.2772 60.4948 37.1774 60.5757 37.0384 60.5564 36.9136 60.4217 36.6427 60.2369 36.2719 60.0944 36.1721 60.0944 36.4145 60.0944 36.6712 59.5131 37.7406 59.0665 38.3039 58.8239 38.614 58.4967 39.024 58.3465 39.2129 58.1964 39.4018 57.8229 39.8403 57.5265 40.1754 57.2301 40.5105 56.8643 40.9347 56.718 41.1022 56.3022 41.5906 52.9027 44.6599 52.2405 45.1447 51.9132 45.3836 51.6322 45.6117 51.6129 45.6545 51.5937 45.6973 51.5436 45.7258 51.4936 45.7258 51.4474 45.7258 51.0431 45.9504 50.5888 46.232 49.5416 46.8772 48.4251 47.3727 47.89 47.4298 47.0892 47.5118 45.9342 46.9735 45.5222 46.3283 44.9601 45.4477 44.6945 44.4639 44.629 43.0308 44.6136 42.6672 44.5713 42.3321 44.5328 42.2751 44.4943 42.218 44.502 42.1289 44.5559 42.0647 44.6059 42.0041 44.6829 41.7617 44.7176 41.5229 44.7561 41.2876 44.8292 41.0702 44.8793 41.0416 44.9293 41.0131 44.9717 40.8135 44.9717 40.6067 44.9717 40.4 45.0102 40.1825 45.0564 40.1326 45.1026 40.0863 45.2219 39.8474 45.322 39.6086 45.5376 39.0881 45.707 38.9919 46.3885 39.0061 47.247 39.0204 48.7293 38.9241 49.3029 38.8136 49.5994 38.7566 49.8573 38.7316 49.8843 38.7566 49.9112 38.7816 50.0768 38.7637 50.2462 38.7174 50.4156 38.671 50.789 38.6318 51.0662 38.6318 51.3819 38.6318 51.6206 38.5819 51.6938 38.5035 51.7592 38.4322 52.0018 38.2753 52.2366 38.1506 52.4753 38.0222 52.6832 37.8404 52.7102 37.7371 52.7487 37.5909 52.8449 37.5517 53.1606 37.5517 53.3762 37.5517 53.588 37.5089 53.6188 37.4626 53.6534 37.4091 53.7112 37.3913 53.7612 37.4162 53.8074 37.4412 54.0769 37.2594 54.3657 37.0063 54.6506 36.7567 55.0548 36.4609 55.2666 36.3504 55.4745 36.2398 55.6477 36.1222 55.6477 36.0901S55.8402 35.9119 56.0674 35.7693C56.2945 35.6267 56.5448 35.4342 56.6102 35.3522 56.6757 35.2702 56.7912 35.1419 56.8605 35.0813 57.1184 34.8353 57.4264 34.3826 57.4264 34.2435 57.4264 34.1687 57.5072 34.0546 57.6035 33.9904 57.7998 33.8585 58.2157 33.2383 58.2157 33.0743 58.2157 33.0137 58.3042 32.9139 58.412 32.8533 58.5198 32.7891 58.6083 32.6929 58.6083 32.6358 58.6083 32.5788 58.6661 32.4897 58.7469 32.4326 58.8239 32.3756 59.0049 32.069 59.1512 31.7411 59.5747 30.8035 59.771 30.4542 59.9828 30.2617 60.0444 30.2046 60.0906 30.1012 60.0906 30.0193 60.0906 29.9408 60.1791 29.7162 60.2869 29.5166 60.7605 28.6361 61.0993 27.8804 61.1416 27.6166 61.1686 27.4597 61.2148 27.1531 61.2456 26.925 61.2802 26.6968 61.3611 26.4544 61.4265 26.3796 61.492 26.3047 61.5805 26.0659 61.619 25.8556 61.6575 25.6452 61.7307 25.4456 61.7769 25.4206 61.8269 25.3921 61.8654 25.2281 61.8654 25.0499 61.8654 24.7825 61.7807 24.6542 61.388 24.3049 61.1224 24.0696 60.7143 23.763 60.4756 23.6133 60.2369 23.4671 59.9289 23.2532 59.7941 23.1463 59.5554 22.9538 59.1512 22.7435 58.412 22.4226 58.2233 22.3407 57.9885 22.2088 57.8922 22.1339 57.7344 22.0056 57.7152 22.0056 57.6613 22.1375 57.6266 22.2194 57.6305 22.3228 57.6613 22.3727 57.7306 22.4761 57.3533 22.6864 57.2224 22.6116 57.1723 22.5831 57.1069 22.7328 57.0722 22.9538 56.9721 23.5705 56.872 23.6561 56.5871 23.3638 56.4562 23.2283 56.3176 23.1107 56.2868 23.1107S56.0635 23.0144 55.8556 22.8932C55.4206 22.6401 54.7353 22.4476 54.3041 22.4583 54.1347 22.4619 53.9037 22.4013 53.7689 22.3193 53.6149 22.2266 53.3531 22.1802 53.0297 22.1981 52.7525 22.2123 52.4407 22.2195 52.3367 22.2159 52.0826 22.2123 50.3232 23.018 49.5917 23.4778 49.276 23.6775 48.9911 23.8379 48.9603 23.8379 48.8409 23.8379 47.3702 24.9287 46.9506 25.328 46.7119 25.5561 46.4655 25.745 46.4077 25.745 46.35 25.745 46.2075 25.8983 46.092 26.0801 45.9111 26.3689 45.3721 26.9535 44.5636 27.7413 44.4712 27.8305 44.3249 28.0443 44.2325 28.219 44.1439 28.3901 43.9553 28.5791 43.8167 28.6361 43.6473 28.7074 43.5857 28.7894 43.6242 28.8856 43.655 28.9641 43.5857 29.1566 43.4664 29.3134 43.347 29.4703 43.2392 29.6592 43.2238 29.7376 43.2084 29.8196 43.1545 29.8909 43.0968 29.9087 43.039 29.9266 42.9928 29.9729 42.9928 30.0193 42.9928 30.0656 42.8504 30.283 42.6771 30.5112 42.4346 30.8285 42.3306 30.8998 42.2344 30.8249 42.0996 30.718 42.0919 30.7251 41.9264 31.2883 41.7724 31.8052 41.1872 32.9531 40.9562 33.1884 40.8407 33.306 40.7675 33.4629 40.7906 33.5306 40.8176 33.5983 40.7752 33.6518 40.6982 33.6518 40.5981 33.6518 40.5365 33.7979 40.4942 34.1152 40.421 34.6785 40.063 35.6588 39.882 35.7942 39.7819 35.8691 39.7742 35.9261 39.8512 35.9974S39.9321 36.1899 39.8474 36.4502C39.7858 36.6427 39.7319 36.8922 39.7319 36.992 39.7319 37.0918 39.6703 37.2237 39.5971 37.2772 39.524 37.3307 39.4393 37.623 39.4085 37.9117 39.3507 38.475 39.139 38.9776 39.0543 38.7459 38.9696 38.5142 38.7463 39.1986 38.7578 39.6549 38.7655 39.9651 38.8117 40.1005 38.9041 40.1005H38.9157zM39.2853 41.3411C39.5509 41.1807 39.728 41.284 39.4932 41.4623 39.4123 41.5229 39.37 41.612 39.4008 41.6548 39.4624 41.7439 39.2044 41.7617 39.1082 41.6726 38.9965 41.5692 39.0389 41.4872 39.2853 41.3411zM39.4431 39.4197C39.5009 39.3876 39.5432 39.4054 39.5432 39.4589 39.5432 39.5123 39.5009 39.5551 39.4431 39.5551 39.3854 39.5551 39.343 39.5373 39.343 39.5159S39.3815 39.4517 39.4431 39.4197zM39.7396 37.9189C39.7973 37.9189 39.8397 37.9545 39.8397 38.008S39.8012 38.0971 39.7396 38.0971C39.678 38.0971 39.6395 38.0615 39.6395 38.008S39.678 37.9189 39.7396 37.9189zM39.7396 37.5553C39.7973 37.5553 39.8397 37.5909 39.8397 37.6444 39.8397 37.6978 39.8012 37.7335 39.7396 37.7335 39.678 37.7335 39.6395 37.6978 39.6395 37.6444 39.6395 37.5909 39.678 37.5553 39.7396 37.5553zm6.6142-.7273C46.427 36.5999 46.5232 36.3824 46.5694 36.3325 46.6156 36.2862 46.6541 36.1721 46.6541 36.083S46.7119 35.919 46.7812 35.919C46.9044 35.919 47.247 35.3272 47.247 35.1205 47.247 35.067 47.3048 34.9672 47.3702 34.903 47.6782 34.6036 48.0363 34.101 48.094 33.8871 48.1287 33.7587 48.198 33.6268 48.2403 33.6019 48.2865 33.5734 48.402 33.3987 48.4983 33.2169 48.5945 33.0351 48.7293 32.8461 48.7986 32.8069S48.9256 32.6929 48.9256 32.6465C48.9256 32.6002 49.0835 32.3685 49.2721 32.1439 49.4608 31.9157 49.6186 31.6911 49.6186 31.6519 49.6186 31.5592 50.2077 30.6609 50.3771 30.4969 50.4425 30.4328 50.6697 30.1832 50.8737 29.948 51.0778 29.7127 51.2741 29.4952 51.3088 29.4703 51.3396 29.4453 51.3973 29.3099 51.432 29.1744 51.4705 29.0282 51.5629 28.9249 51.6591 28.9249 51.7477 28.9249 52.1519 28.6147 52.5523 28.244 52.9527 27.8732 53.3262 27.5631 53.3762 27.5631 53.434 27.5631 53.4686 27.531 53.4686 27.4811 53.4686 27.4348 53.6303 27.3064 53.8382 27.1888S54.2656 26.9107 54.3387 26.8216C54.4119 26.7325 54.5274 26.6826 54.6121 26.7111 54.6929 26.7396 54.7815 26.6969 54.8161 26.6149 54.8469 26.5364 54.9663 26.4687 55.0741 26.4687 55.1819 26.4687 55.3859 26.3867 55.5245 26.2869 55.6631 26.1871 55.8441 26.1051 55.9249 26.1051 56.0058 26.1051 56.1559 26.0374 56.256 25.9554S56.4562 25.8235 56.4793 25.8413C56.6064 25.9589 55.9442 27.6843 55.5399 28.2868 55.3397 28.5862 53.8267 31.0851 53.407 31.8123 52.7564 32.9388 51.174 34.5715 49.8612 35.4663c-1.6401 1.1193-3.4804 2.0747-3.723 1.9285C46.0843 37.3628 46.0843 37.32 46.1382 37.2879 46.1883 37.2594 46.2845 37.0526 46.3615 36.8245L46.3538 36.828z" fill="#2c2102"/><path d="M86.1088 14.9472C85.8932 14.4482 85.2772 13.7423 84.9577 13.6318 84.6343 13.5178 80.869 13.5427 80.5918 13.6603 80.4493 13.721 80.3261 13.7281 80.2491 13.6817 80.1837 13.639 80.0143 13.6104 79.8603 13.6176 79.0518 13.6461 78.2664 13.6639 77.7697 13.6568L77.2192 13.6497 77.3308 13.3787C77.3924 13.229 77.4848 13.0151 77.5349 12.901 77.5849 12.7834 77.608 12.6479 77.5849 12.5873 77.5618 12.5339 77.6157 12.484 77.6966 12.484 77.8198 12.484 77.839 12.4376 77.7928 12.2451 77.7543 12.0883 77.7774 11.9742 77.8698 11.9029 78.0392 11.771 78.2163 11.222 78.2279 10.7729 78.2317 10.591 78.2625 10.4021 78.2972 10.3558 78.328 10.3094 78.3857 10.1098 78.4204 9.9173 78.455 9.7248 78.5128 9.56438 78.5513 9.56438S78.6206 9.45744 78.6283 9.33267C78.6629 8.32383 78.7476 6.80166 78.7823 6.55569 78.8054 6.38814 78.7977 6.22772 78.7592 6.19208 78.7207 6.15643 78.686 6.01383 78.6783 5.86411 78.6398 5.12263 78.4088 4.36333 78.1278 4.04606 78.0623 3.9712 78.02 3.85356 78.0431 3.79652 78.0893 3.67888 77.7736 3.07643 77.5695 2.8875 77.4925 2.8162 77.3655 2.74134 77.2769 2.70926 77.1884 2.67717 77.1191 2.60231 77.1191 2.53458S76.9843 2.30287 76.8111 2.16384C76.4492 1.86796 75.0208 1.17995 74.632 1.11579 74.4857 1.09083 74.093.97676 73.7426.855557 73.1228.641668 72.707.634538 72.707.841297 72.707.894769 72.8687 1.08727 73.0689 1.26194 73.4423 1.59347 73.4924 1.76458 73.4385 2.48111 73.4115 2.84115 72.8571 4.923 72.6107 5.60032 72.4837 5.94254 72.4567 6.11721 72.5183 6.17425 72.6569 6.30258 72.6338 6.42379 72.4837 6.37032 72.3874 6.33823 72.3489 6.38101 72.3489 6.5236 72.3489 6.63055 72.3066 6.74819 72.2527 6.7767 72.2026 6.80522 72.1834 6.90504 72.2103 6.99059 72.2373 7.07258 72.2296 7.14744 72.1911 7.14744 72.064 7.14744 71.8946 7.76059 72.0024 7.82476 72.0679 7.86397 71.91 8.43434 71.5135 9.57864 71.1901 10.5126 70.8821 11.4252 70.8282 11.607 70.7782 11.7888 70.578 12.3913 70.3932 12.9403L70.0505 13.942 67.6635 14.0418C64.7452 14.163 64.6105 14.1452 64.6066 13.6675 64.6066 13.5605 64.572 13.4928 64.5335 13.5178 64.4911 13.5427 64.4064 13.5285 64.3371 13.4857 64.0753 13.336 63.2437 13.9241 63.3939 14.1487 63.4208 14.1879 63.3785 14.3662 63.3053 14.5337 63.2014 14.7619 63.1667 15.1433 63.1667 15.9775 63.1667 16.6013 63.1552 17.1859 63.1436 17.2786 63.1282 17.3998 63.186 17.4533 63.3477 17.4747 63.4709 17.489 63.6865 17.5781 63.8212 17.6672 64.0638 17.8276 64.0715 17.8276 64.3602 17.6815 64.5219 17.5995 64.7414 17.4711 64.8569 17.3927 64.9647 17.3178 65.1418 17.2751 65.238 17.2965 65.3458 17.3214 65.419 17.2965 65.419 17.2394 65.419 17.1717 65.4806 17.1574 65.6153 17.1966 66.1928 17.3642 66.7511 17.3998 67.2631 17.3107 67.5596 17.2572 67.8483 17.1824 67.9061 17.1396 67.9677 17.0933 68.0331 17.1004 68.0678 17.1539 68.1024 17.2038 68.191 17.2109 68.2795 17.1717 68.3642 17.1325 68.5798 17.0754 68.7685 17.0434 69.0649 16.9934 69.1073 17.0041 69.1073 17.1467 69.1073 17.2394 69.0765 17.3214 69.0341 17.3357 68.9648 17.3606 68.5644 18.3089 68.5644 18.4408 68.5644 18.4728 68.6491 18.455 68.7492 18.4087 68.8493 18.3588 68.9071 18.2803 68.8801 18.2376 68.8493 18.1948 68.8878 18.1591 68.9687 18.1591 69.0611 18.1591 69.0996 18.2126 69.0726 18.3053 69.0495 18.3837 68.9802 18.6582 68.9186 18.9113 68.7877 19.446 68.6068 19.692 68.5144 19.471 68.4374 19.2856 68.3257 19.2963 68.268 19.4959 68.241 19.5886 68.2564 19.6635 68.3026 19.6635 68.4412 19.6635 68.3989 19.8453 68.2141 20.0307 68.0485 20.1946 67.6635 21.2463 67.6635 21.5314 67.6635 21.6099 67.5865 21.8915 67.4941 22.1482 67.4017 22.4048 67.3016 22.7364 67.2785 22.8718 67.2516 23.0108 67.1746 23.3067 67.0976 23.5384 67.0244 23.7701 66.8935 24.1979 66.8088 24.4974 66.7241 24.7968 66.5201 25.524 66.3507 26.1229 66.1813 26.7218 65.9888 27.449 65.9195 27.7485 65.8502 28.0479 65.6076 28.9569 65.3805 29.7733 65.1533 30.5896 64.9647 31.3454 64.9647 31.4559 64.9647 31.5664 64.9223 31.6805 64.8761 31.7054 64.8261 31.7339 64.8107 31.7945 64.8415 31.8444S64.8299 32.0476 64.7491 32.1973C64.5989 32.4683 63.9213 35.4734 63.8405 36.2078 63.8174 36.4395 63.7519 37.0704 63.7019 37.6194 63.6441 38.2112 63.5633 38.6425 63.4978 38.6817 63.417 38.7316 63.4247 38.7709 63.5248 38.8315S63.6326 38.9313 63.5594 38.9776C63.4516 39.0453 63.3284 40.7244 63.3053 42.4996 63.2976 43.1164 63.2476 43.6154 63.1821 43.7224 63.1051 43.8507 63.0974 44.0218 63.1629 44.3391 63.2129 44.5815 63.2514 44.7883 63.2514 44.8061S63.2976 44.8275 63.3592 44.8132C63.4863 44.7883 63.5864 45.134 63.6018 45.6509 63.6095 45.8506 63.6518 46.0787 63.7019 46.1678 63.7635 46.2748 63.7635 46.3425 63.7019 46.3782 63.5517 46.4637 63.698 47.1589 63.9598 47.6187 64.468 48.5028 65.4151 49.1623 66.2583 49.2264 66.5008 49.2443 66.778 49.2977 66.8743 49.3476 67.009 49.4154 67.1245 49.3976 67.3786 49.2799 67.5596 49.1944 67.7213 49.1195 67.7328 49.1124 67.7482 49.1052 67.6828 48.9377 67.5827 48.7381 67.4864 48.5384 67.3786 48.132 67.344 47.8326 67.3093 47.5332 67.2477 47.2301 67.2054 47.1589 67.163 47.084 67.1669 46.9913 67.2131 46.945 67.2631 46.8986 67.267 46.6883 67.2169 46.4102 67.1707 46.1429 67.1707 45.8969 67.2169 45.8149 67.2593 45.7365 67.2901 45.4656 67.2785 45.216 67.2631 44.8417 67.2285 44.749 67.0822 44.717 66.9128 44.6777 66.9089 44.667 67.0475 44.5245 67.1284 44.4425 67.2208 44.225 67.2593 44.0396 67.2978 43.8578 67.3632 43.6832 67.4094 43.6582 67.5288 43.5869 67.3902 43.1663 67.2477 43.1663 67.0552 43.1663 67.1053 43.0094 67.3748 42.7706 67.5442 42.6208 67.5827 42.546 67.5018 42.521 67.4056 42.489 67.4133 42.4462 67.5249 42.2893 67.6019 42.1824 67.6404 42.0362 67.6096 41.9649 67.5788 41.8901 67.5981 41.8366 67.6558 41.8366 67.7713 41.8366 67.7867 41.366 67.6751 41.2983 67.575 41.2413 67.6828 40.8028 67.9754 40.0506 68.0947 39.7405 68.1756 39.4303 68.1486 39.3662 68.1217 39.302 68.1486 39.1951 68.2025 39.1273 68.2757 39.0418 68.2795 38.9206 68.2141 38.6924 68.1409 38.4358 68.1486 38.3538 68.268 38.229 68.3565 38.1399 68.422 37.9082 68.4374 37.6479 68.4528 37.4162 68.5105 37.1916 68.5683 37.1596 68.6299 37.1239 68.6722 36.8851 68.6761 36.5678 68.6761 36.2505 68.73 35.9832 68.7993 35.9083 68.8917 35.8085 68.8955 35.7087 68.8185 35.4164 68.7261 35.0742 68.7338 35.0385 68.9456 34.8745 69.1496 34.7177 69.2882 34.5073 69.3344 34.2828 69.346 34.2329 69.3575 34.1829 69.3691 34.158 69.3806 34.1366 69.4037 34.0047 69.423 33.8692 69.4422 33.7373 69.5231 33.5912 69.6039 33.552 69.6925 33.5092 69.7271 33.4201 69.6925 33.3203 69.6578 33.2205 69.6771 33.1563 69.7425 33.1563 69.8118 33.1563 69.8272 33.0743 69.7887 32.9139 69.7541 32.7713 69.7695 32.6501 69.8234 32.618 69.8734 32.5895 69.9196 32.4718 69.9196 32.3649 69.9196 32.258 69.962 32.1403 70.0082 32.1118 70.1083 32.0548 70.1237 31.6484 70.0274 31.6769 69.9889 31.6876 69.9543 31.6698 69.9389 31.6305 69.885 31.4808 69.9312 31.406 70.0813 31.406 70.2122 31.406 70.3008 31.2598 70.4509 30.7999 70.5587 30.4649 70.7474 30.0193 70.8706 29.7982 70.9899 29.5808 71.09 29.3027 71.09 29.1851 71.09 29.0674 71.1708 28.9035 71.2671 28.8322 71.3672 28.7537 71.4634 28.5862 71.4904 28.4436 71.5173 28.301 71.5135 28.2475 71.4827 28.3188 71.448 28.3901 71.3672 28.5078 71.2902 28.5898 71.1631 28.7252 71.1478 28.7217 71.0515 28.547 70.963 28.3901 70.9706 28.3509 71.1015 28.301 71.1978 28.2654 71.2363 28.1834 71.2094 28.0836 71.1824 27.9837 71.217 27.9053 71.3095 27.8768 71.3903 27.8483 71.4519 27.7699 71.4519 27.695 71.4519 27.6237 71.5481 27.5275 71.6559 27.4882 71.8176 27.4276 71.8253 27.4134 71.6906 27.4098 71.6021 27.4098 71.5443 27.3563 71.5635 27.3029 71.5866 27.2458 71.6713 27.2031 71.7522 27.2102 71.833 27.2173 71.9023 27.1603 71.9023 27.089 71.9023 26.8394 72.4991 25.2567 72.6646 25.0713 72.938 24.7612 73.0881 24.3619 73.0458 24.0553 73.0227 23.8807 73.0381 23.7167 73.0804 23.6917 73.1266 23.6668 73.1613 23.5242 73.1613 23.3745 73.1613 23.2247 73.219 23.0322 73.2922 22.9395 73.3653 22.8469 73.4231 22.715 73.4269 22.6294 73.4269 22.5474 73.4654 22.4832 73.5116 22.4832 73.554 22.4832 73.6194 22.387 73.6464 22.2801 73.681 22.1553 73.7773 22.0662 73.9043 22.0519 74.0121 22.0376 74.1084 21.9877 74.1122 21.945 74.1546 21.4459 74.297 21.0609 74.5165 20.8434 74.6551 20.708 74.8014 20.4442 74.836 20.2695 74.8707 20.0948 74.9438 19.9202 74.9939 19.8916 75.0478 19.8631 75.1055 19.61 75.1248 19.3248 75.1556 18.9006 75.1979 18.7901 75.375 18.6832 75.5021 18.6083 75.5906 18.4728 75.5906 18.3623 75.5906 18.259 75.7369 17.8775 75.9102 17.5282 76.1797 16.9863 76.2682 16.7083 76.3067 16.2947 76.3144 16.1878 77.0613 15.9204 77.5272 15.8598 77.9699 15.7992 78.1663 15.7885 80.1375 15.7101 80.688 15.6887 81.227 15.6353 81.3541 15.5925 81.7044 15.4713 85.2849 15.5105 85.4235 15.6388 85.566 15.7707 86.0549 15.7707 86.1973 15.6388 86.3359 15.5105 86.3282 15.4463 86.1165 14.9544L86.1088 14.9472zM75.9448 1.97491C75.8909 1.97491 75.8563 1.94282 75.8563 1.89292 75.8563 1.84301 75.8909 1.81093 75.9448 1.81093S76.0334 1.84301 76.0334 1.89292C76.0334 1.94282 75.9987 1.97491 75.9448 1.97491zm-5.39 11.81379C70.4509 13.9812 70.3739 14.0347 70.2854 13.9847 70.1776 13.9241 70.1814 13.8921 70.3085 13.778 70.3893 13.7031 70.4586 13.5285 70.4586 13.393 70.4586 13.2575 70.5009 13.147 70.5548 13.147S70.628 13.1149 70.6011 13.0722C70.5356 12.9723 70.6319 12.7299 70.7397 12.7299 70.8629 12.7299 70.7397 13.4643 70.5587 13.7887H70.5548zM69.1496 18.013C69.0033 17.9631 68.9995 17.9346 69.1034 17.6921 69.1727 17.5317 69.1804 17.5353 69.2651 17.7349 69.3691 17.9773 69.3267 18.0771 69.1496 18.0165V18.013zM68.5914 20.0093C68.4759 20.2089 68.4297 20.241 68.4066 20.134 68.3681 19.9665 68.5298 19.6492 68.6568 19.6492 68.7839 19.6492 68.7723 19.6991 68.5952 20.0093H68.5914zM68.3758 20.6509C68.2526 21.0252 68.2064 21.2142 68.1602 21.5528 68.1371 21.7097 68.1024 21.8558 68.0755 21.8772 67.9831 21.9628 67.9099 21.453 67.9946 21.3283 68.0524 21.2463 68.0524 21.1464 67.9985 21.0716 67.9022 20.929 68.164 20.405 68.3642 20.3444 68.4489 20.3182 68.4528 20.4216 68.3758 20.6545V20.6509zm-.6738 2.0712C67.5596 22.747 67.5519 22.7328 67.6558 22.6187 67.7983 22.4619 67.9638 22.4369 67.9099 22.5866 67.8868 22.6437 67.7944 22.7078 67.702 22.7257V22.7221zm-1.0279 3.8036C66.6394 26.6077 66.5855 26.6469 66.5586 26.6077 66.5047 26.5257 66.624 26.1479 66.7049 26.1479 66.7703 26.1479 66.7588 26.3225 66.6741 26.5222V26.5257zM66.5509 27.2601C66.5162 27.4847 66.4046 27.5239 66.4084 27.31 66.4084 27.0177 66.5008 26.7361 66.5932 26.7361 66.6394 26.7361 66.651 26.8181 66.624 26.9286 66.5971 27.0355 66.5663 27.1817 66.5509 27.2637V27.2601zM66.2236 28.2796C66.1081 28.3474 66.1081 28.2368 66.2236 28.0693 66.3006 27.9588 66.3122 27.9624 66.3122 28.0871 66.3122 28.162 66.2698 28.2547 66.2236 28.2796zm-1.0895 3.7466C65.0147 31.9585 65.034 31.7731 65.1687 31.6662 65.2611 31.5913 65.2804 31.6234 65.2496 31.823 65.2303 31.9656 65.1803 32.0548 65.1341 32.0262zM65.1148 32.6073C65.0327 32.757 64.9737 32.7713 64.9377 32.6501 64.8723 32.4255 64.9262 32.3257 65.1071 32.3257 65.265 32.3257 65.265 32.3328 65.1148 32.6109V32.6073zM64.8723 33.4058C64.803 33.5021 64.7837 33.4807 64.7837 33.306 64.7837 33.1812 64.8222 33.0565 64.8723 33.028 64.9878 32.9602 64.9839 33.2383 64.8723 33.4058zM64.4526 35.1348C64.4218 35.2845 64.3448 35.4057 64.2832 35.4057 64.1254 35.4057 64.1292 35.313 64.2909 35.0207 64.3641 34.8888 64.4257 34.7212 64.4257 34.6535S64.4719 34.4717 64.5258 34.404C64.5989 34.3113 64.6105 34.3541 64.5681 34.5715 64.5373 34.7284 64.4834 34.9886 64.4565 35.1348H64.4526zM64.1831 36.1757C64.1562 36.1151 64.1562 36.0081 64.1831 35.9261 64.2101 35.8442 64.2293 35.8869 64.2293 36.0295S64.2101 36.2327 64.1831 36.1757zM64.0676 37.0704C64.0137 37.0704 63.9791 37.0384 63.9791 36.992 63.9791 36.9457 64.0137 36.8922 64.0676 36.8637S64.1562 36.8672 64.1562 36.9421C64.1562 37.017 64.1177 37.0704 64.0676 37.0704zM64.0676 37.4055C64.0137 37.4055 63.9791 37.3913 63.9791 37.3663 63.9791 37.3414 64.0137 37.3093 64.0676 37.2772 64.1177 37.2487 64.1562 37.2665 64.1562 37.3164S64.1177 37.4055 64.0676 37.4055z" fill="#2c2102"/><path d="M71.5911 27.9018C71.5718 27.9018 71.533 27.9552 71.502 28.0301 71.4711 28.105 71.4866 28.137 71.5369 28.1085 71.6182 28.0622 71.6608 27.9018 71.5911 27.9018z" fill="#2c2102"/><path d="M68.5721 18.701C68.4759 18.6475 68.3835 18.8436 68.3835 19.0931 68.3835 19.2096 68.4271 19.2155 68.5144 19.1109 68.6645 18.9291 68.6876 18.7687 68.5721 18.701z" fill="#2c2102"/><path d="M126.607 14.9472C126.391 14.4482 125.775 13.7423 125.456 13.6318 125.132 13.5178 121.367 13.5427 121.09 13.6603 120.947 13.721 120.824 13.7281 120.747 13.6817 120.682 13.639 120.512 13.6104 120.358 13.6176 119.55 13.6461 118.764 13.6639 118.268 13.6568L117.717 13.6497 117.829 13.3787C117.89 13.229 117.983 13.0151 118.033 12.901 118.083 12.7834 118.106 12.6479 118.083 12.5873 118.06 12.5339 118.114 12.484 118.195 12.484 118.318 12.484 118.337 12.4376 118.291 12.2451 118.252 12.0883 118.275 11.9742 118.368 11.9029 118.537 11.771 118.714 11.222 118.726 10.7729 118.73 10.591 118.761 10.4021 118.795 10.3558 118.826 10.3094 118.884 10.1098 118.918 9.9173 118.953 9.7248 119.011 9.56438 119.049 9.56438 119.088 9.56438 119.119 9.45744 119.126 9.33267 119.161 8.32383 119.246 6.80166 119.28 6.55569 119.303 6.38814 119.296 6.22772 119.257 6.19208 119.219 6.15643 119.184 6.01383 119.176 5.86411 119.138 5.12263 118.907 4.36333 118.626 4.04606 118.56 3.9712 118.518 3.85356 118.541 3.79652 118.587 3.67888 118.272 3.07643 118.068 2.8875 117.991 2.8162 117.863 2.74134 117.775 2.70926 117.686 2.67717 117.617 2.60231 117.617 2.53458S117.482 2.30287 117.309 2.16384C116.947 1.86796 115.519 1.17995 115.13 1.11579 114.984 1.09083 114.591.97676 114.241.855557 113.621.641668 113.205.634538 113.205.841297 113.205.894769 113.367 1.08727 113.567 1.26194 113.94 1.59347 113.99 1.76458 113.936 2.48111 113.91 2.84115 113.355 4.923 113.109 5.60032 112.982 5.94254 112.955 6.11721 113.016 6.17425 113.155 6.30258 113.132 6.42379 112.982 6.37032 112.885 6.33823 112.847 6.38101 112.847 6.5236 112.847 6.63055 112.805 6.74819 112.751 6.7767 112.701 6.80522 112.681 6.90504 112.708 6.99059 112.735 7.07258 112.728 7.14744 112.689 7.14744 112.562 7.14744 112.393 7.76059 112.5 7.82476 112.566 7.86397 112.408 8.43434 112.012 9.57864 111.688 10.5126 111.38 11.4252 111.326 11.607 111.276 11.7888 111.076 12.3913 110.891 12.9403L110.549 13.942 108.162 14.0418C105.243 14.163 105.108 14.1452 105.105 13.6675 105.105 13.5605 105.07 13.4928 105.031 13.5178 104.989 13.5427 104.904 13.5285 104.835 13.4857 104.573 13.336 103.742 13.9241 103.892 14.1487 103.919 14.1879 103.876 14.3662 103.803 14.5337 103.699 14.7619 103.665 15.1433 103.665 15.9775 103.665 16.6013 103.653 17.1859 103.642 17.2786 103.626 17.3998 103.684 17.4533 103.846 17.4747 103.969 17.489 104.184 17.5781 104.319 17.6672 104.562 17.8276 104.569 17.8276 104.858 17.6815 105.02 17.5995 105.239 17.4711 105.355 17.3927 105.463 17.3178 105.64 17.2751 105.736 17.2965 105.844 17.3214 105.917 17.2965 105.917 17.2394 105.917 17.1717 105.979 17.1574 106.113 17.1966 106.691 17.3642 107.249 17.3998 107.761 17.3107 108.058 17.2572 108.346 17.1824 108.404 17.1396 108.466 17.0933 108.531 17.1004 108.566 17.1539 108.6 17.2038 108.689 17.2109 108.778 17.1717 108.862 17.1325 109.078 17.0754 109.266 17.0434 109.563 16.9934 109.605 17.0041 109.605 17.1467 109.605 17.2394 109.574 17.3214 109.532 17.3357 109.463 17.3606 109.062 18.3089 109.062 18.4408 109.062 18.4728 109.147 18.455 109.247 18.4087 109.347 18.3588 109.405 18.2803 109.378 18.2376 109.347 18.1948 109.386 18.1591 109.467 18.1591 109.559 18.1591 109.598 18.2126 109.571 18.3053 109.548 18.3837 109.478 18.6582 109.417 18.9113 109.286 19.446 109.105 19.692 109.012 19.471 108.935 19.2856 108.824 19.2963 108.766 19.4959 108.739 19.5886 108.754 19.6635 108.801 19.6635 108.939 19.6635 108.897 19.8453 108.712 20.0307 108.547 20.1946 108.162 21.2463 108.162 21.5314 108.162 21.6099 108.085 21.8915 107.992 22.1482 107.9 22.4048 107.8 22.7364 107.777 22.8718 107.75 23.0108 107.673 23.3067 107.596 23.5384 107.522 23.7701 107.392 24.1979 107.307 24.4974 107.222 24.7968 107.018 25.524 106.849 26.1229 106.679 26.7218 106.487 27.449 106.417 27.7485 106.348 28.0479 106.106 28.9569 105.878 29.7733 105.651 30.5896 105.463 31.3454 105.463 31.4559 105.463 31.5664 105.42 31.6805 105.374 31.7054 105.324 31.7339 105.309 31.7945 105.339 31.8444 105.37 31.8943 105.328 32.0476 105.247 32.1973 105.097 32.4683 104.419 35.4734 104.338 36.2078 104.315 36.4395 104.25 37.0704 104.2 37.6194 104.142 38.2112 104.061 38.6425 103.996 38.6817 103.915 38.7316 103.923 38.7709 104.023 38.8315 104.123 38.8921 104.131 38.9313 104.057 38.9776 103.95 39.0453 103.826 40.7244 103.803 42.4996 103.796 43.1164 103.746 43.6154 103.68 43.7224 103.603 43.8507 103.595 44.0218 103.661 44.3391 103.711 44.5815 103.749 44.7883 103.749 44.8061S103.796 44.8275 103.857 44.8132C103.984 44.7883 104.084 45.134 104.1 45.6509 104.107 45.8506 104.15 46.0787 104.2 46.1678 104.261 46.2748 104.261 46.3425 104.2 46.3782 104.05 46.4637 104.196 47.1589 104.458 47.6187 104.966 48.5028 105.913 49.1623 106.756 49.2264 106.999 49.2443 107.276 49.2977 107.372 49.3476 107.507 49.4154 107.623 49.3976 107.877 49.2799 108.058 49.1944 108.219 49.1195 108.231 49.1124 108.246 49.1052 108.181 48.9377 108.081 48.7381 107.984 48.5384 107.877 48.132 107.842 47.8326S107.746 47.2301 107.703 47.1589C107.661 47.084 107.665 46.9913 107.711 46.945 107.761 46.8986 107.765 46.6883 107.715 46.4102 107.669 46.1429 107.669 45.8969 107.715 45.8149 107.757 45.7365 107.788 45.4656 107.777 45.216 107.761 44.8417 107.726 44.749 107.58 44.717 107.411 44.6777 107.407 44.667 107.546 44.5245 107.626 44.4425 107.719 44.225 107.757 44.0396 107.796 43.8578 107.861 43.6832 107.907 43.6582 108.027 43.5869 107.888 43.1663 107.746 43.1663 107.553 43.1663 107.603 43.0094 107.873 42.7706 108.042 42.6208 108.081 42.546 108 42.521 107.904 42.489 107.911 42.4462 108.023 42.2893 108.1 42.1824 108.138 42.0362 108.108 41.9649 108.077 41.8901 108.096 41.8366 108.154 41.8366 108.269 41.8366 108.285 41.366 108.173 41.2983 108.073 41.2413 108.181 40.8028 108.473 40.0506 108.593 39.7405 108.674 39.4303 108.647 39.3662 108.62 39.302 108.647 39.1951 108.701 39.1273 108.774 39.0418 108.778 38.9206 108.712 38.6924 108.639 38.4358 108.647 38.3538 108.766 38.229 108.855 38.1399 108.92 37.9082 108.935 37.6479 108.951 37.4162 109.009 37.1916 109.066 37.1596 109.128 37.1239 109.17 36.8851 109.174 36.5678 109.174 36.2505 109.228 35.9832 109.297 35.9083 109.39 35.8085 109.394 35.7087 109.317 35.4164 109.224 35.0742 109.232 35.0385 109.444 34.8745 109.648 34.7177 109.786 34.5073 109.832 34.2828 109.844 34.2329 109.856 34.1829 109.867 34.158 109.879 34.1366 109.902 34.0047 109.921 33.8692 109.94 33.7373 110.021 33.5912 110.102 33.552 110.19 33.5092 110.225 33.4201 110.19 33.3203 110.156 33.2205 110.175 33.1563 110.241 33.1563 110.31 33.1563 110.325 33.0743 110.287 32.9139 110.252 32.7713 110.267 32.6501 110.321 32.618 110.371 32.5895 110.418 32.4718 110.418 32.3649 110.418 32.258 110.46 32.1403 110.506 32.1118 110.606 32.0548 110.622 31.6484 110.525 31.6769 110.487 31.6876 110.452 31.6698 110.437 31.6305 110.383 31.4808 110.429 31.406 110.579 31.406 110.71 31.406 110.799 31.2598 110.949 30.7999 111.057 30.4649 111.245 30.0193 111.369 29.7982 111.488 29.5808 111.588 29.3027 111.588 29.1851 111.588 29.0674 111.669 28.9035 111.765 28.8322 111.865 28.7537 111.961 28.5862 111.988 28.4436S112.011 28.2475 111.981 28.3188C111.946 28.3901 111.865 28.5078 111.788 28.5898 111.661 28.7252 111.646 28.7217 111.549 28.547 111.461 28.3901 111.469 28.3509 111.6 28.301 111.696 28.2654 111.734 28.1834 111.707 28.0836 111.68 27.9837 111.715 27.9053 111.807 27.8768 111.888 27.8483 111.95 27.7699 111.95 27.695 111.95 27.6237 112.046 27.5275 112.154 27.4882 112.316 27.4276 112.323 27.4134 112.189 27.4098 112.1 27.4098 112.042 27.3563 112.062 27.3029 112.085 27.2458 112.169 27.2031 112.25 27.2102S112.4 27.1603 112.4 27.089C112.4 26.8394 112.997 25.2567 113.163 25.0713 113.436 24.7612 113.586 24.3619 113.544 24.0553 113.521 23.8807 113.536 23.7167 113.578 23.6917 113.625 23.6668 113.659 23.5242 113.659 23.3745 113.659 23.2247 113.717 23.0322 113.79 22.9395 113.863 22.8469 113.921 22.715 113.925 22.6294 113.925 22.5474 113.963 22.4832 114.01 22.4832 114.052 22.4832 114.117 22.387 114.144 22.2801 114.179 22.1553 114.275 22.0662 114.402 22.0519 114.51 22.0376 114.606 21.9877 114.61 21.945 114.653 21.4459 114.795 21.0609 115.014 20.8434 115.153 20.708 115.299 20.4442 115.334 20.2695 115.369 20.0948 115.442 19.9202 115.492 19.8916 115.546 19.8631 115.604 19.61 115.623 19.3248 115.654 18.9006 115.696 18.7901 115.873 18.6832 116 18.6083 116.089 18.4728 116.089 18.3623 116.089 18.259 116.235 17.8775 116.408 17.5282 116.678 16.9863 116.766 16.7083 116.805 16.2947 116.812 16.1878 117.559 15.9204 118.025 15.8598 118.468 15.7992 118.664 15.7885 120.635 15.7101 121.186 15.6887 121.725 15.6353 121.852 15.5925 122.202 15.4713 125.783 15.5105 125.922 15.6388 126.064 15.7707 126.553 15.7707 126.695 15.6388 126.834 15.5105 126.826 15.4463 126.614 14.9544L126.607 14.9472zM116.443 1.97491C116.389 1.97491 116.354 1.94282 116.354 1.89292 116.354 1.84301 116.389 1.81093 116.443 1.81093S116.531 1.84301 116.531 1.89292C116.531 1.94282 116.497 1.97491 116.443 1.97491zm-5.39 11.81379C110.949 13.9812 110.872 14.0347 110.783 13.9847 110.676 13.9241 110.679 13.8921 110.806 13.778 110.887 13.7031 110.957 13.5285 110.957 13.393 110.957 13.2575 110.999 13.147 111.053 13.147S111.126 13.1149 111.099 13.0722C111.034 12.9723 111.13 12.7299 111.238 12.7299 111.361 12.7299 111.238 13.4643 111.057 13.7887H111.053zm-1.405 4.2243C109.501 17.9631 109.497 17.9346 109.601 17.6921 109.671 17.5317 109.678 17.5353 109.763 17.7349 109.867 17.9773 109.825 18.0771 109.648 18.0165V18.013zM109.089 20.0093C108.974 20.2089 108.928 20.241 108.905 20.134 108.866 19.9665 109.028 19.6492 109.155 19.6492S109.27 19.6991 109.093 20.0093H109.089zM108.874 20.6509C108.751 21.0252 108.704 21.2142 108.658 21.5528 108.635 21.7097 108.6 21.8558 108.573 21.8772 108.481 21.9628 108.408 21.453 108.493 21.3283 108.55 21.2463 108.55 21.1464 108.496 21.0716 108.4 20.929 108.662 20.405 108.862 20.3444 108.947 20.3182 108.951 20.4216 108.874 20.6545V20.6509zM108.2 22.7221C108.058 22.747 108.05 22.7328 108.154 22.6187 108.296 22.4619 108.462 22.4369 108.408 22.5866 108.385 22.6437 108.292 22.7078 108.2 22.7257V22.7221zM107.172 26.5257C107.137 26.6077 107.084 26.6469 107.057 26.6077 107.003 26.5257 107.122 26.1479 107.203 26.1479 107.268 26.1479 107.257 26.3225 107.172 26.5222V26.5257zM107.049 27.2601C107.014 27.4847 106.903 27.5239 106.906 27.31 106.906 27.0177 106.999 26.7361 107.091 26.7361 107.137 26.7361 107.149 26.8181 107.122 26.9286 107.095 27.0355 107.064 27.1817 107.049 27.2637V27.2601zM106.722 28.2796C106.606 28.3474 106.606 28.2368 106.722 28.0693 106.799 27.9588 106.81 27.9624 106.81 28.0871 106.81 28.162 106.768 28.2547 106.722 28.2796zM105.632 32.0262C105.513 31.9585 105.532 31.7731 105.667 31.6662 105.759 31.5913 105.778 31.6234 105.748 31.823 105.728 31.9656 105.678 32.0548 105.632 32.0262zM105.613 32.6073C105.531 32.757 105.472 32.7713 105.436 32.6501 105.37 32.4255 105.424 32.3257 105.605 32.3257 105.763 32.3257 105.763 32.3328 105.613 32.6109V32.6073zM105.37 33.4058C105.301 33.5021 105.282 33.4807 105.282 33.306 105.282 33.1812 105.32 33.0565 105.37 33.028 105.486 32.9602 105.482 33.2383 105.37 33.4058zM104.951 35.1348C104.92 35.2845 104.843 35.4057 104.781 35.4057 104.623 35.4057 104.627 35.313 104.789 35.0207 104.862 34.8888 104.924 34.7212 104.924 34.6535S104.97 34.4717 105.024 34.404C105.097 34.3113 105.108 34.3541 105.066 34.5715 105.035 34.7284 104.981 34.9886 104.954 35.1348H104.951zM104.681 36.1757C104.654 36.1151 104.654 36.0081 104.681 35.9261 104.708 35.8442 104.727 35.8869 104.727 36.0295S104.708 36.2327 104.681 36.1757zM104.566 37.0704C104.512 37.0704 104.477 37.0384 104.477 36.992 104.477 36.9457 104.512 36.8922 104.566 36.8637S104.654 36.8672 104.654 36.9421C104.654 37.017 104.616 37.0704 104.566 37.0704zM104.566 37.4055C104.512 37.4055 104.477 37.3913 104.477 37.3663 104.477 37.3414 104.512 37.3093 104.566 37.2772 104.616 37.2487 104.654 37.2665 104.654 37.3164S104.616 37.4055 104.566 37.4055z" fill="#2c2102"/><path d="M112.089 27.9018C112.07 27.9018 112.031 27.9552 112 28.0301S111.985 28.137 112.035 28.1085C112.116 28.0622 112.159 27.9018 112.089 27.9018z" fill="#2c2102"/><path d="M109.074 18.701C108.978 18.6475 108.885 18.8436 108.885 19.0931 108.885 19.2096 108.929 19.2155 109.016 19.1109 109.166 18.9291 109.189 18.7687 109.074 18.701z" fill="#2c2102"/><path d="M101.155 26.3404C100.977 26.0088 100.773 25.7807 100.488 25.5953 100.261 25.4492 99.9302 25.2068 99.7454 25.057 99.526 24.8788 99.3604 24.8004 99.2565 24.8289 99.1679 24.8538 99.0486 24.8182 98.9908 24.7505 98.9292 24.6827 98.7675 24.6293 98.6289 24.6293S98.3749 24.5972 98.3749 24.5615C98.3749 24.5259 98.2016 24.4688 97.9822 24.4403 97.7627 24.4118 97.4894 24.3655 97.37 24.3405 97.2122 24.3049 97.1352 24.3298 97.0928 24.4296 97.062 24.5045 96.6732 24.9109 96.2189 25.3422 95.7646 25.77 95.3757 26.2013 95.3488 26.3083 95.318 26.4152 95.2602 26.4972 95.2179 26.4972 95.1486 26.4972 94.8021 26.95 94.0205 28.0515 93.8434 28.301 93.6663 28.5149 93.6355 28.5185 93.6047 28.5185 93.5277 28.4044 93.4661 28.2582 93.4045 28.1156 93.2313 27.8019 93.085 27.5667 92.9387 27.3314 92.7731 27.064 92.7231 26.9785 92.673 26.8929 92.5036 26.6933 92.3612 26.5507 92.2187 26.4045 92.0455 26.1907 91.9839 26.0837 91.9261 25.9768 91.7837 25.8235 91.6759 25.7486 91.5642 25.6702 91.3371 25.4278 91.1561 25.2032 90.748 24.6934 90.0011 24.2657 89.7971 24.4261 89.7239 24.4831 89.1926 24.6685 88.6151 24.836 85.5544 25.7237 82.7362 27.8625 79.7987 31.5165 78.405 33.249 78.1586 33.5698 78.1586 33.6411 78.1586 33.6803 78.0084 33.8586 77.8121 34.0475 77.6157 34.2364 77.4425 34.4539 77.4078 34.5466 77.377 34.6392 77.1152 35.0456 76.8265 35.4485 76.3414 36.1293 74.8283 38.8635 74.8283 39.056 74.8283 39.1024 74.7937 39.2093 74.7513 39.2842 74.0121 40.5996 73.5116 42.4854 73.5001 43.9826 73.5001 44.364 73.4693 44.4852 73.4 44.4211 73.3461 44.3712 73.2768 44.332 73.2421 44.332 73.1651 44.332 73.3692 45.134 73.5001 45.3622 73.6772 45.6688 74.4241 46.1785 74.7821 46.2427 74.9669 46.2748 75.2557 46.3746 75.4097 46.4602 75.5829 46.5564 75.7639 46.5992 75.8717 46.5671 75.9795 46.535 76.1874 46.5849 76.3953 46.6919L76.7418 46.8701 77.1383 46.6954C77.481 46.5457 77.5349 46.4887 77.5349 46.2855 77.5349 45.9539 77.6157 45.79 77.7813 45.79 77.9468 45.79 78.4127 45.3907 78.4127 45.2481 78.4127 45.1875 78.5436 45.0913 78.7091 45.0307 78.9209 44.9487 79.0402 44.831 79.1211 44.6207 79.1942 44.4246 79.302 44.3106 79.4368 44.2821 79.5523 44.2571 79.687 44.1787 79.7486 44.1002 79.8064 44.029 79.9296 43.9363 80.0066 43.9113 80.0874 43.8828 80.2299 43.7545 80.3146 43.6333S80.5225 43.3766 80.5802 43.3409C80.6418 43.3053 80.688 43.2055 80.688 43.1164 80.688 43.0272 80.7265 42.9595 80.7804 42.9595S81.2886 42.5852 81.7968 42.1289s1.3206-1.1835 1.8057-1.6113C85.1001 39.1951 87.4255 37.0562 87.4255 37.0027 87.4255 36.9243 87.6526 36.7175 87.7412 36.7175 87.8182 36.7175 88.0338 36.5322 88.773 35.8335 89.0117 35.6053 89.2427 35.4199 89.2812 35.4199 89.3235 35.4199 89.3505 35.3665 89.3505 35.2952S89.466 35.1098 89.6123 35.0314C89.7624 34.953 89.8741 34.8603 89.8779 34.8139 89.8818 34.6927 90.1975 34.3683 90.313 34.3683 90.3784 34.3683 90.3977 34.4218 90.3592 34.5109 90.3284 34.5893 90.286 34.846 90.2668 35.0813 90.2321 35.534 90.1128 35.7443 89.8972 35.7443 89.8009 35.7443 89.7778 35.8085 89.8048 35.9867 89.8279 36.1258 89.8125 36.2292 89.774 36.2292S89.6508 36.329 89.5815 36.4609C89.4775 36.6569 89.4775 36.7033 89.5776 36.7639 89.6739 36.8245 89.6585 36.9813 89.4852 37.6479 89.3697 38.0971 89.2042 38.8386 89.1118 39.3091 88.9886 39.9651 88.9039 40.2003 88.7537 40.3287 88.5959 40.4677 88.5574 40.5889 88.5574 40.9597 88.5574 41.2591 88.6036 41.4659 88.6883 41.5443 88.8384 41.6833 88.8654 41.9828 88.7306 41.9828 88.6883 41.9828 88.6344 41.9186 88.6113 41.8366 88.5112 41.4766 88.5689 42.988 88.6806 43.6047 89.004 45.3943 89.6161 46.4067 90.8212 47.1482 91.5373 47.5902 92.3535 47.8005 93.2197 47.7684 94.2631 47.7292 95.7299 47.4155 95.7299 47.2337 95.7299 47.1981 95.8069 47.1696 95.9147 47.1696 96.0803 47.1696 96.3613 47.0626 96.781 46.8345 96.8541 46.7952 97.0235 46.7239 97.1544 46.674 97.2853 46.6241 97.397 46.5528 97.397 46.5136 97.397 46.4708 97.4316 46.4423 97.4855 46.4423 97.6472 46.4423 99.1949 45.323 99.6068 44.9095 99.8301 44.6813 100.053 44.4959 100.1 44.4959 100.146 44.4959 100.25 44.3676 100.327 44.2108 100.404 44.0575 100.508 43.9256 100.55 43.9256 100.616 43.9256 100.9 43.1627 100.9 42.9952 100.9 42.874 100.727 43.0201 100.3 43.4978 100.046 43.783 99.6415 44.1537 99.3874 44.3355 99.1333 44.5173 98.8176 44.749 98.6713 44.8524 98.5289 44.9558 98.2517 45.159 98.0669 45.2945 97.8821 45.4299 97.6857 45.544 97.6434 45.544 97.601 45.544 97.089 45.8042 96.4999 46.1251 95.4219 46.7168 94.6288 47.002 94.0744 47.002 93.7318 47.002 93.1774 46.6919 93.0118 46.4102 92.8617 46.15 92.8424 44.0361 92.9887 43.7117 93.0503 43.5727 93.0811 43.3802 93.0542 43.2875 93.0272 43.1912 93.0503 43.1128 93.1004 43.1128 93.162 43.1128 93.1774 43.0237 93.1427 42.8775 93.1119 42.7492 93.135 42.6173 93.1851 42.5888 93.2351 42.5603 93.2813 42.439 93.2813 42.325 93.2813 42.0255 93.6047 40.8278 93.7626 40.5497 93.8357 40.4214 93.8935 40.236 93.8935 40.1397 93.8935 40.0435 93.9512 39.9223 94.0244 39.8653 94.1014 39.8047 94.136 39.7048 94.1091 39.6157 94.0821 39.5337 94.0937 39.466 94.1322 39.466 94.2169 39.466 94.4171 38.9491 94.4517 38.6318 94.4671 38.4785 94.4363 38.4144 94.3439 38.4144 94.1437 38.4144 94.3439 38.2718 94.5903 38.2397 94.752 38.2183 94.8252 38.147 94.8675 37.9688 94.8983 37.8298 94.9907 37.6301 95.0793 37.5054 95.164 37.3841 95.2063 37.2487 95.1717 37.1988 95.1409 37.1524 95.1717 37.0455 95.241 36.9706 95.3141 36.8922 95.4951 36.5821 95.6491 36.2648 95.8031 35.9475 96.0187 35.5376 96.138 35.3344 96.2574 35.1348 96.4499 34.7783 96.5731 34.543S96.908 33.9655 97.0543 33.7801C97.2006 33.5948 97.3161 33.4165 97.3161 33.3773S97.4278 33.1599 97.5702 32.9638C97.7088 32.7713 97.936 32.397 98.0746 32.1296 98.2568 31.7731 98.4647 31.463 98.6982 31.1992 98.833 31.0459 98.9947 30.8142 99.0524 30.693 99.1102 30.5682 99.3335 30.2224 99.5529 29.9159 99.7724 29.6093 99.9456 29.3206 99.9456 29.2706 99.9456 29.2172 99.988 29.1566 100.05 29.1174 100.18 29.0389 100.327 28.8322 100.5 28.4828 100.569 28.3438 100.681 28.1905 100.766 28.1299 100.843 28.0693 100.912 27.9695 100.912 27.9053 100.912 27.8412 101.004 27.6558 101.112 27.4918 101.436 27.007 101.443 26.868 101.158 26.3404H101.155zM92.5152 30.2046C92.4459 30.3258 92.1687 30.6467 91.8953 30.9212 91.6181 31.1956 91.2678 31.5664 91.1061 31.7518 90.9444 31.9371 90.7827 32.0833 90.7403 32.0833 90.6017 32.0833 90.1744 32.454 90.209 32.5467 90.2475 32.6537 89.9087 32.8961 89.7162 32.8961 89.5507 32.8961 89.0964 33.2953 89.0964 33.4379 89.0964 33.4949 88.9924 33.5805 88.8692 33.6233 88.746 33.6661 88.6228 33.7801 88.5997 33.8657 88.5766 33.9512 88.5112 34.0261 88.4534 34.0261 88.3957 34.0261 88.3148 34.1081 88.2648 34.2043 88.2147 34.3042 88.053 34.4432 87.899 34.5252 87.5333 34.7105 87.0905 35.1526 87.0867 35.3379 87.0867 35.4199 87.0366 35.4841 86.975 35.4841 86.9134 35.4841 86.4476 35.8798 85.9278 36.3753 85.4081 36.8708 84.9538 37.2665 84.9037 37.2665 84.8537 37.2665 84.1145 37.9082 83.2598 38.696 81.0807 40.6959 80.8343 40.8991 79.4252 41.9008 79.0402 42.1753 78.5782 42.521 78.3973 42.6672 78.2125 42.8205 78.0315 42.9381 77.9815 42.9381 77.8775 42.9381 78.1201 42.3606 78.2625 42.2786 78.3164 42.2501 78.3357 42.1895 78.3049 42.1503 78.2741 42.1075 78.328 42.0184 78.4242 41.94 78.5205 41.8615 78.5936 41.7475 78.5936 41.6797 78.5936 41.6156 78.636 41.5585 78.6822 41.5585S78.7707 41.5158 78.7707 41.4659C78.7707 41.4124 78.8246 41.334 78.8939 41.2805 79.0402 41.1735 79.4714 40.4463 79.4714 40.3109 79.4714 40.2574 79.5484 40.1611 79.6447 40.1005 79.7409 40.0364 79.8179 39.9472 79.8179 39.9009S79.9411 39.6941 80.0874 39.548C80.2337 39.4018 80.3377 39.2343 80.3146 39.1737 80.2915 39.1166 80.3839 38.9883 80.5263 38.8885 80.6649 38.7887 80.7804 38.6425 80.7804 38.557 80.7804 38.4714 80.8574 38.3645 80.9421 38.3217 81.0307 38.2789 81.1731 38.1185 81.254 37.9723 81.3348 37.8262 81.5389 37.5267 81.7083 37.3093 81.8777 37.0918 81.9932 36.8637 81.9701 36.8067 81.947 36.7496 81.9816 36.6569 82.0548 36.6035 82.1241 36.55 82.2511 36.3753 82.332 36.222 82.4128 36.0687 82.5745 35.8548 82.6823 35.7515 82.8941 35.5554 82.9441 35.395 82.7978 35.395 82.6515 35.395 82.8671 35.0884 83.0596 35.0314 83.1559 35.0029 83.2329 34.9173 83.2329 34.8389 83.2329 34.7605 83.3599 34.6392 83.5255 34.568 83.6987 34.4895 83.8681 34.3291 83.9374 34.1723 84.0029 34.0261 84.1261 33.8372 84.2146 33.7587 84.3032 33.6767 84.3724 33.5698 84.3724 33.5199S84.5072 33.306 84.6727 33.1563C84.846 32.9994 84.9538 32.8355 84.9268 32.7713 84.896 32.6964 84.9461 32.6501 85.077 32.6287 85.1963 32.6109 85.3272 32.5004 85.4158 32.3364 85.4928 32.1902 85.6237 32.0548 85.7084 32.0298 85.7931 32.0049 85.8624 31.9193 85.8624 31.8409 85.8624 31.6805 86.3783 31.0887 86.4745 31.1422 86.5092 31.16 86.8249 30.9283 87.1829 30.6181 87.541 30.308 87.899 30.0585 87.9837 30.0549 88.0684 30.0549 88.1801 29.9693 88.2301 29.8731 88.3341 29.677 88.9693 29.2671 89.4506 29.0924 89.62 29.0318 89.9318 28.9142 90.1513 28.8322 90.9213 28.5434 91.3371 28.4828 91.7875 28.5898 92.3997 28.7359 92.7 28.8464 92.9618 29.0175L93.1966 29.1744 92.9194 29.5772C92.7693 29.7947 92.5883 30.0763 92.5229 30.1975L92.5152 30.2046z" fill="#2c2102"/><path d="M140.648 27.2601C140.471 26.9286 140.267 26.7004 139.982 26.515 139.755 26.3689 139.423 26.1265 139.239 25.9768 139.019 25.7985 138.854 25.7201 138.75 25.7486 138.661 25.7736 138.542 25.7379 138.484 25.6702 138.422 25.6024 138.261 25.549 138.122 25.549 137.984 25.549 137.868 25.5169 137.868 25.4812 137.868 25.4456 137.695 25.3886 137.475 25.36 137.256 25.3315 136.983 25.2852 136.863 25.2602 136.705 25.2246 136.628 25.2495 136.586 25.3493 136.555 25.4242 136.166 25.8306 135.712 26.2619 135.258 26.6897 134.869 27.1211 134.842 27.228 134.811 27.3349 134.753 27.4169 134.711 27.4169 134.642 27.4169 134.295 27.8697 133.514 28.9712 133.337 29.2207 133.159 29.4346 133.129 29.4382 133.098 29.4382 133.021 29.3241 132.959 29.1779 132.898 29.0354 132.724 28.7217 132.578 28.4864 132.432 28.2511 132.266 27.9837 132.216 27.8982 132.166 27.8126 131.997 27.613 131.854 27.4704 131.712 27.3242 131.539 27.1104 131.477 27.0034 131.419 26.8965 131.277 26.7432 131.169 26.6683 131.057 26.5899 130.83 26.3475 130.649 26.1229 130.241 25.6131 129.494 25.1854 129.29 25.3458 129.217 25.4028 128.686 25.5882 128.108 25.7557 125.048 26.6434 122.229 28.7823 119.292 32.4362 117.898 34.1687 117.652 34.4895 117.652 34.5608 117.652 34.6 117.502 34.7783 117.305 34.9672 117.109 35.1561 116.936 35.3736 116.901 35.4663 116.87 35.559 116.608 35.9653 116.32 36.3682 115.835 37.049 114.321 39.7833 114.321 39.9758 114.321 40.0221 114.287 40.129 114.244 40.2039 113.505 41.5193 113.005 43.4051 112.993 44.9023 112.993 45.2838 112.962 45.405 112.893 45.3408 112.839 45.2909 112.77 45.2517 112.735 45.2517 112.658 45.2517 112.862 46.0538 112.993 46.2819 113.17 46.5885 113.917 47.0982 114.275 47.1624 114.46 47.1945 114.749 47.2943 114.903 47.3799 115.076 47.4761 115.257 47.5189 115.365 47.4868 115.473 47.4547 115.681 47.5046 115.888 47.6116L116.235 47.7898 116.631 47.6151C116.974 47.4654 117.028 47.4084 117.028 47.2052 117.028 46.8737 117.109 46.7097 117.274 46.7097 117.44 46.7097 117.906 46.3104 117.906 46.1678 117.906 46.1072 118.037 46.011 118.202 45.9504 118.414 45.8684 118.533 45.7507 118.614 45.5404 118.687 45.3444 118.795 45.2303 118.93 45.2018 119.045 45.1768 119.18 45.0984 119.242 45.02 119.3 44.9487 119.423 44.856 119.5 44.831 119.581 44.8025 119.723 44.6742 119.808 44.553 119.892 44.4318 120.016 44.2963 120.073 44.2607 120.135 44.225 120.181 44.1252 120.181 44.0361 120.181 43.9469 120.22 43.8792 120.274 43.8792 120.327 43.8792 120.782 43.5049 121.29 43.0486 121.798 42.5923 122.611 41.8651 123.096 41.4373 124.593 40.1148 126.919 37.9759 126.919 37.9224 126.919 37.844 127.146 37.6372 127.234 37.6372 127.311 37.6372 127.527 37.4519 128.266 36.7532 128.505 36.525 128.736 36.3397 128.774 36.3397 128.817 36.3397 128.844 36.2862 128.844 36.2149S128.959 36.0295 129.105 35.9511C129.256 35.8727 129.367 35.78 129.371 35.7336 129.375 35.6124 129.691 35.288 129.806 35.288 129.872 35.288 129.891 35.3415 129.852 35.4306 129.822 35.509 129.779 35.7657 129.76 36.001 129.725 36.4537 129.606 36.664 129.39 36.664 129.294 36.664 129.271 36.7282 129.298 36.9065 129.321 37.0455 129.306 37.1489 129.267 37.1489 129.229 37.1489 129.144 37.2487 129.075 37.3806 128.971 37.5766 128.971 37.623 129.071 37.6836 129.167 37.7442 129.152 37.901 128.978 38.5677 128.863 39.0168 128.697 39.7583 128.605 40.2289 128.482 40.8848 128.397 41.1201 128.247 41.2484 128.089 41.3874 128.051 41.5086 128.051 41.8794 128.051 42.1788 128.097 42.3856 128.181 42.464 128.332 42.603 128.359 42.9025 128.224 42.9025 128.181 42.9025 128.128 42.8383 128.104 42.7563 128.004 42.3963 128.062 43.9077 128.174 44.5244 128.497 46.314 129.109 47.3264 130.314 48.0679 131.03 48.5099 131.847 48.7202 132.713 48.6881 133.756 48.6489 135.223 48.3352 135.223 48.1534 135.223 48.1178 135.3 48.0893 135.408 48.0893 135.573 48.0893 135.854 47.9823 136.274 47.7542 136.347 47.715 136.517 47.6437 136.648 47.5937 136.778 47.5438 136.89 47.4725 136.89 47.4333 136.89 47.3906 136.925 47.362 136.979 47.362 137.14 47.362 138.688 46.2427 139.1 45.8292 139.323 45.601 139.547 45.4157 139.593 45.4157 139.639 45.4157 139.743 45.2873 139.82 45.1305 139.897 44.9772 140.001 44.8453 140.043 44.8453 140.109 44.8453 140.394 44.0824 140.394 43.9149 140.394 43.7937 140.22 43.9398 139.793 44.4175 139.539 44.7027 139.135 45.0734 138.881 45.2552 138.626 45.437 138.311 45.6687 138.164 45.7721 138.022 45.8755 137.745 46.0787 137.56 46.2142 137.375 46.3496 137.179 46.4637 137.137 46.4637 137.094 46.4637 136.582 46.7239 135.993 47.0448 134.915 47.6365 134.122 47.9217 133.568 47.9217 133.225 47.9217 132.671 47.6116 132.505 47.33 132.355 47.0697 132.336 44.9558 132.482 44.6314 132.543 44.4924 132.574 44.2999 132.547 44.2072 132.52 44.1109 132.543 44.0325 132.594 44.0325 132.655 44.0325 132.671 43.9434 132.636 43.7972 132.605 43.6689 132.628 43.537 132.678 43.5085S132.774 43.3588 132.774 43.2447C132.774 42.9452 133.098 41.7475 133.256 41.4694 133.329 41.3411 133.387 41.1557 133.387 41.0595 133.387 40.9632 133.444 40.842 133.518 40.785 133.595 40.7244 133.629 40.6245 133.602 40.5354 133.575 40.4534 133.587 40.3857 133.625 40.3857 133.71 40.3857 133.91 39.8688 133.945 39.5515 133.96 39.3983 133.929 39.3341 133.837 39.3341 133.637 39.3341 133.837 39.1915 134.083 39.1594 134.245 39.138 134.318 39.0667 134.361 38.8885 134.391 38.7495 134.484 38.5498 134.572 38.4251 134.657 38.3039 134.699 38.1684 134.665 38.1185 134.634 38.0721 134.665 37.9652 134.734 37.8903 134.807 37.8119 134.988 37.5018 135.142 37.1845S135.512 36.4573 135.631 36.2541C135.751 36.0545 135.943 35.698 136.066 35.4627 136.189 35.2274 136.401 34.8852 136.547 34.6998 136.694 34.5145 136.809 34.3362 136.809 34.297 136.809 34.2578 136.921 34.0796 137.063 33.8835 137.202 33.691 137.429 33.3167 137.568 33.0493 137.75 32.6928 137.958 32.3827 138.191 32.1189 138.326 31.9656 138.488 31.7339 138.546 31.6127 138.603 31.4879 138.827 31.1422 139.046 30.8356 139.266 30.529 139.439 30.2403 139.439 30.1904 139.439 30.1369 139.481 30.0763 139.543 30.0371 139.674 29.9586 139.82 29.7519 139.993 29.4025 140.063 29.2635 140.174 29.1102 140.259 29.0496 140.336 28.989 140.405 28.8892 140.405 28.825 140.405 28.7609 140.498 28.5755 140.605 28.4115 140.929 27.9267 140.936 27.7877 140.652 27.2601H140.648zM132.008 31.1243C131.939 31.2455 131.662 31.5664 131.388 31.8409 131.111 32.1154 130.761 32.4861 130.599 32.6715 130.438 32.8568 130.276 33.003 130.233 33.003 130.095 33.003 129.668 33.3737 129.702 33.4664 129.741 33.5734 129.402 33.8158 129.209 33.8158 129.044 33.8158 128.59 34.215 128.59 34.3576 128.59 34.4147 128.486 34.5002 128.362 34.543 128.239 34.5858 128.116 34.6998 128.093 34.7854 128.07 34.8709 128.004 34.9458 127.947 34.9458 127.889 34.9458 127.808 35.0278 127.758 35.124 127.708 35.2239 127.546 35.3629 127.392 35.4449 127.026 35.6303 126.584 36.0723 126.58 36.2577 126.58 36.3396 126.53 36.4038 126.468 36.4038 126.407 36.4038 125.941 36.7995 125.421 37.295 124.901 37.7905 124.447 38.1862 124.397 38.1862 124.347 38.1862 123.608 38.8279 122.753 39.6157 120.574 41.6156 120.327 41.8188 118.918 42.8205 118.533 43.095 118.071 43.4407 117.89 43.5869 117.706 43.7402 117.525 43.8578 117.475 43.8578 117.371 43.8578 117.613 43.2803 117.756 43.1983 117.81 43.1698 117.829 43.1092 117.798 43.07 117.767 43.0272 117.821 42.9381 117.917 42.8597 118.014 42.7813 118.087 42.6672 118.087 42.5995 118.087 42.5353 118.129 42.4782 118.175 42.4782 118.222 42.4782 118.264 42.4355 118.264 42.3856 118.264 42.3321 118.318 42.2537 118.387 42.2002 118.533 42.0932 118.965 41.366 118.965 41.2306 118.965 41.1771 119.042 41.0808 119.138 41.0202 119.234 40.9561 119.311 40.867 119.311 40.8206 119.311 40.7743 119.434 40.6139 119.581 40.4677 119.727 40.3215 119.831 40.154 119.808 40.0934 119.785 40.0364 119.877 39.908 120.019 39.8082 120.158 39.7084 120.274 39.5622 120.274 39.4767 120.274 39.3911 120.351 39.2842 120.435 39.2414 120.524 39.1986 120.666 39.0382 120.747 38.8921 120.828 38.7459 121.032 38.4464 121.201 38.229 121.371 38.0115 121.486 37.7834 121.463 37.7264 121.44 37.6693 121.475 37.5766 121.548 37.5232 121.617 37.4697 121.744 37.295 121.825 37.1417S122.068 36.7746 122.175 36.6712C122.387 36.4751 122.437 36.3147 122.291 36.3147S122.36 36.0081 122.553 35.9511C122.649 35.9226 122.726 35.837 122.726 35.7586S122.853 35.559 123.019 35.4877C123.192 35.4092 123.361 35.2488 123.431 35.092 123.496 34.9458 123.619 34.7569 123.708 34.6784 123.796 34.5965 123.866 34.4895 123.866 34.4396S124 34.2257 124.166 34.076C124.339 33.9191 124.447 33.7552 124.42 33.691 124.389 33.6161 124.439 33.5698 124.57 33.5484 124.69 33.5306 124.82 33.4201 124.909 33.2561 124.986 33.1099 125.117 32.9745 125.202 32.9495 125.286 32.9246 125.356 32.839 125.356 32.7606 125.356 32.6002 125.871 32.0084 125.968 32.0619 126.002 32.0797 126.318 31.848 126.676 31.5379 127.034 31.2277 127.392 30.9782 127.477 30.9746 127.562 30.9746 127.673 30.8891 127.723 30.7928 127.827 30.5967 128.463 30.1868 128.944 30.0121 129.113 29.9515 129.425 29.8339 129.644 29.7519 130.414 29.4631 130.83 29.4025 131.281 29.5095 131.893 29.6556 132.193 29.7661 132.455 29.9373L132.69 30.0941 132.413 30.4969C132.262 30.7144 132.081 30.996 132.016 31.1172L132.008 31.1243z" fill="#2c2102"/><path d="M169.904 24.2978C169.831 24.1552 169.757 23.9555 169.73 23.8308 169.68 23.6133 169.034 22.9217 168.88 22.9217 168.83 22.9217 168.691 22.8362 168.564 22.7292 168.318 22.5153 167.332 22.2016 166.654 22.1232 166.004 22.0448 165.342 22.2551 163.694 23.0572 162.365 23.7024 160.021 25.9055 156.829 29.5095 156.525 29.8517 155.928 30.5219 155.509 30.9889 155.089 31.4559 154.696 31.9229 154.639 32.0227 154.581 32.1225 154.304 32.4683 154.019 32.7927 153.51 33.3738 151.158 36.3361 150.635 37.0526 150.488 37.2523 150.338 37.4198 150.303 37.4234 150.203 37.4305 150.284 36.9279 150.404 36.8209 150.457 36.771 150.504 36.6391 150.504 36.5286 150.504 36.3718 150.542 36.3397 150.692 36.3753 150.835 36.411 150.869 36.3896 150.827 36.2933 150.796 36.2185 150.862 36.0901 150.989 35.9832 151.285 35.7337 151.343 35.5447 151.116 35.5519 150.989 35.5519 150.896 35.477 150.839 35.313 150.758 35.092 150.781 35.0421 151.077 34.8139 151.274 34.6607 151.405 34.486 151.405 34.3719 151.405 34.2578 151.458 34.183 151.535 34.183 151.616 34.183 151.689 34.0618 151.728 33.8693 151.763 33.6946 151.84 33.5021 151.905 33.4308 151.967 33.3631 152.067 33.0814 152.125 32.8069 152.182 32.5325 152.282 32.2508 152.344 32.1831 152.406 32.1154 152.51 31.9264 152.575 31.766 152.64 31.6092 152.748 31.4131 152.814 31.3418 152.883 31.267 152.937 31.1351 152.937 31.0317S152.972 30.8356 153.014 30.8107C153.056 30.7857 153.114 30.6574 153.149 30.5148 153.183 30.3651 153.26 30.2652 153.341 30.2652 153.414 30.2652 153.476 30.1939 153.476 30.112 153.476 30.03 153.58 29.7769 153.707 29.563 153.834 29.3455 153.915 29.0996 153.888 29.0211 153.861 28.9391 153.896 28.8322 153.972 28.7716 154.046 28.7146 154.107 28.6147 154.107 28.5506 154.107 28.4828 154.138 28.4329 154.18 28.4329 154.269 28.4329 154.558 27.9481 154.558 27.7984 154.558 27.7307 154.619 27.6522 154.689 27.6273 154.762 27.6023 154.846 27.474 154.877 27.3385 154.908 27.2066 154.974 27.0961 155.016 27.0961S155.097 27.0462 155.097 26.9785C155.097 26.9179 155.158 26.8145 155.231 26.761 155.305 26.7076 155.366 26.5365 155.366 26.376 155.366 26.1835 155.409 26.0944 155.497 26.0944 155.566 26.0944 155.659 26.0053 155.69 25.9055 155.724 25.8021 155.847 25.5276 155.963 25.2852 156.082 25.0428 156.175 24.8004 156.175 24.7362 156.175 24.6721 156.286 24.4689 156.425 24.2871 156.91 23.6383 156.991 23.4565 156.752 23.542 156.644 23.5812 156.621 23.5598 156.664 23.46 156.691 23.3887 156.718 23.2533 156.718 23.1677 156.718 23.0822 156.771 23.0109 156.833 23.0109 156.964 23.0109 157.137 22.6865 157.226 22.2765 157.26 22.1197 157.376 21.945 157.499 21.8666 157.615 21.7953 157.707 21.6705 157.695 21.5992 157.688 21.5279 157.726 21.3568 157.78 21.232 157.834 21.1073 157.884 20.9433 157.884 20.8827 157.884 20.8149 157.919 20.7472 157.961 20.7187 158.003 20.6937 158.065 20.4905 158.096 20.266 158.127 20.0414 158.215 19.8097 158.292 19.7526 158.373 19.692 158.412 19.6029 158.388 19.5387 158.365 19.4817 158.408 19.3712 158.477 19.307 158.554 19.2357 158.654 19.0682 158.708 18.9292 158.762 18.7866 158.839 18.6761 158.885 18.6761 158.931 18.6761 158.989 18.5263 159.02 18.341 159.051 18.1592 159.131 17.9667 159.201 17.9167 159.266 17.8668 159.328 17.7278 159.328 17.6209 159.328 17.464 159.362 17.4284 159.486 17.464 159.613 17.4997 159.663 17.4391 159.744 17.1289 159.801 16.9043 159.809 16.7297 159.763 16.7047 159.721 16.6798 159.767 16.6013 159.867 16.5372 159.967 16.473 160.052 16.3625 160.052 16.3055 160.052 16.2484 160.117 16.0666 160.202 15.9098 160.533 15.293 160.571 15.2004 160.679 14.8439 160.741 14.6371 160.841 14.4125 160.906 14.3448 160.972 14.2735 161.022 14.1238 161.022 13.999 161.022 13.8743 161.099 13.6711 161.195 13.5356 161.372 13.2896 161.499 12.9759 161.672 12.345 161.73 12.1418 161.88 11.7603 162.004 11.5108 162.596 10.3094 162.827 9.38616 162.801 8.33454 162.793 7.9745 162.808 7.67505 162.839 7.67505 162.951 7.67505 163.132 6.91575 163.082 6.67334 163.051 6.54144 163.062 6.41311 163.101 6.39172 163.22 6.32399 163.309 5.45061 163.212 5.28307 163.162 5.19395 163.101 4.91589 163.074 4.65922 163.016 4.06034 162.893 3.65395 162.62 3.17626 162.504 2.97307 162.296 2.59164 162.161 2.3421 161.649 1.38317 159.609.0249734 158.65.0107142 158.03.197263e-4 157.079.0606215 157.022.114094 156.929.199649 157.272.666639 157.472.723676c.262.078426 1.113.670184 1.209.841294C159.047 2.2209 158.943 3.92487 158.446 5.42566 158.346 5.7251 158.215 6.1707 158.154 6.42737 158.092 6.67691 157.926 7.12607 157.784 7.41839 157.642 7.7107 157.526 8.02797 157.526 8.12422 157.526 8.22047 157.36 8.70885 157.156 9.21505S156.583 10.6445 156.336 11.2612C156.09 11.878 155.728 12.7442 155.539 13.1791 155.131 14.1095 155.004 14.4375 154.327 16.2627 154.046 17.022 153.799 17.7599 153.78 17.9132 153.742 18.2055 153.537 18.6297 153.333 18.8472 153.206 18.9826 152.717 20.2909 152.617 20.765 152.583 20.9219 152.525 21.0966 152.486 21.1393 152.417 21.2213 152.332 21.5136 152.263 21.8986 152.244 21.9985 152.19 22.141 152.136 22.2337 152.082 22.3228 151.982 22.5581 151.905 22.7684 151.828 22.9788 151.713 23.2925 151.636 23.4778 151.424 24.009 150.804 25.6132 150.234 27.1033 149.945 27.8626 149.56 28.8322 149.376 29.2707 149.021 30.1191 147.139 35.3807 146.8 36.4823 146.684 36.8494 146.538 37.2309 146.469 37.3343 146.4 37.4341 146.369 37.5553 146.396 37.5981 146.427 37.6444 146.396 37.7193 146.323 37.7727 146.253 37.8262 146.169 38.0615 146.134 38.3003 146.099 38.5356 145.995 38.942 145.907 39.1915 145.402 40.5996 144.644 43.2804 144.517 44.1003 144.486 44.2999 144.405 44.5387 144.344 44.6243 144.259 44.7384 144.236 45.0164 144.259 45.651 144.278 46.1857 144.259 46.5386 144.201 46.5671 144.043 46.6562 144.101 46.7703 144.363 46.8773 144.502 46.9343 144.744 47.0769 144.925 47.2088 145.206 47.4155 145.329 47.4441 145.961 47.4619 146.673 47.4833 146.677 47.4797 146.654 47.2836 146.638 47.1589 146.696 47.0412 146.808 46.9664 146.904 46.9022 147.035 46.6919 147.096 46.4994 147.158 46.3104 147.366 45.9326 147.551 45.6759 147.736 45.4192 147.893 45.1376 147.893 45.0628 147.893 44.9879 148.017 44.8204 148.159 44.6956 148.305 44.5708 148.594 44.1323 148.802 43.726 149.01 43.316 149.233 42.9524 149.302 42.9167 149.372 42.8811 149.426 42.7848 149.426 42.6993 149.426 42.6137 149.61 42.325 149.826 42.0576 150.042 41.7903 150.23 41.5158 150.23 41.4516 150.23 41.391 150.35 41.2021 150.492 41.0345 150.635 40.867 150.835 40.564 150.946 40.3536 151.185 39.9045 151.524 39.327 151.586 39.27 151.809 39.0632 152.217 38.5035 152.217 38.4037 152.217 38.336 152.317 38.1791 152.44 38.0543 152.563 37.9296 152.664 37.762 152.664 37.6765 152.664 37.5909 152.702 37.5232 152.748 37.5232 152.798 37.5232 152.902 37.4162 152.991 37.2737 153.079 37.1311 153.191 37.0241 153.249 37.0241 153.306 37.0241 153.468 36.8494 153.614 36.632 153.761 36.4145 154.026 36.0723 154.204 35.862 154.381 35.6517 154.662 35.256 154.823 34.9815 154.985 34.707 155.174 34.4218 155.243 34.3469 155.312 34.2721 155.366 34.1865 155.366 34.1544 155.366 34.019 155.978 33.1955 156.306 32.8889 156.506 32.7 156.81 32.3293 156.983 32.0619S157.387 31.5022 157.499 31.406C157.607 31.3133 157.703 31.2028 157.703 31.1671 157.703 31.0851 158.766 29.7804 158.981 29.5986 159.062 29.5309 159.413 29.1423 159.771 28.7252 160.129 28.3082 160.541 27.8447 160.702 27.6808 160.864 27.5132 161.095 27.2779 161.23 27.1389 161.357 27.007 161.622 26.7789 161.8 26.6434 161.98 26.5079 162.312 26.2334 162.527 26.0374 162.743 25.8413 163.147 25.5276 163.417 25.3422 163.686 25.1569 163.913 24.9679 163.913 24.9252 163.913 24.8824 163.963 24.8503 164.017 24.8503S164.325 24.7148 164.568 24.5509C164.81 24.3869 165.045 24.2799 165.084 24.3191 165.188 24.4154 164.252 26.0873 162.97 28.0871 162.127 29.4026 161.954 29.7091 161.992 29.8125 162.019 29.8802 161.992 29.9373 161.942 29.9373 161.892 29.9373 161.842 30.0335 161.842 30.1405 161.842 30.2474 161.803 30.3651 161.757 30.39 161.711 30.415 161.676 30.5433 161.68 30.6681 161.684 30.8035 161.526 31.16 161.303 31.5201 161.087 31.8623 160.66 32.643 160.34 33.2668 160.021 33.8907 159.728 34.461 159.682 34.5394 159.474 34.8924 159.405 35.0243 158.981 35.8549c-.5.9803-.727000000000004 1.6433-1.012 2.9338C157.838 39.3876 157.726 39.6906 157.645 39.6906 157.514 39.6906 157.495 39.8474 157.603 40.0079 157.642 40.0613 157.611 40.5497 157.534 41.0844 157.403 42.0113 157.384 42.0612 157.168 42.1111 157.041 42.1396 156.883 42.2573 156.806 42.382 156.683 42.5852 156.687 42.628 156.841 42.8954 156.979 43.1306 156.999 43.2839 156.949 43.6832 156.898 44.0824 156.933 44.3284 157.122 44.9558 157.661 46.724 158.716 48.075 159.998 48.6561 160.637 48.9448 161.18 48.9163 161.788 48.5634 162.111 48.3745 162.223 48.2497 162.296 47.9966 162.346 47.8219 162.439 47.6009 162.5 47.5189 162.589 47.3941 162.581 47.3407 162.473 47.2409 162.354 47.1304 162.312 47.1304 162.084 47.2409 161.707 47.4262 161.526 47.4013 161.222 47.1268 160.887 46.8238 160.791 46.6099 160.671 45.8862 160.494 44.8097 160.487 44.692 160.591 44.5708 160.645 44.5067 160.671 44.3783 160.645 44.2856 160.621 44.193 160.637 44.0967 160.679 44.0717 160.725 44.0468 160.764 43.8507 160.768 43.6333 160.772 43.4158 160.806 43.1306 160.841 42.9916 160.876 42.849 160.864 42.6779 160.81 42.5924 160.741 42.4854 160.745 42.4248 160.825 42.3785 160.887 42.3428 160.979 42.1254 161.037 41.883 161.095 41.6405 161.176 41.4302 161.222 41.4053 161.268 41.3803 161.303 41.2306 161.303 41.0702S161.345 40.7814 161.391 40.7814C161.438 40.7814 161.48 40.7101 161.48 40.6174 161.48 40.5248 161.515 40.4356 161.561 40.4107 161.607 40.3857 161.669 40.2467 161.703 40.097 161.792 39.6977 162.373 38.3431 162.523 38.1898 162.596 38.1149 162.65 38.0187 162.65 37.9688S162.704 37.8618 162.777 37.8369C162.847 37.8119 162.97 37.648 163.051 37.4733 163.378 36.7817 163.855 35.9369 163.975 35.8513 164.04 35.8014 164.09 35.7016 164.09 35.6196 164.09 35.5412 164.163 35.3807 164.252 35.2738 164.344 35.1633 164.506 34.8888 164.625 34.6571 164.872 34.1723 164.88 34.158 165.361 33.4058 165.569 33.0814 165.769 32.8105 165.811 32.7927 165.854 32.7784 166.011 32.5253 166.165 32.233 166.319 31.9407 166.5 31.6626 166.566 31.6127 166.631 31.5628 166.716 31.4095 166.747 31.2741 166.778 31.1422 166.855 31.0281 166.912 31.0281 167.105 31.0281 167.397 30.4292 167.351 30.1369 167.317 29.9195 167.351 29.8589 167.559 29.7662 167.906 29.6093 168.11 29.3134 168.267 28.7395 168.344 28.465 168.445 28.2262 168.495 28.2119 168.691 28.1513 168.868 27.916 168.826 27.7734 168.803 27.6915 168.837 27.5809 168.907 27.5275 168.98 27.474 169.034 27.3956 169.034 27.3492 169.034 27.3029 169.118 27.1567 169.215 27.032 169.315 26.9001 169.407 26.6826 169.426 26.5329 169.446 26.3832 169.499 26.2406 169.557 26.2121 169.707 26.1301 169.854 25.7165 169.904 25.2424 169.927 25.0107 169.961 24.7719 169.981 24.7006 170 24.6293 169.961 24.4689 169.892 24.3263L169.904 24.2978zm-16.832 1.0409C153.049 25.3387 153.01 25.3066 152.975 25.2567 152.945 25.2103 152.96 25.1747 153.018 25.1747 153.075 25.1747 153.114 25.2103 153.114 25.2567 153.114 25.3066 153.099 25.3387 153.072 25.3387zM149.961 37.8832C149.907 37.9118 149.872 37.9011 149.872 37.8512 149.872 37.8012 149.907 37.7478 149.961 37.7193 150.015 37.6907 150.049 37.7014 150.049 37.7513S150.015 37.8547 149.961 37.8832z" fill="#2c2102"/><path d="M153.295 31.3418C153.245 31.3418 153.206 31.3811 153.206 31.4311S153.245 31.4989 153.295 31.4704C153.349 31.4418 153.383 31.4061 153.383 31.3811S153.349 31.3418 153.295 31.3418z" fill="#2c2102"/></g><defs><clipPath id="clip0_807_63877"><rect width="170" height="50" fill="#fff"/></clipPath></defs></svg>