<svg xmlns="http://www.w3.org/2000/svg" width="27rem" height="100" viewBox="0 0 258 76" fill="none"><path fill-rule="evenodd" clip-rule="evenodd" d="M179.338 49.9363C179.145 49.4722 178.937 48.9659 178.719 48.4218 178.226 49.9041 177.629 50.7342 175.798 51.7677 178.196 52.6582 178.354 52.2291 179.338 49.9363zm5.035 6.3468L184.689 56.2172C184.609 56.1836 184.533 56.1541 184.461 56.1261 184.433 56.178 184.402 56.2313 184.373 56.2831zM179.469 55.8344C180.374 56.5888 181.277 56.7417 182.391 56.6323 182.807 56.4486 183.221 56.2228 183.632 55.9382 182.695 55.8232 182.204 55.9788 180.976 53.5851 180.609 54.3802 180.118 55.1262 179.469 55.8344zM177.908 53.9511C178.029 54.1432 178.15 54.3199 178.269 54.4868 179.134 54.1993 179.581 53.7183 180.4 52.3876 180.196 51.9402 179.971 51.434 179.726 50.8604 179.533 52.0819 179.188 52.8685 177.908 53.9511zM177.302 54.7196 177.252 54.47C177.107 54.5793 176.953 54.6915 176.789 54.8093 176.974 54.7771 177.145 54.7462 177.302 54.7196zM178.124 57.3545 178.034 57.1414C177.944 57.2087 177.851 57.2774 177.76 57.3489L178.124 57.3545zM178.588 60.0511C180.037 60.2867 181.443 60.7018 182.793 61.3469L183.342 61.2753C182.391 60.7972 181.104 60.685 179.915 59.7665 179.505 59.8815 179.046 59.9726 178.588 60.0511zM131.222 62.787C131.073 62.902 130.918 63.0464 130.745 63.2442 131.111 63.1755 131.506 63.0899 131.931 63.0002 131.66 62.8852 131.429 62.8249 131.222 62.787zM130.284 48.9449C130.836 49.3375 131.351 49.625 131.819 49.8073 131.933 49.6881 132.04 49.5535 132.136 49.4147 132.059 49.5675 131.99 49.712 131.929 49.8522 133.252 50.3332 134.184 49.9742 134.483 48.9575 132.057 48.663 131.487 49.1244 130.841 46.345 130.683 47.6548 130.528 48.4359 130.284 48.9449zM130.636 52.4128C131.544 53.0691 132.168 52.6666 134.022 52.2922 133.355 51.5111 132.522 51.8084 131.472 50.9502 131.194 51.685 131.102 52.0328 130.636 52.4128zM128.918 50.6501 128.861 50.4832 129.018 50.6824C129.643 50.8689 130.343 50.7679 130.959 50.4524 130.688 50.1467 130.406 49.754 130.109 49.2422 129.738 49.7638 129.186 49.9167 128.257 50.2645 128.457 50.4398 128.683 50.5646 128.918 50.6501zm1.839 3.3613C130.481 53.7352 130.197 53.3692 129.913 52.8854 129.674 53.02 129.388 53.17 129.039 53.3467 129.581 53.9511 130.073 54.2218 130.757 54.0114zM131.308 55.6998C131.803 55.6872 132.49 55.6507 133.546 55.6759 133.497 54.8009 132.808 55.1094 131.864 54.7518 131.701 55.1262 131.537 55.4249 131.308 55.6998zM130.486 59.7693C131.233 60.068 131.888 59.8268 132.843 59.2041 132.425 59.0106 132.057 58.8732 131.724 58.7498 131.444 59.1873 131.073 59.5435 130.486 59.7693zM123.807 57.7359C123.51 57.9491 123.239 58.0809 122.935 58.3109 123.293 58.2997 123.748 58.2884 124.349 58.3025 124.327 57.8846 124.124 57.7962 123.807 57.7359zM122.822 54.5667C122.479 54.8374 122.04 55.0449 121.455 55.1641 121.828 55.5638 122.117 55.7741 122.412 55.8639 123.045 55.955 123.719 55.7769 124.498 55.3128 124.033 54.9762 123.482 55.0309 122.822 54.5667zm1.175-1.8594C123.862 53.0579 123.723 53.386 123.555 53.6833 124.356 53.8207 124.914 53.501 125.115 52.811 124.674 52.7592 124.306 52.7353 123.997 52.7073zm-1.741-1.565C121.923 51.3933 121.507 51.6584 120.97 51.9725 121.93 52.3847 122.41 52.4997 122.842 52.3385 122.605 52.1197 122.428 51.7565 122.256 51.1423zm1.37-1.7739C123.387 49.9307 123.142 50.3388 122.736 50.7342 123.111 51.2433 123.448 51.1255 124.684 50.8787L124.798 50.7861 124.755 50.8661C124.919 50.8324 125.097 50.8001 125.293 50.7651 124.588 49.8059 124.304 51.0624 123.626 49.3684zM124.365 47.3869C124.221 47.7698 124.102 48.1049 123.993 48.4064 124.475 48.7556 124.665 48.255 125.57 47.6211 125.121 47.45 124.729 47.5286 124.365 47.3869zM123.14 45.2709C122.662 46.5526 122.662 46.7279 120.468 47.8455 121.274 48.7444 121.977 48.9743 123.225 48.1652 123.142 47.8806 123.054 47.5594 122.961 47.1948 123.192 47.5061 123.381 47.7557 123.543 47.9493 123.772 47.7824 124.018 47.5833 124.287 47.3533 123.892 47.1598 123.525 46.6676 123.14 45.2709zM123.902 43.4913C123.574 44.1588 123.367 44.6693 123.211 45.0802 124.257 46.6017 125.047 46.1179 126.055 45.1348 126.164 43.9134 125.449 47.1401 123.902 43.4913zm99.22 6.5712C223.869 50.2911 224.558 50.0219 225.527 49.3866 224.786 49.0459 224.191 48.865 223.666 48.649 223.477 49.1581 223.295 49.6278 223.122 50.0625zM219.938 47.2607C220.691 48.133 221.297 48.7892 221.822 49.2506 222.108 48.9281 222.43 48.5761 222.804 48.1877 222.117 47.6983 221.485 46.8667 220.677 45.0605 220.461 45.9131 220.211 46.6409 219.938 47.2607zm-24.97 7.9315C194.892 55.2959 194.813 55.4025 194.73 55.5231 195.142 55.8582 195.562 56.0195 195.98 56.0391 195.619 55.7601 195.284 55.4796 194.968 55.1922zM197.793 52.7732C197.672 52.9078 197.555 53.02 197.444 53.121 197.789 53.1827 198.169 53.2458 198.598 53.3145 198.311 53.1266 198.043 52.9485 197.793 52.7732zM200.069 49.0375 200.044 49.0865 200.118 49.0613 200.069 49.0375zM194.87 50.0233C194.528 50.1495 194.136 50.242 193.678 50.3023 194.35 50.8296 195.016 51.1058 195.735 51.1115 195.372 50.7427 195.092 50.3879 194.87 50.0233zM197.327 47.1794C197.032 47.9409 196.724 48.6252 196.213 49.1637 196.886 49.8213 197.741 49.8157 199.512 49.2618 199.634 49.1581 199.758 49.0515 199.882 48.9393 198.748 48.3377 197.938 47.7824 197.327 47.1794zM193.87 46.094 193.579 46.2665C193.694 46.3156 193.804 46.3619 193.908 46.4025L193.87 46.094zM195.773 44.7268C195.422 45.0689 194.975 45.4055 194.36 45.7925 194.519 46.1207 194.662 46.4306 194.795 46.7138 195.581 46.9214 195.996 46.7713 196.584 46.3016 196.26 45.829 196.005 45.3143 195.773 44.7268zM197.352 41.7651C197.026 42.6668 196.786 43.3119 196.467 43.8503 196.911 44.3748 197.382 44.8334 197.865 45.1783 198.005 45.0577 198.154 44.9301 198.316 44.7983 198.226 44.9708 198.145 45.1405 198.066 45.3115 199.055 45.9384 200.1 46.0562 201.115 45.2246 199.487 42.8771 198.789 43.5601 197.352 41.7651zM195.743 39.2017C195.367 39.8327 194.761 40.2366 192.958 41.1551 193.599 41.8717 194.187 42.2461 194.937 42.1522 194.845 41.8464 194.748 41.5211 194.645 41.1776 194.82 41.4861 195.007 41.7974 195.201 42.1031 195.685 41.9839 196.242 41.6796 196.915 41.1719 196.57 40.6741 196.187 40.0347 195.743 39.2017zm39.68 12.3613C235.088 51.8308 234.724 52.2081 234.273 52.8559 234.776 53.2682 235.29 53.407 235.794 53.3495 235.637 52.7732 235.515 52.18 235.423 51.563zM238.015 49.1763C237.02 50.6936 236.428 50.8717 235.742 51.3274 236.143 51.95 236.495 52.4969 236.806 52.9807 237.338 52.6638 237.851 52.1716 238.329 51.5953 238.227 50.9151 238.146 50.1284 238.015 49.1763zM239.243 46.9873C238.808 47.8511 238.436 48.513 238.108 49.0318 238.436 49.6853 238.711 50.2645 238.949 50.7721 239.263 50.3248 239.553 49.8522 239.817 49.3894 239.591 50.1355 239.405 50.7833 239.222 51.3583 239.375 51.6724 239.513 51.9556 239.646 52.2024 240.369 51.9458 241.052 51.7761 241.707 51.678 240.337 50.5071 239.907 49.2155 239.243 46.9873zM165.543 42.2349C166.533 43.2347 166.486 42.8393 169.053 42.9024 168.988 41.6712 167.662 43.009 166.237 40.7232 166.008 41.3108 165.776 41.8114 165.543 42.2349zM164.571 42.0049C164.426 41.6305 164.276 41.2154 164.115 40.7513 164.467 41.1088 164.751 41.4061 164.989 41.6585 165.3 41.3711 165.65 40.977 166.078 40.4526 165.797 39.9449 165.51 39.2858 165.233 38.4276 163.325 41.7777 161.942 40.6391 160.912 41.8436 162.91 42.2489 163.602 42.6808 164.571 42.0049zm1.739 4.5322C167.016 46.9522 167.591 46.7503 168.468 46.1207 167.824 45.7953 167.323 45.6453 166.885 45.4237 166.683 45.8528 166.493 46.2202 166.31 46.5371zm-2.286-2.4217C164.429 44.6342 164.78 45.0689 165.096 45.4265 165.366 45.3115 165.629 45.1068 166.01 44.7604 165.692 44.4014 165.374 43.8826 165.015 43.0819 164.676 43.5516 164.343 43.8798 164.024 44.1154zM164.165 45.5668C164.017 45.1951 163.859 44.7843 163.687 44.3313 162.449 45.0283 161.496 44.4561 161.433 45.5359 162.807 45.5065 163.606 45.5668 164.165 45.5668zm3.267 4.0807L167.708 49.5815C167.636 49.5479 167.567 49.5212 167.499 49.496L167.432 49.6475zM163.467 48.8762C163.979 49.4834 164.469 49.7807 165.013 49.8929 165.332 49.726 165.67 49.4694 166.053 49.116 165.809 48.9421 165.55 48.6112 165.213 47.9577 164.683 48.4246 164.138 48.6294 163.467 48.8762zM162.539 49.597C162.508 49.4932 162.478 49.3866 162.449 49.2744L162.201 49.3866C162.318 49.4609 162.428 49.5325 162.539 49.597zM165.084 53.8936C165.524 53.853 166.058 53.7814 166.712 53.6833 166.274 53.4435 165.738 53.3173 165.184 53.0733 164.647 53.3201 164.127 53.1364 163.195 53.5304 163.899 53.6777 164.519 53.8151 165.084 53.8936zM146.131 65.3532C146.068 65.5397 145.994 65.7164 145.904 65.8917 146.307 65.8258 146.712 65.7599 147.121 65.6954 146.753 65.5986 146.418 65.485 146.131 65.3532zM143.79 63.9593C143.282 64.4459 142.604 64.9003 141.642 65.3939 143.838 66.1399 144.471 66.0446 145.17 64.8484 144.678 64.5665 144.217 64.2679 143.79 63.9593zM141.43 61.6526C141.257 61.8475 141.065 62.0817 140.858 62.3832 141.374 62.8038 141.901 62.916 142.417 62.8067 142.025 62.4238 141.692 62.0354 141.43 61.6526zM145.32 57.1848C143.687 60.3933 143.008 60.4312 142.148 61.0215 142.728 61.4015 143.313 61.7016 143.901 61.9428 144.674 61.2291 145.377 60.1914 145.938 59.2069 145.539 60.5209 145.275 61.4997 144.924 62.3004 145.37 62.4322 145.819 62.5332 146.266 62.6089 146.406 62.3173 146.562 62.0059 146.733 61.6722 146.679 62.027 146.636 62.3551 146.598 62.6608 147.758 62.8305 148.908 62.8473 150.026 62.8193 147.515 61.1393 146.09 59.3135 145.32 57.1848zM79.9066 42.3765C80.4223 42.6584 80.8999 42.8225 81.3509 42.8715 81.5532 42.6317 81.7695 42.3737 81.9996 42.0989 81.8886 42.3737 81.7833 42.6359 81.6793 42.8884 82.3095 42.8771 82.898 42.6317 83.4855 42.169 81.9741 41.9727 81.2399 41.3472 80.7461 40.4932 80.4385 41.2673 80.1633 41.8843 79.9066 42.3765zm-2.145-1.6098C78.1652 41.1341 78.5456 41.4538 78.9041 41.7244 79.2672 41.4917 79.6973 41.0429 80.5865 40.1959 80.2512 39.513 80.0142 38.7095 79.6522 37.8779 79.0186 39.5186 78.3594 40.3376 77.7616 40.7667zM78.2623 41.9446C78.0866 41.6067 77.8969 41.2322 77.6969 40.8144 76.5752 41.5702 75.6872 40.9798 75.6328 41.932 77.1048 41.8983 77.7871 41.9923 78.2623 41.9446zm1.6917 4.7917C80.7831 47.3435 81.6723 47.5146 82.535 46.8204L82.5465 46.8022C81.7718 45.686 81.2641 45.4462 80.7357 45.1124 80.4339 45.7883 80.1772 46.3184 79.954 46.7363zm-1.9819-2.2802C78.2057 44.8207 78.4531 45.1727 78.7144 45.5008 79.0729 45.2933 79.4626 44.954 79.9286 44.4702 79.7054 44.2402 79.4603 43.9401 79.1816 43.5222 78.7896 44.0116 78.4057 44.2626 77.9721 44.4561zm.1434 1.2845C77.9964 45.3803 77.8773 44.9904 77.7489 44.5529 77.3292 44.7226 76.8539 44.8698 76.2734 45.1377 77.01 45.6214 77.5523 45.85 78.1155 45.7406zM77.7848 48.3868C77.8495 48.5214 77.9131 48.649 77.9721 48.7696 78.837 48.9393 79.5435 49.0234 80.1899 48.865 79.7736 48.5537 79.4452 48.2367 79.1747 47.8974 78.7087 48.3812 78.3502 48.2942 77.7848 48.3868zm-15.318 3.8591C62.3211 51.9206 62.1951 51.5896 62.0887 51.2489 61.3753 52.3062 60.7728 52.2403 59.6558 52.7564 60.7532 53.4757 61.2874 53.4645 62.4668 52.2459zM60.478 55.3394C60.6225 55.4109 60.767 55.4768 60.9104 55.5385 61.0145 55.561 61.1139 55.5806 61.2099 55.596 62.1523 55.2062 63.0658 54.8374 63.9539 54.4868 63.548 54.0409 63.2057 53.5851 62.9201 53.1097 61.699 55.7475 61.5094 54.9986 60.478 55.3394zM-167 150V66.8299C-161.426 69.8518-156.151 78.3399-152.149 74.4401-145.404 67.8732-144.035 77.4299-138.744 78.4339-129.132 80.2597-124.726 80.0129-112.711 72.7924-108.744 70.4071-99.6958 75.8046-92.5219 71.7589-94.1685 70.8082-95.0462 68.5154-94.9722 68.622-94.0876 69.8574-92.0166 70.5572-90.7215 70.4997-90.5527 70.3552-90.3815 70.2038-90.215 70.0453L-90.1514 69.9892C-92.3843 69.6583-92.6572 68.8576-93.8031 65.3855-91.0279 68.1354-92.2756 68.6024-88.7731 68.0863-89.8728 67.4819-91.783 67.8479-92.3057 62.6314-90.8325 65.7333-90.0104 65.5089-88.0342 65.0447-89.3478 64.4375-89.2194 66.0558-91.3633 60.218-89.1905 63.0661-88.7939 63.4265-87.4711 62.4785-88.9489 61.7325-89.4091 62.2429-90.6995 58.496c2.0235 2.0698 1.1378 1.5355 3.6632 1.5958C-87.0976 58.9475-88.6332 60.8-89.9306 56.5804-88.4713 58.6082-88.4643 58.1875-86.7437 57.8046-87.3635 57.0095-88.2123 57.8649-89.4044 55.244-87.8816 56.6071-86.7345 56.5776-86.4604 55.5497-88.2551 55.3128-88.4042 55.8092-88.9627 52.3763-87.9486 54.5148-88.3476 54.2512-86.3251 53.8558-87.0027 52.8447-87.1646 54.8121-88.0885 50.9011-86.9553 52.5741-87.1357 52.0384-86.117 51.2559-86.8883 50.9334-87.4352 51.685-88.0527 48.8902-87.1854 50.4608-86.561 50.0653-85.7504 49.1959-85.6602 48.0993-86.3066 51.347-87.6919 46.927-86.8651 48.0839-86.546 48.1246-85.7793 47.4192-86.4685 46.9032-86.6061 48.0012-87.3589 45.686-86.6015 46.676-86.6108 46.5428-85.6892 45.7953-86.487 45.9678-86.6466 45.7743-87.0386 44.0298-86.42 45.1503-86.1089 45.0465-85.6244 44.8698-85.6892 44.2766-86.5969 44.8207-86.3633 42.3008-86.1898 43.3413-86.1286 43.9373-85.5411 43.7269-85.0728 43.5601-86.3448 43.0412-86.3089 41.552-86.0927 42.033-85.9031 42.413-85.4648 42.4396-85.2521 42.4536-85.2347 41.0163-85.1989 40.6881-85.0254 42.3092-84.919 42.3064-84.3871 41.5407-84.4554 42.1479-84.6739 42.298-84.8069 42.6416-84.9479 43.016-84.9734 43.424-84.9757 43.9709-84.5976 44.107-84.253 43.4914-84.0795 42.6584-84.083 43.7592-84.068 44.1939-84.8786 45.3256-84.3409 45.3284-83.9142 44.5992-83.5904 43.8279-83.7165 45.0802-84.0726 45.3662-84.7999 46.4628-84.194 46.3675-83.8945 46.2441-83.2435 45.369-83.7905 47.1822-84.0021 47.0392-84.719 47.6155-84.1871 48.0951-83.6424 48.2634-83.2077 46.906-83.417 48.6434-83.2932 48.6981-84.3582 49.3516-83.3834 49.5675-83.484 49.5815-82.8561 48.4583-83.2481 50.2561-83.203 50.1986-84.3628 50.9264-84.1038 52.1632-83.0631 52.9947-82.0606 49.4806-82.3936 52.9485-82.6191 52.8419-84.0853 53.4435-83.2123 54.2652-81.8131 53.8067-81.1552 52.7381-82.182 55.0253-81.4905 54.8752-83.4956 55.9929-82.7949 56.8511-82.2074 56.8889-80.8083 55.5357-81.5402 57.6714-81.4454 57.9715-83.1556 59.0653-81.7611 59.7174-81.8629 59.3626-80.5539 58.1819-81.2928 59.7258-81.1818 61.2178-83.099 61.4913-82.0883 62.3635-81.0858 62.0873-79.4681 60.4452-81.1818 64.3941-81.3784 62.8221-82.522 64.6296-81.3807 65.6519-80.1619 63.9706-79.3872 62.4813-80.0243 64.7881-80.1029 65.5748-82.0386 66.6658-79.9098 67.4553-80.1619 66.8481-78.8957 64.1487-79.1143 65.7501-79.0738 66.562-79.615 67.3697-79.3663 67.4146-79.1189 67.4609-78.8691 67.51-78.5373 67.0094-78.1325 66.2956-77.5197 65.2579-77.6006 66.1399-77.7625 66.9406-78.0585 67.6853-74.3525 68.5294-70.7077 69.8953-67.5024 69.5054-54.0913 67.8704-47.617 59.4664-41.4387 60.4943-36.3474 61.3412-31.6041 62.7267-26.6319 60.0273c-1.0904-1.2088-1.6489-2.684-1.5865-2.5943C-27.6055 58.2856-26.5082 58.9195-25.4027 59.2785-25.0558 59.0429-24.7066 58.7863-24.3551 58.5044-25.4767 57.8621-25.9092 56.5664-26.862 53.6833-24.2013 56.3154-24.7263 57.1456-22.6992 57.0151-22.4992 56.8132-22.298 56.6057-22.0979 56.3897-23.2913 55.9326-24.6684 55.0547-25.1229 50.486-23.4161 54.0857-22.4633 53.8221-20.1715 53.2864-21.6944 52.5825-21.5463 54.4602-24.0325 47.687-21.5105 50.9909-21.0503 51.4073-19.5193 50.3079-21.233 49.4413-21.7649 50.0345-23.26 45.6916c2.3427 2.4007 1.317 1.7795 4.246 1.851C-19.0868 46.2146-20.8676 48.3615-22.3708 43.4703c1.694 2.3503 1.701 1.8609 3.6968 1.4177C-19.3921 43.9681-20.3773 44.9596-21.7603 41.918-19.9946 43.5026-18.6648 43.4647-18.3456 42.2727-20.427 41.9965-20.6005 42.5742-21.2492 38.5945-20.0732 41.0738-20.5346 40.7667-18.1895 40.3081-18.9758 39.1386-19.1655 41.4173-20.2328 36.8837-18.9192 38.8217-19.1296 38.2005-17.9467 37.2932-18.8428 36.9188-19.4765 37.7938-20.1923 34.5503-19.1851 36.3719-18.4624 35.9105-17.5212 34.9051-17.4171 33.6346-18.1676 37.3969-19.776 32.2729-18.8139 33.6121-18.4439 33.6612-17.557 32.8437-18.356 32.2463-18.5144 33.5196-19.3886 30.8356-18.5098 31.9827-18.5214 31.827-17.4529 30.9618-18.3768 31.1609-18.5642 30.9365-19.0163 28.9116-18.3005 30.213-17.9374 30.0952-17.3766 29.8876-17.4506 29.2005-18.5052 29.8301-18.2323 26.9077-18.0323 28.1165-17.9606 28.8078-17.2795 28.561-16.7372 28.3675-18.2126 27.7659-18.1699 26.0397-17.9213 26.5964-17.7004 27.0367-17.1916 27.069-16.9465 27.083-16.9233 25.4185-16.8806 25.0385-16.6805 26.9161-16.5591 26.9133-15.9416 26.0285-16.0202 26.7282-16.2746 26.9049-16.4261 27.3046-16.5926 27.7365-16.6215 28.2119-16.6238 28.8429-16.1844 29.0014-15.7867 28.2904-15.5855 27.3242-15.5878 28.6003-15.5727 29.1051-16.5117 30.4177-15.8873 30.4205-15.3924 29.5721-15.0177 28.6788-15.1646 30.1302-15.5774 30.464-16.4192 31.7345-15.7184 31.6251-15.3692 31.4806-14.613 30.4668-15.2501 32.5702-15.4953 32.4048-16.3244 33.0737-15.7092 33.629-15.0767 33.8225-14.5748 32.2491-14.8153 34.2656-14.6708 34.3259-15.9081 35.086-14.7749 35.337-14.894 35.3538-14.1643 34.0468-14.6222 36.1321-14.5679 36.0662-15.915 36.9103-15.6155 38.3491-14.406 39.3111-13.2427 35.2332-13.6301 39.2564-13.8914 39.133-15.5924 39.8299-14.5795 40.7863-12.9548 40.2534-12.1939 39.0124-13.385 41.667-12.5813 41.4917-14.9079 42.7874-14.095 43.7816-13.4116 43.8279-11.7927 42.2601-12.6391 44.7324-12.5293 45.083-14.5112 46.3506-12.8958 47.1107-13.0138 46.6956-11.4955 45.3256-12.3512 47.1163-12.2252 48.8481-14.4488 49.1651-13.2751 50.1775-12.1107 49.8578-10.2363 47.9521c-1.9889 4.5785-2.2167 2.7555-3.543 4.8519C-12.4553 53.9862-11.0422 52.0384-10.1415 50.3107-10.752 52.511-10.9208 53.5192-12.209 54.5092-11.847 54.7602-11.4909 55.0393-11.1417 55.3366-10.6526 54.9468-10.3762 53.9567-9.5737 52.2431-9.8281 54.1152-9.77837 55.0547-10.419 56.0013-10.227 56.1864-10.0374 56.3813-9.84891 56.5776-9.40025 55.9957-8.88684 55.0716-7.97681 53.5332c-.13067 1.4514-.45675 2.7191-1.14014 3.8648C-8.58504 58.0234-8.07625 58.6853-7.59175 59.3654-6.86442 59.0541-6.1475 58.5871-5.4537 57.8944-5.47451 58.6222-6.03071 59.5098-6.92455 60.3386c1.35175 2.0418 2.47802 4.1648 3.31289 5.8672C-.786747 71.9693 5.79046 82.5735 17.1121 72.6284c7.9-6.9414 15.8787-6.9148 29.7154-11.4344C46.2713 60.6092 45.9406 60.0217 45.9267 59.5183 46.5893 60.1226 47.2761 60.5349 47.9699 60.814 48.7134 60.563 49.472 60.2993 50.2467 60.0217c-1.1887-1.2635-1.6894-2.684-1.8582-4.392 1.9762 3.0528 2.0409 3.3935 3.7442 3.6978L52.3894 59.2294c-2.3716-1.6-2.0652-2.2283-2.4421-4.7482 1.4303 2.7906 1.147 3.4216 3.5568 2.6027-2.1889-1.1289-2.2791-1.938-3.003-4.3275C51.3799 54.2989 52.7583 56.0335 54.0522 54.979c-1.2962-1.8665-1.5182-.244-3.4586-4.3233 1.8317 1.6968 2.9672 1.9843 4.1108 1.0784C52.5363 51.4536 52.66 49.9097 51.824 48.3153 53.3041 49.5353 53.1908 49.9041 54.7657 49.2282 52.8311 48.0965 52.9387 47.7852 52.1119 45.5822 53.6961 46.9789 54.3575 46.9382 55.1531 46.0534 52.8832 44.8965 53.666 45.0521 52.5039 42.6878 53.2474 43.7928 54.8316 44.2682 55.8226 43.4156 54.1621 42.7944 53.9054 42.9038 53.5296 39.3181c1.1343 3.6362 2.3126 2.778 2.6052 1.4963C54.8223 40.0627 54.8744 40.1188 54.428 38.2608 55.1415 39.4247 55.0247 39.4121 56.1313 39.1849 54.9229 38.5104 55.0629 38.4557 54.8293 36.6565 55.3173 38.0616 55.937 37.8892 56.536 37.3941 55.7277 36.7968 55.4884 36.944 54.8674 35.0691 55.604 35.9736 55.944 36.1026 56.6308 36.2008 55.8087 35.0663 55.4051 34.7704 55.2617 33.4761 55.626 34.274 56.1105 35.0285 56.7187 35.0257 55.8018 33.8547 55.8179 33.4074 55.8156 32.2673 56.011 33.1311 56.4007 33.765 56.8286 33.6234 56.8274 33.0596 56.7974 32.6361 56.6355 32.2505 56.4886 31.8957 56.2412 31.7373 56.1625 31.1146 56.7661 31.9041 56.8852 31.9041 57.0818 30.2312 57.12 30.5705 57.1419 32.0542 57.3836 32.0402 57.8785 32.0135 58.0948 31.6195 58.3387 31.1259 58.3815 32.6614 56.9396 33.1999 57.4715 33.3723 58.1329 33.5897 58.2035 32.9727 58.4012 31.8985 58.6648 34.5026 57.638 33.9403 57.564 34.5517 58.1109 34.7382 58.4648 34.8448 59.1655 33.6865 58.7215 35.487 58.5388 35.6889 57.638 35.5123 58.6787 36.2821 58.6695 36.4223 59.5274 35.4001 58.6741 37.791 58.5203 36.6537 57.7386 37.1894 58.6059 37.9172 58.9666 37.8751 59.9033 36.6818c-1.5669 4.5659-2.2988 1.2102-2.1982 2.3446C58.6244 39.9225 59.3297 40.3348 60.3114 38.7095c-.6984 2.8915-1.3182 2.1119-2.1889 2.4456C59.2754 41.9642 59.0707 42.5168 60.3519 40.7891 59.3089 44.8305 59.1239 42.7972 58.3561 43.8419 60.6468 44.2514 60.1947 44.5248 61.3429 42.3134 60.7104 45.8612 60.5416 45.348 58.5076 45.5934 58.8198 46.6563 60.1195 46.69 61.8436 45.2765c-1.3518 2.7092-2.3115 1.8258-3.0123 2.6489C60.7798 48.3181 60.7867 48.7556 62.4379 46.6591c-1.4662 4.3626-3.2053 2.4471-3.2747 3.632C61.0052 50.2476 61.2446 50.4636 61.7939 50.0513 61.7222 49.6685 61.6678 49.2772 61.6273 48.8734L62.1743 49.7204C62.4379 49.475 62.7871 49.1272 63.3075 48.6406 63.0392 49.3516 62.8033 49.9125 62.5871 50.3626 62.8322 50.7455 63.0508 51.082 63.2485 51.3765 63.4948 51.0918 63.7619 50.7749 64.0603 50.4173 63.8614 50.9151 63.6787 51.3597 63.5122 51.7565 64.051 52.5222 64.4523 52.9485 64.961 53.2219 65.0154 53.1238 65.0686 53.02 65.1252 52.912 65.1114 53.041 65.0963 53.1616 65.0825 53.285 65.3889 53.4323 65.7404 53.5304 66.1844 53.6202L66.6632 53.4407C63.7596 51.4424 64.1343 50.5954 63.6521 47.3813 65.5149 51.0077 65.1437 51.828 68.2762 50.7623 65.4294 49.2969 65.3149 48.2423 64.3725 45.1405 65.5149 47.1429 67.3084 49.4006 68.9885 48.0264 67.3061 45.6018 67.0147 47.7123 64.495 42.4074 66.8736 44.6132 68.3491 44.9848 69.8396 43.8125 67.017 43.4423 67.18 41.4398 66.0919 39.3658 68.0172 40.9504 67.8692 41.4314 69.9182 40.5507 67.4021 39.0811 67.542 38.6758 66.4677 35.8123 68.5249 37.6297 69.3875 37.575 70.4212 36.4223 67.4703 34.9219 68.4879 35.1238 66.9788 32.0486 67.9455 33.4859 70.0015 34.1043 71.2908 32.9951 69.1308 32.1888 68.7989 32.3304 68.3098 27.6706 69.7829 32.3963 71.3174 31.2815 71.6978 29.6142 69.9888 28.6354 70.0558 28.7125 69.4788 26.2963 70.405 27.8094 70.2547 27.7912 71.6909 27.4981 70.1217 26.6189 70.3033 26.5473 69.998 24.2111 70.6352 26.0369 71.4388 25.8125 72.2205 25.1703 71.1694 24.3934 70.8583 24.5855 70.0466 22.1469 71.0063 23.322 71.4481 23.4889 72.3396 23.6179 71.27 22.1441 70.7473 21.7585 70.5612 20.0757 71.0364 21.1148 71.6643 22.0922 72.4575 22.0894 71.263 20.5679 71.2839 19.986 71.2815 18.5037 71.5359 19.627 72.0401 20.4501 72.5986 20.2664 72.5951 19.5344 72.5581 18.9847 72.3488 18.4855 72.1557 18.0227 71.8331 17.8152 71.7325 17.0033 72.5154 18.0312 72.6715 18.034 72.9235 15.859 72.9779 16.2979 73.0068 18.2275 73.3178 18.2121 73.9642 18.1728 74.2441 17.6624 74.5586 17.0201 74.6152 19.0184 72.7408 19.7153 73.43 19.9411 74.2949 20.223 74.3828 19.4222 74.6395 18.0256 74.9841 21.4093 73.6486 20.6801 73.5526 21.478 74.2637 21.715 74.7251 21.8524 75.6351 20.3464 75.0593 22.691 74.8222 22.9504 73.6509 22.7205 75.0049 23.7245 74.9911 23.9012 76.1046 22.576 74.9957 25.6863 74.7979 24.2083 73.7815 24.9024 74.9101 25.8504 75.3784 25.7929 76.5972 24.2406 74.5563 30.1793 73.6058 25.8181 73.7364 27.2906 74.9309 28.4573 75.8491 28.9901 77.1268 26.8783 76.2191 30.6365 75.4154 29.6254 74.2776 30.0559 75.7774 31.109 75.5137 31.827 77.1788 29.5833 75.8225 34.8363 75.5843 32.1944 74.584 33.5518 77.5616 34.0819 76.9742 34.4381 78.467 31.5648 77.6425 36.1755 77.424 35.5094 74.7818 35.8292 75.1876 37.209 76.8747 37.2497 79.1157 35.4155c-1.7542 3.5212-3.003 2.3755-3.9153 3.4412C77.5905 39.3405 77.7327 39.8734 79.5458 37.6466 79.488 37.5203 79.4267 37.3969 79.3631 37.2749 79.4626 37.3563 79.5597 37.439 79.6499 37.5147L79.8904 37.2146C79.8453 37.3507 79.7979 37.4797 79.7528 37.6017 81.4723 39.0811 81.4677 39.4822 83.5733 38.5777 80.8051 36.9622 80.9589 36.5177 79.776 33.3639 82.04 35.3636 82.9906 35.3033 84.1272 34.0356 80.8768 32.3851 81.9996 32.6067 80.3391 29.2257 81.4018 30.8047 83.6658 31.4834 85.0824 30.2676 82.7061 29.3758 82.3418 29.5342 81.803 24.4046c1.6246 5.1984 3.3094 3.9713 3.7303 2.1371C83.6497 25.4676 83.7271 25.5531 83.0888 22.8901 84.1099 24.5575 83.9434 24.5364 85.5241 24.2139 83.7988 23.2491 83.9989 23.1692 83.6612 20.5974 84.362 22.6069 85.25 22.3573 86.108 21.6519 84.9482 20.7965 84.6048 21.0082 83.7156 18.327c1.0569 1.2916 1.5425 1.4753 2.5231 1.6169C85.0627 18.3242 84.4857 17.8979 84.2833 16.0469 84.8037 17.187 85.4952 18.2667 86.367 18.2611 85.0534 16.5882 85.0777 15.9459 85.0743 14.3165 85.3529 15.5491 85.9114 16.4578 86.5243 16.2572 86.5197 15.4509 86.4769 14.8451 86.2491 14.2954 86.0352 13.7836 85.6802 13.5606 85.5715 12.666 86.4341 13.7948 86.6029 13.7976 86.8828 11.4067 86.9406 11.8877 86.973 14.0136 87.3175 13.9953 88.0264 13.9505 88.3351 13.3909 88.682 12.6828 88.7433 14.883 86.6816 15.6515 87.439 15.8969 88.3918 16.2082 88.4889 15.3289 88.7722 13.7892 89.1503 17.5151 87.6795 16.7116 87.5742 17.588 88.3559 17.8503 88.8624 18.0017 89.8649 16.3456 89.2301 18.9244 88.9711 19.2119 87.6795 18.9581 89.1711 20.0617 89.1573 20.258 90.383 18.7968 89.1619 22.2212 88.9433 20.5946 87.824 21.3574 89.0671 22.4007 89.5839 22.339 90.9241 20.631 88.6774 27.1644 87.6332 22.3629 87.7766 23.9867 89.0902 25.2684 90.102 25.8588 91.5069 23.5324 90.5067 27.6678 89.6221 26.5558 88.371 27.0311 90.0199 28.1894 89.7296 28.9803 91.5636 26.5095 90.0719 32.2926 89.8083 29.3814 88.7098 30.8762 91.9845 31.461 91.3381 31.8522 92.9824 28.6901 92.0747 33.765 91.8342 33.0302 88.926 33.3822 89.3735 34.9023 91.2306 34.9485 93.697 32.9292 91.7636 36.8038 90.3922 35.5417 89.3874 36.7168 92.1741 37.2806 92.1845 37.906 94.5481 34.9079 92.4482 41.1467 89.9621 38.4052 89.8626 40.1006 93.9514 40.008 92.5164 40.8003 95.7911 37.7391 93.7028 43.2782 92.9604 42.5252 90.568 43.6288 92.7049 45.0283 93.3478 44.4982 96.87 40.2829 93.3975 48.9197 93.6045 46.5259 91.478 47.4248 94.6764 48.1077 96.0074 48.4387 98.3929 43.8531 97.5915 51.1802 94.762 51.0624 92.9535 51.7944 93.1154 51.8687 93.2773 51.943 93.4403 52.0216 98.1651 52.6119 96.5416 51.8 100.819 47.931 99.4648 51.678 98.8612 53.3201 97.2284 54.1236 97.7176 54.4265 98.2125 54.7462 98.7155 55.0828 100.281 54.6284 101.847 53.8179 102.713 52.7101 102.808 52.5909 101.964 54.6214 100.326 56.1892c3.063 2.1708 6.438 4.8758 10.403 8.1277C111.247 64.2819 111.886 64.2062 112.701 64.094 111.084 63.2848 108.273 63.777 107.505 56.7641 109.672 60.9318 110.881 60.6303 113.787 60.0077 111.856 59.1929 112.043 61.3693 108.89 53.5192 112.088 57.3517 112.672 57.8327 114.616 56.558 112.442 55.5554 111.767 56.2411 109.867 51.2096 112.844 53.989 111.539 53.271 115.256 53.3551 115.165 51.8168 112.906 54.3059 110.998 48.635 113.145 51.3597 113.155 50.7917 115.688 50.2813 114.776 49.2127 113.528 50.3598 111.773 46.84 114.013 48.6743 115.7 48.6322 116.104 47.2495 113.462 46.9298 113.244 47.6001 112.421 42.9865 113.915 45.8584 113.328 45.5065 116.303 44.9736 115.305 43.6148 115.066 46.2609 113.711 41.0051 115.377 43.2488 115.111 42.5322 116.61 41.4776 115.474 41.0457 114.671 42.0568 113.762 38.2986 115.039 40.4147 115.956 39.879 117.15 38.7151 117.283 37.2385 116.332 41.601 114.291 35.6623 115.51 37.2146 115.978 37.2721 117.107 36.3228 116.092 35.6314 115.89 37.1081 114.783 33.9978 115.897 35.3257 115.885 35.1449 117.238 34.145 116.066 34.375 115.83 34.1156 115.253 31.7695 116.163 33.2756 116.625 33.1396 117.337 32.8984 117.24 32.1033 115.902 32.8339 116.247 29.4473 116.503 30.8468 116.594 31.6475 117.456 31.3628 118.145 31.1385 116.272 30.4415 116.33 28.4418 116.643 29.0869 116.925 29.5945 117.569 29.6324 117.882 29.652 117.909 27.7197 117.964 27.2793 118.216 29.4557 118.371 29.4557 119.155 28.4278 119.055 29.2398 118.734 29.4445 118.54 29.9059 118.33 30.4065 118.292 30.9562 118.288 31.6882 118.846 31.8719 119.353 31.0487 119.608 29.9255 119.603 31.4063 119.625 31.9911 118.432 33.5112 119.224 33.5168 119.851 32.5352 120.326 31.5003 120.141 33.1802 119.616 33.5659 118.549 35.0383 119.438 34.9107 119.882 34.7438 120.84 33.5715 120.031 36.0059 119.72 35.8152 118.668 36.5906 119.447 37.2329 120.254 37.4572 120.889 35.6343 120.585 37.9719 120.766 38.042 119.198 38.9198 120.635 39.2115 120.483 39.2312 121.41 37.7167 120.833 40.1356 120.901 40.0599 119.191 41.0345 119.571 42.7019 121.103 43.8167 122.579 39.0923 122.087 43.755 121.757 43.6119 119.599 44.4183 120.882 45.5233 122.928 44.9133 123.902 43.4871 123.769 43.1744 123.629 42.8112 123.484 42.3905 124.579 43.7872 125.002 43.8363 126.016 42.9837 125.104 42.3611 124.924 43.6891 123.926 40.8901 124.928 42.0876 124.917 41.9264 126.133 41.0247 125.081 41.2294 124.867 40.9967 124.349 38.8876 125.167 40.2422 125.582 40.1188 126.221 39.9043 126.136 39.1877 124.933 39.844 125.244 36.7996 125.473 38.056 125.554 38.7782 126.331 38.523 126.951 38.3211 125.266 37.6928 125.316 35.8937 125.599 36.4742 125.851 36.9328 126.433 36.965 126.715 36.9819 126.739 35.2444 126.787 34.8504c.22699999999999 1.9562.366 1.9534 1.071 1.0307C127.768 36.6131 127.478 36.7968 127.305 37.2118 127.117 37.662 127.081 38.157 127.079 38.8161 127.582 38.9801 128.037 38.2397 128.264 37.2301 128.262 38.5623 128.279 39.0867 127.207 40.4554 127.922 40.4582 128.485 39.5761 128.911 38.6436 128.744 40.1581 128.276 40.5044 127.314 41.831 128.113 41.7132 128.512 41.5646 129.374 40.5073 128.647 42.6962 128.367 42.528 127.419 43.2235 128.122 43.8041 128.845 44.0032 129.42 42.3639 129.144 44.4645 129.307 44.5305 127.894 45.3171 129.189 45.5822 129.053 45.599 129.886 44.2388 129.365 46.4137 129.429 46.3422 127.89 47.2229 128.217 48.6546 129.491 49.6362 130.762 46.0015 130.659 45.5149 130.548 44.9427 130.429 44.2654 132.071 47.4276 131.425 47.0364 134.699 46.4516 133.603 44.9596 133.339 47.8679 131.846 42.0848 133.679 44.5557 133.389 43.7648 135.037 42.6065 133.787 42.1311 132.902 43.2431 131.902 39.105 133.307 41.4342 134.319 40.8466 135.632 39.5621 135.778 37.9382 134.732 42.7411 132.487 36.2064 133.827 37.9144 134.343 37.9775 135.585 36.9328 134.468 36.1699 134.247 37.7966 133.026 34.3722 134.252 35.8348 134.24 35.6371 135.73 34.5334 134.438 34.7873 134.179 34.4998 133.544 31.921 134.547 33.5771 135.053 33.427 135.837 33.1634 135.731 32.287 134.26 33.0905 134.639 29.3646 134.92 30.9043 135.02 31.7835 135.97 31.475 136.729 31.2268 134.666 30.4584 134.729 28.2581 135.076 28.9663 135.384 29.5258 136.094 29.5679 136.436 29.5889 136.467 27.463 136.526 26.9821 136.806 29.373 136.977 29.3702 137.84 28.2413 137.729 29.136 137.374 29.359 137.161 29.8708 136.932 30.4205 136.889 31.0263 136.885 31.8326 137.5 32.0331 138.056 31.1273 138.335 29.8932 138.333 31.5213 138.356 32.1636 137.044 33.8365 137.914 33.8421 138.605 32.7623 139.128 31.6223 138.923 33.4733 138.349 33.8996 137.17 35.5193 138.153 35.3776 138.637 35.1939 139.694 33.9024 138.804 36.5836 138.461 36.3719 137.303 37.2273 138.161 37.9326 139.047 38.1822 139.748 36.1727 139.413 38.7446 139.613 38.8245 137.885 39.7893 139.468 40.1118 139.302 40.1328 140.32 38.4655 139.684 41.1285 139.759 41.0429 137.876 42.1171 138.297 43.9513 139.984 45.1783 141.606 39.98 141.067 45.1096 140.703 44.9511 138.327 45.8402 139.743 47.0588 142.007 46.3815 143.072 44.8011 141.41 48.182 142.532 47.9605 139.283 49.611 140.419 50.8815 141.369 50.939 143.633 48.9393 142.45 52.0931 142.604 52.5376 139.836 54.1559 142.093 55.1234 141.928 54.5934 144.046 52.8503 142.851 55.1319 143.03 57.3405 139.924 57.7443 141.426 58.9279 142.92 58.6825 145.176 56.7585 144.89 55.8568 144.712 54.8963 144.611 53.8726 147.99 59.0948 147.787 59.2336 151.296 59.7833 147.116 57.067 147.654 56.1625 147.043 52.079 149.281 56.4388 148.834 57.4218 152.598 56.1429 149.179 54.383 149.039 53.1153 147.91 49.3894 149.281 51.7944 151.436 54.5064 153.454 52.8559 151.431 49.9419 151.085 52.4815 148.055 46.1052 150.911 48.7556 152.684 49.2043 154.473 47.7936 151.085 47.3533 151.279 44.9427 149.974 42.4536 152.287 44.3552 152.108 44.9329 154.57 43.877 151.546 42.1115 151.716 41.6249 150.424 38.185 152.895 40.3684 153.931 40.3025 155.173 38.9198 151.628 37.1165 152.85 37.3563 151.037 33.6668 152.199 35.3917 154.67 36.1321 156.219 34.8041 153.624 33.8337 153.225 34.0062 152.636 28.4082c1.773 5.6737 3.614 4.3345 4.071 2.332C154.655 29.5679 154.736 29.6576 154.04 26.7549 155.153 28.5723 154.972 28.5512 156.701 28.1978 154.815 27.1433 155.033 27.0578 154.665 24.2518 155.43 26.4436 156.397 26.1729 157.333 25.4017 156.069 24.4705 155.696 24.7005 154.725 21.7725 155.876 23.1832 156.407 23.3851 157.478 23.538 156.193 21.7697 155.565 21.3055 155.342 19.2862 155.912 20.5287 156.666 21.7066 157.617 21.7024 156.184 19.8766 156.209 19.1768 156.205 17.3973 156.514 18.7449 157.119 19.7336 157.79 19.5148 157.785 18.6356 157.739 17.9737 157.488 17.3721 157.257 16.8182 156.87 16.5714 156.749 15.5968 157.692 16.8294 157.876 16.8322 158.18 14.2183 158.243 14.7456 158.279 17.0664 158.653 17.0453 159.429 16.9977 159.766 16.3863 160.144 15.6122 160.211 18.0143 157.961 18.8543 158.788 19.1222 159.826 19.4629 159.933 18.5009 160.242 16.8238 160.655 20.8876 159.049 20.0098 158.935 20.9662 159.788 21.2536 160.341 21.4205 161.435 19.6116 160.743 22.426 160.46 22.7373 159.052 22.461 160.679 23.667 160.662 23.883 162 22.2871 160.669 26.0229 160.428 24.249 159.21 25.0819 160.563 26.2192 161.126 26.1505 162.591 24.2868 160.14 31.4175 158.998 26.1813 159.158 27.9524 160.591 29.3519 161.692 29.9942 163.228 27.4518 162.136 31.97 161.169 30.7528 159.807 31.2731 161.606 32.538 161.289 33.399 163.288 30.7038 161.66 37.0141 161.372 33.8393 160.173 35.4702 163.749 36.1096 163.043 36.5331 164.837 33.0849 163.848 38.6212 163.584 37.8204 160.41 38.2033 160.897 39.8622 162.927 39.9141 165.616 37.7097 165.501 37.9382 165.391 38.1486 165.281 38.3463 167.123 40.8761 167.182 40.3193 169.449 39.8159 168.615 38.7446 167.47 39.8958 165.861 36.362 167.914 38.2033 169.463 38.1626 169.832 36.7771 167.411 36.4546 167.211 37.1235 166.456 32.4973 167.826 35.3804 167.287 35.0257 170.015 34.49 169.1 33.1283 168.879 35.7829 167.636 30.5074 169.164 32.7595 168.922 32.0402 170.297 30.9828 169.254 30.5481 168.517 31.5648 167.684 27.7912 168.855 29.9143 169.698 29.3758 170.79 28.2063 170.912 26.7282 170.04 31.1062 168.17 25.145 169.287 26.703 169.718 26.7605 170.751 25.8097 169.822 25.1128 169.637 26.5964 168.62 23.4721 169.641 24.8071 169.63 24.6262 170.871 23.6207 169.796 23.8493 169.58 23.5899 169.053 21.2368 169.886 22.7485 170.307 22.6125 170.961 22.3713 170.873 21.5734 169.648 22.3026 169.963 18.9062 170.198 20.3113 170.281 21.1148 171.072 20.8302 171.702 20.603 169.986 19.9032 170.038 17.8979 170.326 18.543 170.583 19.0534 171.175 19.0913 171.461 19.1109 171.486 17.173 171.535 16.7298 171.768 18.9174 171.91 18.9146 172.628 17.8811 172.538 18.6987 172.241 18.9034 172.065 19.3647 171.873 19.8682 171.837 20.4221 171.835 21.1583 172.346 21.3406 172.809 20.5132 173.042 19.3872 173.04 20.8736 173.058 21.4584 171.966 22.9869 172.691 22.9883 173.265 22.0053 173.702 20.9662 173.531 22.6531 173.051 23.0416 172.072 24.5196 172.889 24.3906 173.295 24.2237 174.173 23.043 173.432 25.49 173.146 25.2979 172.182 26.0776 172.899 26.7226 173.635 26.947 174.218 25.1156 173.939 27.4602 174.106 27.5318 172.666 28.4138 173.985 28.7097 173.847 28.7251 174.696 27.2092 174.164 29.6324 174.227 29.5567 172.659 30.5369 173.009 32.2098 174.415 33.3303 175.766 28.5891 175.318 33.2658 175.014 33.1227 173.034 33.9319c1.179 1.112 3.065.492200000000004 3.952-.948C175.601 36.069 176.537 35.867 173.831 37.3731 174.777 38.5286 175.568 38.5833 177.456 36.7575 176.471 39.6364 176.597 40.0431 174.293 41.5155 176.171 42.399 176.034 41.918 177.8 40.325 176.802 42.4074 176.95 44.4211 174.365 44.7899 175.729 45.9678 177.083 45.5934 179.264 43.3806 176.95 48.7037 176.687 46.5862 175.142 49.0206 176.682 50.3977 178.327 48.133 179.374 46.1235 179.129 47.0069 178.946 47.7249 178.749 48.3349 179.05 48.6925 179.331 49.029 179.597 49.3404 179.726 49.0431 179.873 48.7205 180.034 48.37 179.97 48.8509 179.92 49.2801 179.877 49.6685 180.359 50.2294 180.785 50.7048 181.168 51.1002 181.382 50.7342 181.622 50.3248 181.89 49.8676 181.838 50.4608 181.755 51.0273 181.638 51.5714 183.235 53.0817 184.091 53.006 185.711 51.9458 183.019 50.7048 182.183 51.5518 179.834 45.32 183.517 48.764 181.904 47.8763 186.504 47.9773 186.393 46.0716 183.596 49.1552 181.232 42.1367 183.893 45.5065 183.905 44.8039 187.037 44.1701 185.909 42.8477 184.364 44.2682 182.192 39.9085 184.965 42.1802 187.056 42.1283 187.558 40.4175 184.287 40.0235 184.015 40.8494 182.995 35.1406 184.844 38.6955 184.119 38.258 187.801 37.6003 186.567 35.9189 186.269 39.1933 184.592 32.6852 186.652 35.4646 186.326 34.5769 188.182 33.2728 186.774 32.7371 185.778 33.9894 184.654 29.3351 186.236 31.9532 187.374 31.2913 188.851 29.8484 189.016 28.0226 187.837 33.4242 185.312 26.072 186.819 27.9931 187.4 28.0646 188.797 26.8923 187.54 26.0341 187.293 27.8613 185.92 24.0078 187.296 25.6541 187.283 25.4325 188.959 24.1915 187.509 24.4761 187.215 24.1536 186.502 21.2508 187.63 23.1145 188.2 22.9448 189.08 22.6503 188.961 21.6631 187.305 22.5676 187.731 18.3761 188.051 20.1052 188.159 21.098 189.23 20.7474 190.083 20.4726 187.763 19.6059 187.833 17.1295 188.225 17.9274 188.569 18.5584 189.369 18.6047 189.755 18.6271 189.79 16.239 189.857 15.6949c.313999999999993 2.691.506 2.6896 1.476 1.4178C191.209 18.1181 190.808 18.3733 190.57 18.9441 190.313 19.5639 190.266 20.2454 190.259 21.1527 190.95 21.3799 191.577 20.3576 191.891 18.9693 191.887 20.8021 191.915 21.5271 190.439 23.4076 191.419 23.4132 192.193 22.1988 192.784 20.9143 192.554 22.9967 191.905 23.4749 190.581 25.3007 191.684 25.1422 192.231 24.9347 193.419 23.4805 192.416 26.4983 192.031 26.2599 190.729 27.219 191.696 28.0184 192.692 28.2932 193.483 26.0369 193.101 28.9284 193.326 29.0182 191.383 30.1036 193.165 30.4668 192.977 30.4878 194.124 28.6157 193.407 31.6082 193.493 31.5129 191.376 32.7245 191.846 34.7873 193.746 36.1671 195.572 30.3195 194.964 36.0886 194.554 35.9133 191.881 36.9132 192.723 37.6353 193.834 37.7629 194.87 37.4601L194.813 37.3451 194.923 37.4432C195.825 37.1684 196.667 36.564 197.219 35.7408 196.588 37.0281 196.313 37.8513 196.087 38.4501 198.703 40.5409 200.499 40.74 202.308 39.3139 198.352 38.7992 198.577 35.9876 197.054 33.0793 199.756 35.3005 199.546 35.9764 202.42 34.741 198.893 32.6824 199.086 32.1145 197.582 28.0969 200.464 30.6435 201.677 30.5705 203.125 28.9551 198.986 26.8502 200.414 27.1321 198.296 22.8228 199.652 24.8365 202.538 25.7003 204.344 24.1508 201.317 23.0163 200.851 23.2183 200.163 16.6835 202.234 23.3066 204.38 21.7431 204.914 19.4054 202.517 18.0368 202.614 18.1433 201.804 14.754 203.101 16.8757 202.889 16.8504 204.907 16.4381c-2.203-1.2298-1.946-1.3307-2.376-4.6079C203.425 14.388 204.553 14.0739 205.646 13.175 204.171 12.084 203.736 12.3546 202.6 8.93864c1.345 1.64486 1.965 1.88046 3.215 2.05996-1.5-2.06557-2.232-2.60686-2.493-4.96553C203.988 7.48725 204.867 8.86151 205.977 8.8559 204.306 6.7244 204.335 5.90546 204.33 3.82725 204.689 5.40203 205.396 6.55753 206.18 6.30091 206.173 5.27302 206.121 4.50316 205.826 3.8006 205.556 3.14993 205.103 2.86527 204.964 1.7266 206.062 3.16676 206.279 3.16957 206.635.11956 206.709.736573 206.749 3.44302 207.186 3.41777 208.092 3.36308 208.484 2.64931 208.928 1.74483 209.006 4.54943 206.378 5.52824 207.347 5.84516 208.556 6.24061 208.68 5.11736 209.041 3.15835 209.524 7.90233 207.651 6.88006 207.516 7.99909 208.514 8.33144 209.158 8.52355 210.434 6.41309 209.626 9.70149 209.295 10.0647 207.653 9.74215 209.55 11.1473 209.534 11.3983 211.095 9.53742 209.541 13.8986 209.26 11.8274 207.835 12.8006 209.419 14.1286 210.075 14.0486 211.784 11.8737 208.923 20.1991 207.59 14.0823 207.775 16.1507 209.448 17.783 210.736 18.5346 212.527 15.5687 211.253 20.8414 210.124 19.4222 208.533 20.0266 210.633 21.5019 210.263 22.5101 212.599 19.3619 210.698 26.731 210.363 23.0248 208.964 24.9291 213.136 25.6723 212.313 26.1701 214.406 22.1413 213.25 28.6087 212.944 27.6734 209.239 28.1221 209.809 30.0559 212.176 30.1162 215.316 27.5416 212.855 32.4805 211.104 30.8706 209.826 32.3683 213.378 33.0877 213.39 33.8828 216.402 30.0643 213.725 38.0126 210.557 34.5222 210.432 36.6818 215.642 36.564 213.815 37.5722 217.985 33.6724 215.326 40.7288 214.379 39.7668 211.329 41.1747 214.055 42.9585 214.872 42.284 219.359 36.9132 214.936 47.917 215.198 44.867 212.489 46.0085 213.347 46.195 214.102 46.3591 214.782 46.446 215.447 46.2385 216.113 46.2441 216.794 46.4081 217.926 46.1375 218.926 45.3452 220.069 43.5979 219.99 43.3932 219.907 43.1828 219.824 42.9585L220.231 43.3441C220.571 42.8028 220.927 42.1802 221.299 41.4608 221.197 42.399 221.069 43.2403 220.916 44.0004 223.105 46.1052 222.373 45.449 226.292 45.5359 226.187 43.6891 223.473 46.6788 221.179 39.8706 223.761 43.1394 223.773 42.4593 226.813 41.8436 225.719 40.5619 224.22 41.939 222.112 37.7097 224.802 39.9141 226.829 39.8622 227.316 38.2033 224.144 37.8204 223.88 38.6212 222.892 33.0849 224.685 36.5331 223.98 36.1096 227.554 35.4702 226.356 33.8393 226.068 37.0141 224.439 30.7038 226.439 33.399 226.121 32.538 227.922 31.2731 226.556 30.7528 225.593 31.9672 224.5 27.4518 226.033 29.9942 227.138 29.3519 228.573 27.9524 228.73 26.1813 227.589 31.4175 225.137 24.2868 226.601 26.1505 227.164 26.2192 228.518 25.0819 227.299 24.249 227.059 26.0229 225.727 22.2871 227.066 23.883 227.05 23.667 228.673 22.461 227.268 22.7373 226.984 22.426 226.292 19.6116 227.385 21.4205 227.939 21.2536 228.793 20.9662 228.678 20.0098 227.072 20.8876 227.487 16.8238 227.796 18.5009 227.901 19.4629 228.939 19.125 229.766 18.8543 227.516 18.0143 227.584 15.6122 227.962 16.3863 228.3 16.9977 229.074 17.0453 229.449 17.0664 229.483 14.7456 229.547 14.2183 229.851 16.8322 230.036 16.8294 230.978 15.5968 230.859 16.5714 230.471 16.8182 230.239 17.3721 229.989 17.9737 229.942 18.6356 229.937 19.5148 230.609 19.7336 231.215 18.7449 231.521 17.3973 231.517 19.1768 231.543 19.8766 230.11 21.7024 231.061 21.7066 231.816 20.5287 232.386 19.2862 232.163 21.3055 231.532 21.7697 230.25 23.538 231.32 23.3851 231.852 23.1832 233.004 21.7725 232.032 24.7005 231.659 24.4705 230.395 25.4017 231.332 26.1729 232.296 26.4436 233.064 24.2518 232.695 27.0578 232.913 27.1433 231.027 28.1978 232.755 28.5512 232.575 28.5723 233.686 26.7549 232.992 29.6576 233.073 29.5679 231.021 30.7402 231.478 32.7399 233.318 34.0819 235.088 28.4054 234.503 34.0062 234.102 33.8337 231.51 34.8041 233.057 36.1321 235.528 35.3917 236.69 33.6668 234.875 37.3563 236.1 37.1165 232.555 38.9198 233.796 40.3025 234.832 40.3684 237.303 38.185 236.012 41.6249 236.179 42.1115 233.159 43.877 235.62 44.9329 235.44 44.3552 237.754 42.4536 236.449 44.9427 236.644 47.3533 233.256 47.7936 234.924 49.1118 236.582 48.8075 239.125 46.5989L238.887 45.8009C239.013 46.0197 239.144 46.2413 239.281 46.4628 239.407 46.3506 239.54 46.23 239.673 46.108 239.581 46.3016 239.491 46.4853 239.405 46.662 240.883 48.9968 242.946 51.1521 244.894 49.5591 242.703 46.3997 242.326 49.1496 239.044 42.2461 242.142 45.1152 244.063 45.6018 246.001 44.0747 242.328 43.5965 242.538 40.9826 241.123 38.286 243.63 40.3488 243.437 40.9756 246.104 39.8299 242.829 37.9172 243.012 37.3885 241.612 33.6584 244.288 36.0255 245.415 35.954 246.759 34.4563 242.917 32.5029 244.243 32.7623 242.277 28.7644 243.535 30.6336 246.215 31.4372 247.89 29.997 245.079 28.9439 244.647 29.1304 244.011 23.0626 245.93 29.2117 247.926 27.7603 248.422 25.591 246.196 24.3205 246.284 24.4214 245.531 21.2733 246.737 23.2435 246.541 23.2183 248.413 22.8383 246.37 21.6968 246.607 21.6 246.208 18.5612 247.039 20.9339 248.083 20.6436 249.1 19.8079 247.731 18.7968 247.327 19.045 246.273 15.8744 247.52 17.4029 248.097 17.6217 249.257 17.7886 247.866 15.8688 247.183 15.3668 246.942 13.1778 247.56 14.5282 248.377 15.8043 249.406 15.7987 247.857 13.82 247.883 13.06 247.879 11.1304 248.211 12.593 248.867 13.6644 249.596 13.426 249.589 12.4724 249.541 11.7559 249.266 11.1052 249.016 10.505 248.596 10.2372 248.467 9.17843 249.487 10.5176 249.687 10.5204 250.019 7.68918 250.086 8.26132 250.124 10.7728 250.532 10.7504 251.371 10.7013 251.735 10.0366 252.146 9.19806 252.217 11.8007 249.78 12.7108 250.677 13.0025 251.801 13.3713 251.918 12.328 252.251 10.5106 252.699 14.9124 250.96 13.9645 250.834 15.0008 251.76 15.3121 252.359 15.4902 253.544 13.5298 252.794 16.5826 252.488 16.9219 250.963 16.6204 252.724 17.9274 252.709 18.1602 254.159 16.4297 252.716 20.4796 252.454 18.5556 251.131 19.4601 252.6 20.6927 253.21 20.6198 254.797 18.5991 252.141 26.3286 250.904 20.6493 251.075 22.5704 252.628 24.0877 253.823 24.7818 255.488 22.0291 254.306 26.9218 253.258 25.6078 251.778 26.1673 253.729 27.5388 253.386 28.4741 255.553 25.5531 253.79 32.3907 253.479 28.9523 252.177 30.7178 256.054 31.4091 255.287 31.8719 257.231 28.1319 256.159 34.1338 255.874 33.2658 252.436 33.6808 252.958 35.4618 255.121 35.5333 257.998 33.2083V33.298C255.753 37.6928 254.154 36.2527 252.98 37.6241 255.786 38.1921 256.211 38.8105 257.998 36.801v1.2494C255.815 42.0414 253.641 39.9113 253.542 41.6277 256.663 41.5576 257.065 41.9208 257.998 41.2154V43.891C256.986 45.0255 256.004 45.0465 254.375 45.7981 255.841 46.7573 256.711 46.9522 257.998 45.9734v3.5661C257.254 50.1817 256.684 49.7695 255.451 50.2897 256.427 50.4972 257.256 50.6767 257.998 50.737v4.4411C257.592 55.3099 257.209 55.4348 256.867 55.6072 257.276 55.6619 257.651 55.711 257.998 55.7517V150H-167z" fill="#9f9a87"/></svg>