<svg xmlns="http://www.w3.org/2000/svg" width="85" height="63" viewBox="0 0 85 63" fill="none"><g clip-path="url(#clip0_807_63875)"><path d="M20.5419 1.9526c-.7548 1.41875-2.7389 2.7479-4.1479 3.13619C13.8599 5.79816 10.0571 5.08505 8.71998 3.41615 5.65756 4.81624 2.58436 5.07385.0 4.78263 1.29398 6.09685 2.51607 7.6164 4.26294 7.95242 6.4016 8.36311 8.59417 8.45645 10.7652 8.43032c4.2449-.05227 8.5043-.5675 12.6738-1.36275 2.4801-.47043 4.9387-1.03046 7.4404-1.37022C22.3068 7.53426 14.0217 10.6667 5.11481 10.0917c1.25084 1.3964 2.50529 2.7927 3.85318 4.0958 1.09631 1.0603 2.41901 2.6172 3.88911 2.9905C16.376 18.0741 20.0279 18.1786 23.6331 18.0106 30.8794 17.6709 38.2191 16.0692 45.4762 16.9428 35.34 16.3865 25.4878 20.486 15.3301 19.6422c2.1494 1.7473 4.3492 3.4199 6.646 4.9544 1.4233.9483 2.3471 1.4262 4.058 1.4262C27.2203 26.0228 28.41 25.9034 29.5854 25.7689 33.3163 25.3358 36.9862 25.179 40.7423 25.2724 46.6156 25.4217 52.6038 25.2985 58.4087 26.314 48.2618 25.2052 37.741 26.5941 27.7055 27.9643c4.9818 2.5164 15.614 5.4547 15.6068 5.3203C49.9871 33.5161 56.8344 31.2423 63.4085 33.2473 58.2901 32.3101 53.1178 33.8708 48.1144 34.8788 49.3042 35.1514 50.4975 35.4202 51.6908 35.689 52.2875 35.8234 53.7396 35.8794 54.0883 36.2192 55.7094 36.5813 57.9451 37.1936 59.2534 37.2683 63.7177 37.1675 69.2458 37.0219 73.3362 39.1836 70.1121 37.8993 66.2193 38.1793 62.8406 38.4332 68.4407 40.1282 76.1434 42.4094 79.0872 48.2001 77.2433 44.9034 73.7388 43.0553 70.4463 41.7075 67.2797 40.4157 56.3024 37.791 55.6483 37.6678c3.9502 3.4647 8.6912 6.2836 11.9549 10.5211C64.5767 44.8511 60.4935 42.5625 56.8056 40.0946 55.6914 39.3479 54.5951 38.5601 53.5491 37.7126 52.5427 36.8949 51.353 36.8987 50.0518 36.6635 47.374 36.1818 44.6351 35.6293 42.2664 35.0879 45.4833 40.9757 49.9008 47.0017 55.5692 50.5373c-4.112-2.1841-7.5662-5.6824-10.5423-9.2965-1.5564-1.8855-2.9906-3.8829-4.281-5.9774C40.0738 34.1694 38.4383 34.147 37.2522 33.8148 36.0696 33.4899 34.8979 33.1203 33.7261 32.7395c2.9905 7.0377 6.7287 17.1743 14.1511 20.3329-5.7366-1.8892-9.6437-8.1951-12.5947-13.2504C34.3839 38.2838 33.5284 36.7157 32.6945 35.1364 32.0475 33.9081 31.5048 31.989 30.2252 31.4962c-3.0624-1.1723-6.0062-2.5873-8.8386-4.2712.4529 4.6632 1.8834 9.1995 3.5369 13.5342 1.5204 3.9837 3.1235 8.3482 6.132 11.4022-4.7446-4.1181-7.5698-11.4694-9.6905-17.3349C20.7576 33.1502 20.222 31.4365 19.8122 29.6929 19.5714 28.6736 19.3701 27.6432 19.2264 26.6053 19.0718 25.5225 18.6441 25.5151 17.7922 24.9401c-2.9582-1.99-5.787-4.1667-8.58339-6.3881C9.26992 26.1535 10.1865 35.801 14.4782 42.2153c-4.094-5.1262-5.67555-12.7128-6.72152-19.1196-.29474-1.8294-.52478-3.6663-.64339-5.5182C7.01624 16.1326 5.04652 14.9155 4.04728 13.9037 2.97256 12.8172 1.923 11.6972.841086 10.607.805142 11.1521.697311 11.7009.513997 12.2535.255201 12.5671.186908 13.0898.61464 13.4071c2.18179 1.6652 6.64961 8.7291 3.80645 11.2156C4.37437 24.6526 4.36358 24.6974 4.33483 24.731 3.79567 24.4622 3.00131 25.026 3.34637 25.7465c1.7325 3.6813 2.62031 8.2101-.41695 11.4247C2.8144 37.2907 2.76768 37.4251 2.73533 37.5558 2.42621 37.7387 2.22492 38.1083 2.4334 38.5414 3.16306 40.0237 2.87191 41.7822 2.34713 43.3428 1.82235 43.3279 1.30476 44.0484 1.73249 44.6458c1.3479 1.8929 3.10196 4.1293 5.46347 4.5885C7.60931 49.309 7.93999 48.8946 7.98313 48.5212 8.0622 47.8604 8.09455 47.2257 8.10174 46.5872c1.06394 2.0199 2.26086 3.9016 3.99696 5.4958 3.0229 2.7853 7.3146 3.0765 10.4129 5.7497C22.9394 58.2023 23.6367 57.7804 23.6511 57.2465 23.6906 55.8203 23.5288 54.5136 23.1658 53.2628c1.0747 1.3329 2.0201 2.7778 3.3608 3.9203 2.9869 2.5425 7.142 2.7553 9.9241 5.5779C36.8029 63.1232 37.5613 63.0933 37.6979 62.4959 38.1292 60.5955 37.6512 58.9416 36.8532 57.3772c5.2514 2.9906 10.9593 3.1399 17.0769 4.2451C54.4046 61.7044 54.7856 61.1556 54.6993 60.7113 54.4046 59.1133 53.8367 57.7842 52.9992 56.5372 57.8876 56.7201 63.0275 56.3393 67.5277 58.5309 68.0489 58.7885 68.5665 58.1687 68.4838 57.6572 68.128 55.559 67.481 53.7594 66.3955 52.0718 68.6815 52.0009 70.9064 51.4857 73.2104 51.4483 76.5173 51.3923 80.6724 53.5354 83.3933 55.32 84.0978 55.7755 84.8023 54.8496 84.4249 54.2672 86.3191 49.3799 83.1741 44.2612 80.2015 40.5576 77.6135 37.328 73.4225 33.2286 69.0697 32.1981 70.2702 31.6717 71.5283 31.5224 73.0415 31.8472 73.577 31.9592 74.3319 31.4103 73.9365 30.7756 71.2443 26.553 66.9454 24.1262 62.2116 23.7043 63.2252 23.1069 64.3143 22.741 65.5903 22.5842 66.0792 22.517 66.284 21.9159 66.1079 21.4866 64.3251 17.3386 59.0989 16.5247 54.7569 16.3865 55.3355 16.1252 55.9322 15.8825 56.59 15.6585 57.068 15.5017 57.4562 14.8371 56.9962 14.4003 52.5104 10.0656 46.346 7.76948 40.3542 8.81487 41.605 8.01963 43.0356 7.5492 44.3835 6.72035 44.804 6.45153 44.9873 5.86163 44.6063 5.51814 40.6237 1.98247 36.5549.462911 34.8943-.495566e-4 34.5097-.112056 27.6804 4.20393 20.5455 1.94887L20.5419 1.9526z" fill="url(#paint0_linear_807_63875)"/></g><defs><linearGradient id="paint0_linear_807_63875" x1="-52.4708" y1="-232.07" x2="-52.4708" y2="94.3581" gradientUnits="userSpaceOnUse"><stop stop-color="#ffdcc0"/><stop offset="1" stop-color="#a68f7d"/></linearGradient><clipPath id="clip0_807_63875"><rect width="85" height="63" fill="#fff"/></clipPath></defs></svg>