<svg xmlns="http://www.w3.org/2000/svg" width="95" height="73" viewBox="0 0 95 73" fill="none"><g clip-path="url(#clip0_807_63814)"><path d="M92.9241.0C86.4107.125335 80.2719 4.94133 78.0097 11.606 77.8558 10.8446 77.911 10.0707 78.2391 9.22465 78.4918 8.56351 77.7135 8.21257 77.2809 8.54157 74.6557 10.5344 72.1526 13.0881 71.084 16.375 70.9446 15.1875 71.3598 13.8965 71.7228 12.8124 71.9435 12.1575 71.2117 11.7752 70.7616 12.1293 67.9187 14.3446 65.1165 17.9198 64.4776 21.802 63.9782 20.2729 64.315 18.5715 64.5096 16.9077 64.5793 16.3687 63.8765 15.9865 63.5222 16.3907c-2.657 2.9955-3.7227 7.1503-3.6095 11.2206C59.4365 26.8373 59.1461 25.9475 59.1867 24.9824 59.2071 24.55 58.8818 24.3212 58.574 24.3244 58.3766 24.1928 58.121 24.174 57.9032 24.4058c-2.4625 2.5976-2.4479 7.4387-1.722 11.0514C55.4582 34.9904 54.9326 34.3136 54.5986 33.3829 54.5783 33.3203 54.5434 33.2858 54.5144 33.2419 54.4389 32.7719 53.9394 32.3959 53.5764 32.8471c-3.142 3.8823-2.5321 9.4409-.7288 13.8652C52.9318 46.9285 53.077 47.0288 53.2367 47.0539 53.4806 47.7808 53.7507 48.4639 54.0324 49.1187c-1.0425-2.0774-2.9504-3.1177-4.6143-2.2121 1.1499-4.3335-1.8498-8.3035-4.8582-11.2551C44.2085 35.3006 43.7584 35.4196 43.5522 35.874 43.137 36.8109 42.6288 37.5503 41.8912 38.0767c.4559-5.5962-2.3579-10.1709-7.2481-12.3799C34.1756 25.4869 33.6587 26.1167 33.92 26.5898 34.5734 27.7397 34.3789 29.3002 33.7342 30.4783c-1.0803-4.9006-5.0992-7.6767-9.6467-8.529C23.6955 21.8678 23.4109 22.3347 23.4661 22.7107 23.5387 23.234 23.5009 23.6977 23.408 24.1489c-1.2719-3.6504-5.0586-4.7502-8.1919-6.8715C14.7166 16.9421 14.0807 17.5187 14.3537 18.0984 15.0303 19.5209 15.0157 20.9654 14.8241 22.4631 10.4857 18.5966 4.64307 17.033 1.10904 12.0917.743152 11.5809.127528 11.9914.0926818 12.5084-.014762 12.6682-.0438008 12.8844.0781624 13.1194 4.05358 20.7711-.16286 31.6283 5.59554 38.2177 4.86667 37.9859 4.13779 37.7509 3.3973 37.5629 2.9472 37.4532 2.56389 37.7885 2.62197 38.2961c.58077 5.0353.92053 9.7385 5.2357 12.4771C6.99522 51.1836 6.15019 51.2714 5.13673 51.1366 4.68953 51.0708 4.3643 51.6474 4.56757 52.061c1.90495 3.9355 5.20086 5.9941 8.83943 7.4981C12.8146 59.6751 12.2193 59.8098 11.6327 59.9853 11.1797 60.1231 10.9184 60.8564 11.4178 61.1509c1.7482 1.0371 3.1478 2.5662 4.8524 3.6692C17.879 65.8729 19.7781 66.0922 21.5146 66.8129 20.9135 67.0322 20.3241 67.286 19.72 67.5712 19.3193 67.7592 19.2699 68.4517 19.6562 68.6804 21.7557 69.9181 23.2918 71.6508 25.7921 71.7542 25.9953 71.7636 26.1434 71.6759 26.2509 71.5443 26.3032 71.5286 26.3525 71.5004 26.399 71.4628 28.8963 69.5734 32.1022 69.3729 35.0119 70.0089 35.5085 70.1155 35.9731 69.6643 35.735 69.1128 35.642 68.8903 35.5433 68.6773 35.4533 68.4642 37.4337 67.5712 39.2283 67.9597 41.2959 68.6553 41.7925 68.8183 42.2455 68.273 42.019 67.7623 41.8854 67.4866 41.7634 67.2014 41.6502 66.9163 42.0103 66.8317 42.3674 66.7471 42.7217 66.6656 42.5649 65.8572 42.3762 65.0206 41.7141 64.6164 40.8806 64.1088 39.9921 63.7077 39.1093 63.3286c-1.873-.7928-3.8302-1.338-5.8165-1.6419C29.358 61.0694 25.371 61.295 21.4217 61.5708 28.2371 60.5086 34.6518 60.0949 41.2669 62.4857 40.66 61.1446 39.9485 59.8693 39.147 58.6599 38.3804 57.5131 37.5993 57.1715 36.4145 56.6357 34.7535 55.8774 33.107 55.116 31.3995 54.4862c-4.9657-1.8173-10.364-2.7636-15.5736-1.7108C22.6878 50.8139 29.7501 52.4339 36.3157 54.8246c-1.6726-2.0993-3.4091-4.1298-5.2357-6.0819-.9757-1.0465-1.6784-1.8862-3.0171-2.303C26.9565 46.1076 25.824 45.8068 24.6973 45.5686 19.2874 44.4124 13.5928 45.6971 8.3281 43.6009 11.6008 44.6976 15.039 44.5221 18.4162 44.403 21.5524 44.2934 24.5463 44.4876 27.6244 45.177c-1.5855-1.5542-3.2059-3.0457-4.8698-4.4902-1.7249-1.5008-3.5166-2.0555-5.6422-2.6915-3.537-1.0434-7.3643-1.8989-10.42499-4.1925C10.3811 36.1497 14.8851 36.5289 18.9912 37.4971 13.3025 32.7876 7.91865 26.9376 4.55595 19.8248 7.63407 25.6091 12.0131 30.4094 16.9091 34.4201c-1.24-3.4843-2.4422-6.9874-4.0103-10.3119 1.7598 2.9923 3.2088 6.1758 4.6666 9.3405.3658.7928.7317 1.5855 1.0976 2.372C19.2845 36.2907 19.9146 36.7545 20.536 37.2213 21.4508 37.9107 22.351 38.5875 23.2541 39.2925c-1.1209-5.3017-2.1083-10.6754-4.0597-15.717 1.3358 2.8545 2.3551 5.8625 3.2611 8.9019C23.1786 34.9089 24.4853 37.9765 24.6479 40.4142c2.4277 1.9584 4.7885 4.0014 7.0565 6.1759C31.324 40.6806 29.7762 34.9058 29.7646 28.9618 30.2118 33.8279 31.6637 38.4903 32.6743 43.2374 32.9414 44.5064 33.1796 45.7786 33.3509 47.0695 33.5396 48.4388 33.8881 48.7553 34.8086 49.7047c1.4636 1.5134 2.8749 3.077 4.2455 4.6906C40.3318 48.7553 39.5071 42.8959 38.6185 37.2652c1.0135 4.0013 1.9892 8.0653 2.1925 12.2264C40.9068 51.4625 40.8255 53.4459 40.5148 55.3949 40.2883 56.7798 42.5998 59.1048 43.3025 60.402c1.1586-3.3214 2.7413-6.4328 4.1816-9.6038C46.6536 53.5838 45.7185 56.3412 45.0274 59.1737 44.7428 60.3394 44.1243 61.9593 44.5918 63.0811 45.0216 64.1276 45.3933 65.2023 45.6895 66.299 47.034 66.321 48.3494 66.675 49.6417 67.6683 50.1499 68.0568 50.7335 67.4051 50.5012 66.8505 50.3676 66.5497 50.2573 66.2332 50.1353 65.9262 51.1575 65.616 52.0809 65.6724 53.0857 66.1204 53.5735 66.3429 53.9017 65.8259 53.8175 65.3872 53.9075 65.2587 53.9627 65.1083 53.9394 64.9141 53.6113 61.6648 53.9598 58.6191 54.4244 55.4137 54.6712 53.6935 54.9209 51.5377 54.3198 49.8363 54.9384 51.3058 55.493 52.7503 55.6585 54.6053 55.8095 56.385 56.2625 57.8483 57.1337 59.2176 56.6052 59.1612 56.0825 59.0296 55.5714 58.7977 55.1591 58.6348 54.6973 59.0672 54.799 59.5309 55.615 63.2659 56.0593 65.782 59.6746 67.3111 61.3153 68.0036 63.2464 68.038 64.9626 68.3357 67.8897 68.8527 70.1721 70.3975 72.26 72.6065 72.5969 72.97 73.0789 72.8352 73.2677 72.384 73.5116 71.8012 73.7788 70.9427 73.6307 71.0147 73.4419 70.551 73.2706 70.0779 73.0964 69.6079 72.5446 69.3259 71.9871 69.0501 71.4353 68.7713 70.3115 68.2104 69.1848 67.6401 68.0988 66.9978 66.2809 65.9262 64.5386 64.5819 63.2783 62.7803 65.7408 65.3935 69.1442 66.4338 72.3617 67.4646 72.0481 66.4745 71.7664 65.4687 71.5137 64.4566 71.1856 63.1469 70.7907 62.9651 69.7917 62.1818 68.3688 61.0663 67.0534 59.7973 65.9034 58.3653 63.4816 55.3542 61.9338 51.7038 60.842 47.9249c2.0937 5.3644 5.1863 9.9485 9.9051 12.9158C70.2825 58.193 70.0182 55.514 69.9369 52.8193c-1.1557-2.1965-2.1895-4.4651-3.0316-6.8214-1.7743-4.9789-2.6019-10.2399-3.3685-15.4883C65.009 37.0678 66.6672 43.4943 69.9282 49.313 69.9979 46.8721 70.2215 44.4406 70.5903 42.0279 70.6977 41.3354 70.8139 40.6367 70.9359 39.9442 70.7239 39.4053 70.5264 38.8601 70.3435 38.3086 70.0357 37.3811 69.7743 36.4317 69.5652 35.4666 68.5576 30.7917 68.9525 25.9757 70.2476 21.4103 69.0338 26.9533 69.2051 32.6497 71.3076 37.9169 72.0335 34.1412 72.9076 30.4 74.1185 26.7684 74.5948 25.3396 73.9937 23.3311 74.2463 21.7205 74.5309 19.9126 75.103 18.183 75.6402 16.4502 75.193 18.9663 74.6151 21.6046 75.0536 24.1771 76.3574 20.7962 77.7542 17.9981 79.8101 14.9431 81.9532 11.7627 84.4535 8.88624 87.0873 6.17901c-2.7616 3.11457-5.3635 6.44539-7.4717 10.11769C79.5807 16.4815 78.7996 18.1172 78.4976 18.3553 80.1412 17.0581 81.9648 15.9332 83.8756 15.1687 81.6193 16.4753 78.7967 18.5433 77.5219 21.0124 77.4638 20.9685 77.3999 20.9215 77.3389 20.8777c-1.0599 2.4816-1.9136 5.0604-2.5989 7.6924C77.2518 25.584 81.1372 22.7201 84.9297 22.2344c-3.3888.7301-6.6441 3.4467-8.883 6.1916-2.5932 3.1866-2.8545 7.2004-3.4179 11.2989 2.628-3.337 6.0517-6.0537 9.7397-7.8804C79.3717 33.8028 76.6594 36.3941 74.5309 39.399 73.5407 40.7934 72.2717 42.5731 72.1207 44.3592 71.958 46.2799 71.9435 48.2163 71.9958 50.1402 74.7109 45.0986 79.3688 40.5458 84.526 38.6439c-3.8128 1.8142-7.0767 5.1544-9.4434 8.811C73.8165 49.4101 72.745 51.5784 72.2223 53.9128 72.4575 56.3976 72.864 58.8667 73.4477 61.2856 75.1842 56.8143 78.6428 52.7409 82.2755 49.9491 79.6127 52.4652 77.3186 55.6832 75.7389 59.0923 74.9752 60.7404 74.316 62.5797 74.3247 64.4472 74.7167 65.6943 75.1581 66.9226 75.6518 68.1258 75.9683 67.4709 76.218 66.7565 76.3487 65.9074 76.7814 63.0873 77.0979 58.1429 80.7307 58.4499 80.8933 58.4625 81.0182 58.4092 81.114 58.334 81.3986 58.3309 81.6715 58.1523 81.6802 57.7543 81.7703 54.5583 84.4302 49.8363 87.7726 50.0682 88.0833 50.0901 88.3969 49.8206 88.4027 49.4697 88.3243 48.4545 88.6351 47.5897 89.3349 46.869 89.3494 46.8596 89.3523 46.8377 89.3668 46.8314 89.4133 46.8063 89.4656 46.7875 89.5091 46.7405 92.4159 44.0865 94.3441 40.8404 94.5416 36.6636 94.5764 36.0463 93.9608 35.8426 93.5542 36.1434 92.9241 36.6072 92.1604 36.8955 91.3792 37.0678 93.6994 34.2102 93.714 30.2214 94.1786 26.4676 94.257 25.8378 93.5717 25.6686 93.1913 25.9506 92.3607 26.5522 91.4925 26.8499 90.5836 27.0661 92.6656 24.0549 93.7023 20.8714 94.1466 16.9891 94.1844 16.6633 93.9056 16.3029 93.592 16.3123 92.1952 16.3374 91.0337 16.8387 90.1015 17.6816c.5779-1.9865 1.3706-3.8885 2.2012-5.7873C92.4827 11.4901 92.2301 11.1924 91.9135 11.1172 91.748 10.9135 91.4983 10.7851 91.2079 10.8979 90.1567 11.2989 89.1026 11.8441 88.336 12.7121 87.4067 8.10603 89.9447 4.53086 93.078 1.41942 93.1709 1.32542 93.2145 1.22202 93.2435 1.11861 93.5949.773943 93.5194.00626675 92.9212.0156669L92.9241.0z" fill="url(#paint0_linear_807_63814)"/></g><defs><linearGradient id="paint0_linear_807_63814" x1="-86.6783" y1="-214.291" x2="-86.6783" y2="59.6625" gradientUnits="userSpaceOnUse"><stop stop-color="#ffdcc0"/><stop offset="1" stop-color="#a68f7d"/></linearGradient><clipPath id="clip0_807_63814"><rect width="94.5505" height="72.8164" fill="#fff"/></clipPath></defs></svg>