<svg width="248" height="59" fill="none" xmlns="http://www.w3.org/2000/svg"><path d="M0 42.52c.373 0 .773-.094 1.2-.28.427-.214.84-.52 1.24-.92s.773-.894 1.12-1.48c.347-.614.613-1.334.8-2.16.613-2.64 1.173-5.2 1.68-7.68.533-2.507 1.053-5 1.56-7.48.507-2.48 1.027-5 1.56-7.56.533-2.56 1.107-5.214 1.72-7.96l-.64-1.48c-.24-.56-.507-.974-.8-1.24-.267-.294-.547-.494-.84-.6a2.292 2.292 0 0 0-.96-.2h-1V3h5.92c.56 0 .973.146 1.24.44.293.266.507.573.64.92 1.653 4.48 3.253 8.84 4.8 13.08a395.466 395.466 0 0 0 5.04 12.8 395.466 395.466 0 0 0 5.04-12.8c1.573-4.24 3.173-8.6 4.8-13.08.133-.347.333-.654.6-.92.293-.294.72-.44 1.28-.44h6.36v.48c-.347 0-.733.013-1.16.04-.427.026-.813.12-1.16.28a1.825 1.825 0 0 0-.84.64c-.187.266-.24.653-.16 1.16.56 3.12 1.08 6.027 1.56 8.72a849.56 849.56 0 0 0 1.52 7.88 631.213 631.213 0 0 0 1.56 7.56c.533 2.506 1.12 5.146 1.76 7.92.187.827.453 1.547.8 2.16.347.586.72 1.08 1.12 1.48.4.4.813.706 1.24.92.427.186.827.28 1.2.28V43H37.56v-.48c.347 0 .693-.067 1.04-.2a2.944 2.944 0 0 0 1-.6c.293-.294.533-.64.72-1.04.187-.427.28-.934.28-1.52 0-.507-.08-1.373-.24-2.6-.16-1.227-.373-2.707-.64-4.44a349.717 349.717 0 0 0-2.2-12.6c-.427-2.347-.88-4.747-1.36-7.2-.48-2.48-.96-4.894-1.44-7.24a1361.57 1361.57 0 0 1-4.84 13.2c-1.6 4.293-3.32 8.64-5.16 13.04.053.107.133.293.24.56.347.853.693 1.453 1.04 1.8.373.346.867.52 1.48.52h.84v.56c-.693.08-1.293.28-1.8.6-.48.293-.907.627-1.28 1-.373.346-.72.666-1.04.96-.293.267-.6.4-.92.4-.293 0-.52-.093-.68-.28a4.338 4.338 0 0 1-.4-.72c-.293-.773-.76-2.04-1.4-3.8a214.642 214.642 0 0 0-2.32-6.28L11.56 8.56c-.4 1.76-.827 3.68-1.28 5.76a322.781 322.781 0 0 0-1.32 6.28 357.821 357.821 0 0 0-1.2 6.2 478.857 478.857 0 0 0-1 5.6c-.267 1.68-.493 3.133-.68 4.36-.16 1.2-.24 2.04-.24 2.52 0 .587.093 1.08.28 1.48.187.4.427.733.72 1s.613.467.96.6c.373.107.733.16 1.08.16V43H0v-.48zM56.125 31.96c0 1.333.133 2.627.4 3.88.266 1.226.706 2.32 1.32 3.28a6.906 6.906 0 0 0 2.4 2.24c.986.56 2.213.84 3.68.84 1.12 0 2.253-.28 3.4-.84a16.545 16.545 0 0 0 3.24-2.12 17.488 17.488 0 0 0 2.6-2.68c.72-.934 1.186-1.774 1.4-2.52l.56.16c-.4 1.2-1.014 2.373-1.84 3.52a15.391 15.391 0 0 1-2.96 3.08 15.145 15.145 0 0 1-3.84 2.2 12.47 12.47 0 0 1-4.44.8c-1.36 0-2.64-.187-3.84-.56-1.2-.347-2.24-.907-3.12-1.68-.88-.774-1.587-1.774-2.12-3-.507-1.227-.76-2.707-.76-4.44 0-2.08.386-4.173 1.16-6.28.773-2.107 1.853-4 3.24-5.68a16.926 16.926 0 0 1 4.96-4.16c1.92-1.067 4.026-1.6 6.32-1.6.933 0 1.826.107 2.68.32.88.213 1.653.56 2.32 1.04a4.942 4.942 0 0 1 1.64 1.76c.426.693.64 1.547.64 2.56 0 1.387-.24 2.667-.72 3.84a12.155 12.155 0 0 1-1.92 3.2 14.364 14.364 0 0 1-2.68 2.56 19.176 19.176 0 0 1-3.08 1.84 18.73 18.73 0 0 1-3.08 1.12c-1.014.24-1.92.36-2.72.36-.774 0-1.387-.04-1.84-.12a4.673 4.673 0 0 1-1.32-.48l.24-.52c.506.293 1.306.44 2.4.44 1.493 0 2.92-.453 4.28-1.36a16.102 16.102 0 0 0 3.6-3.4c1.04-1.36 1.866-2.8 2.48-4.32.64-1.547.96-2.933.96-4.16 0-1.2-.307-2.187-.92-2.96-.614-.8-1.6-1.2-2.96-1.2-1.707 0-3.28.44-4.72 1.32-1.44.853-2.68 1.987-3.72 3.4-1.04 1.386-1.854 2.986-2.44 4.8a17.582 17.582 0 0 0-.88 5.52zM81.418 21.48c0-.534-.027-.96-.08-1.28-.026-.32-.173-.48-.44-.48-.16 0-.32.027-.48.08-.133.026-.293.08-.48.16-.187.053-.4.107-.64.16-.24.026-.547.04-.92.04v-.48c.48 0 1.067-.16 1.76-.48.72-.32 1.347-.68 1.88-1.08.587-.427 1.053-.814 1.4-1.16.347-.373.68-.56 1-.56.347 0 .6.16.76.48.16.32.24.893.24 1.72v2.6c.373-.613.8-1.2 1.28-1.76a8.523 8.523 0 0 1 1.68-1.56 8.194 8.194 0 0 1 2.16-1.08c.827-.267 1.747-.4 2.76-.4 1.76 0 3.267.413 4.52 1.24 1.28.8 2.32 1.84 3.12 3.12.827 1.28 1.44 2.706 1.84 4.28.4 1.573.6 3.12.6 4.64 0 1.867-.213 3.653-.64 5.36-.4 1.706-1.053 3.213-1.96 4.52a9.935 9.935 0 0 1-3.4 3.08c-1.386.773-3.04 1.16-4.96 1.16-.64 0-1.293-.067-1.96-.2a8.62 8.62 0 0 1-1.96-.56 8.195 8.195 0 0 1-1.72-.92 5.82 5.82 0 0 1-1.36-1.32v11.96c0 .48.013 1.026.04 1.64.027.64.133 1.227.32 1.76.213.533.52.987.92 1.36.427.373 1.014.56 1.76.56v.48h-10.08v-.48c.773 0 1.36-.187 1.76-.56.4-.373.694-.827.88-1.36.213-.533.334-1.12.36-1.76.027-.614.04-1.16.04-1.64V21.48zm4 17.24c.24.773.627 1.427 1.16 1.96.56.507 1.173.92 1.84 1.24.667.32 1.32.547 1.96.68.667.133 1.213.2 1.64.2 1.067 0 1.987-.2 2.76-.6a6.02 6.02 0 0 0 1.96-1.6c.534-.694.96-1.48 1.28-2.36.32-.907.56-1.84.72-2.8.187-.987.307-1.973.36-2.96.053-.987.08-1.92.08-2.8 0-1.307-.093-2.694-.28-4.16-.186-1.467-.52-2.814-1-4.04-.48-1.227-1.12-2.24-1.92-3.04-.8-.827-1.813-1.24-3.04-1.24s-2.306.24-3.24.72a7.44 7.44 0 0 0-2.36 1.88 7.57 7.57 0 0 0-1.44 2.56 8.475 8.475 0 0 0-.48 2.76v13.6zM134.781 38.16a61.626 61.626 0 0 0-1.72 1.8c-.586.666-1.2 1.293-1.84 1.88a11.56 11.56 0 0 1-1.96 1.4c-.666.4-1.32.6-1.96.6-.773 0-1.253-.334-1.44-1-.186-.694-.28-1.534-.28-2.52V31.4a47.83 47.83 0 0 1-1.92 4.04 25.826 25.826 0 0 1-2.68 4.04 16.79 16.79 0 0 1-3.36 3.12c-1.226.826-2.56 1.24-4 1.24-.453 0-1.04-.054-1.76-.16-.693-.08-1.373-.347-2.04-.8-.666-.48-1.24-1.2-1.72-2.16-.48-.96-.72-2.307-.72-4.04 0-1.387.214-2.827.64-4.32.454-1.52 1.067-3 1.84-4.44a26.4 26.4 0 0 1 2.8-4.08 22.8 22.8 0 0 1 3.56-3.44 16.888 16.888 0 0 1 4.16-2.32 11.97 11.97 0 0 1 4.48-.88h7.76v.48c-.746 0-1.333.146-1.76.44-.4.267-.706.613-.92 1.04a4.096 4.096 0 0 0-.32 1.44c-.026.506-.04 1-.04 1.48V39.2c0 .72.32 1.08.96 1.08.454 0 1.027-.214 1.72-.64.694-.427 1.427-1.08 2.2-1.96l.32.48zm-9.2-20.12h-1.4c-1.546 0-3.12.493-4.72 1.48-1.573.986-3.013 2.32-4.32 4-1.28 1.68-2.333 3.627-3.16 5.84-.8 2.213-1.2 4.547-1.2 7 0 .693.094 1.386.28 2.08a7.5 7.5 0 0 0 .84 1.8c.347.533.747.96 1.2 1.28.48.32.987.48 1.52.48 1.307 0 2.534-.453 3.68-1.36 1.147-.934 2.187-2.053 3.12-3.36a25.961 25.961 0 0 0 2.48-4.12 69.242 69.242 0 0 0 1.68-3.72v-11.4zM156.686 23c0-.48-.014-1.027-.04-1.64a5.706 5.706 0 0 0-.36-1.8 3.31 3.31 0 0 0-.88-1.4c-.4-.373-.987-.56-1.76-.56a8.885 8.885 0 0 0-3.72.8 16.981 16.981 0 0 0-3.24 1.92c-.96.747-1.8 1.506-2.52 2.28-.694.746-1.214 1.346-1.56 1.8v12.72c0 .48.013 1.04.04 1.68.026.613.133 1.2.32 1.76.213.56.52 1.026.92 1.4.426.373 1.013.56 1.76.56V43h-10.08v-.48c.773 0 1.36-.187 1.76-.56.4-.373.693-.84.88-1.4.213-.56.333-1.147.36-1.76.026-.64.04-1.2.04-1.68V21.28c0-.534-.027-.96-.08-1.28-.027-.32-.174-.48-.44-.48-.16 0-.32.027-.48.08-.134.026-.294.08-.48.16-.187.053-.4.106-.64.16-.24.026-.547.04-.92.04v-.48c.48 0 1.066-.16 1.76-.48.72-.32 1.346-.68 1.88-1.08.586-.427 1.053-.814 1.4-1.16.346-.373.68-.56 1-.56.346 0 .6.16.76.48.16.32.24.893.24 1.72v4.72a29.632 29.632 0 0 1 2.84-2.64 22.683 22.683 0 0 1 3.16-2.24 17.144 17.144 0 0 1 3.36-1.52c1.173-.4 2.333-.6 3.48-.6 1.173 0 2.106.226 2.8.68a4.05 4.05 0 0 1 1.56 1.72c.373.72.613 1.533.72 2.44.106.906.16 1.84.16 2.8v15.4c0 .72.32 1.08.96 1.08.453 0 1.026-.214 1.72-.64.693-.427 1.426-1.08 2.2-1.96l.32.48a59.076 59.076 0 0 0-1.72 1.8 24.58 24.58 0 0 1-1.84 1.88 11.6 11.6 0 0 1-1.96 1.4c-.667.4-1.32.6-1.96.6-.774 0-1.254-.333-1.44-1-.187-.694-.28-1.533-.28-2.52V23zM190.498 39.16c0 .72.32 1.08.96 1.08.454 0 1.027-.214 1.72-.64.694-.427 1.427-1.08 2.2-1.96l.32.48a61.626 61.626 0 0 0-1.72 1.8c-.586.666-1.2 1.293-1.84 1.88a11.56 11.56 0 0 1-1.96 1.4c-.666.4-1.32.6-1.96.6-.773 0-1.266-.333-1.48-1-.186-.694-.28-1.533-.28-2.52v-1.64c-.346.64-.773 1.267-1.28 1.88a9.342 9.342 0 0 1-1.72 1.68 8.07 8.07 0 0 1-2.24 1.16c-.826.293-1.773.44-2.84.44-1.76 0-3.28-.347-4.56-1.04a10.049 10.049 0 0 1-3.12-2.76c-.8-1.147-1.4-2.44-1.8-3.88-.4-1.467-.6-2.96-.6-4.48 0-2.187.294-4.213.88-6.08.614-1.867 1.427-3.48 2.44-4.84 1.04-1.36 2.227-2.413 3.56-3.16 1.36-.773 2.8-1.16 4.32-1.16 1.094 0 2.027.107 2.8.32.8.213 1.467.48 2 .8.56.32 1 .666 1.32 1.04.347.373.614.72.8 1.04V4.4c0-.534-.026-.96-.08-1.28-.026-.32-.226-.48-.6-.48-.16 0-.413.053-.76.16-.32.08-.68.173-1.08.28-.4.08-.826.173-1.28.28-.426.08-.84.12-1.24.12V3c.614 0 1.227-.08 1.84-.24.614-.16 1.267-.374 1.96-.64 1.2-.454 2.054-.867 2.56-1.24.507-.374.88-.56 1.12-.56.347 0 .694.16 1.04.48.347.32.52.893.52 1.72 0 5.04-.013 10.08-.04 15.12 0 5.04.027 10.08.08 15.12l.04 6.4zm-17.92-7.52c0 1.306.107 2.627.32 3.96.24 1.333.614 2.533 1.12 3.6.507 1.066 1.147 1.933 1.92 2.6.774.667 1.707 1 2.8 1 1.92 0 3.534-.6 4.84-1.8 1.307-1.2 2.267-2.773 2.88-4.72v-13.6a5.295 5.295 0 0 0-.52-1.84 5.369 5.369 0 0 0-1.2-1.68 5.65 5.65 0 0 0-1.76-1.24c-.693-.32-1.466-.48-2.32-.48-1.626 0-2.973.466-4.04 1.4-1.04.907-1.866 2.067-2.48 3.48-.586 1.386-1 2.92-1.24 4.6a37 37 0 0 0-.32 4.72zM202.023 31.96c0 1.333.133 2.627.4 3.88.267 1.226.707 2.32 1.32 3.28a6.9 6.9 0 0 0 2.4 2.24c.987.56 2.213.84 3.68.84 1.12 0 2.253-.28 3.4-.84a16.563 16.563 0 0 0 3.24-2.12 17.502 17.502 0 0 0 2.6-2.68c.72-.934 1.187-1.774 1.4-2.52l.56.16c-.4 1.2-1.013 2.373-1.84 3.52a15.391 15.391 0 0 1-2.96 3.08 15.155 15.155 0 0 1-3.84 2.2c-1.413.533-2.893.8-4.44.8-1.36 0-2.64-.187-3.84-.56-1.2-.347-2.24-.907-3.12-1.68-.88-.774-1.587-1.774-2.12-3-.507-1.227-.76-2.707-.76-4.44 0-2.08.387-4.173 1.16-6.28.773-2.107 1.853-4 3.24-5.68a16.93 16.93 0 0 1 4.96-4.16c1.92-1.067 4.027-1.6 6.32-1.6.933 0 1.827.107 2.68.32.88.213 1.653.56 2.32 1.04a4.944 4.944 0 0 1 1.64 1.76c.427.693.64 1.547.64 2.56 0 1.387-.24 2.667-.72 3.84a12.155 12.155 0 0 1-1.92 3.2 14.364 14.364 0 0 1-2.68 2.56 19.176 19.176 0 0 1-3.08 1.84 18.74 18.74 0 0 1-3.08 1.12c-1.013.24-1.92.36-2.72.36-.773 0-1.387-.04-1.84-.12a4.666 4.666 0 0 1-1.32-.48l.24-.52c.507.293 1.307.44 2.4.44 1.493 0 2.92-.453 4.28-1.36a16.102 16.102 0 0 0 3.6-3.4c1.04-1.36 1.867-2.8 2.48-4.32.64-1.547.96-2.933.96-4.16 0-1.2-.307-2.187-.92-2.96-.613-.8-1.6-1.2-2.96-1.2-1.707 0-3.28.44-4.72 1.32-1.44.853-2.68 1.987-3.72 3.4-1.04 1.386-1.853 2.986-2.44 4.8a17.573 17.573 0 0 0-.88 5.52zM245.237 22.92c0-.8-.214-1.547-.64-2.24a5.837 5.837 0 0 0-1.64-1.8c-.694-.534-1.507-.947-2.44-1.24a9.303 9.303 0 0 0-2.88-.44c-1.387 0-2.667.173-3.84.52-1.174.347-2.187.827-3.04 1.44-.854.587-1.52 1.293-2 2.12-.48.8-.72 1.666-.72 2.6 0 .907.186 1.627.56 2.16.4.507 1.013.88 1.84 1.12.826.24 1.866.387 3.12.44 1.253.053 2.746.08 4.48.08 1.066 0 2.173.013 3.32.04 1.173.027 2.24.2 3.2.52a4.94 4.94 0 0 1 2.36 1.64c.613.773.92 1.907.92 3.4 0 1.786-.44 3.346-1.32 4.68-.88 1.306-2.027 2.4-3.44 3.28-1.414.853-3.014 1.493-4.8 1.92-1.76.427-3.534.64-5.32.64-2.347 0-4.12-.467-5.32-1.4-1.174-.933-1.76-2.187-1.76-3.76 0-1.067.306-1.894.92-2.48.613-.587 1.306-.88 2.08-.88.186 0 .36.026.52.08.186.053.32.133.4.24a1.335 1.335 0 0 0-.68.84 5.17 5.17 0 0 0-.12 1.16c0 .587.173 1.16.52 1.72.346.56.84 1.066 1.48 1.52.64.426 1.4.773 2.28 1.04.88.267 1.853.4 2.92.4a15.51 15.51 0 0 0 3.68-.52c1.2-.347 2.266-.853 3.2-1.52a7.668 7.668 0 0 0 2.24-2.48c.586-1.014.88-2.187.88-3.52 0-.773-.307-1.334-.92-1.68-.614-.347-1.387-.574-2.32-.68a17.738 17.738 0 0 0-3-.16c-1.067.027-2.067.04-3 .04-1.547 0-3-.04-4.36-.12-1.334-.08-2.494-.307-3.48-.68-.987-.4-1.76-1-2.32-1.8-.56-.827-.84-1.987-.84-3.48 0-1.413.306-2.68.92-3.8a9 9 0 0 1 2.48-2.92c1.066-.827 2.306-1.454 3.72-1.88 1.44-.453 2.96-.68 4.56-.68 1.04 0 1.946.04 2.72.12.8.053 1.506.146 2.12.28.613.133 1.173.293 1.68.48.533.16 1.08.346 1.64.56v5.08h-.56z" fill="#333029"/></svg>