<?xml version="1.0" encoding="UTF-8"?>
<svg xmlns="http://www.w3.org/2000/svg" xmlns:xlink="http://www.w3.org/1999/xlink" width="204px" height="50px" viewBox="0 0 203 50" version="1.1">
<g id="surface1">
<path style=" stroke:none;fill-rule:nonzero;fill:rgb(0%,0%,0%);fill-opacity:1;" d="M 6.417969 37.183594 C 4.957031 37.183594 3.503906 37.164062 2.046875 37.164062 C 1.476562 37.164062 0.84375 37.140625 0.421875 36.738281 C 0 36.355469 0.0234375 35.488281 0.589844 35.359375 C 2.828125 34.789062 3.671875 32.097656 4.15625 29.828125 C 5.613281 22.859375 7.070312 15.890625 8.523438 8.921875 C 8.777344 7.605469 8.925781 5.933594 7.789062 5.234375 C 7.324219 4.9375 6.730469 4.894531 6.246094 4.640625 C 5.757812 4.40625 5.359375 3.75 5.699219 3.304688 C 5.910156 3.050781 6.269531 2.988281 6.605469 2.945312 C 7.953125 2.777344 9.328125 2.628906 10.65625 2.945312 C 11.988281 3.242188 13.253906 4.109375 13.675781 5.425781 C 15.59375 11.609375 17.894531 17.691406 20.53125 23.621094 C 23.066406 17.671875 25.34375 11.585938 27.371094 5.445312 C 27.8125 4.132812 29.101562 3.261719 30.449219 2.964844 C 31.800781 2.648438 33.195312 2.816406 34.566406 2.988281 C 35.070312 3.050781 35.703125 3.21875 35.789062 3.75 C 35.9375 4.765625 34.015625 4.511719 33.425781 5.335938 C 33.152344 5.71875 33.214844 6.226562 33.300781 6.675781 C 34.710938 14.511719 36.273438 22.328125 37.960938 30.105469 C 38.425781 32.246094 39.269531 34.765625 41.382812 35.296875 C 41.949219 35.425781 41.992188 36.332031 41.546875 36.738281 C 41.105469 37.140625 40.453125 37.164062 39.863281 37.164062 C 37.390625 37.164062 34.945312 37.164062 32.496094 37.164062 C 31.90625 37.164062 31.25 37.140625 30.808594 36.714844 C 30.367188 36.3125 30.472656 35.382812 31.085938 35.316406 C 32.011719 35.210938 32.710938 34.34375 32.941406 33.433594 C 33.152344 32.523438 32.980469 31.546875 32.835938 30.636719 C 31.503906 23.03125 30.195312 15.425781 28.867188 7.816406 C 26.734375 13.390625 24.585938 18.960938 22.429688 24.535156 C 22.15625 25.296875 21.859375 26.078125 21.988281 26.886719 C 22.113281 27.671875 22.855469 28.414062 23.632812 28.261719 C 24.140625 28.15625 24.539062 28.832031 24.375 29.34375 C 24.226562 29.828125 23.761719 30.171875 23.339844 30.464844 C 22.578125 30.972656 21.796875 31.503906 21.039062 32.011719 C 20.679688 32.265625 20.277344 32.523438 19.835938 32.542969 C 18.824219 32.582031 18.210938 31.441406 17.851562 30.464844 C 15.382812 23.832031 12.933594 17.203125 10.488281 10.570312 C 8.90625 17.371094 7.578125 24.214844 6.5 31.101562 C 6.246094 32.710938 6.417969 34.917969 7.996094 35.210938 C 8.628906 35.316406 8.695312 36.3125 8.207031 36.738281 C 7.742188 37.164062 7.046875 37.183594 6.417969 37.183594 "/>
<path style=" stroke:none;fill-rule:nonzero;fill:rgb(0%,0%,0%);fill-opacity:1;" d="M 132.625 35.550781 C 131.910156 36.167969 131.167969 36.78125 130.285156 37.074219 C 129.394531 37.371094 128.300781 37.289062 127.644531 36.609375 C 126.949219 35.914062 126.90625 34.789062 126.90625 33.792969 C 126.929688 29.109375 126.929688 24.429688 126.949219 19.765625 C 126.949219 18.667969 126.84375 17.394531 125.914062 16.84375 C 125.304688 16.460938 124.519531 16.566406 123.804688 16.757812 C 121.777344 17.265625 119.878906 18.261719 118.320312 19.640625 C 117.875 20.042969 117.453125 20.464844 117.242188 21.015625 C 117.007812 21.546875 117.007812 22.164062 117.007812 22.753906 C 116.988281 25.464844 116.988281 28.199219 116.96875 30.933594 C 116.96875 32.691406 117.367188 34.976562 119.097656 35.296875 C 119.691406 35.402344 119.753906 36.332031 119.308594 36.738281 C 118.867188 37.140625 118.191406 37.183594 117.578125 37.183594 C 115.789062 37.183594 113.96875 37.183594 112.15625 37.183594 C 111.566406 37.183594 110.890625 37.140625 110.449219 36.738281 C 110.003906 36.332031 110.023438 35.425781 110.613281 35.277344 C 112.074219 34.9375 112.386719 33.007812 112.386719 31.503906 C 112.386719 27.328125 112.367188 23.136719 112.367188 18.941406 C 112.367188 18.558594 112.367188 18.15625 112.132812 17.859375 C 111.796875 17.457031 111.207031 17.4375 110.71875 17.246094 C 110.257812 17.054688 109.878906 16.355469 110.300781 16.078125 C 111.398438 15.613281 112.492188 15.171875 113.59375 14.703125 C 114.308594 14.429688 115.089844 14.132812 115.828125 14.386719 C 117.09375 14.828125 117.261719 16.527344 117.21875 17.859375 C 119.457031 16.273438 121.820312 14.640625 124.542969 14.214844 C 127.265625 13.792969 130.453125 15.023438 131.335938 17.628906 C 131.65625 18.601562 131.65625 19.617188 131.65625 20.636719 C 131.613281 24.703125 131.570312 28.773438 131.527344 32.859375 C 132.792969 32.753906 133.996094 32.054688 134.714844 31.015625 C 135.410156 30.972656 135.855469 31.84375 135.683594 32.5 C 135.515625 33.15625 134.945312 33.644531 134.417969 34.066406 C 133.828125 34.574219 133.238281 35.0625 132.625 35.550781 "/>
<path style=" stroke:none;fill-rule:nonzero;fill:rgb(0%,0%,0%);fill-opacity:1;" d="M 185.550781 29.109375 C 186.035156 28.960938 186.605469 28.941406 187.046875 29.195312 C 187.492188 29.449219 187.746094 30.0625 187.511719 30.53125 C 186.984375 31.652344 187.597656 33.070312 188.628906 33.773438 C 189.640625 34.492188 190.949219 34.617188 192.214844 34.597656 C 195.152344 34.574219 198.484375 33.453125 199.519531 30.699219 C 199.792969 29.9375 199.832031 28.984375 199.242188 28.414062 C 198.84375 28.007812 198.253906 27.902344 197.703125 27.835938 C 195.402344 27.5 193.082031 27.328125 190.742188 27.328125 C 189.09375 27.328125 187.34375 27.371094 185.886719 26.585938 C 183.542969 25.316406 182.742188 22.097656 183.710938 19.617188 C 184.683594 17.164062 187.066406 15.445312 189.601562 14.722656 C 192.15625 13.984375 194.851562 14.085938 197.492188 14.363281 C 198.335938 14.449219 199.203125 14.554688 199.921875 15.023438 C 200.617188 15.488281 201.101562 16.398438 200.804688 17.203125 C 200.574219 17.835938 200.828125 18.539062 200.847656 19.214844 C 200.847656 19.871094 200.402344 20.699219 199.726562 20.59375 C 199.160156 20.464844 198.96875 19.746094 198.757812 19.195312 C 198.1875 17.628906 196.648438 16.585938 195.023438 16.273438 C 193.398438 15.953125 191.710938 16.273438 190.148438 16.78125 C 188.988281 17.183594 187.785156 17.734375 187.089844 18.75 C 186.390625 19.765625 186.371094 21.332031 187.34375 22.097656 C 188.082031 22.691406 189.136719 22.628906 190.085938 22.582031 C 192.828125 22.4375 195.59375 22.648438 198.273438 23.199219 C 199.179688 23.367188 200.109375 23.621094 200.828125 24.195312 C 201.292969 24.574219 201.628906 25.105469 201.902344 25.65625 C 203.105469 28.242188 202.132812 31.503906 200.109375 33.539062 C 198.101562 35.59375 195.277344 36.585938 192.46875 37.074219 C 190.71875 37.394531 188.882812 37.5 187.175781 36.992188 C 185.484375 36.460938 183.945312 35.191406 183.460938 33.472656 C 182.976562 31.757812 183.859375 29.664062 185.550781 29.109375 "/>
<path style=" stroke:none;fill-rule:nonzero;fill:rgb(0%,0%,0%);fill-opacity:1;" d="M 106.246094 36.441406 C 105.339844 37.011719 104.222656 37.5 103.273438 37.054688 C 102.089844 36.527344 101.882812 34.957031 102.007812 33.667969 C 102.132812 32.394531 102.429688 30.996094 101.777344 29.894531 C 100.421875 32.246094 98.96875 34.703125 96.6875 36.226562 C 94.429688 37.753906 91.136719 38.070312 89.113281 36.226562 C 87.445312 34.703125 87.128906 32.164062 87.363281 29.894531 C 87.847656 25.082031 90.441406 20.550781 94.324219 17.691406 C 98.1875 14.828125 103.292969 13.707031 108 14.664062 C 108.292969 14.722656 108.613281 14.808594 108.757812 15.0625 C 108.988281 15.445312 108.695312 15.933594 108.335938 16.167969 C 107.957031 16.398438 107.511719 16.503906 107.199219 16.800781 C 106.691406 17.289062 106.648438 18.070312 106.648438 18.773438 C 106.667969 23.414062 106.667969 28.03125 106.691406 32.648438 C 107.9375 32.476562 109.136719 31.84375 110.003906 30.914062 C 110.847656 31.3125 110.425781 32.605469 109.835938 33.304688 C 108.800781 34.535156 107.578125 35.59375 106.246094 36.441406 M 101.902344 17.902344 C 101.859375 17.671875 101.796875 17.417969 101.667969 17.203125 C 101.203125 16.503906 100.152344 16.675781 99.390625 17.011719 C 94.492188 19.152344 91.667969 24.640625 91.390625 29.976562 C 91.328125 31.1875 91.414062 32.4375 92.066406 33.433594 C 92.742188 34.40625 94.175781 34.957031 95.148438 34.28125 C 100.257812 30.71875 102.996094 24.046875 101.902344 17.902344 "/>
<path style=" stroke:none;fill-rule:nonzero;fill:rgb(0%,0%,0%);fill-opacity:1;" d="M 165.628906 30.023438 C 165.691406 32.945312 169.070312 34.917969 171.914062 34.386719 C 174.765625 33.855469 176.980469 31.585938 178.542969 29.132812 C 178.902344 28.558594 179.535156 27.882812 180.144531 28.199219 C 180.695312 28.515625 180.546875 29.34375 180.292969 29.917969 C 178.207031 34.554688 173.164062 37.796875 168.117188 37.394531 C 167.191406 37.328125 166.28125 37.140625 165.4375 36.78125 C 163.160156 35.804688 161.578125 33.578125 161.007812 31.167969 C 160.4375 28.75 160.796875 26.207031 161.617188 23.878906 C 163.390625 18.984375 167.613281 14.789062 172.761719 14.152344 C 174.554688 13.941406 176.453125 14.175781 177.996094 15.082031 C 179.554688 15.996094 180.714844 17.671875 180.78125 19.492188 C 180.800781 20.488281 180.527344 21.460938 180.125 22.351562 C 177.785156 27.796875 171.429688 31.167969 165.628906 30.023438 M 165.332031 27.4375 C 165.460938 27.753906 165.773438 27.964844 166.113281 28.113281 C 168.054688 29.027344 170.394531 28.136719 172.066406 26.78125 C 174.511719 24.789062 176.074219 21.78125 176.328125 18.621094 C 176.371094 18.050781 176.371094 17.4375 176.054688 16.949219 C 175.589844 16.1875 174.554688 15.972656 173.667969 16.039062 C 171.242188 16.1875 169.023438 17.691406 167.632812 19.664062 C 166.21875 21.652344 165.542969 24.085938 165.269531 26.503906 C 165.226562 26.820312 165.183594 27.140625 165.332031 27.4375 "/>
<path style=" stroke:none;fill-rule:nonzero;fill:rgb(0%,0%,0%);fill-opacity:1;" d="M 55.496094 14.109375 C 57.332031 14.027344 59.296875 14.449219 60.648438 15.742188 C 62.019531 17.054688 62.523438 19.152344 62.207031 21.039062 C 61.890625 22.945312 60.835938 24.640625 59.488281 26.015625 C 56.425781 29.214844 51.761719 30.785156 47.417969 30.105469 C 47.476562 32.988281 50.855469 34.917969 53.664062 34.363281 C 56.488281 33.832031 58.664062 31.566406 60.222656 29.132812 C 60.457031 28.75 60.753906 28.324219 61.195312 28.261719 C 61.742188 28.199219 62.207031 28.773438 62.230469 29.34375 C 62.25 29.894531 61.953125 30.425781 61.636719 30.890625 C 59.527344 34.027344 56.40625 36.652344 52.691406 37.308594 C 48.976562 37.964844 44.738281 36.25 43.171875 32.796875 C 42.371094 30.972656 42.332031 28.878906 42.648438 26.90625 C 43.152344 23.667969 44.566406 20.53125 46.824219 18.15625 C 49.082031 15.785156 52.226562 14.238281 55.496094 14.109375 M 57.882812 16.949219 C 57.542969 16.484375 56.953125 16.25 56.382812 16.144531 C 54.78125 15.847656 53.070312 16.332031 51.722656 17.265625 C 50.367188 18.199219 49.335938 19.554688 48.597656 21.015625 C 47.582031 22.964844 47.035156 25.148438 46.972656 27.328125 C 46.972656 27.628906 47.246094 27.816406 47.5 27.945312 C 48.957031 28.644531 50.707031 28.515625 52.164062 27.835938 C 53.617188 27.164062 54.800781 25.972656 55.730469 24.664062 C 56.867188 23.050781 57.691406 21.226562 58.113281 19.300781 C 58.304688 18.496094 58.386719 17.582031 57.882812 16.949219 "/>
<path style=" stroke:none;fill-rule:nonzero;fill:rgb(0%,0%,0%);fill-opacity:1;" d="M 80.546875 15.277344 C 83.648438 17.164062 85.019531 21.039062 85.210938 24.683594 C 85.378906 28.285156 84.535156 32.117188 82.066406 34.746094 C 79.574219 37.371094 75.230469 38.367188 72.234375 36.332031 C 71.789062 36.039062 71.15625 36.3125 70.902344 36.78125 C 70.628906 37.246094 70.648438 37.816406 70.667969 38.347656 C 70.753906 40.507812 70.820312 42.691406 70.902344 44.851562 C 70.945312 46.167969 71.304688 47.859375 72.609375 48.03125 C 73.203125 48.136719 73.285156 49.066406 72.84375 49.492188 C 72.398438 49.894531 71.726562 49.917969 71.113281 49.917969 C 69.300781 49.917969 67.464844 49.894531 65.648438 49.894531 C 65.078125 49.894531 64.488281 49.871094 64.066406 49.492188 C 63.664062 49.132812 63.683594 48.285156 64.234375 48.15625 C 65.710938 47.796875 66.003906 45.847656 66.003906 44.320312 C 66.003906 36.332031 66.003906 28.347656 66.003906 20.335938 C 66.003906 19.574219 65.898438 18.644531 65.203125 18.390625 C 64.804688 18.21875 64.234375 18.304688 64.066406 17.902344 C 63.898438 17.5625 64.191406 17.203125 64.46875 16.949219 C 65.4375 16.039062 66.449219 15.105469 67.695312 14.746094 C 68.960938 14.363281 70.542969 14.765625 71.113281 15.953125 C 73.792969 13.941406 77.675781 13.539062 80.546875 15.277344 M 78.480469 33.75 C 79.257812 32.925781 79.703125 31.84375 79.976562 30.742188 C 80.566406 28.367188 80.460938 25.890625 80.3125 23.453125 C 80.25 22.011719 80.164062 20.570312 79.660156 19.238281 C 79.132812 17.902344 78.121094 16.675781 76.75 16.292969 C 74.910156 15.761719 72.886719 16.929688 71.894531 18.578125 C 70.902344 20.234375 70.714844 22.246094 70.753906 24.175781 C 70.796875 26.101562 71.027344 28.050781 70.734375 29.957031 C 70.460938 31.84375 71.515625 33.855469 73.222656 34.703125 C 74.929688 35.550781 77.167969 35.128906 78.480469 33.75 "/>
<path style=" stroke:none;fill-rule:nonzero;fill:rgb(0%,0%,0%);fill-opacity:1;" d="M 151.109375 34.640625 C 148.683594 38.070312 143.070312 38.03125 139.96875 35.191406 C 136.886719 32.328125 136.066406 27.628906 136.929688 23.496094 C 137.542969 20.613281 138.933594 17.796875 141.257812 15.972656 C 143.578125 14.175781 146.910156 13.515625 149.546875 14.765625 C 150.140625 15.042969 150.941406 15.335938 151.277344 14.808594 C 151.40625 14.617188 151.40625 14.386719 151.40625 14.175781 C 151.40625 11.1875 151.425781 8.21875 151.449219 5.234375 C 151.449219 4.722656 151.425781 4.132812 151.046875 3.773438 C 150.457031 3.179688 149.464844 3.558594 148.621094 3.667969 C 147.777344 3.792969 146.65625 2.945312 147.226562 2.308594 C 149.316406 1.632812 151.40625 0.953125 153.492188 0.277344 C 154.339844 0 155.246094 0.59375 155.648438 1.378906 C 156.046875 2.164062 156.046875 3.070312 156.046875 3.941406 C 156.046875 13.324219 156.046875 22.691406 156.046875 32.054688 C 156.046875 32.835938 157.292969 32.691406 157.820312 32.140625 C 158.328125 31.566406 158.9375 30.761719 159.65625 31.015625 C 160.203125 32.605469 158.773438 34.109375 157.484375 35.171875 C 156.386719 36.078125 155.203125 37.035156 153.792969 37.117188 C 152.378906 37.222656 150.8125 36.015625 151.109375 34.640625 M 142.480469 20.445312 C 141.296875 23.601562 141.066406 27.117188 141.847656 30.402344 C 142.101562 31.527344 142.480469 32.628906 143.195312 33.539062 C 143.894531 34.449219 144.949219 35.128906 146.085938 35.148438 C 146.867188 35.171875 147.652344 34.871094 148.324219 34.449219 C 149.570312 33.6875 150.519531 32.5 151.007812 31.121094 C 151.492188 29.722656 151.46875 28.21875 151.46875 26.738281 C 151.449219 25.277344 151.449219 23.8125 151.425781 22.328125 C 151.40625 20.847656 151.363281 19.28125 150.542969 18.050781 C 149.800781 17.011719 148.535156 16.398438 147.292969 16.378906 C 146.027344 16.378906 144.78125 16.96875 143.914062 17.902344 C 143.261719 18.621094 142.835938 19.535156 142.480469 20.445312 "/>
</g>
</svg>
