<svg xmlns="http://www.w3.org/2000/svg" width="320" height="170" viewBox="0 0 320 170" fill="none"><path d="M219.19 57.3933c14.365-14.9891 5.285-9.5797 23.571 3.1502C245.507 56.3579 255.553 58.6983 259.949 54.6881 265.102 47.1387 271.561 47.4674 276.32 43.6774 287.136 35.0674 285.264 33.0809 290.052 36.7953 291.757 38.1189 292.356 41.1792 296.217 44.7621 300.632 50.1376 305.009 54.2629 312.384 61.3609c16.26 15.6466 31.952 35.0733 39.615 27.4155C361.791 78.9918 362.757 100.807 372 95.7713V170.001H-53C-53 168.223-53 104.423-53 102.646-29.2963 85.91 2.33187 101.201 21.1478 80.3219 30.6852 77.7438 36.8485 70.7894 42.8962 66.1425c6.9785-5.3645 11.4408-11.083 15.3642-15.548 2.2167-2.5201 3.9512-7.7564 5.5169-5.8937C64.796 45.9137 66.4646 46.0539 68.1112 47.3523 69.5914 48.5182 71.3617 49.2917 73.0823 50.9101c4.6335 4.3521 12.1439 7.6808 22.2329 16.2426C106.155 58.4485 108.216 45.849 118.253 36.9848c11.279-9.9599 16.548-13.4858 27.081-25.5254 4.023-4.59973 8.34-6.55994 10.519-8.82146C159.736-1.39753 162.325-.712714 165.374 4.30778 166.8 6.65477 170.972 9.94516 174.342 14.0069 179.017 19.6432 184.043 21.4752 188.624 25.6389 192.11 28.8076 195.493 34.1251 200.074 35.8617 203.959 37.3355 205.729 41.7194 208.445 45.4239 211.865 50.0883 215.464 54.0219 219.19 57.3933z" fill="#c6bcac"/></svg>