<svg xmlns="http://www.w3.org/2000/svg" width="135" height="165" viewBox="0 0 135 165" fill="none">
  <g clip-path="url(#clip0_807_63768)">
    <path d="M-0.975505 123.595C1.41938 120.635 -1.30151 115.66 -3.39547 113.15C-7.35142 108.397 -14.2978 104.572 -14.5235 98.0861C-14.5235 98.0528 -14.5862 98.0528 -14.5862 98.0861C-14.7053 102.339 -12.4421 105.593 -9.43283 108.753C-7.37022 110.918 -5.06311 112.973 -3.59609 115.516C-3.14469 116.293 -2.76853 117.12 -2.50522 117.975C-4.86249 114.338 -10.9688 111.812 -12.1913 107.792C-12.1976 107.764 -12.2603 107.77 -12.254 107.798C-11.8716 110.368 -10.4986 112.367 -8.89367 114.499C-8.04104 115.638 -7.05676 116.709 -6.2919 117.892C-6.19159 118.053 -6.09128 118.214 -6.00351 118.375C-8.27928 116.97 -10.2353 115.044 -11.182 112.789C-11.1945 112.756 -11.2509 112.767 -11.2447 112.806C-10.8434 114.172 -10.3168 115.427 -9.62091 116.559C-9.79019 116.371 -9.96573 116.176 -10.1225 115.982C-13.5016 111.873 -14.1536 106.226 -14.6677 101.307C-14.6677 101.273 -14.7304 101.268 -14.7304 101.307C-14.9937 108.07 -14.3793 114.416 -8.86232 119.563C-5.94709 122.284 -2.24818 124.366 0.109089 127.542C0.66706 128.298 1.12472 129.192 1.43819 130.124C-0.154223 127.853 -2.82496 125.832 -4.74964 124.489C-4.78099 124.466 -4.82487 124.5 -4.79353 124.527C-2.14787 126.993 -0.336033 129.314 -0.141684 132.073C-0.618153 131.102 -1.23882 130.18 -1.79679 129.419C-4.36094 125.921 -8.26674 123.417 -10.8184 119.913C-10.8434 119.885 -10.8873 119.913 -10.8748 119.941C-9.25102 122.989 -7.01914 125.666 -5.1258 128.575C-4.7183 129.203 -4.33587 129.841 -3.99105 130.496C-4.25437 130.185 -4.51141 129.886 -4.7371 129.602C-6.25428 127.687 -7.93446 125.899 -9.58957 124.078C-9.61464 124.055 -9.65853 124.083 -9.63972 124.111C-8.24166 126.06 -7.06303 128.142 -5.9847 130.247C-5.88439 130.435 -5.79035 130.641 -5.69631 130.857C-7.13199 128.942 -8.64917 127.065 -9.79645 125.016C-12.3543 120.424 -13.6834 115.493 -14.511 110.452C-14.511 110.418 -14.5737 110.429 -14.5737 110.457C-14.605 111.49 -14.58 112.517 -14.5047 113.533C-14.5235 113.522 -14.5549 113.533 -14.5486 113.556C-14.5173 113.683 -14.4922 113.811 -14.4671 113.939C-14.2853 115.999 -13.8841 118.02 -13.2947 119.997C-12.7242 123.578 -12.3481 127.193 -12.1725 130.796C-11.9468 135.477 -11.1193 141.341 -15 145.061V154.267C-13.0941 154.345 -11.3575 152.973 -8.4799 150.347C-6.81852 148.831 -5.13834 147.293 -3.89701 145.477C-2.66823 143.678 -1.93471 141.729 -1.85321 139.741C-1.74036 139.741 -1.62125 139.736 -1.48959 139.697C6.30946 137.576 4.7672 129.336 0.554212 124.999C0.0714731 124.505 -0.436343 124.039 -0.969236 123.589L-0.975505 123.595ZM-6.57402 145.133C-6.72448 145.327 -6.88122 145.516 -7.04422 145.705C-6.5991 144.955 -6.22294 144.2 -5.92201 143.539C-4.74964 141.002 -4.91891 138.448 -6.19786 135.977C-6.2104 135.949 -6.26055 135.971 -6.25428 135.999C-5.70885 137.942 -6.0662 139.864 -6.88749 141.657C-5.89066 137.92 -6.7621 134.183 -10.0159 131.485C-10.0472 131.457 -10.0848 131.496 -10.0598 131.524C-8.05985 133.795 -7.88431 136.343 -8.55513 138.836C-8.46736 137.415 -8.8059 135.977 -9.84661 134.505C-9.86542 134.478 -9.91557 134.494 -9.90303 134.528C-9.36387 136.327 -9.59584 137.981 -10.2102 139.564C-9.95319 137.365 -10.1099 135.077 -10.2792 132.917C-10.4924 130.263 -10.8748 127.637 -11.3889 125.033C-10.2102 127.565 -8.76201 130.013 -7.10064 132.362C-5.93455 134.011 -4.66187 135.716 -4.24183 137.659C-3.66505 140.341 -4.89384 142.962 -6.58029 145.139L-6.57402 145.133ZM-2.79988 135.077C-2.79988 135.077 -2.756 135.083 -2.73719 135.094C-2.73719 135.122 -2.73719 135.155 -2.73092 135.183C-2.756 135.149 -2.7748 135.111 -2.79988 135.077Z" fill="#FFDCC0" fill-opacity="0.8"/>
    <path d="M1.01154 122.312C0.980197 122.323 1.00527 122.367 1.03662 122.362C6.12105 121.235 11.2117 123.511 13.2054 127.326C11.8951 125.599 9.86384 124.322 7.48149 123.589C7.45015 123.578 7.42507 123.628 7.45642 123.639C10.2776 124.849 12.2399 127.159 12.5158 129.775C11.3747 126.199 7.6633 123.584 3.45658 122.845C3.4127 122.839 3.40016 122.884 3.43777 122.901C7.76988 124.294 10.6789 127.848 10.4343 131.812C9.90772 129.741 8.6664 127.715 7.28087 126.293C7.2558 126.271 7.21191 126.299 7.23072 126.326C8.54101 128.237 8.89836 130.274 8.66013 132.395C8.27143 128.159 5.40635 124.783 1.05543 122.712C1.02408 122.695 0.986465 122.734 1.01781 122.756C4.05217 125.011 6.12105 128.392 6.53482 131.818C7.04891 136.099 4.77314 138.531 0.541344 140.386C-0.223515 140.719 0.259223 141.407 0.767039 142.19C3.75751 146.194 5.04272 151.219 2.1651 155.594C1.40651 156.743 0.472381 157.743 -0.587136 158.609C1.90806 155.744 3.30612 152.074 3.14312 148.531C3.14312 148.498 3.08042 148.498 3.08042 148.531C2.88607 151.457 1.57578 154.328 -0.624752 156.571C2.29049 153.195 2.82965 148.964 1.58205 144.916C1.57578 144.889 1.51309 144.894 1.51936 144.922C2.04598 149.081 0.346994 153.301 -3.08233 156.288C-4.49293 157.515 -6.24834 158.454 -8.12914 159.07C-5.74053 157.776 -3.62149 155.927 -2.29866 154.311C0.804655 150.519 2.04598 145.511 -0.0228968 141.157C-0.0354357 141.13 -0.0855894 141.13 -0.0855894 141.163C-0.0354347 145.549 -0.624752 149.842 -3.76569 153.462C-5.17002 155.078 -6.80631 156.538 -8.90654 157.46C-10.7497 158.27 -12.9001 158.637 -14.9753 158.642V165C-14.6618 165 -14.3483 165 -14.1665 164.994C-6.90035 164.845 1.09304 162.074 4.28413 156.077C6.65394 151.618 5.85147 145.727 1.66355 142.312C9.82622 142.801 17.1864 137.182 16.3526 129.925C15.6191 123.545 7.87646 119.475 1.03662 122.312H1.01154Z" fill="#FFDCC0" fill-opacity="0.8"/>
    <path d="M7.98337 35.5143C6.45993 34.9702 4.8299 34.948 3.24376 35.2645C3.08703 31.5776 -0.411259 29.1289 -4.46751 29.3066C-4.63679 26.5636 -7.20094 20.689 -14.1223 20.5557V23.1543C-12.2791 23.1987 -10.3481 23.7984 -8.66797 25.0644C-7.05675 26.2749 -7.4141 28.1128 -7.10063 29.8951C-6.83105 31.4221 -5.71511 31.5664 -5.12579 31.3999C-1.57735 30.3949 1.87705 32.3216 2.76102 35.3755C1.92093 35.5809 1.09338 35.8697 0.309715 36.2306C0.328523 35.2978 -0.254525 34.315 -1.057 33.7264C-2.72464 32.4993 -4.7371 32.6881 -6.62416 33.2933C-6.97525 32.0828 -9.01905 27.7852 -14.0157 27.7852C-14.0533 27.7852 -14.0847 27.7852 -14.1223 27.7907V28.9567C-14.0847 28.9567 -14.0533 28.9512 -14.0157 28.9512C-11.182 28.9512 -8.69304 32.105 -8.15388 35.059C-8.09119 35.4033 -7.15079 35.8031 -6.1665 35.2922C-4.17913 34.2539 -0.781148 34.4427 -0.398719 36.5804C-1.55855 37.1856 -2.61179 37.9186 -3.48323 38.6904C-5.00668 40.0397 -6.04112 41.5888 -6.73074 43.2546C-6.84359 43.2213 -6.96898 43.1935 -7.1069 43.188C-10.7933 43.0158 -13.4264 45.5478 -13.884 48.685C-14.5799 53.4602 -9.75256 58.8129 -14.0909 63.0161C-14.1097 63.0383 -14.0847 63.0772 -14.0533 63.055C-11.8277 61.6502 -10.9688 59.5347 -10.9688 57.1582C-10.9688 54.9427 -12.2854 50.1786 -11.0252 47.4801C-11.6334 50.8671 -10.5362 54.7262 -10.0974 57.9522C-10.0848 58.0299 -9.94691 58.0688 -9.92183 57.9744C-9.31371 55.3369 -8.88112 52.5662 -7.99088 49.9565C-8.17896 55.5146 -7.62099 64.8485 -14.1097 64.9706V66.1811H-13.8966C-6.87494 66.1811 -6.56774 56.8584 -6.37339 51.5168C-6.2292 47.5856 -5.87185 43.5655 -2.73718 40.5116C-1.78424 39.5843 -0.643224 38.7681 0.623181 38.1795C0.127904 38.6182 -0.342295 39.068 -0.818764 39.4955C-3.99104 42.344 -5.69003 46.464 -5.90946 50.4229C-5.90946 50.4563 -5.85931 50.4563 -5.84677 50.4285C-4.61171 47.5856 -3.734 44.5705 -1.22 42.3384C-0.285872 41.5055 0.629451 40.8947 1.78301 40.6393C0.466449 41.5166 -0.687108 42.6494 -1.66512 43.9487C-4.9816 48.3352 -4.90637 53.7378 -6.31697 58.6907C-6.32951 58.724 -6.26681 58.7407 -6.25427 58.7074C-4.62425 53.5823 -2.95661 45.4367 2.85506 43.2102C-0.0100212 45.3201 -1.95978 48.3241 -3.1635 51.7111C-5.51449 58.2965 -5.87185 69.4238 -13.8151 69.4238C-13.9154 69.4238 -14.0032 69.4127 -14.1035 69.4127V70.6731C-14.0533 70.6731 -14.0032 70.6731 -13.953 70.6731C-6.66178 70.6731 -5.13206 63.1661 -3.43307 57.7912C-2.22936 53.9766 -1.24508 49.6567 1.88959 46.6639C3.4005 45.2202 5.32518 43.2601 7.60722 43.5044C10.1902 43.7821 11.3688 42.0497 10.8986 41.2168C12.9361 39.1346 10.6353 36.4583 8.00845 35.5199L7.98337 35.5143Z" fill="#FFDCC0" fill-opacity="0.8"/>
    <path d="M-2.04757 24.1149C-1.26391 24.1149 -0.442623 23.8151 0.115347 23.3209C0.673318 22.8267 1.04321 22.0827 1.01186 21.4053C0.93663 19.9394 -0.329776 18.6956 -2.04757 18.6956C-2.83124 18.6956 -3.65252 18.9955 -4.21049 19.4896C-4.76846 19.9838 -5.13835 20.7279 -5.10701 21.4053C-5.03177 22.8711 -3.76537 24.1149 -2.04757 24.1149Z" fill="#FFDCC0" fill-opacity="0.8"/>
    <path d="M5.83926 -4.3253C7.13074 -5.78562 7.7514 -7.46805 7.98337 -9.22266H6.09003C5.97718 -8.20654 5.71387 -7.20152 5.21233 -6.2687C3.82054 -3.68676 1.36296 -2.85942 -1.60243 -2.54293C-1.9159 -2.53182 -2.00367 -2.3819 -1.98486 -2.28751C-1.57109 0.438797 -5.97216 7.87367 -12.7932 7.87367C-13.2383 7.87367 -13.6834 7.84591 -14.1223 7.79038V9.84483C-13.6897 9.8837 -13.2446 9.90591 -12.7932 9.90591C-3.70266 9.90591 -0.110333 0.77195 -1.27016 -2.1598C1.21876 -1.13258 4.23431 -2.52627 5.83926 -4.33085V-4.3253Z" fill="#FFDCC0" fill-opacity="0.8"/>
    <path d="M16.8733 63.738C16.8168 63.8046 16.9422 63.899 17.0112 63.8324C22.2273 58.9961 26.8666 52.4274 28.4151 45.781C30.6094 36.3417 19.0111 32.5493 16.2401 37.9741C16.2275 38.0019 16.2526 38.0297 16.2589 38.0574C16.2463 38.4683 16.4219 38.8792 16.8795 39.2235C22.7037 43.5545 21.1991 49.1126 19.381 54.9594C19.3747 54.9872 19.4186 54.9927 19.4374 54.9705C21.3496 52.2442 22.6473 48.8127 22.7915 45.4312C22.8479 46.0531 22.8793 46.675 22.8793 47.2858C22.8793 50.6062 21.6505 53.8544 19.9076 56.7695C19.8888 56.8029 19.939 56.8251 19.964 56.7973C22.6473 53.1326 24.3087 48.896 24.7914 44.5262C24.8353 44.143 24.8729 43.6877 24.8917 43.1991C24.9921 43.6544 25.0673 44.0653 25.1049 44.3707C25.3933 46.625 25.1174 48.9071 24.3965 51.0782C22.8229 55.8312 20.5784 59.2848 16.8733 63.7324V63.738Z" fill="#FFDCC0" fill-opacity="0.8"/>
    <path d="M26.3211 59.6013C26.8979 58.7073 27.4371 57.7967 27.9574 56.875C27.97 56.8639 27.9762 56.8472 27.9888 56.8361C27.9762 56.8472 27.97 56.8583 27.9574 56.8694C30.5279 52.3219 32.4087 47.4634 33.6625 42.505C35.1484 36.6304 35.7565 30.3171 33.2926 24.5813C31.2363 19.8006 27.0985 15.6306 21.3496 14.3202C16.052 13.1153 9.92684 14.4035 6.75456 18.5679C4.10891 22.0382 3.70767 27.1133 6.58529 30.5725C9.56322 34.1539 16.0959 35.3311 19.7885 31.9162C22.6849 29.2344 22.0078 23.5874 18.7478 21.5774C19.1866 21.5163 19.7258 21.5496 20.3966 21.7162C22.7476 22.3103 24.6347 24.387 25.8948 26.1416C28.2709 29.4453 29.1674 33.7264 28.3085 37.5576C28.3023 37.591 28.3587 37.6076 28.3712 37.5743C30.3523 31.4332 28.622 24.6146 22.804 20.4946C20.5346 18.8899 15.2934 18.2347 12.3217 21.1943C11.5067 22.0049 10.9989 23.3486 10.9989 24.5758C10.955 24.87 10.955 25.1643 10.9989 25.4586C10.535 24.5147 10.4723 23.3986 10.8171 22.4047C12.1963 18.3791 17.7071 17.2686 21.801 18.1848C21.8386 18.1959 21.8574 18.1403 21.8198 18.1292C18.7541 17.2741 15.4627 16.9521 12.6477 18.6123C10.5475 19.8505 9.05541 21.9772 9.13064 24.2482C9.1996 26.558 10.8234 28.8068 13.212 29.773C13.2935 29.8063 13.3812 29.834 13.469 29.8618C11.7575 29.8118 10.071 28.8734 9.16825 27.6463C6.29063 23.7262 9.51307 18.5846 14.0646 17.202C19.5252 15.5417 25.3055 17.9904 28.5781 21.905C31.9259 25.9084 32.8412 30.939 32.5529 35.8086C31.4432 54.604 17.8262 75.154 -3.87195 79.8626C-3.90957 79.8737 -3.89703 79.9237 -3.85314 79.9181C9.30618 77.4028 19.6757 69.8957 26.3337 59.5957L26.3211 59.6013Z" fill="#FFDCC0" fill-opacity="0.8"/>
    <path d="M34.8286 82.8055C34.791 82.8166 34.8036 82.8665 34.8474 82.861C42.4271 81.8782 48.8281 77.8304 55.1162 74.2101C62.9529 69.6959 71.0654 66.1977 80.5571 65.6147C85.0899 65.3371 90.3185 65.3926 94.2306 67.7247C97.9107 69.918 99.7977 74.0935 99.0141 77.9414C98.2931 81.4951 95.0832 84.5545 91.1962 85.5706C88.4816 86.2814 85.1212 86.0481 83.2028 84.0048C82.3439 83.0942 81.9301 82.1503 82.1307 81.0453C83.2341 83.916 86.7011 85.5095 90.2307 84.9709C94.0926 84.3824 97.29 81.5284 98.0674 78.1413C99.9106 70.1456 89.5975 65.326 82.0116 67.0862C81.8862 67.1139 81.905 67.2972 82.043 67.2916C86.4315 67.014 91.3905 68.0301 93.8732 71.1007C92.0112 69.5737 89.422 68.8075 86.8641 68.4243C86.8327 68.4243 86.8077 68.4576 86.839 68.4743C88.8891 69.346 90.8263 70.451 92.0864 72.1168C92.751 73.7215 93.2149 75.526 92.6444 77.1141C92.6005 77.1918 92.5629 77.2696 92.5128 77.3528C92.5817 77.1196 92.6319 76.8864 92.657 76.6477C93.0519 72.933 89.4345 70.3066 85.93 69.0296C76.062 65.4315 66.0123 69.9069 57.3543 73.9602C57.3167 73.9769 57.3543 74.0213 57.3857 74.0102C63.6237 71.3006 70.6391 68.9851 77.6921 69.7403C79.2907 69.9124 81.3847 70.4121 83.3094 71.1839C79.6732 70.1401 75.4539 70.0901 72.0622 70.3566C72.0246 70.3566 72.0246 70.4066 72.0622 70.4066C75.4978 70.7342 80.6951 71.1062 83.1088 73.6326C83.7106 74.2656 84.0617 75.0152 84.4065 75.7426C84.2874 75.7537 84.1683 75.7704 84.0492 75.787C83.3219 72.6998 77.7924 71.456 74.6577 71.4172C67.9746 71.3339 61.2664 73.1995 55.4171 75.9425C55.3043 75.998 55.3795 76.1757 55.5049 76.1313C60.5454 74.4877 65.9998 73.2939 71.4039 73.4661C73.2408 73.5216 75.1467 73.6715 76.8959 74.2156C78.9208 74.8431 79.7484 75.8814 80.6136 77.3917C80.4944 77.5028 80.3691 77.6138 80.2625 77.736C77.3222 81.0953 79.2907 85.7317 83.2091 87.6695C93.3403 92.689 104.732 82.128 102.073 73.2162C100.475 67.8635 96.1991 65.1428 91.052 64.0267C91.1272 63.7768 91.1398 63.5048 91.052 63.1994C89.9486 59.468 85.7607 57.7967 81.6605 58.3908C79.7609 58.6685 77.9679 59.3403 76.2438 60.2065C80.2123 57.3636 85.2529 55.8311 90.4313 56.3364C93.2463 56.6085 104.048 59.7457 104.487 63.2382C104.587 64.0434 112.098 60.9506 107.804 52.9993C106.011 49.6844 102.08 48.1575 98.0737 47.8521C96.7195 47.7466 95.4029 47.7799 94.1177 47.9187C94.055 47.7244 93.9422 47.53 93.7666 47.3357C91.1084 44.4373 85.955 44.2984 82.3 45.5866C77.1466 47.4023 74.0433 51.6112 71.1908 55.5868C64.3697 65.1094 55.298 72.1445 44.2514 77.6693C44.2264 77.686 44.2452 77.7304 44.2765 77.7193C53.1727 74.4822 60.9279 69.1017 67.2536 62.7163C71.7487 58.1799 77.6607 47.7521 85.1526 47.2246C80.6449 49.3069 76.7391 52.916 74.3442 56.7251C74.3254 56.7528 74.3693 56.7862 74.3944 56.7584C76.1811 54.8317 78.3754 53.1937 80.8267 51.9776C82.2436 51.2725 83.7169 50.9115 85.2341 50.6617C80.764 52.9271 76.8081 56.2198 73.3537 59.3903C73.3223 59.4181 73.3662 59.4514 73.3976 59.4292C79.0337 55.4646 85.6917 50.8227 93.1209 50.2508C97.6411 49.9065 102.744 51.589 104.732 54.7484C99.4654 49.1625 89.7981 51.5834 82.789 54.6373C82.7577 54.6484 82.7828 54.6984 82.8141 54.6873C87.3594 53.1326 94.1867 51.9166 98.6567 54.0821C96.4311 53.5546 94.0299 53.4935 91.8294 53.8211C91.8043 53.8211 91.798 53.8655 91.8294 53.8711C93.5597 54.0821 94.9829 54.5429 96.2618 55.1926C94.2682 54.6817 92.193 54.4263 90.1179 54.4652C84.2686 54.5818 78.8644 56.9805 75.0652 60.8229C72.3945 62.311 69.8805 64.1544 67.3978 65.5648C67.3665 65.5814 67.3978 65.6314 67.4292 65.6147C70.8146 64.0489 79.5917 59.307 84.4065 60.6785C80.3941 60.3453 75.0715 62.6885 72.5888 64.271C72.5575 64.2932 72.5888 64.3376 72.6202 64.321C75.3222 63.0606 78.551 62.4886 81.5602 63.1105C81.9803 63.1994 82.3878 63.3104 82.789 63.427C79.3534 63.5769 75.9366 64.1322 72.9587 64.8596C58.7085 68.341 48.8406 78.8909 34.8286 82.8055ZM90.4815 48.6128C90.4815 48.6128 90.4815 48.585 90.4815 48.5739C90.5003 48.585 90.5128 48.5906 90.5317 48.6017C90.5128 48.6017 90.494 48.6128 90.4815 48.6183V48.6128Z" fill="#FFDCC0" fill-opacity="0.8"/>
    <path d="M113.622 16.3413C101.685 13.6928 91.0645 21.7717 85.3093 30.1728C85.2905 30.195 85.3344 30.2283 85.3532 30.2061C89.8044 25.5975 94.7948 20.95 101.434 18.9288C105.471 17.6962 109.979 17.5129 113.904 18.7622C103.377 16.7633 91.8043 23.965 86.5819 31.4943C86.5631 31.5276 86.6133 31.5498 86.6384 31.522C89.6038 27.8962 93.9923 24.4703 98.9325 22.4714C96.6505 23.7373 94.638 25.3032 93.102 27.0022C93.077 27.03 93.1146 27.0633 93.1459 27.0411C95.8417 24.9311 98.9325 23.4875 102.462 23.0322C97.2273 25.0033 92.4689 28.5014 89.748 31.9885C89.7292 32.0107 89.773 32.044 89.7918 32.0218C94.4813 27.4909 101.359 24.1649 108.474 24.6979C108.675 24.7146 108.882 24.7313 109.083 24.759C105.885 25.0311 102.657 26.1416 100.136 27.4742C94.5252 30.4393 91.1586 34.948 87.9299 39.8287C87.911 39.862 87.9612 39.8842 87.9863 39.8564C90.9579 35.9252 94.9139 31.7886 99.8855 29.8063C102.412 28.7957 104.656 28.6625 106.832 29.0511C105.446 30.9501 105.252 33.521 106.23 35.6198C107.785 38.968 112.017 40.4506 115.891 39.9564C119.935 39.44 123.163 36.9469 124.725 33.6598C128.367 26.0194 122.148 18.2348 113.622 16.3413Z" fill="#FFDCC0" fill-opacity="0.8"/>
    <path d="M75.9429 76.8643C75.8301 76.7588 75.7172 76.681 75.6169 76.62C75.5667 76.1313 75.2596 75.6705 74.5825 75.4872C66.1628 73.1774 56.3826 75.6538 48.966 79.3851C48.9409 79.4018 48.9597 79.4462 48.9911 79.4351C56.1256 77.0086 64.9653 75.3873 72.4384 77.6305C72.2001 77.6305 71.9556 77.6749 71.7236 77.7638C69.241 78.7632 65.749 78.3801 63.0594 78.4412C60.0063 78.5134 56.9594 78.5189 53.9062 78.6966C53.8749 78.6966 53.8623 78.741 53.8999 78.7466C58.6019 79.6461 63.3854 80.2902 68.1313 81.0231C68.7833 81.1231 69.5545 81.2175 70.3068 81.2286C68.6956 81.8782 66.8524 82.0448 65.0907 81.9171C58.627 81.4618 52.1383 78.2191 46.0696 81.7394C45.9881 81.7838 46.0382 81.9171 46.1385 81.8838C50.2387 80.4679 54.1507 81.5229 58.0879 82.6778C55.5112 82.4835 52.9282 82.3169 50.3515 82.1392C50.2825 82.1392 50.2763 82.2225 50.339 82.2391C53.4799 83.2164 56.6083 84.2381 59.7806 85.1487C60.0188 85.2153 60.257 85.2875 60.4953 85.3597C58.7461 85.1098 56.9782 84.6601 55.3168 84.3103C50.991 83.3996 46.5899 82.8388 42.2264 82.1114C42.1951 82.1114 42.17 82.1448 42.2014 82.1614C48.2137 84.7489 54.4579 86.92 61.1285 87.7528C64.4199 88.1637 70.4384 87.6973 70.8585 83.916C70.8585 83.8827 70.8585 83.8494 70.8585 83.8161C72.244 83.3552 73.5041 82.6389 74.5135 81.6228C75.4037 80.7288 77.3096 78.0803 75.9554 76.8532L75.9429 76.8643ZM67.774 84.4879C67.774 84.4879 67.774 84.438 67.774 84.4102C67.8053 84.4102 67.8304 84.4046 67.8617 84.4046C67.8367 84.4324 67.8053 84.4602 67.774 84.4879ZM73.5229 78.0359C73.5229 78.0359 73.4791 77.9859 73.454 77.9637C73.4853 77.9748 73.5167 77.9859 73.548 77.9914C73.5418 78.0025 73.5292 78.0192 73.5229 78.0303V78.0359Z" fill="#FFDCC0" fill-opacity="0.8"/>
    <path d="M85.4911 -2.85428C83.0649 1.82097 83.6103 6.77385 85.2968 11.5435C84.7012 11.8322 84.1495 12.1376 83.6605 12.4486C78.6763 15.608 75.0589 21.6103 74.6702 26.9963C74.6702 27.024 74.7141 27.0296 74.7267 27.0074C76.7517 23.7591 78.062 20.2888 80.5885 17.3737C80.0368 18.1233 79.5541 18.9284 79.1779 19.8224C79.1654 19.8557 79.2155 19.8668 79.2343 19.8446C80.6574 18.201 82.4254 16.6907 84.5068 15.7079C85.2027 15.3803 85.8861 15.1804 86.5694 15.0472C85.1149 16.1299 83.8172 17.3903 82.7514 18.512C79.4851 21.9323 77.4852 26.2855 75.9304 30.4999C75.9178 30.5277 75.968 30.5443 75.9868 30.5221C78.2751 26.2522 81.2593 21.1328 85.93 18.5508C86.2184 18.3954 86.5005 18.251 86.7951 18.1122C85.4535 19.4281 84.2561 20.9051 83.1652 22.5154C80.8894 25.8635 79.1027 29.6004 76.1937 32.5433C72.1688 33.9758 68.5639 36.8521 67.2724 40.5445C67.1784 40.8166 67.5859 40.9221 67.7552 40.7277C69.6924 38.479 71.7989 36.5689 74.7831 35.4306C75.2784 35.2418 77.8363 34.6366 80.0431 34.4534C78.9835 34.7976 77.9554 35.264 76.9523 35.6916C74.5699 36.7021 72.5826 37.9015 70.6203 39.4562C70.5952 39.4784 70.6265 39.5173 70.6579 39.5006C72.8083 38.2346 75.3223 37.2685 77.9115 37.0408C78.808 36.9631 79.6293 36.9464 80.438 37.1019C72.9336 38.9343 66.5076 44.7756 61.7805 49.7617C61.4294 50.1282 61.0846 50.5002 60.7398 50.8723C62.7334 48.0627 64.5578 45.1254 66.2004 42.0715C70.5137 34.0314 73.6295 25.5193 75.7987 16.8351C77.9679 8.1731 79.6669 -1.21628 76.5072 -9.86716C76.4946 -9.91158 76.4695 -9.95045 76.457 -9.99487H74.0496C75.3411 -6.96873 75.9931 -3.73159 76.1749 -0.466684C76.7517 10.1109 73.4415 21.1716 69.5984 31.1107C64.8964 43.2708 57.4609 55.3088 47.3046 64.8703C45.6119 66.3972 43.8314 67.8686 41.9193 69.2512C28.2835 79.1292 11.7575 84.4875 -5.53958 85.9755C-5.50823 86.1643 -5.50823 86.3531 -5.52704 86.5475C10.4786 86.1366 26.4277 80.9283 39.3927 72.7771C47.3234 67.7909 53.599 61.622 59.6803 54.9645C61.4169 53.06 63.1786 51.1332 65.0594 49.312C61.9435 52.8934 59.1035 56.6525 56.0817 60.295C50.0318 67.5744 42.5274 75.0259 32.3836 77.6245C32.346 77.6356 32.3585 77.6856 32.4024 77.68C41.8378 75.248 49.1415 69.9342 55.5801 63.4932C59.1223 59.9507 62.3886 56.1972 65.8179 52.5713C66.1753 52.1993 66.5264 51.8218 66.89 51.4497C64.1315 55.12 61.5235 58.8791 58.4515 62.355C49.9628 71.9498 38.4523 78.2408 25.6378 82.322C25.4936 82.3664 25.55 82.5496 25.7005 82.5219C37.7815 80.3564 48.9911 74.1986 57.3606 66.2695C61.9623 61.9052 65.5484 56.8579 69.4416 52.005C71.6108 49.3064 73.9054 46.6745 76.5385 44.3091C77.3347 43.5984 78.1685 42.9599 79.0274 42.3657C77.272 43.765 75.6984 45.2864 74.3066 46.991C74.2878 47.0132 74.3317 47.0466 74.3505 47.0243C76.2188 45.2642 78.2814 43.6373 80.67 42.449C82.1872 41.6883 83.9175 41.2219 85.3093 40.278C86.7951 39.2674 87.8609 37.5017 87.5224 35.9137C87.6101 31.5494 82.4066 31.1385 78.576 31.8881C80.3691 30.3056 81.8424 28.4066 83.2153 26.4854C85.4535 23.3482 87.7481 20.3665 90.8827 18.1733C90.0865 18.8174 89.3091 19.4726 88.5756 20.1833C86.1995 22.4709 84.5006 25.0806 83.0774 27.9124C83.0586 27.9458 83.115 27.9735 83.1338 27.9402C85.6729 23.3149 89.7354 19.9889 94.8387 17.6624C97.4091 16.4908 99.7538 13.9533 97.3778 12.0099C95.7289 9.59455 92.4626 9.39466 89.3154 10.1276C88.9769 6.14641 88.8201 2.49283 91.7416 -1.02749C93.5096 -3.15967 97.0706 -5.61946 100.017 -3.38178C102.657 -1.3773 101.804 1.95423 100.412 4.29186C99.4216 5.96318 102.149 7.42905 103.622 6.91266C112.148 5.53008 116.242 -3.13746 114.242 -9.99487H94.7321C90.5881 -9.03428 87.3092 -6.30242 85.5225 -2.84873L85.4911 -2.85428ZM92.2181 -5.80824C94.0989 -6.64113 96.1427 -6.85213 98.0172 -6.40792C96.7007 -6.469 95.334 -6.20248 94.055 -5.59169C88.4189 -2.90426 85.1526 5.18582 88.3311 10.3775C87.4033 10.6495 86.5005 10.9882 85.6729 11.3658C84.6761 4.77493 85.1714 -4.68663 93.5409 -7.40738C94.7321 -7.79606 95.9295 -7.93487 97.0706 -7.87935C95.3151 -7.52954 93.6412 -6.81881 92.193 -5.85822C92.1617 -5.83601 92.193 -5.79159 92.2244 -5.80824H92.2181Z" fill="#FFDCC0" fill-opacity="0.8"/>
    <path d="M78.2187 13.2874C78.2124 13.3207 78.2688 13.3374 78.2814 13.3041C81.09 6.21902 81.3408 -2.00432 79.4663 -10H77.5541C80.7013 -1.54901 79.2719 8.49002 78.225 13.2874H78.2187Z" fill="#FFDCC0" fill-opacity="0.8"/>
    <path d="M128.11 -7.73456C127.508 -8.56744 126.812 -9.33369 126.029 -10H124.455C124.624 -9.60022 124.687 -9.23375 125 -8.76733C124.543 -9.21709 124.029 -9.62243 123.483 -10H122.242C125.533 -6.74065 127.351 -2.40965 125.652 1.97687C125.308 2.86527 124.825 3.69816 124.236 4.46441C126.298 0.122311 125.025 -4.45855 121.596 -7.93445C121.571 -7.95666 121.527 -7.9289 121.546 -7.90113C124.305 -4.30308 124.355 3.85363 119.101 6.76317C122.16 2.11568 122.555 -3.43688 121.333 -5.46356C121.308 -5.50798 121.233 -5.51353 121.22 -5.46356C120.468 -2.59844 119.747 0.011261 117.979 2.55433C117.27 3.57045 116.512 4.59767 115.584 5.47498C117.208 3.24285 118.361 0.538754 119.026 -1.44351C119.96 -4.23645 120.211 -7.1682 119.653 -10H117.27C118.211 -5.63014 118.11 1.82695 109.584 8.06802C108.431 8.91201 109.396 10.1669 110.167 10.6611C118.549 16.0026 127.483 10.7999 126.969 5.04188C126.969 4.97525 127.032 4.91972 127.063 4.85864C127.17 4.8753 127.289 4.88085 127.414 4.8753C134.743 4.64209 136.655 -4.70286 133.614 -10H127.126C127.539 -9.28372 127.872 -8.52857 128.104 -7.73456H128.11Z" fill="#FFDCC0" fill-opacity="0.8"/>
    <path d="M15.8388 87.192C15.7824 87.2198 15.82 87.3031 15.8827 87.2864C21.4938 85.9316 26.923 84.6989 32.7911 84.86C38.7658 85.021 44.1888 86.3814 49.7246 88.2581C53.8185 89.6463 58.7712 91.2232 63.5673 91.573C57.7431 92.0061 51.5427 90.0239 46.1511 88.1693C46.1197 88.1582 46.1009 88.2026 46.126 88.2193C53.4548 91.8506 62.6833 95.8929 70.8773 93.1777C70.5701 93.3832 70.2378 93.5775 69.8491 93.7274C67.3539 94.7269 64.5641 94.688 61.8745 94.6769C61.8432 94.6769 61.8369 94.7213 61.8683 94.7269C63.7992 95.2099 65.7991 95.6819 67.8053 95.8096C66.959 95.8874 66.1126 95.8874 65.3101 95.8152C61.0219 95.4154 56.7964 93.7441 52.9658 92.0839C46.9661 89.4853 41.3676 86.3203 34.6155 85.5874C34.5779 85.5874 34.5779 85.6373 34.6155 85.6429C39.8316 86.237 44.3643 88.9689 48.7278 91.3731C52.8906 93.6663 57.1537 95.9262 61.8244 97.3366C64.7396 98.2194 68.0248 98.6636 71.0403 98.014C70.4385 98.2639 69.7927 98.4693 69.0905 98.6081C69.0655 98.6081 69.0592 98.6525 69.0905 98.6581C70.2566 98.8191 71.4604 98.8025 72.6264 98.6081C66.7709 100.446 59.0722 97.5365 54.063 95.371C54.0253 95.3543 53.994 95.3987 54.0316 95.4209C58.464 97.7142 63.2914 100.329 68.4009 100.918C67.8429 101.018 67.285 101.118 66.727 101.246C66.6957 101.251 66.6957 101.29 66.727 101.301C68.0248 101.684 69.567 101.973 71.172 102.095C64.4074 102.378 58.1129 98.9968 52.784 95.6375C47.756 92.4725 42.7782 88.5191 36.7909 86.8533C30.6846 85.1598 24.5908 85.7595 18.6162 87.5308C18.5785 87.5419 18.5911 87.5918 18.635 87.5863C28.3336 85.4485 37.1608 87.925 45.0978 92.8779C49.5553 95.6597 53.8811 98.858 58.7211 101.123C55.7745 100.063 53.0285 98.5803 50.3954 97.0312C45.3611 94.0661 40.5964 91.0122 34.9728 88.9633C34.9415 88.9522 34.9164 89.0022 34.9478 89.0133C41.2359 91.623 46.0946 96.2205 51.5678 99.8908C52.5709 100.563 53.6743 101.268 54.8529 101.945C51.2668 100.229 47.9441 97.9029 45.173 95.8818C39.0981 91.4453 32.6156 87.3864 24.3839 87.9528C24.3463 87.9528 24.3463 88.0083 24.3839 88.0083C33.6124 87.5419 40.5463 94.1994 47.6306 99.9296C47.1103 99.5854 46.5962 99.2411 46.0884 98.8913C40.7594 95.2211 35.7064 91.523 29.3555 89.3187C29.3242 89.3076 29.2991 89.3576 29.3304 89.3687C37.6624 92.6946 44.1574 100.829 51.9941 105.571C48.7278 103.85 45.8 101.623 42.9725 99.3688C36.001 93.8163 28.2208 87.4197 18.1585 88.1415C18.1209 88.1415 18.1209 88.1915 18.1585 88.1915C30.4903 89.4741 37.6812 98.5915 46.9473 104.771C46.3266 104.466 45.7185 104.155 45.1041 103.839C39.9382 101.151 35.3992 97.4476 31.1799 93.7052C31.1486 93.6774 31.1109 93.7163 31.136 93.7441C35.6123 98.7858 39.8755 104.338 46.1448 107.786C46.7153 108.103 47.4237 108.469 48.2199 108.853C46.7655 108.542 45.3486 108.047 44.007 107.315C40.6341 105.471 37.7502 102.839 35.3177 100.091C35.2926 100.063 35.2487 100.096 35.2675 100.124C38.8348 105.515 44.2264 112.151 51.574 113.433C49.5114 113.506 47.3799 112.984 45.4865 111.823C41.4804 109.369 38.2517 105.56 35.8568 101.856C33.8757 98.7913 32.2457 95.4654 29.2364 93.0444C26.0453 90.4847 22.0706 89.8517 17.9641 89.2743C17.9265 89.2743 17.9077 89.3187 17.9453 89.3298C20.7853 89.9461 23.7257 90.8012 26.177 92.2393C28.9104 93.844 30.5279 96.2372 32.0075 98.7525C33.8067 101.823 35.6813 104.771 38.026 107.476C35.0543 105.105 32.5529 102.306 30.9354 99.0412C30.9229 99.0135 30.8664 99.0357 30.879 99.0634C32.2081 103.206 34.3146 107.02 37.3803 110.102C34.5152 108.342 32.3209 105.876 31.1924 102.401C31.1862 102.373 31.1235 102.378 31.1297 102.406C31.8633 107.403 34.6719 112.29 39.2297 115.205C38.0574 114.711 37.0104 114.111 36.2581 113.522C32.7723 110.807 31.2301 106.726 30.6157 102.767C30.1893 100.013 30.1016 97.0756 28.1769 94.738C26.5155 92.728 24.0266 91.9672 21.4938 91.151C21.4624 91.1399 21.4374 91.1899 21.4687 91.201C23.7507 92.2393 26.2647 93.4831 27.4998 95.5764C28.7913 97.7697 28.6032 100.44 28.8916 102.839C29.3493 106.609 30.5906 110.402 33.324 113.395C36.9101 117.315 46.7592 121.201 50.4518 115.26C50.4644 115.238 50.4706 115.216 50.4832 115.194C50.8468 115.216 51.2167 115.227 51.5991 115.21C55.367 115.066 58.6333 113.239 60.5831 110.43C60.6207 110.374 60.652 110.318 60.6708 110.268C62.2507 110.452 63.8494 110.474 65.4481 110.291C69.6423 109.797 74.4947 107.575 74.9148 103.444C77.9554 102.684 80.5822 101.046 81.9678 98.2028C84.3564 93.2943 81.391 88.1082 76.0056 86.1815C75.7172 86.0815 75.4727 86.1037 75.2846 86.2037C75.1154 86.237 74.9524 86.3036 74.7894 86.4258C65.1158 93.8329 53.4924 87.0532 43.1857 84.7101C34.4149 82.7167 23.7758 83.0776 15.8075 87.1809L15.8388 87.192ZM47.988 114.916C48.0193 114.872 48.0381 114.827 48.0632 114.783C48.0695 114.783 48.082 114.783 48.0883 114.788C48.0507 114.827 48.0193 114.872 47.9817 114.91L47.988 114.916Z" fill="#FFDCC0" fill-opacity="0.8"/>
    <path d="M1.72658 99.6353C-0.336029 94.6935 -6.63671 94.4936 -10.7557 97.442C-10.7807 97.4642 -10.7494 97.5031 -10.718 97.4864C-6.96898 95.3876 -0.724728 96.3815 0.209402 100.774C0.61064 102.673 -0.492764 104.721 -2.52403 105.51C-3.85312 106.026 -5.53957 105.982 -6.61163 104.971C-6.97525 104.621 -7.20722 104.238 -7.32006 103.822C-7.21976 103.977 -7.10691 104.122 -6.98779 104.249C-5.79035 105.493 -3.5522 105.999 -2.01621 104.966C-0.448878 103.911 -0.0664492 101.829 -0.79996 100.279C-1.5899 98.6136 -3.29515 97.8363 -5.23865 97.6808C-5.27626 97.6808 -5.27626 97.7308 -5.23865 97.7363C-2.26698 98.0084 -0.279606 101.107 -1.94098 103.439C-2.51149 104.238 -3.57727 104.56 -4.5114 104.333C-4.14151 104.333 -3.73401 104.249 -3.30769 104.038C-1.30151 103.05 -1.80305 100.59 -3.69012 99.8296C-4.13524 99.6519 -4.55529 99.5464 -4.95653 99.4965C-5.34522 98.658 -6.12889 97.914 -7.01914 97.5031C-8.12254 96.9923 -9.33879 97.1977 -10.461 97.5198C-10.4923 97.5309 -10.4923 97.5753 -10.4547 97.5753C-8.79336 97.5364 -7.57711 98.5581 -6.90629 99.7741C-9.61464 100.985 -10.2102 105.488 -6.59909 107.065C-1.38928 109.347 3.53842 103.972 1.73285 99.6353H1.72658Z" fill="#FFDCC0" fill-opacity="0.8"/>
    <path d="M-5.87186 90.3958C-5.77782 90.5401 -5.70259 90.6901 -5.64617 90.8511C1.32533 87.8249 10.7544 87.7139 16.9987 91.1065C21.0737 93.322 23.5062 97.1977 24.6974 101.207C25.4184 103.628 25.8321 106.487 24.3338 108.764C23.2617 110.391 21.7571 111.057 20.2336 111.012C21.8135 110.574 23.1677 109.508 23.8636 108.142C25.2052 105.521 24.3777 102.834 23.3808 100.252C23.3683 100.224 23.3119 100.224 23.3181 100.257C23.5877 102.262 23.5626 104.477 22.3527 106.259C21.6317 107.32 20.7038 107.892 19.5942 108.247C20.5408 107.253 21.2367 105.954 21.6818 104.916C22.8229 102.25 22.71 99.3021 21.406 96.6979C18.3716 90.6234 11.4566 89.5462 4.68569 89.8294C4.64807 89.8294 4.64807 89.8849 4.68569 89.8849C10.7293 89.6406 17.7071 91.1842 19.9703 96.7923C20.9358 99.191 20.7665 101.817 19.5377 104.116C19.3183 104.521 19.0362 104.888 18.729 105.232C20.5095 101.118 20.1835 96.3537 16.1272 93.2054C10.8296 89.0965 2.22184 90.2681 -3.56475 92.8667C-3.58983 92.8778 -3.57729 92.9166 -3.55221 92.9166C-1.2451 92.7723 1.09963 92.378 3.42555 92.1559C6.21541 92.2725 9.08676 93.3497 10.5099 95.4819C10.7857 95.8928 10.9926 96.3426 11.1306 96.8034C10.5412 95.9483 9.77012 95.1821 8.91749 94.5713C7.06804 93.2387 4.91139 92.8889 2.59173 93.061C2.55412 93.061 2.54785 93.1165 2.59173 93.1165C4.67315 93.1998 6.85488 94.2104 8.05232 95.7429C8.37206 96.1482 8.57894 96.5702 8.72314 97.0033C7.71378 95.9483 6.40349 95.1044 4.93646 94.5769C0.66078 93.0388 -3.87195 94.2382 -8.08494 95.2876C-8.12255 95.2987 -8.11001 95.3487 -8.06613 95.3431C-1.33914 94.3492 7.13073 94.5435 8.11501 102.034C8.27175 103.222 12.8421 105.543 14.2966 99.9962C15.3435 96.015 9.85789 92.6501 8.55387 92.1504C10.1839 92.3558 11.7826 92.8167 13.3186 93.7107C19.0989 97.0644 18.1459 103.633 14.4596 107.936C14.4596 107.936 14.4596 107.942 14.4596 107.947C14.0458 108.058 13.7198 108.408 13.8577 108.88C14.1837 110.013 14.842 110.885 15.6821 111.523C13.5254 112.911 10.8986 114.205 8.17771 113.556C6.81726 113.233 5.96463 112.628 5.44428 111.862C7.21223 112.873 9.58831 113.011 11.8014 112.023C11.8327 112.006 11.8139 111.962 11.7763 111.973C8.92376 112.823 6.2781 111.362 5.33143 109.113C7.50689 111.201 11.1556 111.812 13.9455 109.641C13.9643 109.624 13.9455 109.585 13.9141 109.597C10.14 110.946 5.85179 109.38 5.11201 105.682C4.97408 104.993 4.0086 105.066 3.6826 105.549C-1.92218 108.958 1.41937 116.337 6.79845 118.447C10.3594 119.841 14.0458 119.214 16.6789 117.298C15.1241 119.835 15.0364 122.784 17.0112 125.277C18.9296 127.698 22.6849 128.731 25.6253 127.215C26.365 128.187 27.2427 129.058 28.2709 129.752C32.8162 132.828 39.8253 131.701 42.17 126.909C42.17 126.909 42.17 126.909 42.17 126.904C42.7969 126.482 42.7029 125.521 41.844 125.299C38.2266 124.344 35.9947 122.778 33.8757 120.013C32.0388 117.614 30.7974 114.883 29.7818 112.14C28.8916 109.741 28.1267 107.331 27.2929 104.949C27.2866 101.162 25.293 97.07 23.0987 94.2992C16.7918 86.3258 3.23747 85.6317 -5.87813 90.4013L-5.87186 90.3958ZM8.60402 117.609C7.10565 117.237 5.82044 116.543 4.81735 115.66C7.91439 117.298 12.2152 117.176 15.0301 114.616C15.0552 114.594 15.0238 114.555 14.9925 114.577C12.7355 116.021 9.71996 116.482 7.19969 115.243C6.59157 114.944 6.10256 114.594 5.71386 114.2C6.05867 114.377 6.42856 114.533 6.82353 114.649C10.3406 115.665 13.7511 114.139 15.8953 111.707C16.9798 112.451 18.3403 112.811 19.7383 112.823C17.7572 116.476 13.1681 118.747 8.60402 117.614V117.609ZM27.1048 106.931C27.9637 110.524 28.7787 114.127 30.3398 117.537C31.0796 119.147 32.4149 121.607 34.1766 123.645C33.4118 123.234 32.6782 122.778 32.0137 122.29C28.5091 119.736 26.9606 115.971 26.6409 112.051C26.6409 112.023 26.5907 112.012 26.5845 112.045C25.7945 115.971 27.0359 119.88 29.8633 122.995C30.5028 123.7 31.5247 124.6 32.7159 125.416C29.5499 123.978 27.017 121.218 25.8196 118.353C25.8071 118.32 25.7506 118.331 25.7569 118.37C26.6409 122.401 30.1016 127.759 35.023 128.981C32.5591 129.03 29.9448 127.992 28.1581 126.299C24.5469 122.884 25.13 118.531 24.3087 114.3C24.3024 114.255 24.2209 114.25 24.2021 114.288C23.268 116.087 22.9044 118.181 23.0486 120.274C22.453 118.658 22.0517 116.993 22.0392 115.282C22.0392 115.255 21.9828 115.243 21.9765 115.277C21.5126 117.564 21.1615 119.946 21.9577 122.217C22.1019 122.634 22.3213 123.139 22.616 123.6C22.4279 123.456 22.2523 123.284 22.0956 123.073C21.6191 122.417 21.3057 121.634 21.0236 120.896C20.3841 119.219 20.1082 117.237 20.7603 115.538C20.7728 115.504 20.7226 115.493 20.7038 115.516C18.9421 117.659 18.8293 119.974 19.6819 122.495C19.707 122.562 19.7321 122.634 19.7572 122.706C18.7039 121.124 18.6036 118.941 18.6412 117.215C18.6412 117.181 18.5911 117.176 18.5785 117.209C17.9516 118.997 17.3184 120.591 17.8199 122.473C17.8638 122.651 17.9202 122.823 17.9829 122.995C16.9109 121.329 16.6162 119.075 17.1428 116.948C18.4343 115.876 19.4249 114.466 19.939 112.834C22.058 112.789 24.2209 111.918 25.55 110.252C26.3525 109.247 26.8478 108.125 27.0923 106.937L27.1048 106.931Z" fill="#FFDCC0" fill-opacity="0.8"/>
    <path d="M17.7071 -4.7366C15.6696 1.19909 19.0048 8.02874 25.2554 10.7439C25.3557 10.7884 25.4372 10.6662 25.3431 10.6107C19.9954 7.25693 17.1178 1.02696 19.5503 -4.55892C20.6411 -7.06312 22.4781 -8.84549 24.735 -9.99487H21.2743C19.638 -8.46237 18.3716 -6.66334 17.7071 -4.73105V-4.7366Z" fill="#FFDCC0" fill-opacity="0.8"/>
    <path d="M16.447 -9.22266H14.0584C13.632 -7.73457 13.4502 -6.14099 13.6571 -4.49188C9.09304 -4.24756 9.40651 2.55432 12.2591 5.81367C14.8295 8.75097 18.7039 11.294 22.9733 11.022C23.0047 11.022 23.0172 10.9775 22.9796 10.9664C18.1397 9.7893 14.2652 7.42391 13.1618 3.00408C14.2339 4.76424 15.5254 6.34671 16.0457 6.87421C16.0896 6.91863 16.1711 6.8631 16.1398 6.81313C15.2244 5.44165 14.4032 3.9147 14.2402 2.30445C14.1963 1.8547 14.2214 1.41049 14.2715 0.97184C14.7417 2.50435 15.4878 3.9258 16.5724 5.13071C16.6162 5.17513 16.6852 5.12515 16.6727 5.08073C14.6602 -0.427404 14.7354 -4.10875 16.3028 -8.82842C16.3467 -8.96169 16.3968 -9.08939 16.447 -9.2171V-9.22266Z" fill="#FFDCC0" fill-opacity="0.8"/>
    <path d="M7.76395 46.6472C4.31582 47.9077 2.14663 51.0449 2.77356 54.5763C3.33153 57.7301 7.45675 59.9012 10.5287 57.6357C11.5318 56.8973 11.9393 55.809 11.8578 54.754C12.6352 55.709 12.8358 57.0027 12.8296 58.1521C12.8108 60.6841 11.3437 63.0439 9.71371 65.054C6.74205 68.7186 2.71087 71.4116 -1.61497 73.7048C-1.75289 73.777 -1.65885 73.9991 -1.50212 73.9436C5.4443 71.506 12.5412 65.8979 14.2652 59.2293C14.9235 56.6807 14.5787 53.699 12.3782 51.7945C14.6038 51.9721 15.1304 54.7595 15.2746 56.4308C15.2746 56.4586 15.3185 56.4642 15.331 56.4364C16.3153 54.2209 15.7135 51.4224 13.5631 49.901C13.3437 49.7456 13.1117 49.6178 12.8672 49.5068C13.8452 49.5623 14.7731 49.9454 15.4815 50.8005C18.0582 53.8878 16.5974 58.985 14.8922 62.0833C10.9864 69.1795 2.99926 73.2828 -4.33586 77.2252C-4.69321 77.4195 -4.37974 77.8859 -4.00985 77.7193C4.7484 73.8381 14.0207 69.2461 17.9516 60.8174C19.5816 57.3192 20.4531 52.8383 18.2463 49.3624C16.3592 46.3863 11.3312 45.3424 7.75141 46.6472H7.76395Z" fill="#FFDCC0" fill-opacity="0.8"/>
    <path d="M17.751 11.9159C17.7823 11.9326 17.8137 11.8882 17.7823 11.8715C13.7637 9.40063 7.12446 6.96861 2.32216 9.15076C0.742286 9.86704 -0.580542 11.2941 -0.530388 12.9376C-0.492772 14.0426 0.0965453 15.2086 1.19995 15.5362C2.28454 16.4246 4.12145 16.5801 5.63236 16.3746C9.7325 15.8138 12.8546 12.9987 17.03 12.4879C17.0614 12.4879 17.0614 12.4379 17.03 12.4323C14.4094 11.9992 12.2841 12.7044 9.7952 13.4762C9.66981 13.5151 9.54443 13.5539 9.42531 13.5928C10.046 13.293 10.6478 12.9598 11.2434 12.5822C11.2936 12.5489 11.2685 12.4712 11.1995 12.4879C10.0272 12.771 8.81091 12.9876 7.58839 13.1264C9.62593 12.2546 11.7136 11.6716 14.19 11.6661C14.2903 11.6661 14.3091 11.5384 14.2151 11.5106C12.0083 10.8721 9.61966 10.5944 7.31881 10.8554C7.58839 10.7888 7.87678 10.7388 8.19025 10.7055C8.27175 10.6944 8.32191 10.6 8.23414 10.5611C7.8329 10.3668 7.39405 10.2169 6.94265 10.1003C10.7105 9.8726 15.8138 11.1053 17.751 11.9159Z" fill="#FFDCC0" fill-opacity="0.8"/>
    <path d="M0.717218 75.9869C0.767373 75.9369 0.692142 75.8703 0.635717 75.9147C-1.54601 77.5416 -7.30125 79.1852 -9.14444 76.2312C-7.05048 77.214 -4.24182 75.1374 -5.62107 73.0052C-6.98779 70.8952 -10.5237 71.9224 -11.182 73.9658C-11.9029 76.2257 -9.97826 78.0969 -7.59591 78.5744C-4.49886 79.1963 -1.35166 78.008 0.723488 75.9869H0.717218Z" fill="#FFDCC0" fill-opacity="0.8"/>
    <path d="M58.8966 -2.60956C54.9908 -7.5902 46.2075 -10.4331 39.1733 -5.72455C38.7031 -5.4136 38.8974 -4.85835 39.5056 -4.9694C47.8626 -6.4908 54.0253 7.04634 52.1195 8.58995C51.2104 9.25626 51.9627 10.7888 53.3796 10.6055C60.3448 9.70046 62.6018 2.11012 58.8966 -2.61511V-2.60956ZM54.3388 8.67879C56.2572 4.6865 52.8028 1.34386 50.7402 -0.7439C50.5897 -0.893819 50.4393 -1.03819 50.2825 -1.18255C51.5866 -0.582876 52.6837 0.227798 53.7369 1.37162C53.7557 1.39383 53.7996 1.36607 53.7808 1.33831C52.7903 -0.360774 51.2606 -2.08762 49.5616 -3.3425C52.5332 -2.24309 54.9595 -0.299695 55.6428 2.63206C55.6491 2.65982 55.7055 2.65427 55.7055 2.6265C55.4359 0.305533 54.3012 -1.75447 52.4078 -3.30363C54.157 -2.4874 55.5927 -1.23253 56.5017 0.355506C56.5205 0.383269 56.5707 0.366611 56.5581 0.333297C55.7807 -1.67673 54.6021 -3.43689 52.6774 -4.73064C53.6868 -4.26977 54.6335 -3.66455 55.4861 -2.86498C59.0157 0.455453 58.6521 6.59103 54.3325 8.67324L54.3388 8.67879Z" fill="#FFDCC0" fill-opacity="0.8"/>
    <path d="M46.8469 50.6284C50.9283 49.1514 53.8498 45.0147 55.0848 41.4167C56.2948 37.8964 56.3763 32.5992 51.3734 31.5442C51.3671 31.5442 51.3609 31.5442 51.3546 31.5442C52.4078 27.4242 52.878 22.5213 48.339 20.3392C48.1071 20.2281 47.8626 20.1615 47.6243 20.1282C47.6243 20.1115 47.6243 20.0948 47.6306 20.0782C48.5271 14.2758 49.0287 5.34726 44.521 0.483215C42.96 -1.20476 40.634 -2.36525 38.2329 -2.35414C36.2957 -5.81339 32.8413 -8.67851 28.1706 -8.4564C22.5407 -8.18988 19.4562 -3.47576 20.8731 1.11065C22.71 7.06855 29.7317 9.32844 32.8036 14.4479C36.559 20.7112 36.9539 27.9018 35.2549 34.7258C35.1923 34.9868 35.6311 35.0979 35.7063 34.8369C35.838 34.4038 35.9446 33.9762 36.0574 33.5487C38.1451 28.5403 38.841 23.0322 38.7093 17.7184C38.6655 15.8694 38.4774 14.0259 38.2078 12.1936C38.446 12.7377 38.6467 13.2819 38.772 13.8427C39.7751 18.3736 39.1482 23.4042 38.5777 27.9462C38.5777 27.9795 38.6341 27.985 38.6404 27.9517C39.8127 23.2432 41.4177 18.5457 41.4052 13.6872C41.449 14.1092 41.4867 14.5312 41.5055 14.9532C41.8942 24.0649 39.2987 32.6769 35.6311 41.1168C35.6186 41.1502 35.675 41.1668 35.6938 41.1335C37.8818 36.4249 40.3645 31.8496 41.9004 26.9245C42.9474 23.5708 43.5932 20.0449 43.9442 16.5412C43.8377 23.493 41.2296 29.8285 39.2046 36.4693C39.1984 36.4971 39.2422 36.5193 39.2611 36.4916C41.424 32.0495 43.3361 27.3021 44.4583 22.4825C44.1323 24.5536 43.6559 26.6025 43.0603 28.618C40.145 38.5682 34.2581 47.6633 27.5374 56.0588C34.6155 47.5189 41.587 38.8236 45.3235 28.8457C45.2483 32.627 43.0916 36.5138 41.2296 39.7898C37.5307 46.2974 32.5027 52.072 27.738 57.9744C27.7192 58.0022 27.7631 58.0299 27.7882 58.0077C32.8601 53.077 37.7313 47.9465 41.8879 42.3662C42.2202 41.922 42.5587 41.4667 42.9035 40.9891C42.1324 42.7604 41.2296 44.5095 40.1513 46.2419C36.1828 52.6328 30.5216 58.4297 24.1206 63.0106C24.0955 63.0328 24.1269 63.0717 24.1582 63.055C31.1736 58.5019 36.7721 52.9271 41.192 46.2752C44.6088 41.1335 47.5805 35.3977 49.2356 29.5064C49.0663 30.8668 48.7215 32.2105 48.4832 33.2655C47.0977 39.3345 44.1449 44.9203 40.2453 50.0342C32.2833 60.462 20.9233 68.2688 10.2967 76.42C10.2717 76.4422 10.303 76.4811 10.3344 76.4644C22.1897 69.185 33.813 61.0783 41.9945 50.3952C45.0351 46.4251 47.6369 42.0552 49.4424 37.491C49.3672 41.5777 48.1259 45.2146 45.1605 48.635C45.0351 48.7794 45.2984 48.9404 45.4363 48.8238C48.0256 46.6472 50.0694 43.9598 51.317 41.0113C51.2794 41.4778 51.2104 41.9442 51.0975 42.4161C50.5458 44.6982 49.0914 46.5695 47.3861 48.3018C47.3234 48.3629 47.4049 48.474 47.4927 48.424C49.3045 47.3746 50.9784 45.8421 52.2636 44.0764C51.0098 46.6527 48.9221 48.4629 46.8281 50.5784C46.8093 50.5951 46.8281 50.6339 46.8595 50.6228L46.8469 50.6284ZM34.2769 9.60052C35.8443 12.0492 35.907 15.0864 36.2957 17.8738C36.5214 19.4896 36.6279 21.0943 36.653 22.6934C36.0574 18.5512 34.5653 14.509 32.3648 10.4834C31.2488 8.43448 29.8759 6.82979 28.1894 5.12515C26.3525 3.2817 24.2648 1.21615 24.3463 -1.42131C24.4341 -4.28643 27.6879 -5.81894 30.6345 -5.56907C33.1798 -5.35252 35.28 -3.91441 36.8787 -2.20978C36.5025 -2.13204 36.1264 -2.03209 35.7565 -1.88773C33.0168 -0.843846 29.6564 2.38219 34.2769 9.60607V9.60052Z" fill="#FFDCC0" fill-opacity="0.8"/>
    <path d="M53.8184 55.6979C59.1913 50.1509 62.8212 43.61 64.9716 36.5638C66.0499 33.0212 66.7834 29.3787 67.0091 25.7141C67.2097 22.4269 67.5671 18.3347 65.8367 15.3252C62.1629 8.94534 55.0723 11.5162 54.3012 13.2486C53.8999 14.1536 54.6272 16.7189 54.9657 17.0632C62.7334 31.4443 59.1724 49.218 46.8156 60.784C46.7905 60.8118 46.8344 60.8506 46.8595 60.8229C56.9531 51.5057 62.1128 39.6121 61.8808 27.2188C61.9874 27.5686 62.0814 27.924 62.1566 28.2849C63.0406 32.577 62.3071 36.9691 60.9968 41.1335C60.9843 41.1668 61.0407 41.1779 61.0532 41.1446C62.8463 37.0912 63.5672 32.888 63.7929 28.557C63.9685 25.2032 64.3008 21.0999 62.9905 17.7517C63.7992 19.1954 64.0375 21.5941 64.1816 22.4492C64.5265 24.5647 64.6832 26.7135 64.6832 28.8513C64.6832 38.6848 60.5329 47.9187 53.7808 55.6479C53.7557 55.6757 53.7996 55.709 53.8247 55.6868L53.8184 55.6979Z" fill="#FFDCC0" fill-opacity="0.8"/>
    <path d="M72.0371 16.2581C72.0309 16.2914 72.0873 16.308 72.0998 16.2747C75.0025 7.87924 74.3881 -1.88771 70.0999 -10H66.9025C72.3569 -2.35412 73.7549 7.46836 72.0371 16.2581Z" fill="#FFDCC0" fill-opacity="0.8"/>
    <path d="M70.1062 3.85363C70.3946 -1.03262 68.9025 -5.83003 66.1377 -10H63.5861C67.3539 -6.14652 69.5043 -1.30469 69.987 3.85363C69.987 3.92026 70.0999 3.92026 70.1062 3.85363Z" fill="#FFDCC0" fill-opacity="0.8"/>
    <path d="M68.9025 24.3592C69.7739 14.3757 70.1438 4.39778 65.1409 -4.85278C64.2632 -6.47968 63.0156 -8.28426 61.4984 -10H55.1977C58.5142 -7.99553 61.3479 -5.58572 63.4231 -2.53736C68.7708 5.33616 68.6203 15.4751 68.8523 24.3592C68.8523 24.3925 68.9087 24.3925 68.9087 24.3592H68.9025Z" fill="#FFDCC0" fill-opacity="0.8"/>
    <path d="M31.2238 73.827C23.6379 78.4245 14.6038 80.2624 5.98972 82.7277C5.9521 82.7389 5.97091 82.7833 6.00226 82.7777C22.0329 80.479 41.0353 74.2823 46.6965 60.0233C49.1603 54.8484 45.963 50.1231 43.6684 50.3064C43.0665 54.021 37.7188 60.5619 36.0198 62.5164C32.6156 66.4199 28.4151 69.7792 23.7758 72.4944C14.7668 77.7693 4.74212 80.7399 -5.58346 82.3668C-5.58973 82.4057 -5.58973 82.4446 -5.60227 82.4834C-5.65243 82.6556 -5.72766 82.8221 -5.81543 82.9832C5.39413 82.2558 16.8168 78.8909 26.1017 73.505C28.459 72.139 30.7097 70.6176 32.8036 68.9463C29.6815 71.9724 26.0767 74.6599 22.4028 77.053C22.3401 77.0919 22.3966 77.1752 22.4592 77.1419C24.6347 76.148 33.0795 71.606 39.1545 66.8419C36.9916 69.6348 34.1453 72.0502 31.2238 73.8215V73.827Z" fill="#FFDCC0" fill-opacity="0.8"/>
    <path d="M-5.06937 71.9669C-4.92518 71.9669 -4.77471 71.9391 -4.63679 71.8725C-4.29198 71.7115 3.81427 67.9024 5.87688 60.1233C5.996 59.6735 5.68253 59.2293 5.17471 59.1238C4.6669 59.0183 4.16535 59.2959 4.04623 59.7457C2.18424 66.7641 -5.42672 70.3622 -5.50196 70.3955C-5.95962 70.6065 -6.14143 71.1118 -5.90319 71.5171C-5.73392 71.8003 -5.40792 71.9669 -5.06937 71.9669Z" fill="#FFDCC0" fill-opacity="0.8"/>
    <path d="M2.13408 58.5074C2.22185 58.0521 1.87703 57.6246 1.36295 57.5468C0.855133 57.4747 0.366126 57.7745 0.278355 58.2298C-1.07582 65.3371 -8.41721 69.3516 -8.49244 69.3904C-8.93756 69.6292 -9.08176 70.14 -8.81218 70.5343C-8.63663 70.7952 -8.32317 70.9341 -8.00343 70.9341C-7.84043 70.9341 -7.67116 70.8952 -7.52069 70.8119C-7.18842 70.6342 0.629436 66.381 2.13408 58.5019V58.5074Z" fill="#FFDCC0" fill-opacity="0.8"/>
  </g>
  <defs>
    <clipPath id="clip0_807_63768">
      <rect width="150" height="175" fill="white" transform="translate(-15 -10)"/>
    </clipPath>
  </defs>
</svg>