<svg xmlns="http://www.w3.org/2000/svg" width="120" height="200" viewBox="0 10 150 225" fill="none"><path d="M71.2126 1.50262C70.5003 2.3541 69.966 3.55618 69.966 4.30746 69.966 5.00868 69.788 5.7099 69.5654 5.86017 69.3428 6.01042 69.1647 6.71164 69.1647 7.46294 69.1647 8.56485 68.4524 9.4664 65.5586 12.0208c-3.517 3.1054-7.3901 8.6149-6.8114 9.6167C59.1034 22.3387 63.2882 24.6427 65.336 25.2938 67.6956 26.0451 67.8291 26.8966 65.5586 27.2973 64.5792 27.4976 62.932 28.0986 61.9526 28.6496c-2.0479 1.152-5.6985 4.8083-5.6985 5.6598.0.300500000000007 1.8698 1.1019 4.1403 1.8031C62.932 36.8638 64.4902 37.6151 64.4902 38.0158c0 .3506-1.024 1.0518-2.226 1.5026-4.1403 1.6028-8.236 4.9085-7.5682 6.1607C54.8295 45.8794 56.2096 46.5806 57.8123 47.2318 59.415 47.8328 60.7061 48.6342 60.7061 48.9848 60.7061 49.2853 61.1512 49.6359 61.6855 49.7361c1.7807.3005 1.291 1.2021-1.113 2.0535-3.3835 1.2021-6.3662 3.6063-7.7018 6.2108-.6678 1.2021-1.0685 2.3541-.8904 2.5043C52.1139 60.655 53.8056 60.9054 55.6754 61.0056 57.5897 61.1058 59.5486 61.4063 60.0383 61.6567 60.528 61.8571 61.2848 62.2077 61.7745 62.3579 62.4423 62.6084 62.4868 62.8087 62.0416 63.4098 61.73 63.8104 61.2403 64.1611 60.9286 64.1611 60.617 64.1611 59.0143 64.9624 57.3226 65.9141 54.1617 67.6671 49.7098 72.1749 50.1995 73.0765 50.5557 73.7276 55.0966 75.681 56.2096 75.681 56.6993 75.681 57.1445 76.0316 57.3226 76.4323 57.4562 76.833 58.0349 77.1836 58.5691 77.1836 59.5486 77.2337 59.5486 77.2838 58.2575 78.4858 57.5452 79.137 55.7199 80.4392 54.2508 81.3408 51.5351 82.9436 47.3503 87.0507 47.3503 88.0524 47.3503 88.7035 50.066 89.8555 53.8056 90.8072 56.2541 91.4082 56.4767 91.6086 56.6103 92.8607 56.7438 94.163 56.8774 94.2632 58.0794 93.9626 60.0383 93.4618 62.0416 94.1129 62.0416 95.2148c0 1.0017-.712299999999999 1.2522-5.3868 1.703C53.8056 97.1682 50.3331 98.9212 47.3948 101.626 45.6141 103.229 43.7888 105.933 43.7888 106.885 43.7888 107.586 47.4393 109.089 49.9324 109.439 53.5385 109.94 54.4734 110.491 54.4734 112.044 54.4734 113.296 54.5624 113.346 55.9425 112.996 56.6993 112.795 57.7678 112.645 58.213 112.645 59.3705 112.695 60.4389 113.997 60.1273 114.949 59.9047 115.6 59.3705 115.7 57.2336 115.45 55.2302 115.199 54.2953 115.35 53.0933 116.001 49.7098 117.954 42.4532 125.467 42.4532 127.07 42.4532 127.921 44.9018 128.773 47.5284 128.823 51.0009 128.823 52.8707 129.725 53.0488 131.427 53.1823 132.78 53.1823 132.78 54.4734 131.928 55.6754 131.177 55.8089 131.177 56.8774 131.978 57.7233 132.579 58.0349 133.231 58.0349 134.332V135.835L55.6309 135.535C53.5385 135.234 52.9152 135.384 50.8228 136.536 45.7476 139.391 40.0937 144.25 37.4225 148.056l-1.7362 2.505L37.378 151.412C38.58 152.013 40.2718 152.314 42.8094 152.314 47.2167 152.314 48.2407 152.814 48.2407 154.818 48.2407 156.521 48.6414 156.621 50.7338 155.519 51.9358 154.868 52.47 154.818 53.8056 155.319 55.2302 155.87 55.3638 156.07 55.3638 157.873 55.3638 159.927 54.8295 160.327 53.7611 159.125 53.2268 158.474 52.8262 158.474 50.9118 159.125 45.8812 160.778 35.4192 166.538 31.3679 169.894 29.7652 171.196 27.7619 173.951 27.7619 174.903 27.7619 175.404 34.8849 178.409 37.5561 179.06 40.7615 179.811 41.1176 180.112 41.1176 182.165 41.1176 183.718 41.2512 183.868 42.3642 183.868 43.0319 183.868 44.0114 183.518 44.5456 183.117 45.3469 182.466 45.9257 182.466 49.1756 183.117 51.2235 183.518 52.9597 183.868 53.0488 183.868 53.0933 183.868 53.1378 184.77 53.1378 185.922 53.1378 187.625 53.0042 187.925 52.381 187.675 49.9324 186.573 47.4393 186.373 42.7648 186.873 33.6829 187.825 28.9194 189.478 18.4129 195.388 15.1184 197.241 10.9782 199.345 9.1974 200.096 5.45779 201.699.872322 204.855.160016 206.407-.685848 208.21 1.94078 211.716 5.2352 213.069 5.68039 213.269 7.95087 214.672 10.2213 216.224L14.4061 218.979V221.283 223.537L15.8753 223.236C16.6321 223.086 17.8341 222.485 18.5019 221.934 19.6594 220.982 19.882 220.982 26.0256 221.684 29.4536 222.084 32.3919 222.435 32.4364 222.435 32.9706 222.435 33.1042 229.848 32.7925 243.872L32.4364 260h1.6917 1.6472V247.478C35.7753 239.464 35.5973 234.957 35.3301 234.957 34.7514 234.957 34.7514 225.941 35.3301 224.238L35.7308 222.986 38.0903 223.787C39.3814 224.188 41.3847 225.09 42.5422 225.741L44.5901 226.893 44.6346 233.404C44.7237 239.164 44.6346 240.015 43.8778 240.867 43.4326 241.368 42.7203 241.919 42.3196 242.119 41.919 242.269 41.5628 242.92 41.5628 243.471 41.5628 244.273 41.2512 244.473 40.2272 244.473 38.9362 244.473 38.8917 244.523 38.8917 246.977v2.505h1.5581C41.8745 249.482 42.008 249.582 42.008 250.934 42.008 252.086 41.6964 252.587 40.806 253.088 39.6485 253.689 39.5595 254.04 39.4259 256.895L39.2923 260H74.507h35.17V258.047C109.677 255.242 108.876 252.988 107.852 252.988 107.184 252.988 107.006 252.637 107.006 251.235 107.006 249.632 107.095 249.482 108.342 249.482 109.633 249.482 109.677 249.432 109.677 246.977 109.677 244.523 109.633 244.473 108.342 244.473 107.273 244.473 107.006 244.273 107.006 243.421 107.006 242.82 106.65 242.269 106.116 242.119 105.626 241.969 105.225 241.518 105.225 241.167 105.225 240.767 105.047 240.466 104.78 240.466S104.335 237.511 104.335 232.552C104.335 223.437 104.379 223.286 108.742 221.433 112.437 219.83 112.615 219.931 112.927 223.837 113.372 229.097 113.283 237.461 112.793 237.461 112.526 237.461 112.348 241.568 112.348 248.73V260H114.04 115.687L115.598 247.829C115.554 241.167 115.376 235.307 115.197 234.756 114.886 233.855 115.331 219.931 115.687 219.53 116.444 218.678 128.598 218.128 129.043 218.929 129.176 219.179 129.711 219.43 130.2 219.43 130.646 219.43 131.046 219.63 131.046 219.931 131.046 220.181 131.892 220.432 132.872 220.432 134.83 220.432 134.875 220.432 133.94 217.076 133.495 215.473 135.409 213.72 138.971 212.368c5.297-1.904 12.02-6.862 10.907-7.964C149.21 203.703 138.615 197.342 135.142 195.589 133.272 194.637 129.978 193.285 127.796 192.583 125.659 191.932 120.718 190.029 116.845 188.426 112.972 186.773 108.564 185.17 107.095 184.82 104.29 184.169 103.756 184.219 95.0748 186.773 94.6296 186.924 94.5406 186.322 94.6296 184.519L94.7632 182.115 98.1021 181.464C101.263 180.863 103.311 180.913 105.581 181.664 106.472 181.965 106.561 181.815 106.561 179.961 106.561 177.958 106.605 177.858 108.475 177.357 113.506 175.955 119.694 172.398 120.228 170.595 120.273 170.295 119.827 169.744 119.115 169.293 118.447 168.842 114.752 166.288 110.924 163.683 107.05 161.079 102.866 158.524 101.575 158.024 98.4138 156.821 94.4515 156.771 93.3386 157.973 91.7804 159.526 90.9791 159.075 90.9791 156.571 90.9791 154.367 91.0236 154.367 92.8934 153.766 93.9173 153.466 95.609 153.215 96.6775 153.265 98.3692 153.315 98.5473 153.215 98.5473 152.113 98.5473 150.911 99.9274 150.11 103.934 148.908 105.581 148.407 111.013 144.55 111.013 143.899 111.013 143.348 109.588 141.144 108.564 140.143 106.917 138.49 101.575 135.835 98.1912 134.984 95.9207 134.433 93.8283 134.232 91.6023 134.433l-3.2944.25V132.78C88.3079 130.676 88.8867 130.275 92.003 130.275 93.2941 130.275 93.6502 130.075 93.6502 129.324 93.6502 127.921 94.5851 127.32 98.1466 126.469 101.708 125.617 103.756 124.465 104.735 122.662 105.314 121.61 105.225 121.41 102.821 118.906 99.8384 115.8 96.3659 114.348 90.6229 113.897 88.0408 113.697 86.8388 113.396 86.6607 112.895 86.26 111.794 86.8833 111.493 89.3319 111.493 91.2017 111.493 91.6469 111.343 91.6469 110.642 91.6469 109.439 92.1811 109.039 94.9858 108.087S101.575 104.631 101.975 103.429C102.376 102.177 99.6158 99.4221 95.6981 97.2684 91.2017 94.8141 88.7976 94.1129 85.9039 94.3132 83.9005 94.4635 83.6334 94.3633 83.6334 93.4618 83.6334 92.6103 83.945 92.46 85.5922 92.46 87.1504 92.46 87.5956 92.2597 87.8627 91.4082 88.0853 90.8072 88.9312 90.1561 90.1332 89.7554 92.7153 88.9039 96.9001 86.4997 97.6569 85.4479 98.1466 84.7467 98.0131 84.3961 96.5439 82.6931 94.0509 79.7881 91.2017 78.586 86.8833 78.6361 83.1437 78.6862 81.63 78.1352 81.63 76.8831 81.63 75.9314 82.8766 75.3805 83.5444 76.1318 84.3012 76.9832 85.1916 76.7829 85.1916 75.7812 85.1916 75.1801 86.6162 74.1283 89.8661 72.2751 92.4482 70.7725 94.5406 69.4202 94.5406 69.1697c0-.600999999999999-2.5376-2.905-4.4519-4.0069C89.1538 64.6118 87.0614 63.9607 85.4142 63.6602 83.767 63.3597 82.0307 62.9089 81.5855 62.6084 80.6506 62.0574 80.4725 61.1559 81.2739 61.1559 82.2088 61.1559 90.1777 56.4978 90.4003 55.8467 90.7565 54.7949 89.1983 52.7413 87.2395 51.6895 86.2155 51.0884 84.1231 50.4874 82.6095 50.3371 81.0958 50.1368 79.8493 49.8363 79.8493 49.686 79.8938 48.6843 81.0958 47.7326 84.5238 46.1299L88.3524 44.2266l-1.3801-1.7531C85.3697 40.42 81.5855 38.116 79.7602 38.116c-2.8937.0.0-2.7548 4.6746-4.4578C85.3251 33.3076 86.082 32.7567 86.082 32.356 86.082 31.6047 83.4998 28.9 81.7191 27.8983 81.0513 27.4976 79.6712 27.0468 78.7363 26.8465 75.5309 26.2454 75.4864 26.1453 78.024 24.2921 79.3596 23.3905 81.3629 22.2385 82.4759 21.7376 83.5889 21.2869 84.5683 20.8361 84.6573 20.786 84.9245 20.5856 83.2773 17.33 81.6746 14.9258c-.8904-1.3523-2.6267-3.3057-3.8732-4.3575-1.9143-1.65285-2.2705-2.15372-2.0924-3.20554C75.8871 6.46121 75.709 5.96031 75.2193 5.75996 74.8186 5.60971 74.507 4.85843 74.507 4.10712c0-.70121-.4452-1.95337-1.024-2.70468L72.5036.0 71.2126 1.50262z" fill="#1e1f1f"/></svg>