<svg xmlns="http://www.w3.org/2000/svg" width="153" height="130" viewBox="0 0 153 147" fill="none"><path d="M144.536.265625C146.573.265625 149.082 3.07319 144.536 3.70887 142.642 3.79716 136.43 4.39752 126.738 6.09265 117.045 7.78779 126.559 9.44761 132.528 10.0656h15.653c3.00199999999998.0 6.862 2.5957.0 3.4433-8.506 1.1477-28.176 3.1783-38.812 2.1189C106.796 15.3715 104.823 17.5348 108.94 17.7467 111.299 17.3053 119.404 16.8991 132.956 18.8062 134.6 18.8945 137.352 19.3359 135.208 20.3954 133.064 21.4548 131.598 23.3089 131.134 24.1035 130.633 25.1629 128.496 27.4937 123.95 28.3413S122.699 29.9305 124.915 30.1954C125.987 30.1954 126.502 32.844 122.556 32.844L96.8243 33.9035C94.7872 33.9035 92.3855 35.4927 96.5027 35.4927L106.045 35.7575c1.501-.264800000000001 3.259 1.6952.0 2.1189C104.33 38.5827 99.8693 39.9424 95.7522 39.7305 92.3212 40.5781 95.6807 41.4963 97.7893 41.8494 99.0401 41.9377 101.971 42.5381 103.686 44.2332 105.831 46.3521 106.259 47.9413 109.154 48.2062 111.47 48.4181 118.554 49.7071 121.806 50.3251 122.556 50.5017 124.508 51.2256 126.309 52.7089 128.11 54.1921 125.63 55.0927 124.165 55.3575L114.408 56.1521C113.121 56.0638 109.948 55.6224 107.546 54.5629 105.144 53.5035 105.688 55.1809 106.259 56.1521 106.617 56.5936 108.104 57.6883 111.191 58.5359 114.279 59.3835 120.341 61.008 122.985 61.7143 123.986 61.9791 125.237 62.9327 122.235 64.6278 118.482 66.7467 119.769 66.217 115.48 68.8656 112.049 70.9845 114.265 71.1611 115.802 70.9845 117.446 71.0728 119.747 71.8851 115.802 74.4278 111.856 76.9705 106.867 78.3125 104.866 78.6656 103.865 79.0188 102.378 79.7251 104.437 79.7251 106.495 79.7251 111.942 80.0782 114.408 80.2548 115.587 80.4314 117.003 81.3143 113.229 83.4332 109.454 85.5521 104.58 87.4945 102.614 88.2008L96.0738 89.5251C95.6449 89.7017 95.0874 90.1078 96.2882 90.3197 97.4891 90.5316 103.722 91.2908 106.688 91.644 107.832 91.8206 109.304 92.8624 106.045 95.617 104.472 96.4116 100.212 97.6829 95.7522 96.4116 91.2919 95.1402 95.0374 97.6476 97.4676 99.0602 98.3968 99.3251 100.727 99.8018 102.614 99.59 104.501 99.3781 98.9687 102.503 95.9666 104.093 94.1796 105.24 91.2705 107.589 93.9295 107.801 96.5884 108.013 97.6821 108.949 97.8965 109.39 98.6113 110.096 99.2903 111.562 96.2882 111.774 93.2862 111.986 91.0346 111.862 90.2841 111.774 89.5336 112.039 88.6973 112.727 91.3562 113.363 94.0152 113.999 99.3975 115.217 101.756 115.747 103.579 116.276 106.195 117.548 102.078 118.395L95.7522 117.866C94.3226 118.042 92.4284 118.713 96.2882 119.985 97.3247 120.161 99.8693 120.514 101.756 120.514 103.643 120.514 102.614 122.307 101.756 122.633 101.292 122.81 99.5047 123.163 96.0738 123.163 92.6429 123.163 95.5735 124.399 97.4676 125.017L104.437 126.606C105.33 126.783 106.431 127.719 103.686 130.049 100.255 132.963 90.9274 145.941 70.1273 147.001 68.0544 146.294 62.7293 144.087 58.0117 140.909 53.2942 137.73 60.4777 135.523 64.6592 134.817 66.2675 134.111 68.0901 132.433 62.5149 131.374 60.5135 129.696 57.1111 125.706 59.5128 123.163 61.9145 120.62 64.2303 120.514 65.6242 119.985 67.8757 119.129 67.9615 115.853 62.3004 116.276 60.7994 116.453 55.6959 115.429 47.29 109.92 46.611 109.39 45.8533 108.383 48.255 108.595 50.6567 108.807 52.0433 108.33 52.4365 108.066 52.8653 107.712 53.2084 107.006 51.1499 107.006 49.0913 107.006 46.5038 106.476 45.4674 106.212 44.3237 105.594 42.7226 104.41 45.4674 104.622 48.2121 104.834 46.754 103.828 45.6818 103.298 45.11 103.033 43.4731 102.662 41.5003 103.298 42.3223 102.592 44.5882 101.285 47.0756 101.709 49.563 102.133 48.255 101.179 47.29 100.649 45.7366 99.8499 42.0204 98.7174 38.5935 99.9266 38.2008 100.099 37.8434 100.253 37.5333 100.385 37.8817 100.204 38.236 100.053 38.5935 99.9266 41.3688 98.7077 45.9045 96.5723 47.9333 95.0872 50.2492 93.3921 50.8282 92.6152 50.8282 92.4386 48.3265 92.7035 42.3366 92.9154 38.391 91.644 34.4454 90.3727 40.6783 88.9954 44.288 88.4656L53.2942 87.1413C54.7238 86.8764 56.1462 86.3997 50.8282 85.5521 48.3622 84.7575 44.7168 86.5056 40.4282 86.0818 37.3546 85.3755 32.1081 83.3802 35.7106 81.0494 33.4948 78.6656 30.2211 73.1035 34.8529 69.9251 35.8178 69.3954 37.1044 67.9651 34.5312 66.4818 31.958 64.9986 37.2474 64.6278 40.2137 64.6278h8.6846C50.4351 64.4512 52.1577 63.8332 46.754 62.7737L35.2817 61.9791C32.3154 61.7143 27.9481 60.5489 34.2096 58.0062 36.068 57.3881 40.8141 56.1521 44.9313 56.1521c4.1171.0 2.7161-.706299999999999 1.501-1.0594L36.7828 54.5629C33.8879 54.2981 29.2561 53.5564 33.8879 52.7089 35.8178 52.3557 39.4418 51.0137 42.3581 50.59 43.6804 50.4134 45.4674 49.5305 41.7148 49.5305H36.2467c-3.288.0-8.6631-.423800000000007-3.8598-2.1189C34.6027 46.617 39.9993 44.9218 43.8591 44.4981c3.8598-.4238 5.3251-1.0595 5.5753-1.3244C50.0419 42.9089 50.5066 42.8559 47.9333 42.644 44.6096 42.9972 36.9329 43.4916 32.8157 42.644c-4.1171-.8476-5.4323-1.4126-5.5752-1.5892C26.347 40.1719 25.1819 38.3002 27.6693 37.8764 28.3126 37.6116 29.878 36.5521 30.9931 34.4332 32.1081 32.3143 30.5284 31.7845 29.5992 31.7845 26.8473 31.5197 20.6359 30.6721 17.8054 29.4008c-2.8306-1.2714-1.1794-1.7658.0-1.8541C19.5923 27.1053 24.0239 26.1694 27.4549 25.9575c3.4309-.2119 7.0763-2.5603 8.4701-3.7081C37.8192 20.2188 39.9778 15.9986 33.459 15.3629c-6.5187-.6357-11.7223-4.1495-13.5093-5.827-1.2866-1.23604-5.0606-3.3373-9.864-1.85406-1.21509.17658-4.43875.10595-7.61238-1.58919-3.17362-1.69513-.96495-1.94234.53609-1.85405 2.60895.26486 8.83469.63567 12.86609.0.9292-.17658 3.002-.7946 5.6825-3.972975H22.4157 144.536z" fill="url(#paint0_linear_807_60191)"/><defs><linearGradient id="paint0_linear_807_60191" x1="76.3459" y1=".53049" x2="76.3459" y2="147.266" gradientUnits="userSpaceOnUse"><stop stop-color="#1c1d15"/><stop offset="1" stop-color="#1b1d15"/></linearGradient></defs></svg>