<svg xmlns="http://www.w3.org/2000/svg" width="390" height="117" viewBox="0 0 390 117" fill="none">
  <path d="M386.146 8.37473C387.653 5.68896 388.772 2.80786 390.012 0H0C1.72658 3.39384 3.3802 6.83652 5.17973 10.1815C7.12517 13.7951 9.07062 17.4087 11.9158 20.4363C14.5422 23.1953 16.8524 26.2962 19.5517 28.9575C23.8073 33.1815 28.6709 36.673 33.7777 39.7983C36.3311 41.3609 38.8359 42.9968 41.4865 44.413C45.2801 46.4395 49.2683 48.1242 53.4267 49.3206C56.588 50.1996 59.7737 51.0786 62.9593 51.8355C65.4154 52.4214 67.9202 52.8853 70.4249 53.2028C74.0483 53.6423 77.696 53.9352 81.3194 54.1794C84.116 54.3747 86.9369 54.448 89.7334 54.4236C92.0923 54.3992 94.4754 54.2527 96.8343 53.9352C100.822 53.3981 104.811 52.7389 108.799 52.0064C111.741 51.4692 114.684 50.8344 117.578 50.0287C121.614 48.8811 125.627 47.587 129.615 46.2442C132.995 45.0966 136.302 43.7781 139.658 42.5329C139.926 42.4352 140.193 42.362 140.485 42.2887L140.159 51.2739C140.208 54.2038 141.01 57.0117 142.129 59.7218C143.734 63.5796 145.898 67.1932 148.5 70.465C149.886 72.2229 151.637 73.7123 153.242 75.2993C154.361 76.3981 155.479 77.5212 156.671 78.4734C159.905 81.0616 163.164 83.5764 166.422 86.0913C169.559 88.4841 172.818 90.7059 175.882 93.1964L176.25 93.4972C180.214 96.7422 184.19 99.9976 187.847 103.598L193.596 113.682C194.127 114.354 194.807 116.498 196 116.5C197 116.5 197.855 114.5 198.192 113.682C199.578 110.312 201.402 106.088 203.979 103.598C207.636 99.9976 211.612 96.7422 215.577 93.4971L215.944 93.1964C219.008 90.7059 222.267 88.4841 225.404 86.0913C228.662 83.5764 231.921 81.0616 235.155 78.4735C236.347 77.5212 237.465 76.3981 238.584 75.2994C240.189 73.7123 241.94 72.2229 243.326 70.465C245.928 67.1932 248.092 63.5796 249.697 59.7219C250.816 57.0117 251.618 54.2038 251.667 51.2739L251.673 51.0595C251.744 48.3487 251.815 45.6618 250.986 43.0212C250.792 42.4352 251.156 42.2155 251.764 42.4841C252.688 42.8747 253.637 43.1921 254.585 43.5584C260.227 45.707 265.82 47.9777 271.51 50.0042C274.234 50.9565 277.079 51.689 279.949 52.2017C283.548 52.8854 287.22 53.2516 290.868 53.7155C294.029 54.0817 297.166 54.5701 300.327 54.6433C305.142 54.741 310.006 54.741 314.797 54.3747C318.25 54.1062 321.654 53.2028 325.059 52.4703C328.463 51.7378 331.892 50.9809 335.224 50.0287C338.361 49.1253 341.522 48.173 344.465 46.7813C348.307 44.9989 352.027 42.8747 355.675 40.7017C360.101 38.0403 364.259 34.9883 368.029 31.4724C370.023 29.6168 371.749 27.517 373.549 25.466C375.737 23.0244 378.023 20.6316 379.969 17.9947C382.206 14.9183 384.273 11.6953 386.146 8.37473Z" fill="#A68E74"/>
</svg>